<svg width="364" height="364" viewBox="0 0 364 364" fill="none" xmlns="http://www.w3.org/2000/svg">
<rect width="311" height="242" transform="translate(47.4277 40.5542) rotate(8.83434)" fill="white"/>
<path d="M58.5763 126.226C56.4855 125.901 55.5326 125.144 55.7176 123.953C55.8626 123.021 56.5141 122.644 57.672 122.824L59.9987 123.433C61.9287 123.733 63.3989 122.858 64.4093 120.808C65.2411 119.059 66.0244 115.821 66.7593 111.092L72.0536 77.0287C72.7885 72.3003 73.0433 69.1773 72.8179 67.6599C72.5975 66.1103 72.2057 65.0281 71.6424 64.4135C71.1162 63.7717 70.3546 63.3733 69.3574 63.2183L66.9632 63.0439C65.8052 62.8639 65.2988 62.3075 65.4437 61.3747C65.6287 60.1845 66.6058 59.727 68.3749 60.0019C70.144 60.2769 71.7966 60.6655 73.3328 61.1678C74.9011 61.6751 76.5537 62.0637 78.2907 62.3337C80.0276 62.6036 81.7042 62.7324 83.3203 62.7201C84.9686 62.7127 87.0311 62.9015 89.5079 63.2865C92.0168 63.6764 94.6402 64.4959 97.378 65.745C100.116 66.9941 102.351 68.5109 104.083 70.2955C107.693 73.9862 109.106 78.3565 108.321 83.4066C107.451 89.0034 104.401 93.4709 99.1715 96.8089C97.4919 97.8656 95.6814 98.7042 93.7402 99.3249L118.029 153.953C119.393 156.834 121.094 158.712 123.132 159.589C123.719 159.845 124.471 160.093 125.388 160.335C127.004 160.751 127.739 161.425 127.594 162.358C127.454 163.259 126.5 163.571 124.73 163.296L115.467 161.857C113.247 161.512 111.462 159.752 110.11 156.577L88.8262 105.825C87.9975 103.95 87.1396 102.582 86.2524 101.719C85.3702 100.824 83.8838 100.214 81.793 99.8894C79.7344 99.5694 77.9256 99.3377 76.3666 99.1942L74.3344 112.27C73.5795 117.127 73.3012 120.295 73.4994 121.776C73.7347 123.229 74.1155 124.276 74.6416 124.918C75.205 125.533 76.0013 125.92 77.0306 126.08L79.384 126.199C80.542 126.379 81.0485 126.935 80.9035 127.868C80.7185 129.058 79.5967 129.493 77.5381 129.173C76.4767 129.008 75.3658 128.737 74.2057 128.359C70.4408 127.148 67.1452 126.52 64.3189 126.476C61.5198 126.469 59.6056 126.386 58.5763 126.226ZM77.0265 94.9483C79.0823 95.4985 81.0752 95.9235 83.0051 96.2234L86.0448 96.6959C89.1649 97.1808 91.9675 96.5293 94.4526 94.7413C97.3464 92.6544 99.1258 89.472 99.7907 85.1939C100.591 80.0474 99.663 75.7359 97.0078 72.2596C94.5207 68.974 90.9772 66.9738 86.3775 66.2589C84.7371 66.004 83.4958 66.0417 82.6539 66.372C81.8119 66.7023 81.3059 67.4143 81.1359 68.508L77.0265 94.9483Z" fill="black"/>
<path d="M122.81 110.168L73.9702 154.19L82.3694 155.495L131.21 111.473L122.81 110.168Z" fill="black"/>
<line x1="167.475" y1="140.679" x2="325.577" y2="165.251" stroke="black" stroke-width="5"/>
<line x1="171.468" y1="114.987" x2="329.57" y2="139.56" stroke="black" stroke-width="5"/>
<line x1="175.461" y1="89.2955" x2="333.563" y2="113.868" stroke="black" stroke-width="5"/>
</svg>
