<svg width="364" height="364" viewBox="0 0 364 364" fill="none" xmlns="http://www.w3.org/2000/svg">
<path d="M62.1404 96.3728C120.193 29.5799 196.79 64.4278 231.683 92.9475C234.331 95.1122 237.77 96.3575 241.189 96.431C414.302 100.156 328.124 281.593 274.787 329.27C274.174 329.818 273.527 330.282 272.814 330.692C234.504 352.711 191.855 325.258 180.569 313.971C176.441 309.843 181.789 315.109 178.593 319.994C162.008 345.351 92.0655 330.651 62.1404 310.944C29.1619 289.227 -13.363 183.244 62.1404 96.3728Z" fill="#FF0000"/>
<path fill-rule="evenodd" clip-rule="evenodd" d="M285.073 30.3038C287.392 35.0104 285.456 40.7054 280.749 43.0241C270.029 48.3053 254.893 57.8388 244.218 69.0045C233.088 80.646 229.74 90.6699 233.644 98.9511L237.644 115.646L224.509 119.646L216.458 107.053C207.162 87.3343 218.231 68.6916 230.484 55.8747C243.193 42.5821 260.406 31.8656 272.353 25.9801C277.059 23.6615 282.754 25.5972 285.073 30.3038Z" fill="#DE9751"/>
<path d="M233 295.5C248 290.333 278.4 273.7 280 248.5" stroke="white" stroke-width="19" stroke-linecap="round"/>
</svg>
