<svg width="361" height="364" viewBox="0 0 361 364" fill="none" xmlns="http://www.w3.org/2000/svg">
<path d="M180 45C305.5 45 305.5 323.5 305.5 323.5C305.5 323.5 264.5 343 180 343C95.5005 343 54 323.5 54 323.5C54 323.5 54.5005 45 180 45Z" fill="#FED002"/>
<path fill-rule="evenodd" clip-rule="evenodd" d="M135.508 109.175C137.897 110.56 138.71 113.62 137.325 116.008C123.229 140.311 113.528 173.062 107.277 204.233C101.038 235.343 98.3256 264.421 97.9986 281.098C97.9444 283.859 95.6624 286.053 92.9015 285.999C90.1406 285.945 87.9464 283.663 88.0005 280.902C88.3402 263.579 91.1273 233.907 97.4721 202.267C103.805 170.688 113.77 136.689 128.674 110.991C130.06 108.603 133.119 107.789 135.508 109.175Z" fill="#A08612" fill-opacity="0.41"/>
</svg>
