<svg width="360" height="364" viewBox="0 0 360 364" fill="none" xmlns="http://www.w3.org/2000/svg">
<circle cx="234.208" cy="241.021" r="76.5998" fill="#FF0000"/>
<path fill-rule="evenodd" clip-rule="evenodd" d="M196.14 261.247C199.072 263.364 199.732 267.456 197.615 270.388C197.614 270.388 197.613 270.388 197.611 270.389C197.579 270.397 197.344 270.461 197.804 271.489C198.436 272.9 199.977 274.879 202.618 277.23C207.803 281.846 215.292 286.217 220.677 288.806C223.936 290.373 225.308 294.284 223.741 297.543C222.174 300.802 218.262 302.174 215.004 300.607C209.04 297.74 200.358 292.749 193.912 287.01C190.737 284.183 187.597 280.736 185.852 276.837C183.965 272.619 183.599 267.429 187 262.721C189.117 259.79 193.209 259.13 196.14 261.247Z" fill="white"/>
<path fill-rule="evenodd" clip-rule="evenodd" d="M194.038 170.225C168.105 181.649 150 207.578 150 237.736C150 247.063 151.732 255.985 154.891 264.199C144.824 269.065 133.53 271.792 121.6 271.792C79.2949 271.792 45 237.497 45 195.193C45 152.888 79.2949 118.593 121.6 118.593C155.163 118.593 183.684 140.179 194.038 170.225Z" fill="#FF0000"/>
<path fill-rule="evenodd" clip-rule="evenodd" d="M84.8415 214.109C87.7727 216.226 88.4328 220.318 86.3158 223.249C86.3156 223.25 86.3143 223.25 86.3123 223.251C86.28 223.259 86.0454 223.323 86.5055 224.351C87.1371 225.762 88.6783 227.74 91.3193 230.092C96.5044 234.708 103.994 239.079 109.378 241.668C112.637 243.234 114.009 247.146 112.442 250.405C110.875 253.664 106.964 255.035 103.705 253.469C97.7415 250.602 89.0595 245.611 82.6128 239.872C79.4379 237.045 76.298 233.597 74.5535 229.699C72.666 225.481 72.3005 220.291 75.7008 215.583C77.8178 212.652 81.9102 211.992 84.8415 214.109Z" fill="white"/>
<path fill-rule="evenodd" clip-rule="evenodd" d="M260.238 78.9597L248.225 102.571C239.517 119.688 234.255 138.348 232.738 157.492L229.654 196.433C229.254 201.479 233.021 205.894 238.067 206.294C243.114 206.694 247.529 202.927 247.928 197.88L251.013 158.94C252.34 142.189 256.944 125.861 264.563 110.884L286.287 68.1869C291.559 57.8242 280.23 46.8967 270.064 52.5394L218.253 81.298C207.61 87.2053 197.76 94.4377 188.936 102.822L142.129 147.302C138.459 150.789 138.311 156.591 141.798 160.26C145.285 163.93 151.087 164.078 154.757 160.591L201.564 116.111C209.264 108.793 217.861 102.481 227.149 97.326L260.238 78.9597Z" fill="#DE9751"/>
</svg>
