<svg width="364" height="364" viewBox="0 0 364 364" fill="none" xmlns="http://www.w3.org/2000/svg">
<g clip-path="url(#clip0_15_6453)">
<path d="M160 240.473V355C160 359.971 164.029 364 169 364H175.5C180.471 364 184.5 359.971 184.5 355V240.053C184.5 237.77 185.368 235.572 186.928 233.905L193.812 226.546C196.808 223.343 201.678 222.766 205.34 225.181L215.698 232.014C219.559 234.56 224.706 233.776 227.561 230.136C236.173 219.155 253.125 196.834 257 186.5C260.626 176.831 268.784 150.465 273.484 135.079C275.246 129.31 270.924 123.5 264.892 123.5H222.5H174.5H124H73.6908C67.6341 123.5 63.3355 129.336 65.2812 135.072C70.0935 149.258 78.7723 173.067 87 186.5C95.5959 200.534 110.347 219.492 118.382 229.553C121.472 233.422 127.099 233.972 130.936 230.842L136.984 225.908C140.441 223.088 145.441 223.225 148.737 226.231L157.064 233.823C158.934 235.528 160 237.942 160 240.473Z" fill="#FED002" stroke="black" stroke-opacity="0.17"/>
<path d="M104.911 123.7L167.898 76.6884C170.033 75.0949 172.963 75.1 175.093 76.7009L237.606 123.7C239.113 124.833 240 126.61 240 128.496V133C240 136.314 237.314 139 234 139H212.5C209.186 139 206.5 136.314 206.5 133V131.5C206.5 128.186 203.814 125.5 200.5 125.5H187.5C184.186 125.5 181.5 128.186 181.5 131.5V152.5C181.5 155.814 178.814 158.5 175.5 158.5H168C164.686 158.5 162 155.814 162 152.5V131.5C162 128.186 159.314 125.5 156 125.5H140.5C137.186 125.5 134.5 128.186 134.5 131.5V133C134.5 136.314 131.814 139 128.5 139H108.5C105.186 139 102.5 136.314 102.5 133V128.509C102.5 126.615 103.394 124.833 104.911 123.7Z" fill="#FF0000"/>
<path fill-rule="evenodd" clip-rule="evenodd" d="M64 64C71.1797 64 77 69.8203 77 77V149.044C77 155.332 78.6025 161.516 81.6562 167.012L96.4669 193.672C98.3772 197.11 100.824 200.222 103.714 202.891L117.459 215.578C128.322 225.605 134.5 239.716 134.5 254.5C134.5 261.68 128.68 267.5 121.5 267.5C114.32 267.5 108.5 261.68 108.5 254.5C108.5 246.973 105.354 239.788 99.8233 234.683L86.079 221.996C81.1573 217.452 76.9916 212.154 73.7388 206.298L58.9281 179.639C53.7286 170.28 51 159.75 51 149.044V77C51 69.8203 56.8203 64 64 64Z" fill="#040EF0"/>
<path fill-rule="evenodd" clip-rule="evenodd" d="M278.5 64C271.32 64 265.5 69.8203 265.5 77V149.044C265.5 155.332 263.898 161.516 260.844 167.012L246.033 193.672C244.123 197.11 241.676 200.222 238.786 202.891L225.041 215.578C214.178 225.605 208 239.716 208 254.5C208 261.68 213.82 267.5 221 267.5C228.18 267.5 234 261.68 234 254.5C234 246.973 237.146 239.788 242.677 234.683L256.421 221.996C261.343 217.452 265.508 212.154 268.761 206.298L283.572 179.639C288.771 170.28 291.5 159.75 291.5 149.044V77C291.5 69.8203 285.68 64 278.5 64Z" fill="#040EF0"/>
</g>
<defs>
<clipPath id="clip0_15_6453">
<rect width="364" height="364" fill="white"/>
</clipPath>
</defs>
</svg>
