<svg width="364" height="360" viewBox="0 0 364 360" fill="none" xmlns="http://www.w3.org/2000/svg">
<path d="M100 53.1421C100 50.49 101.054 47.954 103.196 46.3899C110.616 40.9708 131.43 29 170.5 29C209.514 29 230.921 40.9366 238.641 46.3666C240.879 47.9412 242 50.5489 242 53.2857V122C242 127.523 237.523 132 232 132H110C104.477 132 100 127.523 100 122V53.1421Z" fill="#47B8FF"/>
<path d="M153.5 130.5V329L175.5 337L193.5 329L196.75 315.75L193.5 302.5L200 276.25L195.5 259L190 222L195.5 179L200 164.5L195.5 147L200 130.5H153.5Z" fill="#D9D9D9"/>
<path fill-rule="evenodd" clip-rule="evenodd" d="M143 58.5C143 53.2533 147.253 49 152.5 49H195.5C200.747 49 205 53.2533 205 58.5C205 63.7467 200.747 68 195.5 68H152.5C147.253 68 143 63.7467 143 58.5Z" fill="black"/>
<path fill-rule="evenodd" clip-rule="evenodd" d="M175 144C178.866 144 182 147.134 182 151V308.5C182 312.366 178.866 315.5 175 315.5C171.134 315.5 168 312.366 168 308.5V151C168 147.134 171.134 144 175 144Z" fill="black" fill-opacity="0.17"/>
</svg>
