<svg width="361" height="360" viewBox="0 0 361 360" fill="none" xmlns="http://www.w3.org/2000/svg">
<rect x="90" y="51" width="211" height="269" fill="#DE9751"/>
<rect x="99" y="62" width="193" height="247" fill="white"/>
<rect x="160" y="40" width="71" height="27" fill="#D9D9D9"/>
<line x1="118" y1="87.5" x2="205" y2="87.5" stroke="black"/>
<line x1="118" y1="103.5" x2="205" y2="103.5" stroke="black"/>
<line x1="118" y1="119.5" x2="205" y2="119.5" stroke="black"/>
<line x1="118" y1="135.5" x2="275" y2="135.5" stroke="black"/>
<line x1="118" y1="151.5" x2="275" y2="151.5" stroke="black"/>
<line x1="118" y1="167.5" x2="275" y2="167.5" stroke="black"/>
<line x1="118" y1="183.5" x2="275" y2="183.5" stroke="black"/>
<line x1="118" y1="199.5" x2="275" y2="199.5" stroke="black"/>
<line x1="118" y1="215.5" x2="275" y2="215.5" stroke="black"/>
<line x1="118" y1="231.5" x2="275" y2="231.5" stroke="black"/>
<line x1="118" y1="247.5" x2="275" y2="247.5" stroke="black"/>
<line x1="118" y1="263.5" x2="275" y2="263.5" stroke="black"/>
</svg>
