<svg width="360" height="360" viewBox="0 0 360 360" fill="none" xmlns="http://www.w3.org/2000/svg">
<path d="M298 203.077C298 260.993 237.812 307.943 175.26 307.943C112.708 307.943 62 260.993 62 203.077C62 161.04 80.4609 91.283 175.26 119.463C278.042 96.3648 298 145.161 298 203.077Z" fill="#F77C23"/>
<path d="M175.375 119.346V72.4353C175.375 70.7593 176.416 69.2608 178.019 68.7703C181.706 67.6418 188.186 66.021 190.375 67.7714C193.5 70.2707 182.875 119.633 190.375 122.757C193.521 124.067 195.677 125.268 197.121 126.22C198.763 127.304 198.741 129.42 197.371 130.833L182.83 145.824C181.182 147.524 178.425 147.427 176.9 145.616L164.307 130.666C162.302 128.286 163.662 124.63 166.734 124.139L172.007 123.296C173.947 122.985 175.375 121.311 175.375 119.346Z" fill="#DF9851"/>
<path d="M187.75 73.5221C202.583 66.8554 235.35 59.5221 247.75 83.5221C260.15 107.522 212.917 86.8554 187.75 73.5221Z" fill="#00FF00"/>
</svg>
