<svg width="360" height="360" viewBox="0 0 360 360" fill="none" xmlns="http://www.w3.org/2000/svg">
<g clip-path="url(#clip0_16_6613)">
<ellipse cx="48.9224" cy="251.115" rx="40.9224" ry="41.7416" fill="#B9B9B9"/>
<path d="M68.8176 251.115C68.8176 262.576 59.7522 271.579 48.9225 271.579C38.0927 271.579 29.0273 262.576 29.0273 251.115C29.0273 239.654 38.0927 230.651 48.9225 230.651C59.7522 230.651 68.8176 239.654 68.8176 251.115Z" fill="#D9D9D9" stroke="#373737" stroke-width="17"/>
<path d="M258.09 223.927C214.684 223.927 169.169 127.37 167.931 79.0914L205.096 79.0914M258.09 223.927C301.496 223.927 351.643 127.37 352.5 79.0914H316.588M258.09 223.927C258.09 301.375 184.217 341.413 149.86 223.927C130.131 156.463 66.4676 131.927 51.4277 223.927" stroke="#373737" stroke-width="18" stroke-linecap="round" stroke-linejoin="round"/>
<rect x="191.733" y="62" width="38.417" height="32.371" rx="16.1855" fill="#D9D9D9"/>
<rect x="293.622" y="62" width="38.417" height="32.371" rx="16.1855" fill="#D9D9D9"/>
</g>
<defs>
<clipPath id="clip0_16_6613">
<rect width="360" height="360" fill="white"/>
</clipPath>
</defs>
</svg>
