<svg width="364" height="364" viewBox="0 0 364 364" fill="none" xmlns="http://www.w3.org/2000/svg">
<path d="M168.271 78.3672C-54.1264 78.3672 74.3027 245.514 166.975 342.019C167.712 342.787 168.874 342.846 169.675 342.146C262.349 261.134 391.644 78.3672 168.271 78.3672Z" fill="#FF0000"/>
<g clip-path="url(#clip0_15_6482)">
<path d="M94 156.367H73V176.367H94V156.367Z" fill="#E6E0DF"/>
</g>
<g clip-path="url(#clip1_15_6482)">
<path d="M141 176.367H120V196.367H141V176.367Z" fill="#E6E0DF"/>
</g>
<g clip-path="url(#clip2_15_6482)">
<path d="M198 173.367H177V193.367H198V173.367Z" fill="#E6E0DF"/>
</g>
<g clip-path="url(#clip3_15_6482)">
<path d="M141 229.367H120V249.367H141V229.367Z" fill="#E6E0DF"/>
</g>
<g clip-path="url(#clip4_15_6482)">
<path d="M209 249.367H188V269.367H209V249.367Z" fill="#E6E0DF"/>
</g>
<g clip-path="url(#clip5_15_6482)">
<path d="M230 209.367H209V229.367H230V209.367Z" fill="#E6E0DF"/>
</g>
<g clip-path="url(#clip6_15_6482)">
<path d="M177 210.367H156V230.367H177V210.367Z" fill="#E6E0DF"/>
</g>
<g clip-path="url(#clip7_15_6482)">
<path d="M168 269.367H147V289.367H168V269.367Z" fill="#E6E0DF"/>
</g>
<g clip-path="url(#clip8_15_6482)">
<path d="M251 143.367H230V163.367H251V143.367Z" fill="#E6E0DF"/>
</g>
<path d="M107.335 119.04C108.45 95.3675 90.0314 98.0892 70.4936 99.1154C68.4479 99.2229 67.7468 96.6636 69.5504 95.6921C148.486 53.1739 228.289 73.1951 260.961 92.4879C262.308 93.2831 262.143 95.1606 260.612 95.4824C250.728 97.5611 237.902 92.0426 231.732 108.682C231.31 109.82 230.015 110.411 228.897 109.939C205.976 100.261 187.441 106.681 176.082 121.223C175.262 122.273 173.673 122.337 172.841 121.297C162.453 108.322 143.954 86.2997 111.412 120.842C110.015 122.326 107.239 121.076 107.335 119.04Z" fill="#00FF00"/>
<path fill-rule="evenodd" clip-rule="evenodd" d="M174.381 67.2712C173.092 73.8142 172.846 79.7901 172.995 83.1453L163.005 83.5893C162.821 79.4445 163.125 72.6705 164.569 65.3384C166.007 58.0395 168.652 49.7887 173.404 43L181.596 48.7346C177.948 53.9459 175.676 60.6951 174.381 67.2712Z" fill="#DE9751"/>
<defs>
<clipPath id="clip0_15_6482">
<rect x="73" y="156.367" width="21" height="20" rx="10" fill="white"/>
</clipPath>
<clipPath id="clip1_15_6482">
<rect x="120" y="176.367" width="21" height="20" rx="10" fill="white"/>
</clipPath>
<clipPath id="clip2_15_6482">
<rect x="177" y="173.367" width="21" height="20" rx="10" fill="white"/>
</clipPath>
<clipPath id="clip3_15_6482">
<rect x="120" y="229.367" width="21" height="20" rx="10" fill="white"/>
</clipPath>
<clipPath id="clip4_15_6482">
<rect x="188" y="249.367" width="21" height="20" rx="10" fill="white"/>
</clipPath>
<clipPath id="clip5_15_6482">
<rect x="209" y="209.367" width="21" height="20" rx="10" fill="white"/>
</clipPath>
<clipPath id="clip6_15_6482">
<rect x="156" y="210.367" width="21" height="20" rx="10" fill="white"/>
</clipPath>
<clipPath id="clip7_15_6482">
<rect x="147" y="269.367" width="21" height="20" rx="10" fill="white"/>
</clipPath>
<clipPath id="clip8_15_6482">
<rect x="230" y="143.367" width="21" height="20" rx="10" fill="white"/>
</clipPath>
</defs>
</svg>
