<svg width="530" height="267" viewBox="0 0 530 267" fill="none" xmlns="http://www.w3.org/2000/svg">
<g clip-path="url(#clip0_15_6136)">
<path d="M245.61 94.14C248.603 112.958 238.212 143.627 237.5 173.5C236.754 204.807 245.61 235.241 245.61 250.25C233.2 256.3 206.79 225.97 206.79 225.97C189.74 205.76 170.47 231.45 161.61 258.25C157.55 270.5 137.19 214.6 124.29 214.6C111.39 214.6 91.03 270.5 86.98 258.25C78.12 231.45 58.85 205.76 41.8 225.97C41.8 225.97 15.39 256.3 2.97999 250.25C2.97999 232.926 8.48849 209.548 8.00008 173.5C7.66162 148.519 0.466695 109.916 2.97999 94.14C6.77999 70.28 45.25 0.25 124.29 0.25C203.33 0.25 241.81 70.28 245.61 94.14Z" fill="#030896" fill-opacity="0.83"/>
</g>
<path d="M103.5 98.9301V103.75C103.5 118.247 91.7475 130 77.25 130C62.7525 130 51 118.247 51 103.75V99.7201C51 90.8362 55.44 82.54 62.8318 77.6121L63.2037 77.3642C72.1196 71.4203 83.7738 71.5757 92.5281 77.7551C99.4083 82.6117 103.5 90.5084 103.5 98.9301Z" fill="#E0DDFF"/>
<circle cx="73.5" cy="106.5" r="15.5" fill="#040EF0"/>
<circle cx="79" cy="103" r="6" fill="white"/>
<path d="M141 98.9301V103.75C141 118.247 152.753 130 167.25 130C181.747 130 193.5 118.247 193.5 103.75V99.7201C193.5 90.8362 189.06 82.54 181.668 77.6121L181.296 77.3642C172.38 71.4203 160.726 71.5757 151.972 77.7551C145.092 82.6117 141 90.5084 141 98.9301Z" fill="#E0DDFF"/>
<circle cx="15.5" cy="15.5" r="15.5" transform="matrix(-1 0 0 1 179.5 79)" fill="#040EF0"/>
<circle cx="6" cy="6" r="6" transform="matrix(-1 0 0 1 164.5 85)" fill="white"/>
<path d="M81 164.203C90.2984 174.505 106.52 195.008 127.952 170.283C149.385 145.557 166.159 163.358 168 178.389" stroke="white" stroke-width="7" stroke-linecap="round" stroke-linejoin="round"/>
<path d="M528.61 99.14C531.553 117.644 520.674 157.104 520 186.5C519.271 218.331 528.61 240.002 528.61 255.25C516.2 261.3 489.79 230.97 489.79 230.97C472.74 210.76 466.36 238.2 457.5 265C453.44 277.25 420.19 219.6 407.29 219.6C394.39 219.6 384.55 277.25 380.5 265C371.64 238.2 341.85 210.76 324.8 230.97C324.8 230.97 298.39 261.3 285.98 255.25C285.98 239.842 293.219 196.677 292.5 164.5C291.851 135.426 283.065 117.434 285.98 99.14C289.78 75.28 328.25 5.25 407.29 5.25C486.33 5.25 524.81 75.28 528.61 99.14Z" fill="#030896" fill-opacity="0.83"/>
<path d="M383.5 98.9301V103.75C383.5 118.247 371.747 130 357.25 130C342.753 130 331 118.247 331 103.75V99.7201C331 90.8362 335.44 82.54 342.832 77.6121L343.204 77.3642C352.12 71.4203 363.774 71.5757 372.528 77.7551C379.408 82.6117 383.5 90.5084 383.5 98.9301Z" fill="#E0DDFF"/>
<circle cx="360.5" cy="94.5" r="15.5" fill="#040EF0"/>
<circle cx="366" cy="91" r="6" fill="white"/>
<path d="M421 98.9301V103.75C421 118.247 432.753 130 447.25 130C461.747 130 473.5 118.247 473.5 103.75V99.7201C473.5 90.8362 469.06 82.54 461.668 77.6121L461.296 77.3642C452.38 71.4203 440.726 71.5757 431.972 77.7551C425.092 82.6117 421 90.5084 421 98.9301Z" fill="#E0DDFF"/>
<circle cx="15.5" cy="15.5" r="15.5" transform="matrix(-1 0 0 1 462.5 91)" fill="#040EF0"/>
<circle cx="6" cy="6" r="6" transform="matrix(-1 0 0 1 447.5 97)" fill="white"/>
<path d="M364 164.203C373.298 174.505 389.52 195.008 410.952 170.283C432.385 145.557 449.159 163.358 451 178.389" stroke="white" stroke-width="7" stroke-linecap="round" stroke-linejoin="round"/>
<defs>
<clipPath id="clip0_15_6136">
<rect width="248.58" height="260.25" fill="white"/>
</clipPath>
</defs>
</svg>
