<svg width="1308" height="290" viewBox="0 0 1308 290" fill="none" xmlns="http://www.w3.org/2000/svg">
<g clip-path="url(#clip0_2_127)">
<path d="M324.977 212.163V203.677H316.502V195.19H308.027H299.553H291.078H282.603H274.129H265.654H257.179H248.704V186.703H257.179H265.654H274.129V178.217V169.73H282.603V161.243V152.757H291.078H299.553V144.27V135.783H291.078V144.27H282.603H274.129V152.757H265.654V161.243H257.179H248.704V169.73V135.783V127.297H257.179V118.81V110.323V101.893V93.4066V84.92H248.704V76.4333V67.9466H240.23V59.46H231.811V50.9733H223.337V42.4867H214.862H206.387V34H197.913H189.438H180.963H172.488H164.014H155.539H147.064V42.4867H138.59H130.115V50.9733H121.64V59.46H113.165V67.9466H104.691V76.4333V84.92H96.216V93.4066V101.893V110.323V118.81V127.297H104.691V135.783V161.243H96.216H87.7978V152.757H79.323V144.27H70.8483H62.3736V135.783H53.8989V144.27V152.757H62.3736H70.8483V161.243V169.73H79.323V178.217V186.703H87.7978H96.216H104.691V195.19H96.216H87.7978H79.323H70.8483H62.3736H53.8989H45.4242H36.9494V203.677H28.4747V212.163H20V220.65V229.137H28.4747V220.65H36.9494H45.4242H53.8989H62.3736H70.8483H79.323V229.137H87.7978H96.216H104.691H113.165V237.623H104.691H96.216H87.7978H79.323H70.8483V246.053H62.3736H53.8989V254.54H45.4242V263.027V271.513H36.9494V280H45.4242H53.8989V271.513H62.3736V263.027H70.8483H79.323V254.54H87.7978H96.216V263.027H104.691H113.165H121.64H130.115H138.59V254.54H147.064H155.539V246.053H164.014V237.623H172.488V229.137V220.65H180.963V229.137V237.623H189.438V246.053H197.913V254.54H206.387H214.862V263.027H223.337H231.811H240.23H248.704H257.179V254.54H265.654H274.129V263.027H282.603H291.078V271.513H299.553V280H308.027H316.502V271.513H308.027V263.027V254.54H299.553V246.053H291.078H282.603V237.623H274.129H265.654H257.179H248.704H240.23V229.137H248.704H257.179H265.654H274.129V220.65H282.603H291.078H299.553H308.027H316.502H324.977V229.137H333.452V220.65V212.163H324.977Z" fill="#251533"/>
<path d="M155.539 144.27V135.783H147.064V127.297H138.59H130.115V135.783H121.64V144.27H113.165V152.757V161.243H121.64V169.73H130.115V178.217H138.59H147.064V169.73H155.539V161.243H164.014V152.757V144.27H155.539Z" fill="white"/>
<path d="M104.691 135.783H113.165V127.297H121.64V118.81H130.115H138.59H147.064H155.539V127.297H164.014V135.783H172.488V144.27H180.963V135.783H189.438V127.297H197.913V118.81H206.387H214.862H223.337H231.811V127.297H240.23V135.783H248.704V127.297H257.179V118.81V110.323V101.893V93.4066V84.92H248.704V76.4333V67.9466H240.23V59.46H231.811V50.9733H223.337V42.4867H214.862H206.387V34H197.913H189.438H180.963H172.488H164.014H155.539H147.064V42.4867H138.59H130.115V50.9733H121.64V59.46H113.165V67.9466H104.691V76.4333V84.92H96.216V93.4066V101.893V110.323V118.81V127.297H104.691V135.783Z" fill="#FFD10D"/>
<path d="M324.977 212.163V203.677H316.502V195.19H308.027H299.553H291.078H282.603H274.129H265.654H257.179H248.704V186.703H257.179H265.654H274.129V178.217V169.73H282.603V161.243V152.757H291.078H299.553V144.27V135.783H291.078V144.27H282.603H274.129V152.757H265.654V161.243H257.179H248.704V169.73H240.23V178.217H231.811V186.703H223.337H214.862H206.387H197.913V178.217H189.438V169.73H180.963V161.243V152.757H172.488V161.243V169.73H164.014V178.217H155.539V186.703H147.064H138.59H130.115H121.64V178.217H113.165V169.73H104.691V161.243H96.216H87.7978V152.757H79.323V144.27H70.8483H62.3736V135.783H53.8989V144.27V152.757H62.3736H70.8483V161.243V169.73H79.323V178.217V186.703H87.7978H96.216H104.691V195.19H96.216H87.7978H79.323H70.8483H62.3736H53.8989H45.4242H36.9494V203.677H28.4747V212.163H20V220.65V229.137H28.4747V220.65H36.9494H45.4242H53.8989H62.3736H70.8483H79.323V229.137H87.7978H96.216H104.691H113.165V237.623H104.691H96.216H87.7978H79.323H70.8483V246.11H62.3736H53.8989V254.54H45.4242V263.027V271.513H36.9494V280H45.4242H53.8989V271.513H62.3736V263.027H70.8483H79.323V254.54H87.7978H96.216V263.027H104.691H113.165H121.64H130.115H138.59V254.54H147.064H155.539V246.11H164.014V237.623H172.488V229.137V220.65H180.963V229.137V237.623H189.438V246.11H197.913V254.54H206.387H214.862V263.027H223.337H231.811H240.23H248.704H257.179V254.54H265.654H274.129V263.027H282.603H291.078V271.513H299.553V280H308.027H316.502V271.513H308.027V263.027V254.54H299.553V246.11H291.078H282.603V237.623H274.129H265.654H257.179H248.704H240.23V229.137H248.704H257.179H265.654H274.129V220.65H282.603H291.078H299.553H308.027H316.502H324.977V229.137H333.452V220.65V212.163H324.977Z" fill="#FFD10D"/>
<path d="M147.064 144.27V135.783H138.59V144.27V152.757H147.064H155.539V144.27H147.064Z" fill="#231F20"/>
<path d="M231.811 144.27V135.783H223.337V127.297H214.862H206.387V135.783H197.913V144.27H189.438V152.757V161.243H197.913V169.73H206.387V178.217H214.862H223.337V169.73H231.811V161.243H240.23V152.757V144.27H231.811Z" fill="white"/>
<path d="M223.337 144.27V135.783H214.862V144.27V152.757H223.337H231.812V144.27H223.337Z" fill="#231F20"/>
<path d="M231.811 84.9199H223.337V93.4066H231.811V84.9199Z" fill="#231F20"/>
<path d="M206.387 93.4066H197.913V101.893H206.387V93.4066Z" fill="#231F20"/>
<path d="M214.862 67.9467H206.387V76.4333V84.92H214.862H223.337V76.4333V67.9467H214.862Z" fill="#231F20"/>
<path d="M113.165 203.677H104.691V212.163H113.165V203.677Z" fill="#231F20"/>
<path d="M121.64 195.19H113.165V203.677H121.64H130.115V195.19H121.64Z" fill="#231F20"/>
<path d="M197.913 195.19H189.438V203.677H197.913V195.19Z" fill="#231F20"/>
<path d="M164.014 195.19H155.539V203.677H164.014V195.19Z" fill="#231F20"/>
<path d="M180.963 203.677H172.488H164.014V212.163H172.488H180.963H189.438V203.677H180.963Z" fill="#231F20"/>
</g>
<mask id="path-16-outside-1_2_127" maskUnits="userSpaceOnUse" x="333" y="25" width="319" height="254" fill="black">
<rect fill="white" x="333" y="25" width="319" height="254"/>
<path fill-rule="evenodd" clip-rule="evenodd" d="M563.472 144.623C562.403 142.396 561.29 140.25 560.054 138.22C560.678 140.837 561 143.758 561 147C561 163.829 552.334 183.932 537.614 189.709C547.307 187.634 556.121 181.551 560.792 172.373C562.882 168.273 564.672 165.943 570.152 165.313C581.652 163.983 590.092 156.223 597.972 148.253C599.69 146.514 601.308 144.68 603.054 142.7C603.889 141.753 604.753 140.772 605.672 139.753C606.508 144.009 605.526 147.63 604.574 151.14C604.398 151.787 604.224 152.43 604.062 153.073C601.282 164.053 597.132 174.453 589.502 183.093C579.802 194.083 568.632 195.943 555.652 188.923C555.43 188.802 555.22 188.638 555.008 188.471C554.446 188.03 553.869 187.576 553.012 187.903C557.022 194.583 563.262 198.213 570.902 198.783C577.282 199.255 583.493 198.222 589.7 197.189C592.298 196.757 594.894 196.325 597.502 196.003C613 196.5 620.5 198.5 627.5 200.5C638.5 203.643 642.5 206 642.5 211.383C641.817 212.146 634.839 213.553 630.004 214.529C627.759 214.982 625.976 215.341 625.5 215.5C601.771 217.807 601.44 218.046 601.284 218.158C601.203 218.217 601.169 218.241 597.972 218.5C589.826 219.158 585.866 221.06 581.745 223.038C577.98 224.845 574.081 226.717 566.732 227.763C552.612 229.773 540.812 226.703 532.102 214.803C531.955 214.528 531.827 214.239 531.697 213.949C531.253 212.954 530.8 211.94 529.592 211.383C529.37 213.107 530.169 214.298 530.964 215.482C531.027 215.576 531.09 215.669 531.152 215.763L531.112 215.753C535.672 228.173 545.992 233.373 557.722 236.383C563.461 237.855 569.345 238.521 575.231 239.187C581.662 239.914 588.097 240.643 594.352 242.423C605.622 245.633 613.942 251.863 616.502 264.003C616.556 264.26 616.655 264.528 616.755 264.797C617.066 265.636 617.38 266.483 616.312 267.043C615.434 267.503 614.838 266.783 614.288 266.117C614.168 265.972 614.05 265.83 613.932 265.703C609.002 260.373 602.692 258.623 595.662 258.273C585.198 257.75 574.885 259.022 564.573 260.295C560.103 260.846 555.633 261.398 551.152 261.803C543.002 262.543 534.922 262.533 526.912 260.873C508.222 257.003 498.932 244.163 494.532 226.743C494.184 225.364 493.917 223.963 493.625 222.435C493.481 221.679 493.331 220.893 493.162 220.063C491.775 222.422 491.247 224.904 490.73 227.333C490.412 228.827 490.099 230.3 489.592 231.713C482.222 252.343 468.932 261.863 447.032 262.273C437.712 262.45 428.526 261.288 419.342 260.126C415.558 259.647 411.775 259.168 407.982 258.783C400.852 258.053 393.712 257.953 386.622 258.503C379.512 259.043 373.522 262.433 368.812 269.293C369.172 255.333 377.022 246.343 390.982 242.433C397.544 240.591 404.269 239.803 410.994 239.016C414.928 238.555 418.861 238.095 422.762 237.423C434.912 235.323 445.642 230.843 452.652 219.993C453.059 219.36 453.332 218.637 453.605 217.915C453.742 217.554 453.879 217.193 454.032 216.843C454.188 216.537 454.374 216.239 454.563 215.937C455.307 214.746 456.083 213.503 455.142 211.573C454.292 213.203 453.632 214.463 452.972 215.723C441.052 230.653 425.482 229.893 409.132 225.963C405.726 225.143 402.338 224.226 398.95 223.309C390.103 220.914 381.253 218.518 372.062 217.853C362.642 217.163 354.082 219.593 347.462 226.883C347.232 227.138 347.02 227.459 346.807 227.782C346.225 228.665 345.635 229.56 344.632 229.143C343.401 228.629 343.241 226.886 343.105 225.404C343.101 225.357 343.096 225.31 343.092 225.263C342.452 218.633 345.202 213.333 349.642 208.783C360.232 197.903 373.212 194.133 388.112 196.023C390.665 196.346 393.207 196.78 395.749 197.213C402.17 198.308 408.591 199.404 415.182 198.723C422.262 197.993 428.092 195.053 431.972 188.853C432.153 188.774 432.352 188.686 432.474 188.567C432.055 188.485 431.64 188.402 431.23 188.316C414.675 197.486 402.027 192.486 392.462 178.533C385.332 168.143 379.422 150.343 379.842 139.683C380.393 140.292 380.94 140.901 381.485 141.507C386.87 147.493 392.056 153.259 398.422 157.763C405.142 162.523 412.232 166.343 420.832 165.743C423.392 165.563 424.092 166.893 424.962 168.943C425.261 169.645 425.581 170.334 425.921 171.01C426.404 171.056 426.881 171.106 427.343 171.154C430.541 171.489 433.037 171.751 432.141 170C427.97 161.849 425.219 152.575 424.321 144.493C424.181 144.817 424.036 145.143 423.89 145.471C423.738 145.814 423.584 146.16 423.432 146.513C409.922 123.763 411.302 84.0029 438.022 57.6329C465.662 30.3529 509.072 27.3829 539.762 50.6329C571.612 74.7629 577.462 115.673 563.482 144.623H563.472ZM473.007 203C472.469 201.753 471.91 200.456 472.242 198.703H472.252C481.872 200.753 491.492 201.633 501.212 200.583C501.835 200.515 502.463 200.455 503.091 200.396C505.427 200.173 507.778 199.949 509.992 199.303C514.472 197.993 513.882 199.953 512.812 202.863C509.762 211.203 502.162 216.873 493.322 217.253C485.132 217.613 476.542 211.793 473.282 203.653C473.194 203.435 473.101 203.219 473.007 203Z"/>
</mask>
<path fill-rule="evenodd" clip-rule="evenodd" d="M563.472 144.623C562.403 142.396 561.29 140.25 560.054 138.22C560.678 140.837 561 143.758 561 147C561 163.829 552.334 183.932 537.614 189.709C547.307 187.634 556.121 181.551 560.792 172.373C562.882 168.273 564.672 165.943 570.152 165.313C581.652 163.983 590.092 156.223 597.972 148.253C599.69 146.514 601.308 144.68 603.054 142.7C603.889 141.753 604.753 140.772 605.672 139.753C606.508 144.009 605.526 147.63 604.574 151.14C604.398 151.787 604.224 152.43 604.062 153.073C601.282 164.053 597.132 174.453 589.502 183.093C579.802 194.083 568.632 195.943 555.652 188.923C555.43 188.802 555.22 188.638 555.008 188.471C554.446 188.03 553.869 187.576 553.012 187.903C557.022 194.583 563.262 198.213 570.902 198.783C577.282 199.255 583.493 198.222 589.7 197.189C592.298 196.757 594.894 196.325 597.502 196.003C613 196.5 620.5 198.5 627.5 200.5C638.5 203.643 642.5 206 642.5 211.383C641.817 212.146 634.839 213.553 630.004 214.529C627.759 214.982 625.976 215.341 625.5 215.5C601.771 217.807 601.44 218.046 601.284 218.158C601.203 218.217 601.169 218.241 597.972 218.5C589.826 219.158 585.866 221.06 581.745 223.038C577.98 224.845 574.081 226.717 566.732 227.763C552.612 229.773 540.812 226.703 532.102 214.803C531.955 214.528 531.827 214.239 531.697 213.949C531.253 212.954 530.8 211.94 529.592 211.383C529.37 213.107 530.169 214.298 530.964 215.482C531.027 215.576 531.09 215.669 531.152 215.763L531.112 215.753C535.672 228.173 545.992 233.373 557.722 236.383C563.461 237.855 569.345 238.521 575.231 239.187C581.662 239.914 588.097 240.643 594.352 242.423C605.622 245.633 613.942 251.863 616.502 264.003C616.556 264.26 616.655 264.528 616.755 264.797C617.066 265.636 617.38 266.483 616.312 267.043C615.434 267.503 614.838 266.783 614.288 266.117C614.168 265.972 614.05 265.83 613.932 265.703C609.002 260.373 602.692 258.623 595.662 258.273C585.198 257.75 574.885 259.022 564.573 260.295C560.103 260.846 555.633 261.398 551.152 261.803C543.002 262.543 534.922 262.533 526.912 260.873C508.222 257.003 498.932 244.163 494.532 226.743C494.184 225.364 493.917 223.963 493.625 222.435C493.481 221.679 493.331 220.893 493.162 220.063C491.775 222.422 491.247 224.904 490.73 227.333C490.412 228.827 490.099 230.3 489.592 231.713C482.222 252.343 468.932 261.863 447.032 262.273C437.712 262.45 428.526 261.288 419.342 260.126C415.558 259.647 411.775 259.168 407.982 258.783C400.852 258.053 393.712 257.953 386.622 258.503C379.512 259.043 373.522 262.433 368.812 269.293C369.172 255.333 377.022 246.343 390.982 242.433C397.544 240.591 404.269 239.803 410.994 239.016C414.928 238.555 418.861 238.095 422.762 237.423C434.912 235.323 445.642 230.843 452.652 219.993C453.059 219.36 453.332 218.637 453.605 217.915C453.742 217.554 453.879 217.193 454.032 216.843C454.188 216.537 454.374 216.239 454.563 215.937C455.307 214.746 456.083 213.503 455.142 211.573C454.292 213.203 453.632 214.463 452.972 215.723C441.052 230.653 425.482 229.893 409.132 225.963C405.726 225.143 402.338 224.226 398.95 223.309C390.103 220.914 381.253 218.518 372.062 217.853C362.642 217.163 354.082 219.593 347.462 226.883C347.232 227.138 347.02 227.459 346.807 227.782C346.225 228.665 345.635 229.56 344.632 229.143C343.401 228.629 343.241 226.886 343.105 225.404C343.101 225.357 343.096 225.31 343.092 225.263C342.452 218.633 345.202 213.333 349.642 208.783C360.232 197.903 373.212 194.133 388.112 196.023C390.665 196.346 393.207 196.78 395.749 197.213C402.17 198.308 408.591 199.404 415.182 198.723C422.262 197.993 428.092 195.053 431.972 188.853C432.153 188.774 432.352 188.686 432.474 188.567C432.055 188.485 431.64 188.402 431.23 188.316C414.675 197.486 402.027 192.486 392.462 178.533C385.332 168.143 379.422 150.343 379.842 139.683C380.393 140.292 380.94 140.901 381.485 141.507C386.87 147.493 392.056 153.259 398.422 157.763C405.142 162.523 412.232 166.343 420.832 165.743C423.392 165.563 424.092 166.893 424.962 168.943C425.261 169.645 425.581 170.334 425.921 171.01C426.404 171.056 426.881 171.106 427.343 171.154C430.541 171.489 433.037 171.751 432.141 170C427.97 161.849 425.219 152.575 424.321 144.493C424.181 144.817 424.036 145.143 423.89 145.471C423.738 145.814 423.584 146.16 423.432 146.513C409.922 123.763 411.302 84.0029 438.022 57.6329C465.662 30.3529 509.072 27.3829 539.762 50.6329C571.612 74.7629 577.462 115.673 563.482 144.623H563.472ZM473.007 203C472.469 201.753 471.91 200.456 472.242 198.703H472.252C481.872 200.753 491.492 201.633 501.212 200.583C501.835 200.515 502.463 200.455 503.091 200.396C505.427 200.173 507.778 199.949 509.992 199.303C514.472 197.993 513.882 199.953 512.812 202.863C509.762 211.203 502.162 216.873 493.322 217.253C485.132 217.613 476.542 211.793 473.282 203.653C473.194 203.435 473.101 203.219 473.007 203Z" fill="#FED002"/>
<path d="M433.033 174.976L434.866 173.581L429.416 166.419L427.582 167.814L433.033 174.976ZM560.054 138.22L567.741 133.539C565.437 129.755 560.723 128.211 556.627 129.897C552.531 131.584 550.271 136 551.299 140.309L560.054 138.22ZM563.472 144.623L555.359 148.519C556.857 151.639 560.011 153.623 563.472 153.623V144.623ZM537.614 189.709L534.326 181.331C529.964 183.043 527.645 187.816 528.996 192.303C530.347 196.79 534.915 199.49 539.498 198.509L537.614 189.709ZM560.792 172.373L552.774 168.286L552.771 168.291L560.792 172.373ZM570.152 165.313L571.18 174.254L571.186 174.253L570.152 165.313ZM597.972 148.253L604.372 154.581L604.373 154.579L597.972 148.253ZM603.054 142.7L596.303 136.748L596.303 136.748L603.054 142.7ZM605.672 139.753L614.503 138.018C613.846 134.674 611.357 131.987 608.072 131.079C604.786 130.17 601.27 131.195 598.988 133.726L605.672 139.753ZM604.574 151.14L595.888 148.784L595.888 148.784L604.574 151.14ZM604.062 153.073L612.787 155.282L612.79 155.271L604.062 153.073ZM589.502 183.093L582.756 177.136L582.754 177.137L589.502 183.093ZM555.652 188.923L551.356 196.831C551.361 196.834 551.366 196.837 551.371 196.839L555.652 188.923ZM555.008 188.471L549.45 195.549L549.45 195.549L555.008 188.471ZM553.012 187.903L549.805 179.494C547.317 180.443 545.377 182.445 544.506 184.962C543.636 187.479 543.925 190.252 545.296 192.535L553.012 187.903ZM570.902 198.783L570.233 207.758L570.238 207.758L570.902 198.783ZM589.7 197.189L588.223 188.311L588.223 188.311L589.7 197.189ZM597.502 196.003L597.791 187.008C597.326 186.993 596.862 187.014 596.401 187.071L597.502 196.003ZM627.5 200.5L625.028 209.154L625.028 209.154L627.5 200.5ZM642.5 211.383L649.206 217.386C650.683 215.735 651.5 213.598 651.5 211.383H642.5ZM630.004 214.529L628.224 205.706L628.224 205.707L630.004 214.529ZM625.5 215.5L626.371 224.458C627.043 224.392 627.706 224.252 628.346 224.038L625.5 215.5ZM601.284 218.158L606.544 225.461L606.545 225.46L601.284 218.158ZM597.972 218.5L598.697 227.471L598.699 227.471L597.972 218.5ZM581.745 223.038L585.64 231.151L585.64 231.151L581.745 223.038ZM566.732 227.763L565.464 218.853L565.464 218.853L566.732 227.763ZM532.102 214.803L524.159 219.035C524.36 219.412 524.587 219.774 524.84 220.119L532.102 214.803ZM531.697 213.949L539.915 210.279L539.915 210.279L531.697 213.949ZM529.592 211.383L533.364 203.211C530.762 202.011 527.745 202.12 525.238 203.507C522.73 204.893 521.033 207.39 520.666 210.231L529.592 211.383ZM530.964 215.482L538.437 210.466L538.437 210.466L530.964 215.482ZM531.152 215.763L528.974 224.495C532.578 225.394 536.364 223.987 538.505 220.952C540.647 217.917 540.704 213.879 538.65 210.784L531.152 215.763ZM531.112 215.753L533.29 207.021C530.057 206.214 526.642 207.26 524.416 209.74C522.189 212.219 521.515 215.726 522.664 218.855L531.112 215.753ZM557.722 236.383L555.485 245.101L555.486 245.101L557.722 236.383ZM575.231 239.187L574.219 248.13L574.219 248.13L575.231 239.187ZM594.352 242.423L596.818 233.767L596.816 233.767L594.352 242.423ZM616.502 264.003L625.314 262.174C625.312 262.165 625.31 262.155 625.308 262.146L616.502 264.003ZM616.755 264.797L608.316 267.927L608.316 267.927L616.755 264.797ZM616.312 267.043L620.485 275.017L620.495 275.012L616.312 267.043ZM614.288 266.117L621.224 260.382L621.223 260.382L614.288 266.117ZM613.932 265.703L607.325 271.814C607.33 271.82 607.335 271.825 607.34 271.83L613.932 265.703ZM595.662 258.273L595.213 267.262L595.215 267.262L595.662 258.273ZM564.573 260.295L565.675 269.227L565.675 269.227L564.573 260.295ZM551.152 261.803L550.342 252.84L550.338 252.84L551.152 261.803ZM526.912 260.873L528.738 252.06L528.737 252.06L526.912 260.873ZM494.532 226.743L485.806 228.946L485.806 228.947L494.532 226.743ZM493.625 222.435L484.785 224.122L484.785 224.122L493.625 222.435ZM493.162 220.063L501.982 218.271C501.24 214.618 498.322 211.8 494.645 211.186C490.968 210.572 487.293 212.288 485.404 215.502L493.162 220.063ZM490.73 227.333L481.927 225.46L481.927 225.46L490.73 227.333ZM489.592 231.713L481.12 228.676L481.117 228.685L489.592 231.713ZM447.032 262.273L446.864 253.275L446.861 253.275L447.032 262.273ZM419.342 260.126L420.471 251.197L420.471 251.197L419.342 260.126ZM407.982 258.783L407.065 267.736L407.073 267.737L407.982 258.783ZM386.622 258.503L387.304 267.477C387.309 267.477 387.313 267.476 387.318 267.476L386.622 258.503ZM368.812 269.293L359.815 269.061C359.712 273.046 362.243 276.624 366.035 277.854C369.826 279.084 373.975 277.673 376.232 274.387L368.812 269.293ZM390.982 242.433L393.409 251.099L393.415 251.098L390.982 242.433ZM410.994 239.016L412.041 247.955L412.041 247.955L410.994 239.016ZM422.762 237.423L424.289 246.292L424.295 246.291L422.762 237.423ZM452.652 219.993L460.212 224.877C460.216 224.87 460.221 224.863 460.225 224.856L452.652 219.993ZM453.605 217.915L462.023 221.101L462.023 221.101L453.605 217.915ZM454.032 216.843L446.014 212.754C445.934 212.911 445.859 213.07 445.789 213.231L454.032 216.843ZM454.563 215.937L462.196 220.705L462.196 220.705L454.563 215.937ZM455.142 211.573L463.232 207.628C461.743 204.575 458.661 202.62 455.264 202.574C451.866 202.528 448.733 204.399 447.162 207.412L455.142 211.573ZM452.972 215.723L460.005 221.338C460.364 220.89 460.678 220.408 460.945 219.899L452.972 215.723ZM409.132 225.963L407.026 234.713L407.029 234.714L409.132 225.963ZM398.95 223.309L396.599 231.996L396.599 231.996L398.95 223.309ZM372.062 217.853L371.405 226.829L371.412 226.829L372.062 217.853ZM347.462 226.883L340.799 220.833L340.79 220.843L347.462 226.883ZM346.807 227.782L354.322 232.735L354.322 232.734L346.807 227.782ZM344.632 229.143L341.166 237.449L341.175 237.452L344.632 229.143ZM343.105 225.404L352.067 224.581L352.067 224.581L343.105 225.404ZM343.092 225.263L352.054 224.432C352.053 224.421 352.052 224.409 352.05 224.398L343.092 225.263ZM349.642 208.783L356.083 215.069L356.091 215.06L349.642 208.783ZM388.112 196.023L386.98 204.951L386.981 204.952L388.112 196.023ZM395.749 197.213L394.236 206.085L394.236 206.085L395.749 197.213ZM415.182 198.723L414.259 189.77L414.258 189.771L415.182 198.723ZM431.972 188.853L428.375 180.603C426.711 181.328 425.306 182.54 424.343 184.079L431.972 188.853ZM432.474 188.567L438.786 194.982C441.167 192.639 442.055 189.169 441.091 185.971C440.127 182.772 437.471 180.37 434.192 179.732L432.474 188.567ZM431.23 188.316L433.065 179.505C430.954 179.066 428.755 179.399 426.869 180.443L431.23 188.316ZM392.462 178.533L399.885 173.444L399.883 173.441L392.462 178.533ZM379.842 139.683L386.52 133.649C384.068 130.935 380.215 129.975 376.776 131.221C373.336 132.468 370.993 135.673 370.849 139.329L379.842 139.683ZM381.485 141.507L374.794 147.526L374.794 147.526L381.485 141.507ZM398.422 157.763L403.624 150.419L403.62 150.416L398.422 157.763ZM420.832 165.743L421.458 174.721L421.463 174.721L420.832 165.743ZM424.962 168.943L416.677 172.459L416.681 172.468L424.962 168.943ZM425.921 171.01L417.882 175.056C419.274 177.823 421.991 179.679 425.075 179.97L425.921 171.01ZM427.343 171.154L428.281 162.203L428.281 162.203L427.343 171.154ZM432.141 170L440.153 165.9L440.153 165.9L432.141 170ZM424.321 144.493L433.266 143.499C432.815 139.442 429.69 136.196 425.653 135.592C421.616 134.988 417.678 137.176 416.059 140.924L424.321 144.493ZM423.89 145.471L415.665 141.818L415.665 141.818L423.89 145.471ZM423.432 146.513L415.694 151.108C417.421 154.017 420.634 155.712 424.01 155.494C427.386 155.277 430.355 153.185 431.695 150.079L423.432 146.513ZM438.022 57.6329L444.344 64.0387L444.344 64.0385L438.022 57.6329ZM539.762 50.6329L545.197 43.4592L545.197 43.4591L539.762 50.6329ZM563.482 144.623V153.623C566.936 153.623 570.085 151.647 571.587 148.537L563.482 144.623ZM472.242 198.703V189.703C467.917 189.703 464.204 192.779 463.399 197.029L472.242 198.703ZM473.007 203L481.272 199.439L481.272 199.438L473.007 203ZM472.252 198.703L474.128 189.901C473.511 189.769 472.883 189.703 472.252 189.703V198.703ZM501.212 200.583L502.179 209.531L502.186 209.53L501.212 200.583ZM503.091 200.396L503.944 209.355L503.944 209.355L503.091 200.396ZM509.992 199.303L512.513 207.943L512.518 207.941L509.992 199.303ZM512.812 202.863L504.365 199.757C504.363 199.762 504.361 199.767 504.36 199.772L512.812 202.863ZM493.322 217.253L492.936 208.261L492.927 208.262L493.322 217.253ZM473.282 203.653L481.637 200.307C481.633 200.298 481.63 200.289 481.626 200.281L473.282 203.653ZM552.367 142.9C553.392 144.584 554.361 146.441 555.359 148.519L571.585 140.727C570.444 138.35 569.188 135.916 567.741 133.539L552.367 142.9ZM570 147C570 143.169 569.621 139.536 568.808 136.131L551.299 140.309C551.736 142.138 552 144.346 552 147H570ZM540.902 198.087C550.991 194.127 558.23 185.631 562.843 176.59C567.498 167.469 570 156.833 570 147H552C552 153.996 550.169 161.827 546.81 168.408C543.411 175.07 538.957 179.513 534.326 181.331L540.902 198.087ZM539.498 198.509C551.529 195.934 562.773 188.322 568.813 176.455L552.771 168.291C549.469 174.779 543.084 179.334 535.731 180.908L539.498 198.509ZM568.81 176.46C569.273 175.552 569.577 175.03 569.808 174.69C570.015 174.385 570.078 174.359 569.998 174.426C569.895 174.512 569.817 174.538 569.884 174.512C569.993 174.471 570.367 174.348 571.18 174.254L569.124 156.372C565.188 156.824 561.526 158.028 558.403 160.658C555.525 163.082 553.879 166.117 552.774 168.286L568.81 176.46ZM571.186 174.253C586.184 172.519 596.639 162.402 604.372 154.581L591.572 141.925C583.545 150.044 577.12 155.447 569.118 156.373L571.186 174.253ZM604.373 154.579C606.303 152.627 608.09 150.596 609.805 148.652L596.303 136.748C594.525 138.764 593.078 140.402 591.571 141.926L604.373 154.579ZM609.805 148.652C610.644 147.7 611.476 146.756 612.356 145.779L598.988 133.726C598.03 134.788 597.134 135.805 596.303 136.748L609.805 148.652ZM596.841 141.488C597.221 143.423 596.879 145.127 595.888 148.784L613.26 153.496C614.172 150.132 615.795 144.594 614.503 138.018L596.841 141.488ZM595.888 148.784C595.716 149.417 595.52 150.14 595.335 150.875L612.79 155.271C612.928 154.72 613.081 154.156 613.26 153.495L595.888 148.784ZM595.337 150.864C592.734 161.146 589.057 170 582.756 177.136L596.248 189.05C605.207 178.906 609.83 166.96 612.787 155.282L595.337 150.864ZM582.754 177.137C578.874 181.534 575.38 183.363 572.292 183.89C569.182 184.421 565.195 183.852 559.934 181.007L551.371 196.839C559.089 201.014 567.177 203.024 575.322 201.633C583.489 200.238 590.43 195.642 596.25 189.049L582.754 177.137ZM559.948 181.014C560.289 181.199 560.519 181.362 560.597 181.419C560.64 181.45 560.664 181.468 560.655 181.462C560.643 181.453 560.626 181.439 560.567 181.393L549.45 195.549C549.534 195.616 550.347 196.283 551.356 196.831L559.948 181.014ZM560.567 181.393C560.498 181.339 559.19 180.228 557.441 179.534C555.173 178.634 552.481 178.473 549.805 179.494L556.219 196.312C555.442 196.609 554.495 196.81 553.437 196.79C552.385 196.77 551.488 196.537 550.8 196.264C549.695 195.825 548.956 195.162 549.45 195.549L560.567 181.393ZM545.296 192.535C550.885 201.846 559.826 206.982 570.233 207.758L571.572 189.808C566.698 189.444 563.159 187.32 560.729 183.271L545.296 192.535ZM570.238 207.758C577.87 208.323 585.142 207.071 591.178 206.067L588.223 188.311C581.844 189.372 576.694 190.187 571.567 189.808L570.238 207.758ZM591.178 206.067C593.806 205.629 596.216 205.23 598.603 204.935L596.401 187.071C593.573 187.419 590.789 187.884 588.223 188.311L591.178 206.067ZM597.214 204.998C611.787 205.466 618.536 207.299 625.028 209.154L629.972 191.846C622.464 189.701 614.213 187.534 597.791 187.008L597.214 204.998ZM625.028 209.154C627.664 209.907 629.676 210.556 631.224 211.158C632.798 211.77 633.604 212.224 633.979 212.485C634.292 212.703 634.032 212.597 633.759 212.083C633.475 211.551 633.5 211.19 633.5 211.383H651.5C651.5 208.885 651.025 206.211 649.647 203.624C648.28 201.056 646.333 199.155 644.271 197.717C640.514 195.1 635.392 193.395 629.972 191.846L625.028 209.154ZM635.794 205.38C636.663 204.409 637.521 203.902 637.761 203.762C638.104 203.561 638.358 203.451 638.431 203.42C638.579 203.357 638.567 203.373 638.289 203.458C637.762 203.621 636.913 203.843 635.76 204.113C633.486 204.644 630.677 205.212 628.224 205.706L631.784 223.351C634.166 222.87 637.263 222.247 639.858 221.64C641.139 221.34 642.465 221.007 643.59 220.66C644.137 220.491 644.821 220.264 645.499 219.974C645.838 219.83 646.317 219.61 646.839 219.305C647.259 219.06 648.251 218.452 649.206 217.386L635.794 205.38ZM628.224 205.707C627.117 205.93 626.062 206.143 625.225 206.32C624.643 206.443 623.489 206.683 622.654 206.962L628.346 224.038C628.226 224.078 628.138 224.104 628.097 224.116C628.052 224.129 628.026 224.136 628.023 224.137C628.02 224.137 628.055 224.128 628.143 224.107C628.32 224.066 628.585 224.007 628.952 223.93C629.687 223.774 630.646 223.581 631.784 223.351L628.224 205.707ZM624.629 206.542C612.763 207.696 606.666 208.34 603.497 208.714C601.955 208.896 600.938 209.033 600.243 209.155C599.928 209.21 597.934 209.479 596.022 210.856L606.545 225.46C606.562 225.448 606.391 225.574 606.175 225.713C605.935 225.867 605.67 226.021 605.381 226.167C604.824 226.449 604.35 226.613 604.06 226.703C603.567 226.856 603.228 226.906 603.35 226.885C603.503 226.858 604.081 226.77 605.607 226.59C608.575 226.24 614.508 225.611 626.371 224.458L624.629 206.542ZM596.023 210.856C595.99 210.88 596.206 210.721 596.476 210.551C596.789 210.354 597.144 210.158 597.54 209.979C598.285 209.642 598.909 209.486 599.206 209.419C599.507 209.352 599.729 209.32 599.778 209.313C599.847 209.303 599.871 209.301 599.818 209.307C599.71 209.319 599.483 209.341 599.044 209.38C598.618 209.417 598.038 209.465 597.245 209.529L598.699 227.471C600.261 227.344 601.206 227.263 601.775 227.201C601.97 227.179 602.542 227.119 603.158 226.98C603.519 226.899 604.184 226.73 604.959 226.379C605.85 225.976 606.476 225.51 606.544 225.461L596.023 210.856ZM597.247 209.529C587.523 210.315 582.416 212.733 577.85 214.924L585.64 231.151C589.316 229.387 592.129 228.002 598.697 227.471L597.247 209.529ZM577.85 214.924C574.404 216.579 571.473 217.998 565.464 218.853L568 236.673C576.689 235.437 581.556 233.112 585.64 231.151L577.85 214.924ZM565.464 218.853C559.34 219.725 554.387 219.394 550.326 217.992C546.393 216.634 542.726 214.08 539.365 209.487L524.84 220.119C530.188 227.426 536.776 232.357 544.451 235.006C551.998 237.612 560.005 237.811 568 236.673L565.464 218.853ZM540.045 210.571C540.069 210.615 540.072 210.624 540.047 210.571C540.035 210.545 540.019 210.511 539.996 210.461C539.973 210.41 539.949 210.355 539.915 210.279L523.479 217.619C523.586 217.858 523.84 218.436 524.159 219.035L540.045 210.571ZM539.915 210.279C539.584 209.538 538 205.351 533.364 203.211L525.821 219.555C525.357 219.341 524.904 219.051 524.493 218.697C524.088 218.348 523.799 218.002 523.608 217.734C523.426 217.479 523.334 217.298 523.327 217.283C523.322 217.274 523.33 217.289 523.357 217.348C523.387 217.413 523.42 217.486 523.479 217.619L539.915 210.279ZM520.666 210.231C519.96 215.7 522.843 219.532 523.492 220.499L538.437 210.466C538.217 210.138 538.146 210.029 538.098 209.95C538.065 209.895 538.133 210 538.222 210.217C538.318 210.45 538.434 210.8 538.501 211.244C538.569 211.696 538.569 212.137 538.518 212.535L520.666 210.231ZM523.492 220.498C523.557 220.595 523.607 220.67 523.654 220.741L538.65 210.784C538.573 210.669 538.498 210.557 538.437 210.466L523.492 220.498ZM533.33 207.03L533.29 207.021L528.934 224.485L528.974 224.495L533.33 207.03ZM522.664 218.855C528.756 235.45 542.714 241.823 555.485 245.101L559.959 227.665C549.27 224.922 542.588 220.896 539.561 212.651L522.664 218.855ZM555.486 245.101C561.93 246.753 568.437 247.475 574.219 248.13L576.243 230.244C570.252 229.566 564.992 228.956 559.958 227.665L555.486 245.101ZM574.219 248.13C580.773 248.871 586.466 249.536 591.888 251.079L596.816 233.767C589.728 231.749 582.551 230.958 576.243 230.244L574.219 248.13ZM591.887 251.079C596.661 252.439 600.16 254.261 602.626 256.512C604.975 258.656 606.785 261.543 607.696 265.86L625.308 262.146C623.659 254.323 620.029 248.025 614.761 243.217C609.609 238.515 603.313 235.617 596.818 233.767L591.887 251.079ZM607.69 265.832C607.907 266.878 608.272 267.806 608.316 267.927L625.193 261.668C625.166 261.594 625.154 261.563 625.146 261.539C625.138 261.519 625.143 261.532 625.154 261.565C625.172 261.619 625.246 261.844 625.314 262.174L607.69 265.832ZM608.316 267.927C608.422 268.211 608.354 268.045 608.287 267.803C608.217 267.547 608.013 266.749 608.058 265.651C608.109 264.423 608.471 262.936 609.42 261.532C610.326 260.191 611.418 259.447 612.13 259.074L620.495 275.012C621.74 274.358 623.193 273.298 624.331 271.615C625.512 269.869 625.976 268.012 626.043 266.397C626.104 264.913 625.829 263.711 625.646 263.043C625.467 262.389 625.243 261.802 625.193 261.667L608.316 267.927ZM612.139 259.069C613.201 258.513 614.651 258.09 616.335 258.208C617.964 258.323 619.202 258.902 619.964 259.381C620.677 259.829 621.106 260.271 621.222 260.392C621.335 260.511 621.4 260.595 621.224 260.382L607.352 271.853C607.369 271.874 608.592 273.494 610.39 274.623C611.48 275.308 613.065 276.023 615.071 276.164C617.13 276.309 618.984 275.803 620.485 275.017L612.139 259.069ZM621.223 260.382C621.14 260.28 620.852 259.928 620.524 259.576L607.34 271.83C607.307 271.795 607.283 271.768 607.27 271.753C607.257 271.738 607.25 271.731 607.253 271.734C607.255 271.736 607.258 271.739 607.262 271.745C607.267 271.751 607.274 271.758 607.282 271.769C607.291 271.779 607.301 271.791 607.312 271.805C607.325 271.819 607.337 271.835 607.352 271.853L621.223 260.382ZM620.539 259.592C613.38 251.851 604.36 249.695 596.11 249.284L595.215 267.262C601.024 267.551 604.625 268.895 607.325 271.814L620.539 259.592ZM596.112 249.284C584.741 248.716 573.656 250.106 563.471 251.362L565.675 269.227C576.114 267.939 585.655 266.784 595.213 267.262L596.112 249.284ZM563.471 251.362C558.976 251.917 554.653 252.45 550.342 252.84L551.963 270.766C556.614 270.346 561.23 269.776 565.675 269.227L563.471 251.362ZM550.338 252.84C542.703 253.533 535.581 253.478 528.738 252.06L525.086 269.686C534.263 271.588 543.301 271.553 551.966 270.766L550.338 252.84ZM528.737 252.06C521.172 250.494 515.939 247.249 512.096 242.916C508.139 238.457 505.233 232.359 503.258 224.539L485.806 228.947C488.231 238.547 492.17 247.579 498.631 254.862C505.205 262.272 513.962 267.382 525.087 269.686L528.737 252.06ZM503.258 224.54C502.986 223.462 502.767 222.326 502.465 220.747L484.785 224.122C485.067 225.6 485.382 227.266 485.806 228.946L503.258 224.54ZM502.465 220.747C502.322 219.998 502.163 219.161 501.982 218.271L484.342 221.855C484.499 222.625 484.639 223.361 484.785 224.122L502.465 220.747ZM485.404 215.502C483.168 219.303 482.409 223.196 481.927 225.46L499.533 229.206C500.085 226.612 500.382 225.541 500.921 224.624L485.404 215.502ZM481.927 225.46C481.587 227.057 481.387 227.93 481.12 228.676L498.064 234.75C498.81 232.67 499.237 230.596 499.533 229.206L481.927 225.46ZM481.117 228.685C477.861 237.798 473.615 243.603 468.514 247.263C463.411 250.925 456.545 253.093 446.864 253.275L447.201 271.271C459.419 271.043 470.149 268.245 479.008 261.887C487.87 255.528 493.953 246.258 498.068 234.741L481.117 228.685ZM446.861 253.275C438.301 253.437 429.762 252.372 420.471 251.197L418.212 269.054C427.29 270.203 437.122 271.463 447.203 271.271L446.861 253.275ZM420.471 251.197C416.706 250.72 412.813 250.227 408.891 249.829L407.073 267.737C410.737 268.109 414.41 268.573 418.212 269.054L420.471 251.197ZM408.899 249.83C401.245 249.046 393.565 248.937 385.926 249.53L387.318 267.476C393.859 266.969 400.459 267.06 407.065 267.736L408.899 249.83ZM385.941 249.529C375.919 250.29 367.532 255.257 361.393 264.199L376.232 274.387C379.513 269.608 383.105 267.796 387.304 267.477L385.941 249.529ZM377.809 269.525C377.945 264.257 379.442 260.565 381.697 257.872C384.009 255.111 387.714 252.695 393.409 251.099L388.555 233.766C380.291 236.081 373.09 240.114 367.897 246.316C362.647 252.586 360.039 260.369 359.815 269.061L377.809 269.525ZM393.415 251.098C399.182 249.479 405.2 248.756 412.041 247.955L409.947 230.077C403.338 230.851 395.906 231.702 388.549 233.768L393.415 251.098ZM412.041 247.955C415.934 247.499 420.109 247.012 424.289 246.292L421.235 228.553C417.613 229.177 413.921 229.612 409.947 230.077L412.041 247.955ZM424.295 246.291C437.65 243.983 451.267 238.722 460.212 224.877L445.093 215.109C440.017 222.964 432.174 226.663 421.229 228.554L424.295 246.291ZM460.225 224.856C461.23 223.29 461.813 221.655 462.023 221.101L445.188 214.73C445.116 214.919 445.068 215.046 445.022 215.163C444.978 215.275 444.951 215.339 444.935 215.376C444.9 215.457 444.944 215.34 445.079 215.13L460.225 224.856ZM462.023 221.101C462.174 220.702 462.23 220.558 462.276 220.455L445.789 213.231C445.527 213.828 445.311 214.406 445.188 214.73L462.023 221.101ZM462.05 220.931C462.01 221.01 461.99 221.04 462.018 220.994C462.031 220.972 462.05 220.94 462.081 220.891C462.112 220.839 462.147 220.784 462.196 220.705L446.93 211.168C446.781 211.408 446.379 212.04 446.014 212.754L462.05 220.931ZM462.196 220.705C462.437 220.319 463.664 218.498 464.232 216.147C464.921 213.3 464.568 210.37 463.232 207.628L447.053 215.517C446.902 215.208 446.7 214.675 446.615 213.955C446.528 213.219 446.591 212.518 446.736 211.917C446.872 211.356 447.054 210.989 447.108 210.885C447.14 210.824 447.148 210.82 446.93 211.169L462.196 220.705ZM447.162 207.412C446.316 209.034 445.66 210.287 445 211.547L460.945 219.899C461.605 218.639 462.268 217.372 463.122 215.734L447.162 207.412ZM445.939 210.108C441.394 215.8 436.534 218.192 431.295 219.028C425.655 219.928 419.076 219.097 411.236 217.212L407.029 234.714C415.539 236.759 424.919 238.273 434.132 236.803C443.745 235.269 452.63 230.576 460.005 221.338L445.939 210.108ZM411.238 217.213C407.976 216.428 404.711 215.545 401.302 214.622L396.599 231.996C399.966 232.908 403.476 233.859 407.026 234.713L411.238 217.213ZM401.302 214.622C392.595 212.265 382.911 209.615 372.712 208.876L371.412 226.829C379.595 227.422 387.612 229.564 396.599 231.996L401.302 214.622ZM372.72 208.877C361.202 208.033 349.685 211.048 340.799 220.833L354.125 232.933C358.479 228.138 364.082 226.293 371.405 226.829L372.72 208.877ZM340.79 220.843C340.007 221.708 339.408 222.653 339.292 222.829L354.322 232.734C354.379 232.648 354.411 232.6 354.439 232.558C354.465 232.518 354.472 232.51 354.465 232.519C354.458 232.529 354.428 232.571 354.378 232.635C354.328 232.699 354.246 232.799 354.134 232.923L340.79 220.843ZM339.292 222.829C339.114 223.1 339.132 223.066 339.191 222.989C339.248 222.913 339.581 222.472 340.187 221.977C340.83 221.452 341.984 220.702 343.632 220.389C345.362 220.06 346.923 220.348 348.089 220.833L341.175 237.452C342.843 238.146 344.853 238.479 346.995 238.072C349.053 237.68 350.579 236.73 351.568 235.923C353.201 234.59 354.262 232.825 354.322 232.735L339.292 222.829ZM348.098 220.837C351.072 222.078 351.931 224.569 352.06 224.989C352.148 225.274 352.158 225.416 352.14 225.288C352.122 225.158 352.105 224.987 352.067 224.581L334.143 226.228C334.19 226.744 334.319 228.536 334.856 230.284C335.408 232.075 336.961 235.694 341.166 237.449L348.098 220.837ZM352.067 224.581C352.063 224.534 352.058 224.483 352.054 224.432L334.131 226.094C334.134 226.136 334.138 226.18 334.143 226.228L352.067 224.581ZM352.05 224.398C351.742 221.203 352.851 218.381 356.083 215.069L343.201 202.497C337.553 208.285 333.162 216.063 334.134 226.128L352.05 224.398ZM356.091 215.06C364.478 206.444 374.535 203.373 386.98 204.951L389.245 187.094C371.889 184.893 355.986 189.362 343.193 202.506L356.091 215.06ZM386.981 204.952C389.31 205.247 391.662 205.646 394.236 206.085L397.262 188.341C394.752 187.913 392.019 187.446 389.243 187.094L386.981 204.952ZM394.236 206.085C400.46 207.147 408.092 208.503 416.107 207.675L414.258 189.771C409.091 190.304 403.88 189.47 397.262 188.341L394.236 206.085ZM416.105 207.675C425.365 206.721 433.965 202.633 439.601 193.627L424.343 184.079C422.219 187.473 419.159 189.265 414.259 189.77L416.105 207.675ZM435.569 197.103C435.618 197.082 436.034 196.905 436.486 196.664C436.903 196.44 437.84 195.912 438.786 194.982L426.161 182.152C426.602 181.718 427.01 181.412 427.301 181.214C427.596 181.012 427.846 180.872 428.005 180.786C428.281 180.639 428.508 180.545 428.375 180.603L435.569 197.103ZM429.395 197.127C429.846 197.221 430.299 197.312 430.755 197.401L434.192 179.732C433.811 179.658 433.435 179.582 433.065 179.505L429.395 197.127ZM426.869 180.443C420.077 184.206 415.256 184.465 411.712 183.446C407.987 182.375 403.971 179.404 399.885 173.444L385.039 183.622C390.518 191.615 397.608 198.12 406.738 200.745C416.048 203.422 425.828 201.597 435.591 196.189L426.869 180.443ZM399.883 173.441C396.926 169.132 394.002 162.914 391.875 156.411C389.714 149.806 388.685 143.849 388.835 140.037L370.849 139.329C370.579 146.177 372.295 154.449 374.767 162.007C377.272 169.667 380.868 177.544 385.041 183.625L399.883 173.441ZM373.164 145.716C373.707 146.317 374.248 146.918 374.794 147.526L388.176 135.488C387.632 134.883 387.078 134.267 386.52 133.649L373.164 145.716ZM374.794 147.526C380.059 153.379 385.899 159.927 393.224 165.11L403.62 150.416C398.214 146.591 393.681 141.607 388.176 135.488L374.794 147.526ZM393.22 165.107C400.356 170.162 409.63 175.546 421.458 174.721L420.206 156.765C414.835 157.14 409.928 154.884 403.624 150.419L393.22 165.107ZM421.463 174.721C421.323 174.731 420.712 174.757 419.855 174.501C418.916 174.22 418.056 173.711 417.374 173.071C416.765 172.5 416.484 171.998 416.443 171.925C416.418 171.88 416.465 171.959 416.677 172.459L433.247 165.427C432.929 164.678 431.896 162.014 429.688 159.942C426.799 157.232 423.278 156.549 420.201 156.765L421.463 174.721ZM416.681 172.468C417.055 173.347 417.456 174.21 417.882 175.056L433.96 166.964C433.706 166.458 433.467 165.943 433.243 165.418L416.681 172.468ZM428.281 162.203C427.826 162.155 427.304 162.101 426.767 162.05L425.075 179.97C425.505 180.011 425.936 180.056 426.405 180.105L428.281 162.203ZM424.129 174.1C423.874 173.601 422.021 169.672 424.95 165.659C426.166 163.993 427.651 163.217 428.482 162.881C429.313 162.544 429.962 162.453 430.184 162.426C430.598 162.375 430.703 162.417 430.162 162.381C429.699 162.35 429.127 162.292 428.281 162.203L426.405 180.105C427.488 180.219 430.184 180.56 432.37 180.293C433.086 180.205 436.928 179.78 439.488 176.273C442.733 171.828 440.856 167.274 440.153 165.9L424.129 174.1ZM415.376 145.487C416.399 154.691 419.479 165.014 424.129 174.1L440.153 165.9C436.46 158.683 434.039 150.459 433.266 143.499L415.376 145.487ZM432.115 149.125C432.258 148.803 432.421 148.436 432.583 148.063L416.059 140.924C415.94 141.199 415.814 141.482 415.665 141.818L432.115 149.125ZM431.695 150.079C431.826 149.777 431.96 149.474 432.115 149.125L415.665 141.818C415.516 142.154 415.343 142.543 415.169 142.947L431.695 150.079ZM431.7 51.2272C401.987 80.5514 400.107 124.861 415.694 151.108L431.17 141.918C419.737 122.665 420.617 87.4545 444.344 64.0387L431.7 51.2272ZM545.197 43.4591C510.899 17.4763 462.486 20.8425 431.7 51.2274L444.344 64.0385C468.838 39.8634 507.245 37.2896 534.327 57.8068L545.197 43.4591ZM571.587 148.537C587.291 116.016 580.714 70.3673 545.197 43.4592L534.327 57.8066C562.51 79.1586 567.634 115.329 555.378 140.709L571.587 148.537ZM563.472 153.623H563.482V135.623H563.472V153.623ZM463.399 197.029C462.505 201.75 464.221 205.355 464.741 206.562L481.272 199.438C481.125 199.097 481.07 198.967 481.031 198.863C481.001 198.783 481.025 198.834 481.057 198.969C481.091 199.115 481.13 199.337 481.14 199.611C481.15 199.889 481.128 200.15 481.085 200.377L463.399 197.029ZM472.252 189.703H472.242V207.703H472.252V189.703ZM500.246 191.635C491.704 192.558 483.07 191.806 474.128 189.901L470.376 207.505C480.674 209.7 491.28 210.708 502.179 209.531L500.246 191.635ZM502.238 191.436C501.619 191.495 500.932 191.56 500.238 191.636L502.186 209.53C502.739 209.47 503.306 209.416 503.944 209.355L502.238 191.436ZM507.471 190.663C506.216 191.029 504.732 191.198 502.238 191.436L503.944 209.355C506.121 209.148 509.339 208.869 512.513 207.943L507.471 190.663ZM521.259 205.969C521.501 205.311 521.931 204.15 522.21 202.972C522.402 202.162 523.095 199.264 521.828 196.129C521.071 194.254 519.727 192.578 517.861 191.427C516.134 190.362 514.419 190.025 513.197 189.926C510.953 189.746 508.86 190.257 507.466 190.665L512.518 207.941C513.364 207.694 512.877 207.959 511.75 207.868C511.085 207.815 509.805 207.607 508.409 206.746C506.874 205.799 505.757 204.402 505.139 202.872C504.586 201.503 504.558 200.351 504.577 199.802C504.596 199.233 504.685 198.866 504.696 198.818C504.704 198.785 504.658 198.96 504.365 199.757L521.259 205.969ZM493.709 226.245C506.266 225.705 516.994 217.631 521.265 205.954L504.36 199.772C502.53 204.775 498.058 208.041 492.936 208.261L493.709 226.245ZM464.927 206.999C469.481 218.369 481.374 226.787 493.717 226.244L492.927 208.262C488.89 208.439 483.604 205.217 481.637 200.307L464.927 206.999ZM464.741 206.562C464.842 206.796 464.895 206.919 464.938 207.025L481.626 200.281C481.494 199.952 481.359 199.641 481.272 199.439L464.741 206.562Z" fill="black" mask="url(#path-16-outside-1_2_127)"/>
<circle cx="456" cy="155" r="31" fill="white" stroke="black" stroke-width="8"/>
<circle cx="533" cy="155" r="31" fill="white" stroke="black" stroke-width="8"/>
<rect x="484" y="141" width="19" height="6" fill="black"/>
<circle cx="463" cy="153" r="12" fill="black"/>
<circle cx="466.5" cy="147.5" r="3.5" fill="white"/>
<circle cx="524" cy="153" r="12" fill="black"/>
<circle cx="527.5" cy="147.5" r="3.5" fill="white"/>
<path d="M534.2 95.7699C527.57 95.7499 523.3 91.3199 523.39 84.5699C523.48 78.2799 527.94 73.9099 534.3 73.8899C541.02 73.8599 545.3 78.1599 545.3 84.9299C545.3 91.6799 541.09 95.7999 534.2 95.7699Z" fill="#0BA6E3"/>
<path d="M556.25 101.76C556.33 106.24 553.47 109.17 548.94 109.24C544.38 109.31 541.4 106.49 541.32 102.03C541.24 97.3899 543.85 94.8099 548.66 94.7699C553.62 94.7299 556.17 97.0799 556.25 101.75V101.76Z" fill="#0BA6E3"/>
<path d="M530.82 105.31C534.12 105.34 535.44 106.74 535.4 109.88C535.36 112.96 533.8 113.89 531.12 113.9C528.27 113.9 526.38 112.9 526.37 109.67C526.35 106.43 528.33 105.47 530.82 105.3V105.31Z" fill="#0BA6E3"/>
<g clip-path="url(#clip1_2_127)">
<path d="M640.778 208.542V200.228H632.476V191.914H624.173H615.871H607.568H599.266H590.963H582.661H574.358H566.056V183.6H574.358H582.661H590.963V175.285V166.971H599.266V158.657V150.343H607.568H615.871V142.029V133.715H607.568V142.029H599.266H590.963V150.343H582.661V158.657H574.358H566.056V166.971V133.715V125.4H574.358V117.086V108.772V100.513V92.1992V83.885H566.056V75.5708V67.2567H557.753V58.9425H549.506V50.6283H541.204V42.3142H532.901H524.599V34H516.296H507.994H499.692H491.389H483.087H474.784H466.482V42.3142H458.179H449.877V50.6283H441.574V58.9425H433.272V67.2567H424.969V75.5708V83.885H416.667V92.1992V100.513V108.772V117.086V125.4H424.969V133.715V158.657H416.667H408.42V150.343H400.117V142.029H391.815H383.512V133.715H375.21V142.029V150.343H383.512H391.815V158.657V166.971H400.117V175.285V183.6H408.42H416.667H424.969V191.914H416.667H408.42H400.117H391.815H383.512H375.21H366.907H358.605V200.228H350.302V208.542H342V216.856V225.17H350.302V216.856H358.605H366.907H375.21H383.512H391.815H400.117V225.17H408.42H416.667H424.969H433.272V233.485H424.969H416.667H408.42H400.117H391.815V241.743H383.512H375.21V250.058H366.907V258.372V266.686H358.605V275H366.907H375.21V266.686H383.512V258.372H391.815H400.117V250.058H408.42H416.667V258.372H424.969H433.272H441.574H449.877H458.179V250.058H466.482H474.784V241.743H483.087V233.485H491.389V225.17V216.856H499.692V225.17V233.485H507.994V241.743H516.296V250.058H524.599H532.901V258.372H541.204H549.506H557.753H566.056H574.358V250.058H582.661H590.963V258.372H599.266H607.568V266.686H615.871V275H624.173H632.476V266.686H624.173V258.372V250.058H615.871V241.743H607.568H599.266V233.485H590.963H582.661H574.358H566.056H557.753V225.17H566.056H574.358H582.661H590.963V216.856H599.266H607.568H615.871H624.173H632.476H640.778V225.17H649.081V216.856V208.542H640.778Z" fill="#251533"/>
<path d="M474.784 142.029V133.715H466.482V125.4H458.179H449.877V133.715H441.574V142.029H433.272V150.343V158.657H441.574V166.971H449.877V175.285H458.179H466.482V166.971H474.784V158.657H483.087V150.343V142.029H474.784Z" fill="white"/>
<path d="M424.969 133.715H433.272V125.4H441.574V117.086H449.877H458.179H466.482H474.784V125.4H483.087V133.715H491.389V142.029H499.692V133.715H507.994V125.4H516.296V117.086H524.599H532.901H541.204H549.506V125.4H557.753V133.715H566.056V125.4H574.358V117.086V108.772V100.513V92.1992V83.885H566.056V75.5708V67.2567H557.753V58.9425H549.506V50.6283H541.204V42.3142H532.901H524.599V34H516.296H507.994H499.692H491.389H483.087H474.784H466.482V42.3142H458.179H449.877V50.6283H441.574V58.9425H433.272V67.2567H424.969V75.5708V83.885H416.667V92.1992V100.513V108.772V117.086V125.4H424.969V133.715Z" fill="#FFD10D"/>
<path d="M640.778 208.542V200.228H632.476V191.914H624.173H615.871H607.568H599.266H590.963H582.661H574.358H566.056V183.6H574.358H582.661H590.963V175.285V166.971H599.266V158.657V150.343H607.568H615.871V142.029V133.715H607.568V142.029H599.266H590.963V150.343H582.661V158.657H574.358H566.056V166.971H557.753V175.285H549.506V183.6H541.204H532.901H524.599H516.296V175.285H507.994V166.971H499.692V158.657V150.343H491.389V158.657V166.971H483.087V175.285H474.784V183.6H466.482H458.179H449.877H441.574V175.285H433.272V166.971H424.969V158.657H416.667H408.42V150.343H400.117V142.029H391.815H383.512V133.715H375.21V142.029V150.343H383.512H391.815V158.657V166.971H400.117V175.285V183.6H408.42H416.667H424.969V191.914H416.667H408.42H400.117H391.815H383.512H375.21H366.907H358.605V200.228H350.302V208.542H342V216.856V225.17H350.302V216.856H358.605H366.907H375.21H383.512H391.815H400.117V225.17H408.42H416.667H424.969H433.272V233.485H424.969H416.667H408.42H400.117H391.815V241.799H383.512H375.21V250.058H366.907V258.372V266.686H358.605V275H366.907H375.21V266.686H383.512V258.372H391.815H400.117V250.058H408.42H416.667V258.372H424.969H433.272H441.574H449.877H458.179V250.058H466.482H474.784V241.799H483.087V233.485H491.389V225.17V216.856H499.692V225.17V233.485H507.994V241.799H516.296V250.058H524.599H532.901V258.372H541.204H549.506H557.753H566.056H574.358V250.058H582.661H590.963V258.372H599.266H607.568V266.686H615.871V275H624.173H632.476V266.686H624.173V258.372V250.058H615.871V241.799H607.568H599.266V233.485H590.963H582.661H574.358H566.056H557.753V225.17H566.056H574.358H582.661H590.963V216.856H599.266H607.568H615.871H624.173H632.476H640.778V225.17H649.081V216.856V208.542H640.778Z" fill="#FFD10D"/>
<path d="M466.482 142.029V133.715H458.179V142.029V150.343H466.482H474.784V142.029H466.482Z" fill="#231F20"/>
<path d="M549.506 142.029V133.715H541.204V125.4H532.901H524.599V133.715H516.296V142.029H507.994V150.343V158.657H516.296V166.971H524.599V175.285H532.901H541.204V166.971H549.506V158.657H557.753V150.343V142.029H549.506Z" fill="white"/>
<path d="M541.204 142.029V133.715H532.902V142.029V150.343H541.204H549.506V142.029H541.204Z" fill="#231F20"/>
<path d="M549.506 83.885H541.204V92.1992H549.506V83.885Z" fill="#231F20"/>
<path d="M524.599 92.1992H516.296V100.513H524.599V92.1992Z" fill="#231F20"/>
<path d="M532.901 67.2567H524.599V75.5709V83.8851H532.901H541.204V75.5709V67.2567H532.901Z" fill="#231F20"/>
<path d="M433.272 200.228H424.969V208.542H433.272V200.228Z" fill="#231F20"/>
<path d="M441.574 191.914H433.272V200.228H441.574H449.877V191.914H441.574Z" fill="#231F20"/>
<path d="M516.296 191.914H507.994V200.228H516.296V191.914Z" fill="#231F20"/>
<path d="M483.087 191.914H474.784V200.228H483.087V191.914Z" fill="#231F20"/>
<path d="M499.692 200.228H491.389H483.087V208.542H491.389H499.692H507.994V200.228H499.692Z" fill="#231F20"/>
</g>
<g clip-path="url(#clip2_2_127)">
<path d="M968.977 212.163V203.677H960.502V195.19H952.027H943.553H935.078H926.603H918.129H909.654H901.179H892.704V186.703H901.179H909.654H918.129V178.217V169.73H926.603V161.243V152.757H935.078H943.553V144.27V135.783H935.078V144.27H926.603H918.129V152.757H909.654V161.243H901.179H892.704V169.73V135.783V127.297H901.179V118.81V110.323V101.893V93.4066V84.92H892.704V76.4333V67.9466H884.23V59.46H875.811V50.9733H867.337V42.4867H858.862H850.387V34H841.913H833.438H824.963H816.488H808.014H799.539H791.064V42.4867H782.59H774.115V50.9733H765.64V59.46H757.165V67.9466H748.691V76.4333V84.92H740.216V93.4066V101.893V110.323V118.81V127.297H748.691V135.783V161.243H740.216H731.798V152.757H723.323V144.27H714.848H706.374V135.783H697.899V144.27V152.757H706.374H714.848V161.243V169.73H723.323V178.217V186.703H731.798H740.216H748.691V195.19H740.216H731.798H723.323H714.848H706.374H697.899H689.424H680.949V203.677H672.475V212.163H664V220.65V229.137H672.475V220.65H680.949H689.424H697.899H706.374H714.848H723.323V229.137H731.798H740.216H748.691H757.165V237.623H748.691H740.216H731.798H723.323H714.848V246.053H706.374H697.899V254.54H689.424V263.027V271.513H680.949V280H689.424H697.899V271.513H706.374V263.027H714.848H723.323V254.54H731.798H740.216V263.027H748.691H757.165H765.64H774.115H782.59V254.54H791.064H799.539V246.053H808.014V237.623H816.488V229.137V220.65H824.963V229.137V237.623H833.438V246.053H841.913V254.54H850.387H858.862V263.027H867.337H875.811H884.23H892.704H901.179V254.54H909.654H918.129V263.027H926.603H935.078V271.513H943.553V280H952.027H960.502V271.513H952.027V263.027V254.54H943.553V246.053H935.078H926.603V237.623H918.129H909.654H901.179H892.704H884.23V229.137H892.704H901.179H909.654H918.129V220.65H926.603H935.078H943.553H952.027H960.502H968.977V229.137H977.452V220.65V212.163H968.977Z" fill="#251533"/>
<path d="M799.539 144.27V135.783H791.064V127.297H782.59H774.115V135.783H765.64V144.27H757.165V152.757V161.243H765.64V169.73H774.115V178.217H782.59H791.064V169.73H799.539V161.243H808.014V152.757V144.27H799.539Z" fill="white"/>
<path d="M748.691 135.783H757.165V127.297H765.64V118.81H774.115H782.59H791.064H799.539V127.297H808.014V135.783H816.488V144.27H824.963V135.783H833.438V127.297H841.913V118.81H850.387H858.862H867.337H875.811V127.297H884.23V135.783H892.704V127.297H901.179V118.81V110.323V101.893V93.4066V84.92H892.704V76.4333V67.9466H884.23V59.46H875.811V50.9733H867.337V42.4867H858.862H850.387V34H841.913H833.438H824.963H816.488H808.014H799.539H791.064V42.4867H782.59H774.115V50.9733H765.64V59.46H757.165V67.9466H748.691V76.4333V84.92H740.216V93.4066V101.893V110.323V118.81V127.297H748.691V135.783Z" fill="#FFD10D"/>
<path d="M968.977 212.163V203.677H960.502V195.19H952.027H943.553H935.078H926.603H918.129H909.654H901.179H892.704V186.703H901.179H909.654H918.129V178.217V169.73H926.603V161.243V152.757H935.078H943.553V144.27V135.783H935.078V144.27H926.603H918.129V152.757H909.654V161.243H901.179H892.704V169.73H884.23V178.217H875.811V186.703H867.337H858.862H850.387H841.913V178.217H833.438V169.73H824.963V161.243V152.757H816.488V161.243V169.73H808.014V178.217H799.539V186.703H791.064H782.59H774.115H765.64V178.217H757.165V169.73H748.691V161.243H740.216H731.798V152.757H723.323V144.27H714.848H706.374V135.783H697.899V144.27V152.757H706.374H714.848V161.243V169.73H723.323V178.217V186.703H731.798H740.216H748.691V195.19H740.216H731.798H723.323H714.848H706.374H697.899H689.424H680.949V203.677H672.475V212.163H664V220.65V229.137H672.475V220.65H680.949H689.424H697.899H706.374H714.848H723.323V229.137H731.798H740.216H748.691H757.165V237.623H748.691H740.216H731.798H723.323H714.848V246.11H706.374H697.899V254.54H689.424V263.027V271.513H680.949V280H689.424H697.899V271.513H706.374V263.027H714.848H723.323V254.54H731.798H740.216V263.027H748.691H757.165H765.64H774.115H782.59V254.54H791.064H799.539V246.11H808.014V237.623H816.488V229.137V220.65H824.963V229.137V237.623H833.438V246.11H841.913V254.54H850.387H858.862V263.027H867.337H875.811H884.23H892.704H901.179V254.54H909.654H918.129V263.027H926.603H935.078V271.513H943.553V280H952.027H960.502V271.513H952.027V263.027V254.54H943.553V246.11H935.078H926.603V237.623H918.129H909.654H901.179H892.704H884.23V229.137H892.704H901.179H909.654H918.129V220.65H926.603H935.078H943.553H952.027H960.502H968.977V229.137H977.452V220.65V212.163H968.977Z" fill="#FFD10D"/>
<path d="M791.064 144.27V135.783H782.59V144.27V152.757H791.064H799.539V144.27H791.064Z" fill="#231F20"/>
<path d="M875.811 144.27V135.783H867.337V127.297H858.862H850.387V135.783H841.913V144.27H833.438V152.757V161.243H841.913V169.73H850.387V178.217H858.862H867.337V169.73H875.811V161.243H884.23V152.757V144.27H875.811Z" fill="white"/>
<path d="M867.337 144.27V135.783H858.862V144.27V152.757H867.337H875.812V144.27H867.337Z" fill="#231F20"/>
<path d="M875.811 84.9199H867.337V93.4066H875.811V84.9199Z" fill="#231F20"/>
<path d="M850.387 93.4066H841.913V101.893H850.387V93.4066Z" fill="#231F20"/>
<path d="M858.862 67.9467H850.387V76.4333V84.92H858.862H867.337V76.4333V67.9467H858.862Z" fill="#231F20"/>
<path d="M757.165 203.677H748.691V212.163H757.165V203.677Z" fill="#231F20"/>
<path d="M765.64 195.19H757.165V203.677H765.64H774.115V195.19H765.64Z" fill="#231F20"/>
<path d="M841.913 195.19H833.438V203.677H841.913V195.19Z" fill="#231F20"/>
<path d="M808.014 195.19H799.539V203.677H808.014V195.19Z" fill="#231F20"/>
<path d="M824.963 203.677H816.488H808.014V212.163H816.488H824.963H833.438V203.677H824.963Z" fill="#231F20"/>
</g>
<g clip-path="url(#clip3_2_127)">
<path d="M1290.98 212.163V203.677H1282.5V195.19H1274.03H1265.55H1257.08H1248.6H1240.13H1231.65H1223.18H1214.7V186.703H1223.18H1231.65H1240.13V178.217V169.73H1248.6V161.243V152.757H1257.08H1265.55V144.27V135.783H1257.08V144.27H1248.6H1240.13V152.757H1231.65V161.243H1223.18H1214.7V169.73V135.783V127.297H1223.18V118.81V110.323V101.893V93.4066V84.92H1214.7V76.4333V67.9466H1206.23V59.46H1197.81V50.9733H1189.34V42.4867H1180.86H1172.39V34H1163.91H1155.44H1146.96H1138.49H1130.01H1121.54H1113.06V42.4867H1104.59H1096.11V50.9733H1087.64V59.46H1079.17V67.9466H1070.69V76.4333V84.92H1062.22V93.4066V101.893V110.323V118.81V127.297H1070.69V135.783V161.243H1062.22H1053.8V152.757H1045.32V144.27H1036.85H1028.37V135.783H1019.9V144.27V152.757H1028.37H1036.85V161.243V169.73H1045.32V178.217V186.703H1053.8H1062.22H1070.69V195.19H1062.22H1053.8H1045.32H1036.85H1028.37H1019.9H1011.42H1002.95V203.677H994.475V212.163H986V220.65V229.137H994.475V220.65H1002.95H1011.42H1019.9H1028.37H1036.85H1045.32V229.137H1053.8H1062.22H1070.69H1079.17V237.623H1070.69H1062.22H1053.8H1045.32H1036.85V246.053H1028.37H1019.9V254.54H1011.42V263.027V271.513H1002.95V280H1011.42H1019.9V271.513H1028.37V263.027H1036.85H1045.32V254.54H1053.8H1062.22V263.027H1070.69H1079.17H1087.64H1096.11H1104.59V254.54H1113.06H1121.54V246.053H1130.01V237.623H1138.49V229.137V220.65H1146.96V229.137V237.623H1155.44V246.053H1163.91V254.54H1172.39H1180.86V263.027H1189.34H1197.81H1206.23H1214.7H1223.18V254.54H1231.65H1240.13V263.027H1248.6H1257.08V271.513H1265.55V280H1274.03H1282.5V271.513H1274.03V263.027V254.54H1265.55V246.053H1257.08H1248.6V237.623H1240.13H1231.65H1223.18H1214.7H1206.23V229.137H1214.7H1223.18H1231.65H1240.13V220.65H1248.6H1257.08H1265.55H1274.03H1282.5H1290.98V229.137H1299.45V220.65V212.163H1290.98Z" fill="#251533"/>
<path d="M1121.54 144.27V135.783H1113.06V127.297H1104.59H1096.11V135.783H1087.64V144.27H1079.17V152.757V161.243H1087.64V169.73H1096.11V178.217H1104.59H1113.06V169.73H1121.54V161.243H1130.01V152.757V144.27H1121.54Z" fill="white"/>
<path d="M1070.69 135.783H1079.17V127.297H1087.64V118.81H1096.11H1104.59H1113.06H1121.54V127.297H1130.01V135.783H1138.49V144.27H1146.96V135.783H1155.44V127.297H1163.91V118.81H1172.39H1180.86H1189.34H1197.81V127.297H1206.23V135.783H1214.7V127.297H1223.18V118.81V110.323V101.893V93.4066V84.92H1214.7V76.4333V67.9466H1206.23V59.46H1197.81V50.9733H1189.34V42.4867H1180.86H1172.39V34H1163.91H1155.44H1146.96H1138.49H1130.01H1121.54H1113.06V42.4867H1104.59H1096.11V50.9733H1087.64V59.46H1079.17V67.9466H1070.69V76.4333V84.92H1062.22V93.4066V101.893V110.323V118.81V127.297H1070.69V135.783Z" fill="#FFD10D"/>
<path d="M1290.98 212.163V203.677H1282.5V195.19H1274.03H1265.55H1257.08H1248.6H1240.13H1231.65H1223.18H1214.7V186.703H1223.18H1231.65H1240.13V178.217V169.73H1248.6V161.243V152.757H1257.08H1265.55V144.27V135.783H1257.08V144.27H1248.6H1240.13V152.757H1231.65V161.243H1223.18H1214.7V169.73H1206.23V178.217H1197.81V186.703H1189.34H1180.86H1172.39H1163.91V178.217H1155.44V169.73H1146.96V161.243V152.757H1138.49V161.243V169.73H1130.01V178.217H1121.54V186.703H1113.06H1104.59H1096.11H1087.64V178.217H1079.17V169.73H1070.69V161.243H1062.22H1053.8V152.757H1045.32V144.27H1036.85H1028.37V135.783H1019.9V144.27V152.757H1028.37H1036.85V161.243V169.73H1045.32V178.217V186.703H1053.8H1062.22H1070.69V195.19H1062.22H1053.8H1045.32H1036.85H1028.37H1019.9H1011.42H1002.95V203.677H994.475V212.163H986V220.65V229.137H994.475V220.65H1002.95H1011.42H1019.9H1028.37H1036.85H1045.32V229.137H1053.8H1062.22H1070.69H1079.17V237.623H1070.69H1062.22H1053.8H1045.32H1036.85V246.11H1028.37H1019.9V254.54H1011.42V263.027V271.513H1002.95V280H1011.42H1019.9V271.513H1028.37V263.027H1036.85H1045.32V254.54H1053.8H1062.22V263.027H1070.69H1079.17H1087.64H1096.11H1104.59V254.54H1113.06H1121.54V246.11H1130.01V237.623H1138.49V229.137V220.65H1146.96V229.137V237.623H1155.44V246.11H1163.91V254.54H1172.39H1180.86V263.027H1189.34H1197.81H1206.23H1214.7H1223.18V254.54H1231.65H1240.13V263.027H1248.6H1257.08V271.513H1265.55V280H1274.03H1282.5V271.513H1274.03V263.027V254.54H1265.55V246.11H1257.08H1248.6V237.623H1240.13H1231.65H1223.18H1214.7H1206.23V229.137H1214.7H1223.18H1231.65H1240.13V220.65H1248.6H1257.08H1265.55H1274.03H1282.5H1290.98V229.137H1299.45V220.65V212.163H1290.98Z" fill="#FFD10D"/>
<path d="M1113.06 144.27V135.783H1104.59V144.27V152.757H1113.06H1121.54V144.27H1113.06Z" fill="#231F20"/>
<path d="M1197.81 144.27V135.783H1189.34V127.297H1180.86H1172.39V135.783H1163.91V144.27H1155.44V152.757V161.243H1163.91V169.73H1172.39V178.217H1180.86H1189.34V169.73H1197.81V161.243H1206.23V152.757V144.27H1197.81Z" fill="white"/>
<path d="M1189.34 144.27V135.783H1180.86V144.27V152.757H1189.34H1197.81V144.27H1189.34Z" fill="#231F20"/>
<path d="M1197.81 84.9199H1189.34V93.4066H1197.81V84.9199Z" fill="#231F20"/>
<path d="M1172.39 93.4066H1163.91V101.893H1172.39V93.4066Z" fill="#231F20"/>
<path d="M1180.86 67.9467H1172.39V76.4333V84.92H1180.86H1189.34V76.4333V67.9467H1180.86Z" fill="#231F20"/>
<path d="M1079.17 203.677H1070.69V212.163H1079.17V203.677Z" fill="#231F20"/>
<path d="M1087.64 195.19H1079.17V203.677H1087.64H1096.11V195.19H1087.64Z" fill="#231F20"/>
<path d="M1163.91 195.19H1155.44V203.677H1163.91V195.19Z" fill="#231F20"/>
<path d="M1130.01 195.19H1121.54V203.677H1130.01V195.19Z" fill="#231F20"/>
<path d="M1146.96 203.677H1138.49H1130.01V212.163H1138.49H1146.96H1155.44V203.677H1146.96Z" fill="#231F20"/>
</g>
<defs>
<clipPath id="clip0_2_127">
<rect width="313.452" height="246" fill="white" transform="translate(20 34)"/>
</clipPath>
<clipPath id="clip1_2_127">
<rect width="307.081" height="241" fill="white" transform="translate(342 34)"/>
</clipPath>
<clipPath id="clip2_2_127">
<rect width="313.452" height="246" fill="white" transform="translate(664 34)"/>
</clipPath>
<clipPath id="clip3_2_127">
<rect width="313.452" height="246" fill="white" transform="translate(986 34)"/>
</clipPath>
</defs>
</svg>
