<svg width="1308" height="290" viewBox="0 0 1308 290" fill="none" xmlns="http://www.w3.org/2000/svg">
<g clip-path="url(#clip0_2_256)">
<path d="M324.977 212.163V203.677H316.502V195.19H308.027H299.553H291.078H282.603H274.129H265.654H257.179H248.704V186.703H257.179H265.654H274.129V178.217V169.73H282.603V161.243V152.757H291.078H299.553V144.27V135.783H291.078V144.27H282.603H274.129V152.757H265.654V161.243H257.179H248.704V169.73V135.783V127.297H257.179V118.81V110.323V101.893V93.4066V84.92H248.704V76.4333V67.9466H240.23V59.46H231.811V50.9733H223.337V42.4867H214.862H206.387V34H197.913H189.438H180.963H172.488H164.014H155.539H147.064V42.4867H138.59H130.115V50.9733H121.64V59.46H113.165V67.9466H104.691V76.4333V84.92H96.216V93.4066V101.893V110.323V118.81V127.297H104.691V135.783V161.243H96.216H87.7978V152.757H79.323V144.27H70.8483H62.3736V135.783H53.8989V144.27V152.757H62.3736H70.8483V161.243V169.73H79.323V178.217V186.703H87.7978H96.216H104.691V195.19H96.216H87.7978H79.323H70.8483H62.3736H53.8989H45.4242H36.9494V203.677H28.4747V212.163H20V220.65V229.137H28.4747V220.65H36.9494H45.4242H53.8989H62.3736H70.8483H79.323V229.137H87.7978H96.216H104.691H113.165V237.623H104.691H96.216H87.7978H79.323H70.8483V246.053H62.3736H53.8989V254.54H45.4242V263.027V271.513H36.9494V280H45.4242H53.8989V271.513H62.3736V263.027H70.8483H79.323V254.54H87.7978H96.216V263.027H104.691H113.165H121.64H130.115H138.59V254.54H147.064H155.539V246.053H164.014V237.623H172.488V229.137V220.65H180.963V229.137V237.623H189.438V246.053H197.913V254.54H206.387H214.862V263.027H223.337H231.811H240.23H248.704H257.179V254.54H265.654H274.129V263.027H282.603H291.078V271.513H299.553V280H308.027H316.502V271.513H308.027V263.027V254.54H299.553V246.053H291.078H282.603V237.623H274.129H265.654H257.179H248.704H240.23V229.137H248.704H257.179H265.654H274.129V220.65H282.603H291.078H299.553H308.027H316.502H324.977V229.137H333.452V220.65V212.163H324.977Z" fill="#251533"/>
<path d="M155.539 144.27V135.783H147.064V127.297H138.59H130.115V135.783H121.64V144.27H113.165V152.757V161.243H121.64V169.73H130.115V178.217H138.59H147.064V169.73H155.539V161.243H164.014V152.757V144.27H155.539Z" fill="white"/>
<path d="M104.691 135.783H113.165V127.297H121.64V118.81H130.115H138.59H147.064H155.539V127.297H164.014V135.783H172.488V144.27H180.963V135.783H189.438V127.297H197.913V118.81H206.387H214.862H223.337H231.811V127.297H240.23V135.783H248.704V127.297H257.179V118.81V110.323V101.893V93.4066V84.92H248.704V76.4333V67.9466H240.23V59.46H231.811V50.9733H223.337V42.4867H214.862H206.387V34H197.913H189.438H180.963H172.488H164.014H155.539H147.064V42.4867H138.59H130.115V50.9733H121.64V59.46H113.165V67.9466H104.691V76.4333V84.92H96.216V93.4066V101.893V110.323V118.81V127.297H104.691V135.783Z" fill="#FFD10D"/>
<path d="M324.977 212.163V203.677H316.502V195.19H308.027H299.553H291.078H282.603H274.129H265.654H257.179H248.704V186.703H257.179H265.654H274.129V178.217V169.73H282.603V161.243V152.757H291.078H299.553V144.27V135.783H291.078V144.27H282.603H274.129V152.757H265.654V161.243H257.179H248.704V169.73H240.23V178.217H231.811V186.703H223.337H214.862H206.387H197.913V178.217H189.438V169.73H180.963V161.243V152.757H172.488V161.243V169.73H164.014V178.217H155.539V186.703H147.064H138.59H130.115H121.64V178.217H113.165V169.73H104.691V161.243H96.216H87.7978V152.757H79.323V144.27H70.8483H62.3736V135.783H53.8989V144.27V152.757H62.3736H70.8483V161.243V169.73H79.323V178.217V186.703H87.7978H96.216H104.691V195.19H96.216H87.7978H79.323H70.8483H62.3736H53.8989H45.4242H36.9494V203.677H28.4747V212.163H20V220.65V229.137H28.4747V220.65H36.9494H45.4242H53.8989H62.3736H70.8483H79.323V229.137H87.7978H96.216H104.691H113.165V237.623H104.691H96.216H87.7978H79.323H70.8483V246.11H62.3736H53.8989V254.54H45.4242V263.027V271.513H36.9494V280H45.4242H53.8989V271.513H62.3736V263.027H70.8483H79.323V254.54H87.7978H96.216V263.027H104.691H113.165H121.64H130.115H138.59V254.54H147.064H155.539V246.11H164.014V237.623H172.488V229.137V220.65H180.963V229.137V237.623H189.438V246.11H197.913V254.54H206.387H214.862V263.027H223.337H231.811H240.23H248.704H257.179V254.54H265.654H274.129V263.027H282.603H291.078V271.513H299.553V280H308.027H316.502V271.513H308.027V263.027V254.54H299.553V246.11H291.078H282.603V237.623H274.129H265.654H257.179H248.704H240.23V229.137H248.704H257.179H265.654H274.129V220.65H282.603H291.078H299.553H308.027H316.502H324.977V229.137H333.452V220.65V212.163H324.977Z" fill="#FFD10D"/>
<path d="M147.064 144.27V135.783H138.59V144.27V152.757H147.064H155.539V144.27H147.064Z" fill="#231F20"/>
<path d="M231.811 144.27V135.783H223.337V127.297H214.862H206.387V135.783H197.913V144.27H189.438V152.757V161.243H197.913V169.73H206.387V178.217H214.862H223.337V169.73H231.811V161.243H240.23V152.757V144.27H231.811Z" fill="white"/>
<path d="M223.337 144.27V135.783H214.862V144.27V152.757H223.337H231.812V144.27H223.337Z" fill="#231F20"/>
<path d="M231.811 84.9199H223.337V93.4066H231.811V84.9199Z" fill="#231F20"/>
<path d="M206.387 93.4066H197.913V101.893H206.387V93.4066Z" fill="#231F20"/>
<path d="M214.862 67.9467H206.387V76.4333V84.92H214.862H223.337V76.4333V67.9467H214.862Z" fill="#231F20"/>
<path d="M113.165 203.677H104.691V212.163H113.165V203.677Z" fill="#231F20"/>
<path d="M121.64 195.19H113.165V203.677H121.64H130.115V195.19H121.64Z" fill="#231F20"/>
<path d="M197.913 195.19H189.438V203.677H197.913V195.19Z" fill="#231F20"/>
<path d="M164.014 195.19H155.539V203.677H164.014V195.19Z" fill="#231F20"/>
<path d="M180.963 203.677H172.488H164.014V212.163H172.488H180.963H189.438V203.677H180.963Z" fill="#231F20"/>
</g>
<g clip-path="url(#clip1_2_256)">
<path d="M646.977 212.163V203.677H638.502V195.19H630.027H621.553H613.078H604.603H596.129H587.654H579.179H570.704V186.703H579.179H587.654H596.129V178.217V169.73H604.603V161.243V152.757H613.078H621.553V144.27V135.783H613.078V144.27H604.603H596.129V152.757H587.654V161.243H579.179H570.704V169.73V135.783V127.297H579.179V118.81V110.323V101.893V93.4066V84.92H570.704V76.4333V67.9466H562.23V59.46H553.811V50.9733H545.337V42.4867H536.862H528.387V34H519.913H511.438H502.963H494.488H486.014H477.539H469.064V42.4867H460.59H452.115V50.9733H443.64V59.46H435.165V67.9466H426.691V76.4333V84.92H418.216V93.4066V101.893V110.323V118.81V127.297H426.691V135.783V161.243H418.216H409.798V152.757H401.323V144.27H392.848H384.374V135.783H375.899V144.27V152.757H384.374H392.848V161.243V169.73H401.323V178.217V186.703H409.798H418.216H426.691V195.19H418.216H409.798H401.323H392.848H384.374H375.899H367.424H358.949V203.677H350.475V212.163H342V220.65V229.137H350.475V220.65H358.949H367.424H375.899H384.374H392.848H401.323V229.137H409.798H418.216H426.691H435.165V237.623H426.691H418.216H409.798H401.323H392.848V246.053H384.374H375.899V254.54H367.424V263.027V271.513H358.949V280H367.424H375.899V271.513H384.374V263.027H392.848H401.323V254.54H409.798H418.216V263.027H426.691H435.165H443.64H452.115H460.59V254.54H469.064H477.539V246.053H486.014V237.623H494.488V229.137V220.65H502.963V229.137V237.623H511.438V246.053H519.913V254.54H528.387H536.862V263.027H545.337H553.811H562.23H570.704H579.179V254.54H587.654H596.129V263.027H604.603H613.078V271.513H621.553V280H630.027H638.502V271.513H630.027V263.027V254.54H621.553V246.053H613.078H604.603V237.623H596.129H587.654H579.179H570.704H562.23V229.137H570.704H579.179H587.654H596.129V220.65H604.603H613.078H621.553H630.027H638.502H646.977V229.137H655.452V220.65V212.163H646.977Z" fill="#251533"/>
<path d="M477.539 144.27V135.783H469.064V127.297H460.59H452.115V135.783H443.64V144.27H435.165V152.757V161.243H443.64V169.73H452.115V178.217H460.59H469.064V169.73H477.539V161.243H486.014V152.757V144.27H477.539Z" fill="white"/>
<path d="M426.691 135.783H435.165V127.297H443.64V118.81H452.115H460.59H469.064H477.539V127.297H486.014V135.783H494.488V144.27H502.963V135.783H511.438V127.297H519.913V118.81H528.387H536.862H545.337H553.811V127.297H562.23V135.783H570.704V127.297H579.179V118.81V110.323V101.893V93.4066V84.92H570.704V76.4333V67.9466H562.23V59.46H553.811V50.9733H545.337V42.4867H536.862H528.387V34H519.913H511.438H502.963H494.488H486.014H477.539H469.064V42.4867H460.59H452.115V50.9733H443.64V59.46H435.165V67.9466H426.691V76.4333V84.92H418.216V93.4066V101.893V110.323V118.81V127.297H426.691V135.783Z" fill="#FFD10D"/>
<path d="M646.977 212.163V203.677H638.502V195.19H630.027H621.553H613.078H604.603H596.129H587.654H579.179H570.704V186.703H579.179H587.654H596.129V178.217V169.73H604.603V161.243V152.757H613.078H621.553V144.27V135.783H613.078V144.27H604.603H596.129V152.757H587.654V161.243H579.179H570.704V169.73H562.23V178.217H553.811V186.703H545.337H536.862H528.387H519.913V178.217H511.438V169.73H502.963V161.243V152.757H494.488V161.243V169.73H486.014V178.217H477.539V186.703H469.064H460.59H452.115H443.64V178.217H435.165V169.73H426.691V161.243H418.216H409.798V152.757H401.323V144.27H392.848H384.374V135.783H375.899V144.27V152.757H384.374H392.848V161.243V169.73H401.323V178.217V186.703H409.798H418.216H426.691V195.19H418.216H409.798H401.323H392.848H384.374H375.899H367.424H358.949V203.677H350.475V212.163H342V220.65V229.137H350.475V220.65H358.949H367.424H375.899H384.374H392.848H401.323V229.137H409.798H418.216H426.691H435.165V237.623H426.691H418.216H409.798H401.323H392.848V246.11H384.374H375.899V254.54H367.424V263.027V271.513H358.949V280H367.424H375.899V271.513H384.374V263.027H392.848H401.323V254.54H409.798H418.216V263.027H426.691H435.165H443.64H452.115H460.59V254.54H469.064H477.539V246.11H486.014V237.623H494.488V229.137V220.65H502.963V229.137V237.623H511.438V246.11H519.913V254.54H528.387H536.862V263.027H545.337H553.811H562.23H570.704H579.179V254.54H587.654H596.129V263.027H604.603H613.078V271.513H621.553V280H630.027H638.502V271.513H630.027V263.027V254.54H621.553V246.11H613.078H604.603V237.623H596.129H587.654H579.179H570.704H562.23V229.137H570.704H579.179H587.654H596.129V220.65H604.603H613.078H621.553H630.027H638.502H646.977V229.137H655.452V220.65V212.163H646.977Z" fill="#FFD10D"/>
<path d="M469.064 144.27V135.783H460.59V144.27V152.757H469.064H477.539V144.27H469.064Z" fill="#231F20"/>
<path d="M553.811 144.27V135.783H545.337V127.297H536.862H528.387V135.783H519.913V144.27H511.438V152.757V161.243H519.913V169.73H528.387V178.217H536.862H545.337V169.73H553.811V161.243H562.23V152.757V144.27H553.811Z" fill="white"/>
<path d="M545.337 144.27V135.783H536.862V144.27V152.757H545.337H553.812V144.27H545.337Z" fill="#231F20"/>
<path d="M553.811 84.9199H545.337V93.4066H553.811V84.9199Z" fill="#231F20"/>
<path d="M528.387 93.4066H519.913V101.893H528.387V93.4066Z" fill="#231F20"/>
<path d="M536.862 67.9467H528.387V76.4333V84.92H536.862H545.337V76.4333V67.9467H536.862Z" fill="#231F20"/>
<path d="M435.165 203.677H426.691V212.163H435.165V203.677Z" fill="#231F20"/>
<path d="M443.64 195.19H435.165V203.677H443.64H452.115V195.19H443.64Z" fill="#231F20"/>
<path d="M519.913 195.19H511.438V203.677H519.913V195.19Z" fill="#231F20"/>
<path d="M486.014 195.19H477.539V203.677H486.014V195.19Z" fill="#231F20"/>
<path d="M502.963 203.677H494.488H486.014V212.163H494.488H502.963H511.438V203.677H502.963Z" fill="#231F20"/>
</g>
<g clip-path="url(#clip2_2_256)">
<path d="M968.977 212.163V203.677H960.502V195.19H952.027H943.553H935.078H926.603H918.129H909.654H901.179H892.704V186.703H901.179H909.654H918.129V178.217V169.73H926.603V161.243V152.757H935.078H943.553V144.27V135.783H935.078V144.27H926.603H918.129V152.757H909.654V161.243H901.179H892.704V169.73V135.783V127.297H901.179V118.81V110.323V101.893V93.4066V84.92H892.704V76.4333V67.9466H884.23V59.46H875.811V50.9733H867.337V42.4867H858.862H850.387V34H841.913H833.438H824.963H816.488H808.014H799.539H791.064V42.4867H782.59H774.115V50.9733H765.64V59.46H757.165V67.9466H748.691V76.4333V84.92H740.216V93.4066V101.893V110.323V118.81V127.297H748.691V135.783V161.243H740.216H731.798V152.757H723.323V144.27H714.848H706.374V135.783H697.899V144.27V152.757H706.374H714.848V161.243V169.73H723.323V178.217V186.703H731.798H740.216H748.691V195.19H740.216H731.798H723.323H714.848H706.374H697.899H689.424H680.949V203.677H672.475V212.163H664V220.65V229.137H672.475V220.65H680.949H689.424H697.899H706.374H714.848H723.323V229.137H731.798H740.216H748.691H757.165V237.623H748.691H740.216H731.798H723.323H714.848V246.053H706.374H697.899V254.54H689.424V263.027V271.513H680.949V280H689.424H697.899V271.513H706.374V263.027H714.848H723.323V254.54H731.798H740.216V263.027H748.691H757.165H765.64H774.115H782.59V254.54H791.064H799.539V246.053H808.014V237.623H816.488V229.137V220.65H824.963V229.137V237.623H833.438V246.053H841.913V254.54H850.387H858.862V263.027H867.337H875.811H884.23H892.704H901.179V254.54H909.654H918.129V263.027H926.603H935.078V271.513H943.553V280H952.027H960.502V271.513H952.027V263.027V254.54H943.553V246.053H935.078H926.603V237.623H918.129H909.654H901.179H892.704H884.23V229.137H892.704H901.179H909.654H918.129V220.65H926.603H935.078H943.553H952.027H960.502H968.977V229.137H977.452V220.65V212.163H968.977Z" fill="#251533"/>
<path d="M799.539 144.27V135.783H791.064V127.297H782.59H774.115V135.783H765.64V144.27H757.165V152.757V161.243H765.64V169.73H774.115V178.217H782.59H791.064V169.73H799.539V161.243H808.014V152.757V144.27H799.539Z" fill="white"/>
<path d="M748.691 135.783H757.165V127.297H765.64V118.81H774.115H782.59H791.064H799.539V127.297H808.014V135.783H816.488V144.27H824.963V135.783H833.438V127.297H841.913V118.81H850.387H858.862H867.337H875.811V127.297H884.23V135.783H892.704V127.297H901.179V118.81V110.323V101.893V93.4066V84.92H892.704V76.4333V67.9466H884.23V59.46H875.811V50.9733H867.337V42.4867H858.862H850.387V34H841.913H833.438H824.963H816.488H808.014H799.539H791.064V42.4867H782.59H774.115V50.9733H765.64V59.46H757.165V67.9466H748.691V76.4333V84.92H740.216V93.4066V101.893V110.323V118.81V127.297H748.691V135.783Z" fill="#FFD10D"/>
<path d="M968.977 212.163V203.677H960.502V195.19H952.027H943.553H935.078H926.603H918.129H909.654H901.179H892.704V186.703H901.179H909.654H918.129V178.217V169.73H926.603V161.243V152.757H935.078H943.553V144.27V135.783H935.078V144.27H926.603H918.129V152.757H909.654V161.243H901.179H892.704V169.73H884.23V178.217H875.811V186.703H867.337H858.862H850.387H841.913V178.217H833.438V169.73H824.963V161.243V152.757H816.488V161.243V169.73H808.014V178.217H799.539V186.703H791.064H782.59H774.115H765.64V178.217H757.165V169.73H748.691V161.243H740.216H731.798V152.757H723.323V144.27H714.848H706.374V135.783H697.899V144.27V152.757H706.374H714.848V161.243V169.73H723.323V178.217V186.703H731.798H740.216H748.691V195.19H740.216H731.798H723.323H714.848H706.374H697.899H689.424H680.949V203.677H672.475V212.163H664V220.65V229.137H672.475V220.65H680.949H689.424H697.899H706.374H714.848H723.323V229.137H731.798H740.216H748.691H757.165V237.623H748.691H740.216H731.798H723.323H714.848V246.11H706.374H697.899V254.54H689.424V263.027V271.513H680.949V280H689.424H697.899V271.513H706.374V263.027H714.848H723.323V254.54H731.798H740.216V263.027H748.691H757.165H765.64H774.115H782.59V254.54H791.064H799.539V246.11H808.014V237.623H816.488V229.137V220.65H824.963V229.137V237.623H833.438V246.11H841.913V254.54H850.387H858.862V263.027H867.337H875.811H884.23H892.704H901.179V254.54H909.654H918.129V263.027H926.603H935.078V271.513H943.553V280H952.027H960.502V271.513H952.027V263.027V254.54H943.553V246.11H935.078H926.603V237.623H918.129H909.654H901.179H892.704H884.23V229.137H892.704H901.179H909.654H918.129V220.65H926.603H935.078H943.553H952.027H960.502H968.977V229.137H977.452V220.65V212.163H968.977Z" fill="#FFD10D"/>
<path d="M791.064 144.27V135.783H782.59V144.27V152.757H791.064H799.539V144.27H791.064Z" fill="#231F20"/>
<path d="M875.811 144.27V135.783H867.337V127.297H858.862H850.387V135.783H841.913V144.27H833.438V152.757V161.243H841.913V169.73H850.387V178.217H858.862H867.337V169.73H875.811V161.243H884.23V152.757V144.27H875.811Z" fill="white"/>
<path d="M867.337 144.27V135.783H858.862V144.27V152.757H867.337H875.812V144.27H867.337Z" fill="#231F20"/>
<path d="M875.811 84.9199H867.337V93.4066H875.811V84.9199Z" fill="#231F20"/>
<path d="M850.387 93.4066H841.913V101.893H850.387V93.4066Z" fill="#231F20"/>
<path d="M858.862 67.9467H850.387V76.4333V84.92H858.862H867.337V76.4333V67.9467H858.862Z" fill="#231F20"/>
<path d="M757.165 203.677H748.691V212.163H757.165V203.677Z" fill="#231F20"/>
<path d="M765.64 195.19H757.165V203.677H765.64H774.115V195.19H765.64Z" fill="#231F20"/>
<path d="M841.913 195.19H833.438V203.677H841.913V195.19Z" fill="#231F20"/>
<path d="M808.014 195.19H799.539V203.677H808.014V195.19Z" fill="#231F20"/>
<path d="M824.963 203.677H816.488H808.014V212.163H816.488H824.963H833.438V203.677H824.963Z" fill="#231F20"/>
</g>
<g clip-path="url(#clip3_2_256)">
<path d="M1290.98 212.163V203.677H1282.5V195.19H1274.03H1265.55H1257.08H1248.6H1240.13H1231.65H1223.18H1214.7V186.703H1223.18H1231.65H1240.13V178.217V169.73H1248.6V161.243V152.757H1257.08H1265.55V144.27V135.783H1257.08V144.27H1248.6H1240.13V152.757H1231.65V161.243H1223.18H1214.7V169.73V135.783V127.297H1223.18V118.81V110.323V101.893V93.4066V84.92H1214.7V76.4333V67.9466H1206.23V59.46H1197.81V50.9733H1189.34V42.4867H1180.86H1172.39V34H1163.91H1155.44H1146.96H1138.49H1130.01H1121.54H1113.06V42.4867H1104.59H1096.11V50.9733H1087.64V59.46H1079.17V67.9466H1070.69V76.4333V84.92H1062.22V93.4066V101.893V110.323V118.81V127.297H1070.69V135.783V161.243H1062.22H1053.8V152.757H1045.32V144.27H1036.85H1028.37V135.783H1019.9V144.27V152.757H1028.37H1036.85V161.243V169.73H1045.32V178.217V186.703H1053.8H1062.22H1070.69V195.19H1062.22H1053.8H1045.32H1036.85H1028.37H1019.9H1011.42H1002.95V203.677H994.475V212.163H986V220.65V229.137H994.475V220.65H1002.95H1011.42H1019.9H1028.37H1036.85H1045.32V229.137H1053.8H1062.22H1070.69H1079.17V237.623H1070.69H1062.22H1053.8H1045.32H1036.85V246.053H1028.37H1019.9V254.54H1011.42V263.027V271.513H1002.95V280H1011.42H1019.9V271.513H1028.37V263.027H1036.85H1045.32V254.54H1053.8H1062.22V263.027H1070.69H1079.17H1087.64H1096.11H1104.59V254.54H1113.06H1121.54V246.053H1130.01V237.623H1138.49V229.137V220.65H1146.96V229.137V237.623H1155.44V246.053H1163.91V254.54H1172.39H1180.86V263.027H1189.34H1197.81H1206.23H1214.7H1223.18V254.54H1231.65H1240.13V263.027H1248.6H1257.08V271.513H1265.55V280H1274.03H1282.5V271.513H1274.03V263.027V254.54H1265.55V246.053H1257.08H1248.6V237.623H1240.13H1231.65H1223.18H1214.7H1206.23V229.137H1214.7H1223.18H1231.65H1240.13V220.65H1248.6H1257.08H1265.55H1274.03H1282.5H1290.98V229.137H1299.45V220.65V212.163H1290.98Z" fill="#251533"/>
<path d="M1121.54 144.27V135.783H1113.06V127.297H1104.59H1096.11V135.783H1087.64V144.27H1079.17V152.757V161.243H1087.64V169.73H1096.11V178.217H1104.59H1113.06V169.73H1121.54V161.243H1130.01V152.757V144.27H1121.54Z" fill="white"/>
<path d="M1070.69 135.783H1079.17V127.297H1087.64V118.81H1096.11H1104.59H1113.06H1121.54V127.297H1130.01V135.783H1138.49V144.27H1146.96V135.783H1155.44V127.297H1163.91V118.81H1172.39H1180.86H1189.34H1197.81V127.297H1206.23V135.783H1214.7V127.297H1223.18V118.81V110.323V101.893V93.4066V84.92H1214.7V76.4333V67.9466H1206.23V59.46H1197.81V50.9733H1189.34V42.4867H1180.86H1172.39V34H1163.91H1155.44H1146.96H1138.49H1130.01H1121.54H1113.06V42.4867H1104.59H1096.11V50.9733H1087.64V59.46H1079.17V67.9466H1070.69V76.4333V84.92H1062.22V93.4066V101.893V110.323V118.81V127.297H1070.69V135.783Z" fill="#FFD10D"/>
<path d="M1290.98 212.163V203.677H1282.5V195.19H1274.03H1265.55H1257.08H1248.6H1240.13H1231.65H1223.18H1214.7V186.703H1223.18H1231.65H1240.13V178.217V169.73H1248.6V161.243V152.757H1257.08H1265.55V144.27V135.783H1257.08V144.27H1248.6H1240.13V152.757H1231.65V161.243H1223.18H1214.7V169.73H1206.23V178.217H1197.81V186.703H1189.34H1180.86H1172.39H1163.91V178.217H1155.44V169.73H1146.96V161.243V152.757H1138.49V161.243V169.73H1130.01V178.217H1121.54V186.703H1113.06H1104.59H1096.11H1087.64V178.217H1079.17V169.73H1070.69V161.243H1062.22H1053.8V152.757H1045.32V144.27H1036.85H1028.37V135.783H1019.9V144.27V152.757H1028.37H1036.85V161.243V169.73H1045.32V178.217V186.703H1053.8H1062.22H1070.69V195.19H1062.22H1053.8H1045.32H1036.85H1028.37H1019.9H1011.42H1002.95V203.677H994.475V212.163H986V220.65V229.137H994.475V220.65H1002.95H1011.42H1019.9H1028.37H1036.85H1045.32V229.137H1053.8H1062.22H1070.69H1079.17V237.623H1070.69H1062.22H1053.8H1045.32H1036.85V246.11H1028.37H1019.9V254.54H1011.42V263.027V271.513H1002.95V280H1011.42H1019.9V271.513H1028.37V263.027H1036.85H1045.32V254.54H1053.8H1062.22V263.027H1070.69H1079.17H1087.64H1096.11H1104.59V254.54H1113.06H1121.54V246.11H1130.01V237.623H1138.49V229.137V220.65H1146.96V229.137V237.623H1155.44V246.11H1163.91V254.54H1172.39H1180.86V263.027H1189.34H1197.81H1206.23H1214.7H1223.18V254.54H1231.65H1240.13V263.027H1248.6H1257.08V271.513H1265.55V280H1274.03H1282.5V271.513H1274.03V263.027V254.54H1265.55V246.11H1257.08H1248.6V237.623H1240.13H1231.65H1223.18H1214.7H1206.23V229.137H1214.7H1223.18H1231.65H1240.13V220.65H1248.6H1257.08H1265.55H1274.03H1282.5H1290.98V229.137H1299.45V220.65V212.163H1290.98Z" fill="#FFD10D"/>
<path d="M1113.06 144.27V135.783H1104.59V144.27V152.757H1113.06H1121.54V144.27H1113.06Z" fill="#231F20"/>
<path d="M1197.81 144.27V135.783H1189.34V127.297H1180.86H1172.39V135.783H1163.91V144.27H1155.44V152.757V161.243H1163.91V169.73H1172.39V178.217H1180.86H1189.34V169.73H1197.81V161.243H1206.23V152.757V144.27H1197.81Z" fill="white"/>
<path d="M1189.34 144.27V135.783H1180.86V144.27V152.757H1189.34H1197.81V144.27H1189.34Z" fill="#231F20"/>
<path d="M1197.81 84.9199H1189.34V93.4066H1197.81V84.9199Z" fill="#231F20"/>
<path d="M1172.39 93.4066H1163.91V101.893H1172.39V93.4066Z" fill="#231F20"/>
<path d="M1180.86 67.9467H1172.39V76.4333V84.92H1180.86H1189.34V76.4333V67.9467H1180.86Z" fill="#231F20"/>
<path d="M1079.17 203.677H1070.69V212.163H1079.17V203.677Z" fill="#231F20"/>
<path d="M1087.64 195.19H1079.17V203.677H1087.64H1096.11V195.19H1087.64Z" fill="#231F20"/>
<path d="M1163.91 195.19H1155.44V203.677H1163.91V195.19Z" fill="#231F20"/>
<path d="M1130.01 195.19H1121.54V203.677H1130.01V195.19Z" fill="#231F20"/>
<path d="M1146.96 203.677H1138.49H1130.01V212.163H1138.49H1146.96H1155.44V203.677H1146.96Z" fill="#231F20"/>
</g>
<defs>
<clipPath id="clip0_2_256">
<rect width="313.452" height="246" fill="white" transform="translate(20 34)"/>
</clipPath>
<clipPath id="clip1_2_256">
<rect width="313.452" height="246" fill="white" transform="translate(342 34)"/>
</clipPath>
<clipPath id="clip2_2_256">
<rect width="313.452" height="246" fill="white" transform="translate(664 34)"/>
</clipPath>
<clipPath id="clip3_2_256">
<rect width="313.452" height="246" fill="white" transform="translate(986 34)"/>
</clipPath>
</defs>
</svg>
