<svg width="1308" height="290" viewBox="0 0 1308 290" fill="none" xmlns="http://www.w3.org/2000/svg">
<g clip-path="url(#clip0_2_385)">
<path d="M17.0231 212.163V203.677H25.4978V195.19H33.9726H42.4473H50.922H59.3967H67.8714H76.3461H84.8209H93.2956V186.703H84.8209H76.3461H67.8714V178.217V169.73H59.3967V161.243V152.757H50.922H42.4473V144.27V135.783H50.922V144.27H59.3967H67.8714V152.757H76.3461V161.243H84.8209H93.2956V169.73V135.783V127.297H84.8209V118.81V110.323V101.893V93.4066V84.92H93.2956V76.4333V67.9466H101.77V59.46H110.189V50.9733H118.663V42.4867H127.138H135.613V34H144.087H152.562H161.037H169.512H177.986H186.461H194.936V42.4867H203.41H211.885V50.9733H220.36V59.46H228.835V67.9466H237.309V76.4333V84.92H245.784V93.4066V101.893V110.323V118.81V127.297H237.309V135.783V161.243H245.784H254.202V152.757H262.677V144.27H271.152H279.626V135.783H288.101V144.27V152.757H279.626H271.152V161.243V169.73H262.677V178.217V186.703H254.202H245.784H237.309V195.19H245.784H254.202H262.677H271.152H279.626H288.101H296.576H305.051V203.677H313.525V212.163H322V220.65V229.137H313.525V220.65H305.051H296.576H288.101H279.626H271.152H262.677V229.137H254.202H245.784H237.309H228.835V237.623H237.309H245.784H254.202H262.677H271.152V246.053H279.626H288.101V254.54H296.576V263.027V271.513H305.051V280H296.576H288.101V271.513H279.626V263.027H271.152H262.677V254.54H254.202H245.784V263.027H237.309H228.835H220.36H211.885H203.41V254.54H194.936H186.461V246.053H177.986V237.623H169.512V229.137V220.65H161.037V229.137V237.623H152.562V246.053H144.087V254.54H135.613H127.138V263.027H118.663H110.189H101.77H93.2956H84.8209V254.54H76.3461H67.8714V263.027H59.3967H50.922V271.513H42.4473V280H33.9726H25.4978V271.513H33.9726V263.027V254.54H42.4473V246.053H50.922H59.3967V237.623H67.8714H76.3461H84.8209H93.2956H101.77V229.137H93.2956H84.8209H76.3461H67.8714V220.65H59.3967H50.922H42.4473H33.9726H25.4978H17.0231V229.137H8.54839V220.65V212.163H17.0231Z" fill="#251533"/>
<path d="M186.461 144.27V135.783H194.936V127.297H203.41H211.885V135.783H220.36V144.27H228.835V152.757V161.243H220.36V169.73H211.885V178.217H203.41H194.936V169.73H186.461V161.243H177.986V152.757V144.27H186.461Z" fill="white"/>
<path d="M237.309 135.783H228.835V127.297H220.36V118.81H211.885H203.41H194.936H186.461V127.297H177.986V135.783H169.512V144.27H161.037V135.783H152.562V127.297H144.087V118.81H135.613H127.138H118.663H110.189V127.297H101.77V135.783H93.2956V127.297H84.8209V118.81V110.323V101.893V93.4066V84.92H93.2956V76.4333V67.9466H101.77V59.46H110.189V50.9733H118.663V42.4867H127.138H135.613V34H144.087H152.562H161.037H169.512H177.986H186.461H194.936V42.4867H203.41H211.885V50.9733H220.36V59.46H228.835V67.9466H237.309V76.4333V84.92H245.784V93.4066V101.893V110.323V118.81V127.297H237.309V135.783Z" fill="#FFD10D"/>
<path d="M17.0231 212.163V203.677H25.4978V195.19H33.9726H42.4473H50.922H59.3967H67.8714H76.3461H84.8209H93.2956V186.703H84.8209H76.3461H67.8714V178.217V169.73H59.3967V161.243V152.757H50.922H42.4473V144.27V135.783H50.922V144.27H59.3967H67.8714V152.757H76.3461V161.243H84.8209H93.2956V169.73H101.77V178.217H110.189V186.703H118.663H127.138H135.613H144.087V178.217H152.562V169.73H161.037V161.243V152.757H169.512V161.243V169.73H177.986V178.217H186.461V186.703H194.936H203.41H211.885H220.36V178.217H228.835V169.73H237.309V161.243H245.784H254.202V152.757H262.677V144.27H271.152H279.626V135.783H288.101V144.27V152.757H279.626H271.152V161.243V169.73H262.677V178.217V186.703H254.202H245.784H237.309V195.19H245.784H254.202H262.677H271.152H279.626H288.101H296.576H305.051V203.677H313.525V212.163H322V220.65V229.137H313.525V220.65H305.051H296.576H288.101H279.626H271.152H262.677V229.137H254.202H245.784H237.309H228.835V237.623H237.309H245.784H254.202H262.677H271.152V246.11H279.626H288.101V254.54H296.576V263.027V271.513H305.051V280H296.576H288.101V271.513H279.626V263.027H271.152H262.677V254.54H254.202H245.784V263.027H237.309H228.835H220.36H211.885H203.41V254.54H194.936H186.461V246.11H177.986V237.623H169.512V229.137V220.65H161.037V229.137V237.623H152.562V246.11H144.087V254.54H135.613H127.138V263.027H118.663H110.189H101.77H93.2956H84.8209V254.54H76.3461H67.8714V263.027H59.3967H50.922V271.513H42.4473V280H33.9726H25.4978V271.513H33.9726V263.027V254.54H42.4473V246.11H50.922H59.3967V237.623H67.8714H76.3461H84.8209H93.2956H101.77V229.137H93.2956H84.8209H76.3461H67.8714V220.65H59.3967H50.922H42.4473H33.9726H25.4978H17.0231V229.137H8.54839V220.65V212.163H17.0231Z" fill="#FFD10D"/>
<path d="M194.936 144.27V135.783H203.41V144.27V152.757H194.936H186.461V144.27H194.936Z" fill="#231F20"/>
<path d="M110.189 144.27V135.783H118.663V127.297H127.138H135.613V135.783H144.087V144.27H152.562V152.757V161.243H144.087V169.73H135.613V178.217H127.138H118.663V169.73H110.189V161.243H101.77V152.757V144.27H110.189Z" fill="white"/>
<path d="M118.663 144.27V135.783H127.138V144.27V152.757H118.663H110.188V144.27H118.663Z" fill="#231F20"/>
<path d="M110.189 84.9199H118.663V93.4066H110.189V84.9199Z" fill="#231F20"/>
<path d="M135.613 93.4066H144.087V101.893H135.613V93.4066Z" fill="#231F20"/>
<path d="M127.138 67.9467H135.613V76.4333V84.92H127.138H118.663V76.4333V67.9467H127.138Z" fill="#231F20"/>
<path d="M228.835 203.677H237.309V212.163H228.835V203.677Z" fill="#231F20"/>
<path d="M220.36 195.19H228.835V203.677H220.36H211.885V195.19H220.36Z" fill="#231F20"/>
<path d="M144.087 195.19H152.562V203.677H144.087V195.19Z" fill="#231F20"/>
<path d="M177.986 195.19H186.461V203.677H177.986V195.19Z" fill="#231F20"/>
<path d="M161.037 203.677H169.512H177.986V212.163H169.512H161.037H152.562V203.677H161.037Z" fill="#231F20"/>
</g>
<g clip-path="url(#clip1_2_385)">
<path d="M339.023 212.163V203.677H347.498V195.19H355.973H364.447H372.922H381.397H389.871H398.346H406.821H415.296V186.703H406.821H398.346H389.871V178.217V169.73H381.397V161.243V152.757H372.922H364.447V144.27V135.783H372.922V144.27H381.397H389.871V152.757H398.346V161.243H406.821H415.296V169.73V135.783V127.297H406.821V118.81V110.323V101.893V93.4066V84.92H415.296V76.4333V67.9466H423.77V59.46H432.189V50.9733H440.663V42.4867H449.138H457.613V34H466.087H474.562H483.037H491.512H499.986H508.461H516.936V42.4867H525.41H533.885V50.9733H542.36V59.46H550.835V67.9466H559.309V76.4333V84.92H567.784V93.4066V101.893V110.323V118.81V127.297H559.309V135.783V161.243H567.784H576.202V152.757H584.677V144.27H593.152H601.626V135.783H610.101V144.27V152.757H601.626H593.152V161.243V169.73H584.677V178.217V186.703H576.202H567.784H559.309V195.19H567.784H576.202H584.677H593.152H601.626H610.101H618.576H627.051V203.677H635.525V212.163H644V220.65V229.137H635.525V220.65H627.051H618.576H610.101H601.626H593.152H584.677V229.137H576.202H567.784H559.309H550.835V237.623H559.309H567.784H576.202H584.677H593.152V246.053H601.626H610.101V254.54H618.576V263.027V271.513H627.051V280H618.576H610.101V271.513H601.626V263.027H593.152H584.677V254.54H576.202H567.784V263.027H559.309H550.835H542.36H533.885H525.41V254.54H516.936H508.461V246.053H499.986V237.623H491.512V229.137V220.65H483.037V229.137V237.623H474.562V246.053H466.087V254.54H457.613H449.138V263.027H440.663H432.189H423.77H415.296H406.821V254.54H398.346H389.871V263.027H381.397H372.922V271.513H364.447V280H355.973H347.498V271.513H355.973V263.027V254.54H364.447V246.053H372.922H381.397V237.623H389.871H398.346H406.821H415.296H423.77V229.137H415.296H406.821H398.346H389.871V220.65H381.397H372.922H364.447H355.973H347.498H339.023V229.137H330.548V220.65V212.163H339.023Z" fill="#251533"/>
<path d="M508.461 144.27V135.783H516.936V127.297H525.41H533.885V135.783H542.36V144.27H550.835V152.757V161.243H542.36V169.73H533.885V178.217H525.41H516.936V169.73H508.461V161.243H499.986V152.757V144.27H508.461Z" fill="white"/>
<path d="M559.309 135.783H550.835V127.297H542.36V118.81H533.885H525.41H516.936H508.461V127.297H499.986V135.783H491.512V144.27H483.037V135.783H474.562V127.297H466.087V118.81H457.613H449.138H440.663H432.189V127.297H423.77V135.783H415.296V127.297H406.821V118.81V110.323V101.893V93.4066V84.92H415.296V76.4333V67.9466H423.77V59.46H432.189V50.9733H440.663V42.4867H449.138H457.613V34H466.087H474.562H483.037H491.512H499.986H508.461H516.936V42.4867H525.41H533.885V50.9733H542.36V59.46H550.835V67.9466H559.309V76.4333V84.92H567.784V93.4066V101.893V110.323V118.81V127.297H559.309V135.783Z" fill="#FFD10D"/>
<path d="M339.023 212.163V203.677H347.498V195.19H355.973H364.447H372.922H381.397H389.871H398.346H406.821H415.296V186.703H406.821H398.346H389.871V178.217V169.73H381.397V161.243V152.757H372.922H364.447V144.27V135.783H372.922V144.27H381.397H389.871V152.757H398.346V161.243H406.821H415.296V169.73H423.77V178.217H432.189V186.703H440.663H449.138H457.613H466.087V178.217H474.562V169.73H483.037V161.243V152.757H491.512V161.243V169.73H499.986V178.217H508.461V186.703H516.936H525.41H533.885H542.36V178.217H550.835V169.73H559.309V161.243H567.784H576.202V152.757H584.677V144.27H593.152H601.626V135.783H610.101V144.27V152.757H601.626H593.152V161.243V169.73H584.677V178.217V186.703H576.202H567.784H559.309V195.19H567.784H576.202H584.677H593.152H601.626H610.101H618.576H627.051V203.677H635.525V212.163H644V220.65V229.137H635.525V220.65H627.051H618.576H610.101H601.626H593.152H584.677V229.137H576.202H567.784H559.309H550.835V237.623H559.309H567.784H576.202H584.677H593.152V246.11H601.626H610.101V254.54H618.576V263.027V271.513H627.051V280H618.576H610.101V271.513H601.626V263.027H593.152H584.677V254.54H576.202H567.784V263.027H559.309H550.835H542.36H533.885H525.41V254.54H516.936H508.461V246.11H499.986V237.623H491.512V229.137V220.65H483.037V229.137V237.623H474.562V246.11H466.087V254.54H457.613H449.138V263.027H440.663H432.189H423.77H415.296H406.821V254.54H398.346H389.871V263.027H381.397H372.922V271.513H364.447V280H355.973H347.498V271.513H355.973V263.027V254.54H364.447V246.11H372.922H381.397V237.623H389.871H398.346H406.821H415.296H423.77V229.137H415.296H406.821H398.346H389.871V220.65H381.397H372.922H364.447H355.973H347.498H339.023V229.137H330.548V220.65V212.163H339.023Z" fill="#FFD10D"/>
<path d="M516.936 144.27V135.783H525.41V144.27V152.757H516.936H508.461V144.27H516.936Z" fill="#231F20"/>
<path d="M432.189 144.27V135.783H440.663V127.297H449.138H457.613V135.783H466.087V144.27H474.562V152.757V161.243H466.087V169.73H457.613V178.217H449.138H440.663V169.73H432.189V161.243H423.77V152.757V144.27H432.189Z" fill="white"/>
<path d="M440.663 144.27V135.783H449.138V144.27V152.757H440.663H432.188V144.27H440.663Z" fill="#231F20"/>
<path d="M432.189 84.9199H440.663V93.4066H432.189V84.9199Z" fill="#231F20"/>
<path d="M457.613 93.4066H466.087V101.893H457.613V93.4066Z" fill="#231F20"/>
<path d="M449.138 67.9467H457.613V76.4333V84.92H449.138H440.663V76.4333V67.9467H449.138Z" fill="#231F20"/>
<path d="M550.835 203.677H559.309V212.163H550.835V203.677Z" fill="#231F20"/>
<path d="M542.36 195.19H550.835V203.677H542.36H533.885V195.19H542.36Z" fill="#231F20"/>
<path d="M466.087 195.19H474.562V203.677H466.087V195.19Z" fill="#231F20"/>
<path d="M499.986 195.19H508.461V203.677H499.986V195.19Z" fill="#231F20"/>
<path d="M483.037 203.677H491.512H499.986V212.163H491.512H483.037H474.562V203.677H483.037Z" fill="#231F20"/>
</g>
<g clip-path="url(#clip2_2_385)">
<path d="M661.023 212.163V203.677H669.498V195.19H677.973H686.447H694.922H703.397H711.871H720.346H728.821H737.296V186.703H728.821H720.346H711.871V178.217V169.73H703.397V161.243V152.757H694.922H686.447V144.27V135.783H694.922V144.27H703.397H711.871V152.757H720.346V161.243H728.821H737.296V169.73V135.783V127.297H728.821V118.81V110.323V101.893V93.4066V84.92H737.296V76.4333V67.9466H745.77V59.46H754.189V50.9733H762.663V42.4867H771.138H779.613V34H788.087H796.562H805.037H813.512H821.986H830.461H838.936V42.4867H847.41H855.885V50.9733H864.36V59.46H872.835V67.9466H881.309V76.4333V84.92H889.784V93.4066V101.893V110.323V118.81V127.297H881.309V135.783V161.243H889.784H898.202V152.757H906.677V144.27H915.152H923.626V135.783H932.101V144.27V152.757H923.626H915.152V161.243V169.73H906.677V178.217V186.703H898.202H889.784H881.309V195.19H889.784H898.202H906.677H915.152H923.626H932.101H940.576H949.051V203.677H957.525V212.163H966V220.65V229.137H957.525V220.65H949.051H940.576H932.101H923.626H915.152H906.677V229.137H898.202H889.784H881.309H872.835V237.623H881.309H889.784H898.202H906.677H915.152V246.053H923.626H932.101V254.54H940.576V263.027V271.513H949.051V280H940.576H932.101V271.513H923.626V263.027H915.152H906.677V254.54H898.202H889.784V263.027H881.309H872.835H864.36H855.885H847.41V254.54H838.936H830.461V246.053H821.986V237.623H813.512V229.137V220.65H805.037V229.137V237.623H796.562V246.053H788.087V254.54H779.613H771.138V263.027H762.663H754.189H745.77H737.296H728.821V254.54H720.346H711.871V263.027H703.397H694.922V271.513H686.447V280H677.973H669.498V271.513H677.973V263.027V254.54H686.447V246.053H694.922H703.397V237.623H711.871H720.346H728.821H737.296H745.77V229.137H737.296H728.821H720.346H711.871V220.65H703.397H694.922H686.447H677.973H669.498H661.023V229.137H652.548V220.65V212.163H661.023Z" fill="#251533"/>
<path d="M830.461 144.27V135.783H838.936V127.297H847.41H855.885V135.783H864.36V144.27H872.835V152.757V161.243H864.36V169.73H855.885V178.217H847.41H838.936V169.73H830.461V161.243H821.986V152.757V144.27H830.461Z" fill="white"/>
<path d="M881.309 135.783H872.835V127.297H864.36V118.81H855.885H847.41H838.936H830.461V127.297H821.986V135.783H813.512V144.27H805.037V135.783H796.562V127.297H788.087V118.81H779.613H771.138H762.663H754.189V127.297H745.77V135.783H737.296V127.297H728.821V118.81V110.323V101.893V93.4066V84.92H737.296V76.4333V67.9466H745.77V59.46H754.189V50.9733H762.663V42.4867H771.138H779.613V34H788.087H796.562H805.037H813.512H821.986H830.461H838.936V42.4867H847.41H855.885V50.9733H864.36V59.46H872.835V67.9466H881.309V76.4333V84.92H889.784V93.4066V101.893V110.323V118.81V127.297H881.309V135.783Z" fill="#FFD10D"/>
<path d="M661.023 212.163V203.677H669.498V195.19H677.973H686.447H694.922H703.397H711.871H720.346H728.821H737.296V186.703H728.821H720.346H711.871V178.217V169.73H703.397V161.243V152.757H694.922H686.447V144.27V135.783H694.922V144.27H703.397H711.871V152.757H720.346V161.243H728.821H737.296V169.73H745.77V178.217H754.189V186.703H762.663H771.138H779.613H788.087V178.217H796.562V169.73H805.037V161.243V152.757H813.512V161.243V169.73H821.986V178.217H830.461V186.703H838.936H847.41H855.885H864.36V178.217H872.835V169.73H881.309V161.243H889.784H898.202V152.757H906.677V144.27H915.152H923.626V135.783H932.101V144.27V152.757H923.626H915.152V161.243V169.73H906.677V178.217V186.703H898.202H889.784H881.309V195.19H889.784H898.202H906.677H915.152H923.626H932.101H940.576H949.051V203.677H957.525V212.163H966V220.65V229.137H957.525V220.65H949.051H940.576H932.101H923.626H915.152H906.677V229.137H898.202H889.784H881.309H872.835V237.623H881.309H889.784H898.202H906.677H915.152V246.11H923.626H932.101V254.54H940.576V263.027V271.513H949.051V280H940.576H932.101V271.513H923.626V263.027H915.152H906.677V254.54H898.202H889.784V263.027H881.309H872.835H864.36H855.885H847.41V254.54H838.936H830.461V246.11H821.986V237.623H813.512V229.137V220.65H805.037V229.137V237.623H796.562V246.11H788.087V254.54H779.613H771.138V263.027H762.663H754.189H745.77H737.296H728.821V254.54H720.346H711.871V263.027H703.397H694.922V271.513H686.447V280H677.973H669.498V271.513H677.973V263.027V254.54H686.447V246.11H694.922H703.397V237.623H711.871H720.346H728.821H737.296H745.77V229.137H737.296H728.821H720.346H711.871V220.65H703.397H694.922H686.447H677.973H669.498H661.023V229.137H652.548V220.65V212.163H661.023Z" fill="#FFD10D"/>
<path d="M838.936 144.27V135.783H847.41V144.27V152.757H838.936H830.461V144.27H838.936Z" fill="#231F20"/>
<path d="M754.189 144.27V135.783H762.663V127.297H771.138H779.613V135.783H788.087V144.27H796.562V152.757V161.243H788.087V169.73H779.613V178.217H771.138H762.663V169.73H754.189V161.243H745.77V152.757V144.27H754.189Z" fill="white"/>
<path d="M762.663 144.27V135.783H771.138V144.27V152.757H762.663H754.188V144.27H762.663Z" fill="#231F20"/>
<path d="M754.189 84.9199H762.663V93.4066H754.189V84.9199Z" fill="#231F20"/>
<path d="M779.613 93.4066H788.087V101.893H779.613V93.4066Z" fill="#231F20"/>
<path d="M771.138 67.9467H779.613V76.4333V84.92H771.138H762.663V76.4333V67.9467H771.138Z" fill="#231F20"/>
<path d="M872.835 203.677H881.309V212.163H872.835V203.677Z" fill="#231F20"/>
<path d="M864.36 195.19H872.835V203.677H864.36H855.885V195.19H864.36Z" fill="#231F20"/>
<path d="M788.087 195.19H796.562V203.677H788.087V195.19Z" fill="#231F20"/>
<path d="M821.986 195.19H830.461V203.677H821.986V195.19Z" fill="#231F20"/>
<path d="M805.037 203.677H813.512H821.986V212.163H813.512H805.037H796.562V203.677H805.037Z" fill="#231F20"/>
</g>
<g clip-path="url(#clip3_2_385)">
<path d="M983.023 212.163V203.677H991.498V195.19H999.973H1008.45H1016.92H1025.4H1033.87H1042.35H1050.82H1059.3V186.703H1050.82H1042.35H1033.87V178.217V169.73H1025.4V161.243V152.757H1016.92H1008.45V144.27V135.783H1016.92V144.27H1025.4H1033.87V152.757H1042.35V161.243H1050.82H1059.3V169.73V135.783V127.297H1050.82V118.81V110.323V101.893V93.4066V84.92H1059.3V76.4333V67.9466H1067.77V59.46H1076.19V50.9733H1084.66V42.4867H1093.14H1101.61V34H1110.09H1118.56H1127.04H1135.51H1143.99H1152.46H1160.94V42.4867H1169.41H1177.89V50.9733H1186.36V59.46H1194.83V67.9466H1203.31V76.4333V84.92H1211.78V93.4066V101.893V110.323V118.81V127.297H1203.31V135.783V161.243H1211.78H1220.2V152.757H1228.68V144.27H1237.15H1245.63V135.783H1254.1V144.27V152.757H1245.63H1237.15V161.243V169.73H1228.68V178.217V186.703H1220.2H1211.78H1203.31V195.19H1211.78H1220.2H1228.68H1237.15H1245.63H1254.1H1262.58H1271.05V203.677H1279.53V212.163H1288V220.65V229.137H1279.53V220.65H1271.05H1262.58H1254.1H1245.63H1237.15H1228.68V229.137H1220.2H1211.78H1203.31H1194.83V237.623H1203.31H1211.78H1220.2H1228.68H1237.15V246.053H1245.63H1254.1V254.54H1262.58V263.027V271.513H1271.05V280H1262.58H1254.1V271.513H1245.63V263.027H1237.15H1228.68V254.54H1220.2H1211.78V263.027H1203.31H1194.83H1186.36H1177.89H1169.41V254.54H1160.94H1152.46V246.053H1143.99V237.623H1135.51V229.137V220.65H1127.04V229.137V237.623H1118.56V246.053H1110.09V254.54H1101.61H1093.14V263.027H1084.66H1076.19H1067.77H1059.3H1050.82V254.54H1042.35H1033.87V263.027H1025.4H1016.92V271.513H1008.45V280H999.973H991.498V271.513H999.973V263.027V254.54H1008.45V246.053H1016.92H1025.4V237.623H1033.87H1042.35H1050.82H1059.3H1067.77V229.137H1059.3H1050.82H1042.35H1033.87V220.65H1025.4H1016.92H1008.45H999.973H991.498H983.023V229.137H974.548V220.65V212.163H983.023Z" fill="#251533"/>
<path d="M1152.46 144.27V135.783H1160.94V127.297H1169.41H1177.89V135.783H1186.36V144.27H1194.83V152.757V161.243H1186.36V169.73H1177.89V178.217H1169.41H1160.94V169.73H1152.46V161.243H1143.99V152.757V144.27H1152.46Z" fill="white"/>
<path d="M1203.31 135.783H1194.83V127.297H1186.36V118.81H1177.89H1169.41H1160.94H1152.46V127.297H1143.99V135.783H1135.51V144.27H1127.04V135.783H1118.56V127.297H1110.09V118.81H1101.61H1093.14H1084.66H1076.19V127.297H1067.77V135.783H1059.3V127.297H1050.82V118.81V110.323V101.893V93.4066V84.92H1059.3V76.4333V67.9466H1067.77V59.46H1076.19V50.9733H1084.66V42.4867H1093.14H1101.61V34H1110.09H1118.56H1127.04H1135.51H1143.99H1152.46H1160.94V42.4867H1169.41H1177.89V50.9733H1186.36V59.46H1194.83V67.9466H1203.31V76.4333V84.92H1211.78V93.4066V101.893V110.323V118.81V127.297H1203.31V135.783Z" fill="#FFD10D"/>
<path d="M983.023 212.163V203.677H991.498V195.19H999.973H1008.45H1016.92H1025.4H1033.87H1042.35H1050.82H1059.3V186.703H1050.82H1042.35H1033.87V178.217V169.73H1025.4V161.243V152.757H1016.92H1008.45V144.27V135.783H1016.92V144.27H1025.4H1033.87V152.757H1042.35V161.243H1050.82H1059.3V169.73H1067.77V178.217H1076.19V186.703H1084.66H1093.14H1101.61H1110.09V178.217H1118.56V169.73H1127.04V161.243V152.757H1135.51V161.243V169.73H1143.99V178.217H1152.46V186.703H1160.94H1169.41H1177.89H1186.36V178.217H1194.83V169.73H1203.31V161.243H1211.78H1220.2V152.757H1228.68V144.27H1237.15H1245.63V135.783H1254.1V144.27V152.757H1245.63H1237.15V161.243V169.73H1228.68V178.217V186.703H1220.2H1211.78H1203.31V195.19H1211.78H1220.2H1228.68H1237.15H1245.63H1254.1H1262.58H1271.05V203.677H1279.53V212.163H1288V220.65V229.137H1279.53V220.65H1271.05H1262.58H1254.1H1245.63H1237.15H1228.68V229.137H1220.2H1211.78H1203.31H1194.83V237.623H1203.31H1211.78H1220.2H1228.68H1237.15V246.11H1245.63H1254.1V254.54H1262.58V263.027V271.513H1271.05V280H1262.58H1254.1V271.513H1245.63V263.027H1237.15H1228.68V254.54H1220.2H1211.78V263.027H1203.31H1194.83H1186.36H1177.89H1169.41V254.54H1160.94H1152.46V246.11H1143.99V237.623H1135.51V229.137V220.65H1127.04V229.137V237.623H1118.56V246.11H1110.09V254.54H1101.61H1093.14V263.027H1084.66H1076.19H1067.77H1059.3H1050.82V254.54H1042.35H1033.87V263.027H1025.4H1016.92V271.513H1008.45V280H999.973H991.498V271.513H999.973V263.027V254.54H1008.45V246.11H1016.92H1025.4V237.623H1033.87H1042.35H1050.82H1059.3H1067.77V229.137H1059.3H1050.82H1042.35H1033.87V220.65H1025.4H1016.92H1008.45H999.973H991.498H983.023V229.137H974.548V220.65V212.163H983.023Z" fill="#FFD10D"/>
<path d="M1160.94 144.27V135.783H1169.41V144.27V152.757H1160.94H1152.46V144.27H1160.94Z" fill="#231F20"/>
<path d="M1076.19 144.27V135.783H1084.66V127.297H1093.14H1101.61V135.783H1110.09V144.27H1118.56V152.757V161.243H1110.09V169.73H1101.61V178.217H1093.14H1084.66V169.73H1076.19V161.243H1067.77V152.757V144.27H1076.19Z" fill="white"/>
<path d="M1084.66 144.27V135.783H1093.14V144.27V152.757H1084.66H1076.19V144.27H1084.66Z" fill="#231F20"/>
<path d="M1076.19 84.9199H1084.66V93.4066H1076.19V84.9199Z" fill="#231F20"/>
<path d="M1101.61 93.4066H1110.09V101.893H1101.61V93.4066Z" fill="#231F20"/>
<path d="M1093.14 67.9467H1101.61V76.4333V84.92H1093.14H1084.66V76.4333V67.9467H1093.14Z" fill="#231F20"/>
<path d="M1194.83 203.677H1203.31V212.163H1194.83V203.677Z" fill="#231F20"/>
<path d="M1186.36 195.19H1194.83V203.677H1186.36H1177.89V195.19H1186.36Z" fill="#231F20"/>
<path d="M1110.09 195.19H1118.56V203.677H1110.09V195.19Z" fill="#231F20"/>
<path d="M1143.99 195.19H1152.46V203.677H1143.99V195.19Z" fill="#231F20"/>
<path d="M1127.04 203.677H1135.51H1143.99V212.163H1135.51H1127.04H1118.56V203.677H1127.04Z" fill="#231F20"/>
</g>
<defs>
<clipPath id="clip0_2_385">
<rect width="313.452" height="246" fill="white" transform="matrix(-1 0 0 1 322 34)"/>
</clipPath>
<clipPath id="clip1_2_385">
<rect width="313.452" height="246" fill="white" transform="matrix(-1 0 0 1 644 34)"/>
</clipPath>
<clipPath id="clip2_2_385">
<rect width="313.452" height="246" fill="white" transform="matrix(-1 0 0 1 966 34)"/>
</clipPath>
<clipPath id="clip3_2_385">
<rect width="313.452" height="246" fill="white" transform="matrix(-1 0 0 1 1288 34)"/>
</clipPath>
</defs>
</svg>
