<svg width="1999" height="2213" viewBox="0 0 1999 2213" fill="none" xmlns="http://www.w3.org/2000/svg">
<g clip-path="url(#clip0_75_56208)">
<path d="M1999 0H0V2213H1999V0Z" fill="white"/>
<path d="M1999 0H0V2213H1999V0Z" fill="black"/>
<path fill-rule="evenodd" clip-rule="evenodd" d="M928.107 892.339H749.625V1177.89H1249.38V892.339H1070.89V928.032H1213.68V1142.19H785.321V928.032H928.107V892.339ZM919.183 901.262H758.549V1168.96H1240.45V901.262H1079.82V919.109H1222.6V1151.12H776.397V919.109H919.183V901.262Z" fill="#333E70"/>
<path d="M928.107 919.109V901.262H1070.89V919.109H928.107Z" fill="#A5A5A5"/>
<path fill-rule="evenodd" clip-rule="evenodd" d="M196.33 464.016H374.812V472.94H196.33V464.016ZM187.406 481.863H196.33V472.94H187.406V481.863ZM187.406 517.556V481.863H178.482V517.556H187.406ZM196.33 526.48V517.556H187.406V526.48H196.33ZM374.812 526.48H196.33V535.403H374.812V526.48ZM383.736 517.556H374.812V526.48H383.736V517.556ZM383.736 481.863H374.812V472.94H383.736V481.863ZM383.736 481.863V517.556H392.661V481.863H383.736Z" fill="#333E70"/>
<path fill-rule="evenodd" clip-rule="evenodd" d="M1624.19 464.016H1802.67V472.94H1624.19V464.016ZM1615.26 481.863H1624.19V472.94H1615.26V481.863ZM1615.26 517.556V481.863H1606.34V517.556H1615.26ZM1624.19 526.48V517.556H1615.26V526.48H1624.19ZM1802.67 526.48H1624.19V535.403H1802.67V526.48ZM1811.59 517.556H1802.67V526.48H1811.59V517.556ZM1811.59 481.863H1802.67V472.94H1811.59V481.863ZM1811.59 481.863V517.556H1820.52V481.863H1811.59Z" fill="#333E70"/>
<path fill-rule="evenodd" clip-rule="evenodd" d="M553.295 1106.5H588.991V1115.42H553.295V1106.5ZM544.37 1124.35H553.295V1115.42H544.37V1124.35ZM544.37 1374.2V1124.35H535.446V1374.2H544.37ZM553.295 1383.13V1374.2H544.37V1383.13H553.295ZM588.991 1383.13H553.295V1392.05H588.991V1383.13ZM597.915 1374.2H588.991V1383.13H597.915V1374.2ZM597.915 1124.35H588.991V1115.42H597.915V1124.35ZM597.915 1124.35V1374.2H606.839V1124.35H597.915Z" fill="#333E70"/>
<path fill-rule="evenodd" clip-rule="evenodd" d="M1410.01 1106.5H1445.71V1115.42H1410.01V1106.5ZM1401.08 1124.35H1410.01V1115.42H1401.08V1124.35ZM1401.08 1374.2V1124.35H1392.16V1374.2H1401.08ZM1410.01 1383.13V1374.2H1401.08V1383.13H1410.01ZM1445.71 1383.13H1410.01V1392.05H1445.71V1383.13ZM1454.63 1374.2H1445.71V1383.13H1454.63V1374.2ZM1454.63 1124.35H1445.71V1115.42H1454.63V1124.35ZM1454.63 1124.35V1374.2H1463.55V1124.35H1454.63Z" fill="#333E70"/>
<path fill-rule="evenodd" clip-rule="evenodd" d="M1463.55 1552.67V1588.36H1454.63V1552.67H1463.55ZM1445.71 1543.75V1552.67H1454.63V1543.75H1445.71ZM1195.83 1543.75H1445.71V1534.82H1195.83V1543.75ZM1186.91 1552.67H1195.83V1543.75H1186.91V1552.67ZM1186.91 1588.36V1552.67H1177.98V1588.36H1186.91ZM1195.83 1597.29V1588.36H1186.91V1597.29H1195.83ZM1445.71 1597.29V1588.36H1454.63V1597.29H1445.71ZM1445.71 1597.29H1195.83V1606.21H1445.71V1597.29Z" fill="#333E70"/>
<path fill-rule="evenodd" clip-rule="evenodd" d="M821.018 1552.67V1588.36H812.094V1552.67H821.018ZM803.17 1543.75V1552.67H812.094V1543.75H803.17ZM553.295 1543.75H803.17V1534.82H553.295V1543.75ZM544.37 1552.67H553.295V1543.75H544.37V1552.67ZM544.37 1588.36V1552.67H535.446V1588.36H544.37ZM553.295 1597.29V1588.36H544.37V1597.29H553.295ZM803.17 1597.29V1588.36H812.094V1597.29H803.17ZM803.17 1597.29H553.295V1606.21H803.17V1597.29Z" fill="#333E70"/>
<path fill-rule="evenodd" clip-rule="evenodd" d="M196.33 178.468H374.812V187.391H196.33V178.468ZM187.406 196.315H196.33V187.391H187.406V196.315ZM187.406 303.395V196.315H178.482V303.395H187.406ZM196.33 312.319V303.395H187.406V312.319H196.33ZM374.812 312.319H196.33V321.242H374.812V312.319ZM383.736 303.395H374.812V312.319H383.736V303.395ZM383.736 196.315H374.812V187.391H383.736V196.315ZM383.736 196.315V303.395H392.661V196.315H383.736Z" fill="#333E70"/>
<path fill-rule="evenodd" clip-rule="evenodd" d="M1624.19 178.468H1802.67V187.391H1624.19V178.468ZM1615.26 196.315H1624.19V187.391H1615.26V196.315ZM1615.26 303.395V196.315H1606.34V303.395H1615.26ZM1624.19 312.319V303.395H1615.26V312.319H1624.19ZM1802.67 312.319H1624.19V321.242H1802.67V312.319ZM1811.59 303.395H1802.67V312.319H1811.59V303.395ZM1811.59 196.315H1802.67V187.391H1811.59V196.315ZM1811.59 196.315V303.395H1820.52V196.315H1811.59Z" fill="#333E70"/>
<path fill-rule="evenodd" clip-rule="evenodd" d="M553.295 178.468H803.17V187.391H553.295V178.468ZM544.37 196.315H553.295V187.391H544.37V196.315ZM544.37 303.395V196.315H535.446V303.395H544.37ZM553.295 312.319V303.395H544.37V312.319H553.295ZM803.17 312.319H553.295V321.242H803.17V312.319ZM812.094 303.395H803.17V312.319H812.094V303.395ZM812.094 196.315H803.17V187.391H812.094V196.315ZM812.094 196.315V303.395H821.018V196.315H812.094Z" fill="#333E70"/>
<path fill-rule="evenodd" clip-rule="evenodd" d="M1195.83 178.468H1445.71V187.391H1195.83V178.468ZM1186.91 196.315H1195.83V187.391H1186.91V196.315ZM1186.91 303.395V196.315H1177.98V303.395H1186.91ZM1195.83 312.319V303.395H1186.91V312.319H1195.83ZM1445.71 312.319H1195.83V321.242H1445.71V312.319ZM1454.63 303.395H1445.71V312.319H1454.63V303.395ZM1454.63 196.315H1445.71V187.391H1454.63V196.315ZM1454.63 196.315V303.395H1463.55V196.315H1454.63Z" fill="#333E70"/>
<path fill-rule="evenodd" clip-rule="evenodd" d="M553.295 464.016H588.991V472.94H553.295V464.016ZM544.37 481.863H553.295V472.94H544.37V481.863ZM544.37 945.879V481.863H535.446V945.879H544.37ZM553.295 954.802V945.879H544.37V954.802H553.295ZM588.991 954.802H553.295V963.726H588.991V954.802ZM597.915 945.879H588.991V954.802H597.915V945.879ZM606.839 758.488H597.915V945.879H606.839V758.488ZM615.763 749.565H606.839V758.488H615.763V749.565ZM803.17 740.641H615.763V749.565H803.17V740.641ZM812.094 731.718H803.17V740.641H812.094V731.718ZM812.094 696.024V731.718H821.018V696.024H812.094ZM803.17 687.101V696.024H812.094V687.101H803.17ZM615.763 678.177V687.101H803.17V678.177H615.763ZM606.839 669.254V678.177H615.763V669.254H606.839ZM597.915 481.863H588.991V472.94H597.915V481.863ZM597.915 481.863V669.254H606.839V481.863H597.915Z" fill="#333E70"/>
<path fill-rule="evenodd" clip-rule="evenodd" d="M1249.38 481.863V517.556H1240.45V481.863H1249.38ZM1231.53 472.94V481.863H1240.45V472.94H1231.53ZM767.473 472.94H1231.53V464.016H767.473V472.94ZM758.549 481.863H767.473V472.94H758.549V481.863ZM758.549 517.556V481.863H749.625V517.556H758.549ZM767.473 526.48V517.556H758.549V526.48H767.473ZM954.879 535.403V526.48H767.473V535.403H954.879ZM963.804 544.327V535.403H954.879V544.327H963.804ZM972.728 731.718V544.327H963.804V731.718H972.728ZM981.652 740.641V731.718H972.728V740.641H981.652ZM1017.35 740.641H981.652V749.565H1017.35V740.641ZM1026.27 731.718H1017.35V740.641H1026.27V731.718ZM1035.2 544.327H1026.27V731.718H1035.2V544.327ZM1044.12 535.403H1035.2V544.327H1044.12V535.403ZM1231.53 526.48V517.556H1240.45V526.48H1231.53ZM1231.53 526.48H1044.12V535.403H1231.53V526.48Z" fill="#333E70"/>
<path fill-rule="evenodd" clip-rule="evenodd" d="M1445.71 963.726H1410.01V954.802H1445.71V963.726ZM1454.63 945.879H1445.71V954.802H1454.63V945.879ZM1454.63 481.863V945.879H1463.55V481.863H1454.63ZM1445.71 472.94V481.863H1454.63V472.94H1445.71ZM1410.01 472.94H1445.71V464.016H1410.01V472.94ZM1401.08 481.863H1410.01V472.94H1401.08V481.863ZM1392.16 669.254H1401.08V481.863H1392.16V669.254ZM1383.24 678.177H1392.16V669.254H1383.24V678.177ZM1195.83 687.101H1383.24V678.177H1195.83V687.101ZM1186.91 696.024H1195.83V687.101H1186.91V696.024ZM1186.91 731.718V696.024H1177.98V731.718H1186.91ZM1195.83 740.641V731.718H1186.91V740.641H1195.83ZM1383.24 749.565V740.641H1195.83V749.565H1383.24ZM1392.16 758.488V749.565H1383.24V758.488H1392.16ZM1401.08 945.879H1410.01V954.802H1401.08V945.879ZM1401.08 945.879V758.488H1392.16V945.879H1401.08Z" fill="#333E70"/>
<path fill-rule="evenodd" clip-rule="evenodd" d="M1249.38 1338.51V1374.2H1240.45V1338.51H1249.38ZM1231.53 1329.58V1338.51H1240.45V1329.58H1231.53ZM767.473 1329.58H1231.53V1320.66H767.473V1329.58ZM758.549 1338.51H767.473V1329.58H758.549V1338.51ZM758.549 1374.2V1338.51H749.625V1374.2H758.549ZM767.473 1383.12V1374.2H758.549V1383.12H767.473ZM954.879 1392.05V1383.12H767.473V1392.05H954.879ZM963.804 1400.97V1392.05H954.879V1400.97H963.804ZM972.728 1588.36V1400.97H963.804V1588.36H972.728ZM981.652 1597.29V1588.36H972.728V1597.29H981.652ZM1017.35 1597.29H981.652V1606.21H1017.35V1597.29ZM1026.27 1588.36H1017.35V1597.29H1026.27V1588.36ZM1035.2 1400.97H1026.27V1588.36H1035.2V1400.97ZM1044.12 1392.05H1035.2V1400.97H1044.12V1392.05ZM1231.53 1383.12V1374.2H1240.45V1383.12H1231.53ZM1231.53 1383.12H1044.12V1392.05H1231.53V1383.12Z" fill="#333E70"/>
<path fill-rule="evenodd" clip-rule="evenodd" d="M1249.38 1766.83V1802.52H1240.45V1766.83H1249.38ZM1231.53 1757.91V1766.83H1240.45V1757.91H1231.53ZM767.473 1757.91H1231.53V1748.98H767.473V1757.91ZM758.549 1766.83H767.473V1757.91H758.549V1766.83ZM758.549 1802.52V1766.83H749.625V1802.52H758.549ZM767.473 1811.45V1802.52H758.549V1811.45H767.473ZM954.879 1820.37V1811.45H767.473V1820.37H954.879ZM963.804 1829.29V1820.37H954.879V1829.29H963.804ZM972.728 2016.69V1829.29H963.804V2016.69H972.728ZM981.652 2025.61V2016.69H972.728V2025.61H981.652ZM1017.35 2025.61H981.652V2034.53H1017.35V2025.61ZM1026.27 2016.69H1017.35V2025.61H1026.27V2016.69ZM1035.2 1829.29H1026.27V2016.69H1035.2V1829.29ZM1044.12 1820.37H1035.2V1829.29H1044.12V1820.37ZM1231.53 1811.45V1802.52H1240.45V1811.45H1231.53ZM1231.53 1811.45H1044.12V1820.37H1231.53V1811.45Z" fill="#333E70"/>
<path fill-rule="evenodd" clip-rule="evenodd" d="M196.33 1534.82H374.812V1543.75H196.33V1534.82ZM187.406 1552.67H196.33V1543.75H187.406V1552.67ZM187.406 1588.36V1552.67H178.482V1588.36H187.406ZM196.33 1597.29V1588.36H187.406V1597.29H196.33ZM312.344 1606.21V1597.29H196.33V1606.21H312.344ZM321.268 1615.13V1606.21H312.344V1615.13H321.268ZM330.192 1802.52V1615.13H321.268V1802.52H330.192ZM339.116 1811.45V1802.52H330.192V1811.45H339.116ZM374.812 1811.45H339.116V1820.37H374.812V1811.45ZM383.736 1802.52H374.812V1811.45H383.736V1802.52ZM383.736 1552.67H374.812V1543.75H383.736V1552.67ZM383.736 1552.67V1802.52H392.661V1552.67H383.736Z" fill="#333E70"/>
<path fill-rule="evenodd" clip-rule="evenodd" d="M1802.67 1534.82H1624.19V1543.75H1802.67V1534.82ZM1811.59 1552.67H1802.67V1543.75H1811.59V1552.67ZM1811.59 1588.36V1552.67H1820.52V1588.36H1811.59ZM1802.67 1597.29V1588.36H1811.59V1597.29H1802.67ZM1686.66 1606.21V1597.29H1802.67V1606.21H1686.66ZM1677.73 1615.13V1606.21H1686.66V1615.13H1677.73ZM1668.81 1802.52V1615.13H1677.73V1802.52H1668.81ZM1659.88 1811.45V1802.52H1668.81V1811.45H1659.88ZM1624.19 1811.45H1659.88V1820.37H1624.19V1811.45ZM1615.26 1802.52H1624.19V1811.45H1615.26V1802.52ZM1615.26 1552.67H1624.19V1543.75H1615.26V1552.67ZM1615.26 1552.67V1802.52H1606.34V1552.67H1615.26Z" fill="#333E70"/>
<path fill-rule="evenodd" clip-rule="evenodd" d="M553.294 1748.98H588.991V1757.91H553.294V1748.98ZM544.37 1766.83H553.294V1757.91H544.37V1766.83ZM535.446 1954.22H544.37V1766.83H535.446V1954.22ZM526.522 1963.15H535.446V1954.22H526.522V1963.15ZM196.33 1972.07H526.522V1963.15H196.33V1972.07ZM187.406 1980.99H196.33V1972.07H187.406V1980.99ZM187.406 2016.69V1980.99H178.482V2016.69H187.406ZM196.33 2025.61V2016.69H187.406V2025.61H196.33ZM803.169 2025.61H196.33V2034.53H803.169V2025.61ZM812.094 2016.69H803.169V2025.61H812.094V2016.69ZM812.094 1980.99V2016.69H821.018V1980.99H812.094ZM803.169 1972.07V1980.99H812.094V1972.07H803.169ZM615.763 1963.15V1972.07H803.169V1963.15H615.763ZM606.839 1954.22V1963.15H615.763V1954.22H606.839ZM597.915 1766.83H588.991V1757.91H597.915V1766.83ZM597.915 1766.83V1954.22H606.839V1766.83H597.915Z" fill="#333E70"/>
<path fill-rule="evenodd" clip-rule="evenodd" d="M1445.71 1748.98H1410.01V1757.91H1445.71V1748.98ZM1454.63 1766.83H1445.71V1757.91H1454.63V1766.83ZM1463.55 1954.22H1454.63V1766.83H1463.55V1954.22ZM1472.48 1963.15H1463.55V1954.22H1472.48V1963.15ZM1802.67 1972.07H1472.48V1963.15H1802.67V1972.07ZM1811.59 1980.99H1802.67V1972.07H1811.59V1980.99ZM1811.59 2016.69V1980.99H1820.52V2016.69H1811.59ZM1802.67 2025.61V2016.69H1811.59V2025.61H1802.67ZM1195.83 2025.61H1802.67V2034.53H1195.83V2025.61ZM1186.91 2016.69H1195.83V2025.61H1186.91V2016.69ZM1186.91 1980.99V2016.69H1177.98V1980.99H1186.91ZM1195.83 1972.07V1980.99H1186.91V1972.07H1195.83ZM1383.24 1963.15V1972.07H1195.83V1963.15H1383.24ZM1392.16 1954.22V1963.15H1383.24V1954.22H1392.16ZM1401.08 1766.83H1410.01V1757.91H1401.08V1766.83ZM1401.08 1766.83V1954.22H1392.16V1766.83H1401.08Z" fill="#333E70"/>
<path fill-rule="evenodd" clip-rule="evenodd" d="M0 1106.5H374.813V1115.42H0V1106.5ZM0 1133.27V1142.19H356.964V1356.35H35.6964V1365.28H17.8482V1374.2H8.92411V1392.05H0V2177.31H8.92411V2195.15H17.8482V2204.08H35.6964V2213H1963.3V2204.08H1981.15V2195.15H1990.08V2177.31H1999V1392.05H1990.08V1374.2H1981.15V1365.28H1963.3V1356.35H1642.04V1142.19H1999V1133.27H1642.04V1142.19H1633.11V1356.35H1642.04V1365.28H1963.3V1374.2H1981.15V1392.05H1990.08V2177.31H1981.15V2195.15H1963.3V2204.08H35.6964V2195.15H17.8482V2177.31H8.92411V1392.05H17.8482V1374.2H35.6964V1365.28H356.964V1356.35H365.888V1142.19H356.964V1133.27H0ZM1999 1115.42V1106.5H1624.19V1115.42H1615.26V1124.35H1606.34V1374.2H1615.26V1383.13H1624.19V1392.05H1954.38V1400.97H1963.3V1740.06H1954.38V1748.98H1838.37V1757.91H1829.44V1766.83H1820.52V1802.52H1829.44V1811.45H1838.37V1820.37H1954.38V1829.29H1963.3V2168.38H1954.38V2177.31H44.6205V2168.38H35.6964V1829.29H44.6205V1820.37H160.634V1811.45H169.558V1802.52H178.482V1766.83H169.558V1757.91H160.634V1748.98H44.6205V1740.06H35.6964V1400.97H44.6205V1392.05H374.813V1383.13H383.737V1374.2H392.661V1124.35H383.737V1115.42H374.813V1124.35H383.737V1374.2H374.813V1383.13H44.6205V1392.05H35.6964V1400.97H26.7723V1740.06H35.6964V1748.98H44.6205V1757.91H160.634V1766.83H169.558V1802.52H160.634V1811.45H44.6205V1820.37H35.6964V1829.29H26.7723V2168.38H35.6964V2177.31H44.6205V2186.23H1954.38V2177.31H1963.3V2168.38H1972.23V1829.29H1963.3V1820.37H1954.38V1811.45H1838.37V1802.52H1829.44V1766.83H1838.37V1757.91H1954.38V1748.98H1963.3V1740.06H1972.23V1400.97H1963.3V1392.05H1954.38V1383.13H1624.19V1374.2H1615.26V1124.35H1624.19V1115.42H1999Z" fill="#333E70"/>
<path fill-rule="evenodd" clip-rule="evenodd" d="M0 963.726H374.813V954.802H383.737V945.879H392.661V696.024H383.737V687.101H374.813V678.177H44.6205V669.254H35.6964V44.6169H44.6205V35.6936H954.88V44.6169H963.804V303.395H972.728V312.319H981.652V321.242H1017.35V312.319H1026.27V303.395H1035.2V44.6169H1044.12V35.6936H1954.38V44.6169H1963.3V669.254H1954.38V678.177H1624.19V687.101H1615.26V696.024H1606.34V945.879H1615.26V954.802H1624.19V963.726H1999V954.802H1624.19V945.879H1615.26V696.024H1624.19V687.101H1954.38V678.177H1963.3V669.254H1972.23V44.6169H1963.3V35.6936H1954.38V26.7702H1044.12V35.6936H1035.2V44.6169H1026.27V303.395H1017.35V312.319H981.652V303.395H972.728V44.6169H963.804V35.6936H954.88V26.7702H44.6205V35.6936H35.6964V44.6169H26.7723V669.254H35.6964V678.177H44.6205V687.101H374.813V696.024H383.737V945.879H374.813V954.802H0V963.726ZM0 936.956H356.964V928.032H365.888V713.871H356.964V704.948H35.6964V696.024H17.8482V678.177H8.92411V35.6936H17.8482V17.8468H35.6964V8.92339H1963.3V17.8468H1981.15V35.6936H1990.08V678.177H1981.15V696.024H1963.3V704.948H1642.04V713.871H1633.11V928.032H1642.04V936.956H1999V928.032H1642.04V713.871H1963.3V704.948H1981.15V696.024H1990.08V678.177H1999V35.6936H1990.08V17.8468H1981.15V8.92339H1963.3V0H35.6964V8.92339H17.8482V17.8468H8.92411V35.6936H0V678.177H8.92411V696.024H17.8482V704.948H35.6964V713.871H356.964V928.032H0V936.956Z" fill="#333E70"/>
</g>
<defs>
<clipPath id="clip0_75_56208">
<rect width="1999" height="2213" fill="white"/>
</clipPath>
</defs>
</svg>
