<svg width="224" height="248" viewBox="0 0 224 248" xmlns="http://www.w3.org/2000/svg">
  <path d="M 0 0 L 8 0 L 16 0 L 24 0 L 32 0 L 40 0 L 48 0 L 56 0 L 64 0 L 72 0 L 80 0 L 88 0 L 96 0 L 104 0 L 112 0 L 120 0 L 128 0 L 136 0 L 144 0 L 152 0 L 160 0 L 168 0 L 176 0 L 184 0 L 192 0 L 200 0 L 208 0 L 216 0 L 224 0 L 224 8 L 224 16 L 224 24 L 224 32 L 224 40 L 224 48 L 224 56 L 224 64 L 224 72 L 224 80 L 224 88 L 224 96 L 224 104 L 224 112 L 216 112 L 208 112 L 200 112 L 192 112 L 184 112 L 176 112 L 176 104 L 176 96 L 176 88 L 176 80 L 176 72 L 184 72 L 192 72 L 200 72 L 208 72 L 216 72 L 216 64 L 216 56 L 216 48 L 216 40 L 216 32 L 216 24 L 216 16 L 216 8 L 208 8 L 200 8 L 192 8 L 184 8 L 176 8 L 168 8 L 160 8 L 152 8 L 144 8 L 136 8 L 128 8 L 120 8 L 120 16 L 120 24 L 120 32 L 120 40 L 112 40 L 104 40 L 104 32 L 104 24 L 104 16 L 104 8 L 96 8 L 88 8 L 80 8 L 72 8 L 64 8 L 56 8 L 48 8 L 40 8 L 32 8 L 24 8 L 16 8 L 8 8 L 8 16 L 8 24 L 8 32 L 8 40 L 8 48 L 8 56 L 8 64 L 8 72 L 16 72 L 24 72 L 32 72 L 40 72 L 48 72 L 48 80 L 48 88 L 48 96 L 48 104 L 48 112 L 40 112 L 32 112 L 24 112 L 16 112 L 8 112 L 0 112 L 0 104 L 0 96 L 0 88 L 0 80 L 0 72 L 0 64 L 0 56 L 0 48 L 0 40 L 0 32 L 0 24 L 0 16 L 0 8 L 0 0 Z" fill="black" stroke="#2121FF" />
  <path d="M 16 16 L 24 16 L 32 16 L 40 16 L 48 16 L 48 24 L 48 32 L 48 40 L 40 40 L 32 40 L 24 40 L 16 40 L 16 32 L 16 24 L 16 16 Z" fill="black" stroke="#2121FF" />
  <path d="M 56 16 L 64 16 L 72 16 L 80 16 L 88 16 L 96 16 L 96 24 L 96 32 L 96 40 L 88 40 L 80 40 L 72 40 L 64 40 L 56 40 L 56 32 L 56 24 L 56 16 Z" fill="black" stroke="#2121FF" />
  <path d="M 128 16 L 136 16 L 144 16 L 152 16 L 160 16 L 168 16 L 168 24 L 168 32 L 168 40 L 160 40 L 152 40 L 144 40 L 136 40 L 128 40 L 128 32 L 128 24 L 128 16 Z" fill="black" stroke="#2121FF" />
  <path d="M 176 16 L 184 16 L 192 16 L 200 16 L 208 16 L 208 24 L 208 32 L 208 40 L 200 40 L 192 40 L 184 40 L 176 40 L 176 32 L 176 24 L 176 16 Z" fill="black" stroke="#2121FF" />
  <path d="M 16 48 L 24 48 L 32 48 L 40 48 L 48 48 L 48 56 L 48 64 L 40 64 L 32 64 L 24 64 L 16 64 L 16 56 L 16 48 Z" fill="black" stroke="#2121FF" />
  <path d="M 56 48 L 64 48 L 72 48 L 72 56 L 72 64 L 72 72 L 80 72 L 88 72 L 96 72 L 96 80 L 96 88 L 88 88 L 80 88 L 72 88 L 72 96 L 72 104 L 72 112 L 64 112 L 56 112 L 56 104 L 56 96 L 56 88 L 56 80 L 56 72 L 56 64 L 56 56 L 56 48 Z" fill="black" stroke="#2121FF" />
  <path d="M 80 48 L 88 48 L 96 48 L 104 48 L 112 48 L 120 48 L 128 48 L 136 48 L 144 48 L 144 56 L 144 64 L 136 64 L 128 64 L 120 64 L 120 72 L 120 80 L 120 88 L 112 88 L 104 88 L 104 80 L 104 72 L 104 64 L 96 64 L 88 64 L 80 64 L 80 56 L 80 48 Z" fill="black" stroke="#2121FF" />
  <path d="M 152 48 L 160 48 L 168 48 L 168 56 L 168 64 L 168 72 L 168 80 L 168 88 L 168 96 L 168 104 L 168 112 L 160 112 L 152 112 L 152 104 L 152 96 L 152 88 L 144 88 L 136 88 L 128 88 L 128 80 L 128 72 L 136 72 L 144 72 L 152 72 L 152 64 L 152 56 L 152 48 Z" fill="black" stroke="#2121FF" />
  <path d="M 176 48 L 184 48 L 192 48 L 200 48 L 208 48 L 208 56 L 208 64 L 200 64 L 192 64 L 184 64 L 176 64 L 176 56 L 176 48 Z" fill="black" stroke="#2121FF" />
  <path d="M 80 96 L 88 96 L 96 96 L 104 96 L 104 104 L 96 104 L 88 104 L 88 112 L 88 120 L 88 128 L 96 128 L 104 128 L 112 128 L 120 128 L 128 128 L 136 128 L 136 120 L 136 112 L 136 104 L 128 104 L 120 104 L 120 96 L 128 96 L 136 96 L 144 96 L 144 104 L 144 112 L 144 120 L 144 128 L 144 136 L 136 136 L 128 136 L 120 136 L 112 136 L 104 136 L 96 136 L 88 136 L 80 136 L 80 128 L 80 120 L 80 112 L 80 104 L 80 96 Z" fill="black" stroke="#2121FF" />
  <path d="M 104 96 L 112 96 L 120 96 L 120 104 L 112 104 L 104 104 L 104 96 Z" fill="white" stroke="none" />
  <path d="M 0 120 L 8 120 L 16 120 L 24 120 L 32 120 L 40 120 L 48 120 L 48 128 L 48 136 L 48 144 L 48 152 L 48 160 L 40 160 L 32 160 L 24 160 L 16 160 L 8 160 L 8 168 L 8 176 L 8 184 L 8 192 L 16 192 L 24 192 L 24 200 L 24 208 L 16 208 L 8 208 L 8 216 L 8 224 L 8 232 L 8 240 L 16 240 L 24 240 L 32 240 L 40 240 L 48 240 L 56 240 L 64 240 L 72 240 L 80 240 L 88 240 L 96 240 L 104 240 L 112 240 L 120 240 L 128 240 L 136 240 L 144 240 L 152 240 L 160 240 L 168 240 L 176 240 L 184 240 L 192 240 L 200 240 L 208 240 L 216 240 L 216 232 L 216 224 L 216 216 L 216 208 L 208 208 L 200 208 L 200 200 L 200 192 L 208 192 L 216 192 L 216 184 L 216 176 L 216 168 L 216 160 L 208 160 L 200 160 L 192 160 L 184 160 L 176 160 L 176 152 L 176 144 L 176 136 L 176 128 L 176 120 L 184 120 L 192 120 L 200 120 L 208 120 L 216 120 L 224 120 L 224 128 L 224 136 L 224 144 L 224 152 L 224 160 L 224 168 L 224 176 L 224 184 L 224 192 L 224 200 L 224 208 L 224 216 L 224 224 L 224 232 L 224 240 L 224 248 L 216 248 L 208 248 L 200 248 L 192 248 L 184 248 L 176 248 L 168 248 L 160 248 L 152 248 L 144 248 L 136 248 L 128 248 L 120 248 L 112 248 L 104 248 L 96 248 L 88 248 L 80 248 L 72 248 L 64 248 L 56 248 L 48 248 L 40 248 L 32 248 L 24 248 L 16 248 L 8 248 L 0 248 L 0 240 L 0 232 L 0 224 L 0 216 L 0 208 L 0 200 L 0 192 L 0 184 L 0 176 L 0 168 L 0 160 L 0 152 L 0 144 L 0 136 L 0 128 L 0 120 Z" fill="black" stroke="#2121FF" />
  <path d="M 56 120 L 64 120 L 72 120 L 72 128 L 72 136 L 72 144 L 72 152 L 72 160 L 64 160 L 56 160 L 56 152 L 56 144 L 56 136 L 56 128 L 56 120 Z" fill="black" stroke="#2121FF" />
  <path d="M 152 120 L 160 120 L 168 120 L 168 128 L 168 136 L 168 144 L 168 152 L 168 160 L 160 160 L 152 160 L 152 152 L 152 144 L 152 136 L 152 128 L 152 120 Z" fill="black" stroke="#2121FF" />
  <path d="M 80 144 L 88 144 L 96 144 L 104 144 L 112 144 L 120 144 L 128 144 L 136 144 L 144 144 L 144 152 L 144 160 L 136 160 L 128 160 L 120 160 L 120 168 L 120 176 L 120 184 L 112 184 L 104 184 L 104 176 L 104 168 L 104 160 L 96 160 L 88 160 L 80 160 L 80 152 L 80 144 Z" fill="black" stroke="#2121FF" />
  <path d="M 16 168 L 24 168 L 32 168 L 40 168 L 48 168 L 48 176 L 48 184 L 48 192 L 48 200 L 48 208 L 40 208 L 32 208 L 32 200 L 32 192 L 32 184 L 24 184 L 16 184 L 16 176 L 16 168 Z" fill="black" stroke="#2121FF" />
  <path d="M 56 168 L 64 168 L 72 168 L 80 168 L 88 168 L 96 168 L 96 176 L 96 184 L 88 184 L 80 184 L 72 184 L 64 184 L 56 184 L 56 176 L 56 168 Z" fill="black" stroke="#2121FF" />
  <path d="M 128 168 L 136 168 L 144 168 L 152 168 L 160 168 L 168 168 L 168 176 L 168 184 L 160 184 L 152 184 L 144 184 L 136 184 L 128 184 L 128 176 L 128 168 Z" fill="black" stroke="#2121FF" />
  <path d="M 176 168 L 184 168 L 192 168 L 200 168 L 208 168 L 208 176 L 208 184 L 200 184 L 192 184 L 192 192 L 192 200 L 192 208 L 184 208 L 176 208 L 176 200 L 176 192 L 176 184 L 176 176 L 176 168 Z" fill="black" stroke="#2121FF" />
  <path d="M 56 192 L 64 192 L 72 192 L 72 200 L 72 208 L 72 216 L 80 216 L 88 216 L 96 216 L 96 224 L 96 232 L 88 232 L 80 232 L 72 232 L 64 232 L 56 232 L 48 232 L 40 232 L 32 232 L 24 232 L 16 232 L 16 224 L 16 216 L 24 216 L 32 216 L 40 216 L 48 216 L 56 216 L 56 208 L 56 200 L 56 192 Z" fill="black" stroke="#2121FF" />
  <path d="M 80 192 L 88 192 L 96 192 L 104 192 L 112 192 L 120 192 L 128 192 L 136 192 L 144 192 L 144 200 L 144 208 L 136 208 L 128 208 L 120 208 L 120 216 L 120 224 L 120 232 L 112 232 L 104 232 L 104 224 L 104 216 L 104 208 L 96 208 L 88 208 L 80 208 L 80 200 L 80 192 Z" fill="black" stroke="#2121FF" />
  <path d="M 152 192 L 160 192 L 168 192 L 168 200 L 168 208 L 168 216 L 176 216 L 184 216 L 192 216 L 200 216 L 208 216 L 208 224 L 208 232 L 200 232 L 192 232 L 184 232 L 176 232 L 168 232 L 160 232 L 152 232 L 144 232 L 136 232 L 128 232 L 128 224 L 128 216 L 136 216 L 144 216 L 152 216 L 152 208 L 152 200 L 152 192 Z" fill="black" stroke="#2121FF" />
</svg>