<svg width="522" height="260" viewBox="0 0 522 260" fill="none" xmlns="http://www.w3.org/2000/svg">
<g clip-path="url(#clip0_103_7598)">
<path d="M213.666 71.191V62.7007H202.134V54.2103H190.601V45.72H179.069H167.536H156.004H144.472V54.2103H132.939V62.7007H121.407H109.875V54.2103H98.3423V45.72H86.8099H75.2775H63.7452H52.2128V54.2103H40.6804V62.7007H29.1481V71.191H17.6157V79.6814V88.1717V96.6621V105.152V113.643V122.133H29.1481V130.624H40.6804V139.114H52.2128V147.604H63.7452V156.095H75.2775V164.585H86.8099V173.075H98.3423V181.566H109.875V190.056H121.407H132.939V181.566H144.472V173.075H156.004V164.585H167.536V156.095H179.069V147.604H190.601V139.114H202.134V130.624H213.666V122.133H225.198V113.643V105.152V96.6621V88.1717V79.6814V71.191H213.666Z" fill="#EF3F23"/>
<path d="M75.2775 71.191V79.6814H63.7452V88.1717H52.2128V96.6621H63.7452H75.2775H86.8099V88.1717V79.6814V71.191H75.2775Z" fill="white"/>
</g>
<g clip-path="url(#clip1_103_7598)">
<path d="M493.666 71.191V62.7007H482.134V54.2103H470.601V45.72H459.069H447.537H436.004H424.472V54.2103H412.939V62.7007H401.407H389.875V54.2103H378.342V45.72H366.81H355.278H343.745H332.213V54.2103H320.68V62.7007H309.148V71.191H297.616V79.6814V88.1717V96.6621V105.152V113.643V122.133H309.148V130.624H320.68V139.114H332.213V147.604H343.745V156.095H355.278V164.585H366.81V173.075H378.342V181.566H389.875V190.056H401.407H412.939V181.566H424.472V173.075H436.004V164.585H447.537V156.095H459.069V147.604H470.601V139.114H482.134V130.624H493.666V122.133H505.198V113.643V105.152V96.6621V88.1717V79.6814V71.191H493.666Z" fill="#EF3F23"/>
<path d="M355.278 71.191V79.6814H343.745V88.1717H332.213V96.6621H343.745H355.278H366.81V88.1717V79.6814V71.191H355.278Z" fill="white"/>
</g>
<defs>
<clipPath id="clip0_103_7598">
<rect width="207.583" height="144.336" fill="white" transform="translate(17.6157 45.72)"/>
</clipPath>
<clipPath id="clip1_103_7598">
<rect width="207.583" height="144.336" fill="white" transform="translate(297.616 45.72)"/>
</clipPath>
</defs>
</svg>
