<svg width="535" height="260" viewBox="0 0 535 260" fill="none" xmlns="http://www.w3.org/2000/svg">
<g clip-path="url(#clip0_12_3439)">
<path d="M240.833 49.2353V37.8235H226.667V26.4118H212.5V15H198.333H184.167H170H155.833V26.4118H141.667V37.8235H127.5H113.333V26.4118H99.1667V15H85H70.8333H56.6667H42.5V26.4118H28.3333V37.8235H14.1667V49.2353H0V60.6471V72.0588V83.4706V94.8823V106.294V117.706H14.1667V129.118H28.3333V140.529H42.5V151.941H56.6667V163.353H70.8333V174.765H85V186.176H99.1667V197.588H113.333V209H127.5H141.667V197.588H155.833V186.176H170V174.765H184.167V163.353H198.333V151.941H212.5V140.529H226.667V129.118H240.833V117.706H255V106.294V94.8823V83.4706V72.0588V60.6471V49.2353H240.833Z" fill="#EF3F23"/>
<path d="M70.8333 49.2354V60.6471H56.6667V72.0589H42.5V83.4706H56.6667H70.8333H85V72.0589V60.6471V49.2354H70.8333Z" fill="white"/>
</g>
<g clip-path="url(#clip1_12_3439)">
<path d="M520.833 49.2353V37.8235H506.667V26.4118H492.5V15H478.333H464.167H450H435.833V26.4118H421.667V37.8235H407.5H393.333V26.4118H379.167V15H365H350.833H336.667H322.5V26.4118H308.333V37.8235H294.167V49.2353H280V60.6471V72.0588V83.4706V94.8823V106.294V117.706H294.167V129.118H308.333V140.529H322.5V151.941H336.667V163.353H350.833V174.765H365V186.176H379.167V197.588H393.333V209H407.5H421.667V197.588H435.833V186.176H450V174.765H464.167V163.353H478.333V151.941H492.5V140.529H506.667V129.118H520.833V117.706H535V106.294V94.8823V83.4706V72.0588V60.6471V49.2353H520.833Z" fill="#EF3F23"/>
<path d="M350.833 49.2354V60.6471H336.667V72.0589H322.5V83.4706H336.667H350.833H365V72.0589V60.6471V49.2354H350.833Z" fill="white"/>
</g>
<defs>
<clipPath id="clip0_12_3439">
<rect width="255" height="194" fill="white" transform="translate(0 15)"/>
</clipPath>
<clipPath id="clip1_12_3439">
<rect width="255" height="194" fill="white" transform="translate(280 15)"/>
</clipPath>
</defs>
</svg>
