<svg width="172" height="127" viewBox="0 0 172 127" fill="none" xmlns="http://www.w3.org/2000/svg">
<path d="M14.2 89V36.75H3.45V26.6C5.68333 26.6 7.7 26.3667 9.5 25.9C11.3 25.4333 12.8167 24.65 14.05 23.55C15.3167 22.45 16.2667 20.9333 16.9 19H27.15V89H14.2ZM72.9391 90.2C67.9391 90.2 63.7891 89.15 60.4891 87.05C57.1891 84.9167 54.5724 82.0833 52.6391 78.55C50.7057 75.0167 49.3224 71.1167 48.4891 66.85C47.6891 62.5833 47.2891 58.3 47.2891 54C47.2891 50.6 47.5391 47.1833 48.0391 43.75C48.5391 40.2833 49.3557 37 50.4891 33.9C51.6557 30.8 53.2224 28.05 55.1891 25.65C57.1557 23.2167 59.5891 21.3 62.4891 19.9C65.4224 18.5 68.9057 17.8 72.9391 17.8C77.9057 17.8 82.0391 18.85 85.3391 20.95C88.6724 23.05 91.2891 25.85 93.1891 29.35C95.1224 32.85 96.4891 36.75 97.2891 41.05C98.1224 45.3167 98.5391 49.6333 98.5391 54C98.5391 57.4 98.2891 60.8167 97.7891 64.25C97.2891 67.6833 96.4557 70.95 95.2891 74.05C94.1224 77.15 92.5557 79.9167 90.5891 82.35C88.6224 84.7833 86.1891 86.7 83.2891 88.1C80.3891 89.5 76.9391 90.2 72.9391 90.2ZM72.9391 78C75.4057 78 77.4391 77.3167 79.0391 75.95C80.6724 74.55 81.9557 72.7 82.8891 70.4C83.8557 68.1 84.5391 65.5333 84.9391 62.7C85.3391 59.8667 85.5391 56.9667 85.5391 54C85.5391 51 85.3224 48.0833 84.8891 45.25C84.4891 42.4167 83.8224 39.85 82.8891 37.55C81.9557 35.2167 80.6724 33.3833 79.0391 32.05C77.4391 30.6833 75.4057 30 72.9391 30C70.4391 30 68.3724 30.6833 66.7391 32.05C65.1057 33.4167 63.8057 35.2667 62.8391 37.6C61.8724 39.9 61.1891 42.4667 60.7891 45.3C60.3891 48.1333 60.1891 51.0333 60.1891 54C60.1891 56.9667 60.3891 59.8833 60.7891 62.75C61.1891 65.5833 61.8724 68.15 62.8391 70.45C63.8057 72.75 65.1057 74.5833 66.7391 75.95C68.4057 77.3167 70.4724 78 72.9391 78ZM139.052 90.2C134.052 90.2 129.902 89.15 126.602 87.05C123.302 84.9167 120.686 82.0833 118.752 78.55C116.819 75.0167 115.436 71.1167 114.602 66.85C113.802 62.5833 113.402 58.3 113.402 54C113.402 50.6 113.652 47.1833 114.152 43.75C114.652 40.2833 115.469 37 116.602 33.9C117.769 30.8 119.336 28.05 121.302 25.65C123.269 23.2167 125.702 21.3 128.602 19.9C131.536 18.5 135.019 17.8 139.052 17.8C144.019 17.8 148.152 18.85 151.452 20.95C154.786 23.05 157.402 25.85 159.302 29.35C161.236 32.85 162.602 36.75 163.402 41.05C164.236 45.3167 164.652 49.6333 164.652 54C164.652 57.4 164.402 60.8167 163.902 64.25C163.402 67.6833 162.569 70.95 161.402 74.05C160.236 77.15 158.669 79.9167 156.702 82.35C154.736 84.7833 152.302 86.7 149.402 88.1C146.502 89.5 143.052 90.2 139.052 90.2ZM139.052 78C141.519 78 143.552 77.3167 145.152 75.95C146.786 74.55 148.069 72.7 149.002 70.4C149.969 68.1 150.652 65.5333 151.052 62.7C151.452 59.8667 151.652 56.9667 151.652 54C151.652 51 151.436 48.0833 151.002 45.25C150.602 42.4167 149.936 39.85 149.002 37.55C148.069 35.2167 146.786 33.3833 145.152 32.05C143.552 30.6833 141.519 30 139.052 30C136.552 30 134.486 30.6833 132.852 32.05C131.219 33.4167 129.919 35.2667 128.952 37.6C127.986 39.9 127.302 42.4667 126.902 45.3C126.502 48.1333 126.302 51.0333 126.302 54C126.302 56.9667 126.502 59.8833 126.902 62.75C127.302 65.5833 127.986 68.15 128.952 70.45C129.919 72.75 131.219 74.5833 132.852 75.95C134.519 77.3167 136.586 78 139.052 78Z" fill="#FF7AEA"/>
</svg>
