<svg width="234" height="127" viewBox="0 0 234 127" fill="none" xmlns="http://www.w3.org/2000/svg">
<path d="M14.2 89V36.75H3.45V26.6C5.68333 26.6 7.7 26.3667 9.5 25.9C11.3 25.4333 12.8167 24.65 14.05 23.55C15.3167 22.45 16.2667 20.9333 16.9 19H27.15V89H14.2ZM71.6391 90.2C67.5057 90.2 63.8557 89.5333 60.6891 88.2C57.5224 86.8333 54.8724 84.9333 52.7391 82.5C50.6057 80.0333 48.9891 77.1667 47.8891 73.9C46.8224 70.6 46.2891 67.0333 46.2891 63.2C46.2891 55.9 47.7391 49.1 50.6391 42.8C53.5391 36.5 57.9891 31.15 63.9891 26.75C69.9891 22.35 77.6224 19.3667 86.8891 17.8V29.8C83.3891 30.4667 79.9557 31.6 76.5891 33.2C73.2224 34.8 70.2224 36.8667 67.5891 39.4C64.9557 41.9333 63.0224 44.9333 61.7891 48.4C63.0891 47.3 64.7391 46.4167 66.7391 45.75C68.7391 45.05 71.0057 44.7 73.5391 44.7C77.9057 44.7 81.7891 45.6833 85.1891 47.65C88.6224 49.6167 91.3224 52.3 93.2891 55.7C95.2891 59.1 96.2891 62.9667 96.2891 67.3C96.2891 71.8 95.2224 75.7667 93.0891 79.2C90.9557 82.6333 88.0224 85.3333 84.2891 87.3C80.5891 89.2333 76.3724 90.2 71.6391 90.2ZM71.5891 78C73.8891 78 75.9391 77.5667 77.7391 76.7C79.5391 75.8333 80.9391 74.6333 81.9391 73.1C82.9391 71.5333 83.4391 69.6667 83.4391 67.5C83.4391 64.2667 82.3224 61.7 80.0891 59.8C77.8891 57.8667 75.0557 56.9 71.5891 56.9C69.2557 56.9 67.1724 57.35 65.3391 58.25C63.5391 59.1167 62.1224 60.35 61.0891 61.95C60.0557 63.55 59.5391 65.4 59.5391 67.5C59.5391 69.6667 60.0557 71.5333 61.0891 73.1C62.1557 74.6333 63.5891 75.8333 65.3891 76.7C67.2224 77.5667 69.2891 78 71.5891 78ZM134.365 90.2C129.365 90.2 125.215 89.15 121.915 87.05C118.615 84.9167 115.998 82.0833 114.065 78.55C112.132 75.0167 110.748 71.1167 109.915 66.85C109.115 62.5833 108.715 58.3 108.715 54C108.715 50.6 108.965 47.1833 109.465 43.75C109.965 40.2833 110.782 37 111.915 33.9C113.082 30.8 114.648 28.05 116.615 25.65C118.582 23.2167 121.015 21.3 123.915 19.9C126.848 18.5 130.332 17.8 134.365 17.8C139.332 17.8 143.465 18.85 146.765 20.95C150.098 23.05 152.715 25.85 154.615 29.35C156.548 32.85 157.915 36.75 158.715 41.05C159.548 45.3167 159.965 49.6333 159.965 54C159.965 57.4 159.715 60.8167 159.215 64.25C158.715 67.6833 157.882 70.95 156.715 74.05C155.548 77.15 153.982 79.9167 152.015 82.35C150.048 84.7833 147.615 86.7 144.715 88.1C141.815 89.5 138.365 90.2 134.365 90.2ZM134.365 78C136.832 78 138.865 77.3167 140.465 75.95C142.098 74.55 143.382 72.7 144.315 70.4C145.282 68.1 145.965 65.5333 146.365 62.7C146.765 59.8667 146.965 56.9667 146.965 54C146.965 51 146.748 48.0833 146.315 45.25C145.915 42.4167 145.248 39.85 144.315 37.55C143.382 35.2167 142.098 33.3833 140.465 32.05C138.865 30.6833 136.832 30 134.365 30C131.865 30 129.798 30.6833 128.165 32.05C126.532 33.4167 125.232 35.2667 124.265 37.6C123.298 39.9 122.615 42.4667 122.215 45.3C121.815 48.1333 121.615 51.0333 121.615 54C121.615 56.9667 121.815 59.8833 122.215 62.75C122.615 65.5833 123.298 68.15 124.265 70.45C125.232 72.75 126.532 74.5833 128.165 75.95C129.832 77.3167 131.898 78 134.365 78ZM200.478 90.2C195.478 90.2 191.328 89.15 188.028 87.05C184.728 84.9167 182.111 82.0833 180.178 78.55C178.245 75.0167 176.861 71.1167 176.028 66.85C175.228 62.5833 174.828 58.3 174.828 54C174.828 50.6 175.078 47.1833 175.578 43.75C176.078 40.2833 176.895 37 178.028 33.9C179.195 30.8 180.761 28.05 182.728 25.65C184.695 23.2167 187.128 21.3 190.028 19.9C192.961 18.5 196.445 17.8 200.478 17.8C205.445 17.8 209.578 18.85 212.878 20.95C216.211 23.05 218.828 25.85 220.728 29.35C222.661 32.85 224.028 36.75 224.828 41.05C225.661 45.3167 226.078 49.6333 226.078 54C226.078 57.4 225.828 60.8167 225.328 64.25C224.828 67.6833 223.995 70.95 222.828 74.05C221.661 77.15 220.095 79.9167 218.128 82.35C216.161 84.7833 213.728 86.7 210.828 88.1C207.928 89.5 204.478 90.2 200.478 90.2ZM200.478 78C202.945 78 204.978 77.3167 206.578 75.95C208.211 74.55 209.495 72.7 210.428 70.4C211.395 68.1 212.078 65.5333 212.478 62.7C212.878 59.8667 213.078 56.9667 213.078 54C213.078 51 212.861 48.0833 212.428 45.25C212.028 42.4167 211.361 39.85 210.428 37.55C209.495 35.2167 208.211 33.3833 206.578 32.05C204.978 30.6833 202.945 30 200.478 30C197.978 30 195.911 30.6833 194.278 32.05C192.645 33.4167 191.345 35.2667 190.378 37.6C189.411 39.9 188.728 42.4667 188.328 45.3C187.928 48.1333 187.728 51.0333 187.728 54C187.728 56.9667 187.928 59.8833 188.328 62.75C188.728 65.5833 189.411 68.15 190.378 70.45C191.345 72.75 192.645 74.5833 194.278 75.95C195.945 77.3167 198.011 78 200.478 78Z" fill="#00FFFF"/>
</svg>
