<svg width="260" height="127" viewBox="0 0 260 127" fill="none" xmlns="http://www.w3.org/2000/svg">
<path d="M6.45 89C6.45 83.8667 7.06667 79.3667 8.3 75.5C9.53333 71.6 11.2333 68.1667 13.4 65.2C15.5667 62.2333 18.0667 59.6167 20.9 57.35C23.7667 55.0833 26.8 53.05 30 51.25C31.9 50.1833 33.6833 49.05 35.35 47.85C37.0167 46.65 38.3667 45.3 39.4 43.8C40.4333 42.3 40.95 40.5667 40.95 38.6C40.95 35.9667 40.0667 33.8833 38.3 32.35C36.5667 30.7833 34.2333 30 31.3 30C28.2333 30 25.7 30.7333 23.7 32.2C21.7333 33.6333 20.2 35.6333 19.1 38.2L7.55 32.95C9.41667 28.35 12.4833 24.6833 16.75 21.95C21.05 19.1833 25.85 17.8 31.15 17.8C35.95 17.8 40.0333 18.7167 43.4 20.55C46.8 22.35 49.3833 24.8 51.15 27.9C52.95 30.9667 53.85 34.4333 53.85 38.3C53.85 42.3667 53.1167 45.7667 51.65 48.5C50.2167 51.2333 48.25 53.6 45.75 55.6C43.2833 57.6 40.5167 59.5 37.45 61.3C34.4167 63.1 31.8333 64.7667 29.7 66.3C27.6 67.8 25.8833 69.3667 24.55 71C23.2167 72.6 22.2167 74.45 21.55 76.55H54.45V89H6.45ZM94.0328 90.2C89.0328 90.2 84.8828 89.15 81.5828 87.05C78.2828 84.9167 75.6661 82.0833 73.7328 78.55C71.7995 75.0167 70.4161 71.1167 69.5828 66.85C68.7828 62.5833 68.3828 58.3 68.3828 54C68.3828 50.6 68.6328 47.1833 69.1328 43.75C69.6328 40.2833 70.4495 37 71.5828 33.9C72.7495 30.8 74.3161 28.05 76.2828 25.65C78.2495 23.2167 80.6828 21.3 83.5828 19.9C86.5161 18.5 89.9995 17.8 94.0328 17.8C98.9995 17.8 103.133 18.85 106.433 20.95C109.766 23.05 112.383 25.85 114.283 29.35C116.216 32.85 117.583 36.75 118.383 41.05C119.216 45.3167 119.633 49.6333 119.633 54C119.633 57.4 119.383 60.8167 118.883 64.25C118.383 67.6833 117.549 70.95 116.383 74.05C115.216 77.15 113.649 79.9167 111.683 82.35C109.716 84.7833 107.283 86.7 104.383 88.1C101.483 89.5 98.0328 90.2 94.0328 90.2ZM94.0328 78C96.4995 78 98.5328 77.3167 100.133 75.95C101.766 74.55 103.049 72.7 103.983 70.4C104.949 68.1 105.633 65.5333 106.033 62.7C106.433 59.8667 106.633 56.9667 106.633 54C106.633 51 106.416 48.0833 105.983 45.25C105.583 42.4167 104.916 39.85 103.983 37.55C103.049 35.2167 101.766 33.3833 100.133 32.05C98.5328 30.6833 96.4995 30 94.0328 30C91.5328 30 89.4661 30.6833 87.8328 32.05C86.1995 33.4167 84.8995 35.2667 83.9328 37.6C82.9661 39.9 82.2828 42.4667 81.8828 45.3C81.4828 48.1333 81.2828 51.0333 81.2828 54C81.2828 56.9667 81.4828 59.8833 81.8828 62.75C82.2828 65.5833 82.9661 68.15 83.9328 70.45C84.8995 72.75 86.1995 74.5833 87.8328 75.95C89.4995 77.3167 91.5661 78 94.0328 78ZM160.146 90.2C155.146 90.2 150.996 89.15 147.696 87.05C144.396 84.9167 141.779 82.0833 139.846 78.55C137.913 75.0167 136.529 71.1167 135.696 66.85C134.896 62.5833 134.496 58.3 134.496 54C134.496 50.6 134.746 47.1833 135.246 43.75C135.746 40.2833 136.563 37 137.696 33.9C138.863 30.8 140.429 28.05 142.396 25.65C144.363 23.2167 146.796 21.3 149.696 19.9C152.629 18.5 156.113 17.8 160.146 17.8C165.113 17.8 169.246 18.85 172.546 20.95C175.879 23.05 178.496 25.85 180.396 29.35C182.329 32.85 183.696 36.75 184.496 41.05C185.329 45.3167 185.746 49.6333 185.746 54C185.746 57.4 185.496 60.8167 184.996 64.25C184.496 67.6833 183.663 70.95 182.496 74.05C181.329 77.15 179.763 79.9167 177.796 82.35C175.829 84.7833 173.396 86.7 170.496 88.1C167.596 89.5 164.146 90.2 160.146 90.2ZM160.146 78C162.613 78 164.646 77.3167 166.246 75.95C167.879 74.55 169.163 72.7 170.096 70.4C171.063 68.1 171.746 65.5333 172.146 62.7C172.546 59.8667 172.746 56.9667 172.746 54C172.746 51 172.529 48.0833 172.096 45.25C171.696 42.4167 171.029 39.85 170.096 37.55C169.163 35.2167 167.879 33.3833 166.246 32.05C164.646 30.6833 162.613 30 160.146 30C157.646 30 155.579 30.6833 153.946 32.05C152.313 33.4167 151.013 35.2667 150.046 37.6C149.079 39.9 148.396 42.4667 147.996 45.3C147.596 48.1333 147.396 51.0333 147.396 54C147.396 56.9667 147.596 59.8833 147.996 62.75C148.396 65.5833 149.079 68.15 150.046 70.45C151.013 72.75 152.313 74.5833 153.946 75.95C155.613 77.3167 157.679 78 160.146 78ZM226.259 90.2C221.259 90.2 217.109 89.15 213.809 87.05C210.509 84.9167 207.893 82.0833 205.959 78.55C204.026 75.0167 202.643 71.1167 201.809 66.85C201.009 62.5833 200.609 58.3 200.609 54C200.609 50.6 200.859 47.1833 201.359 43.75C201.859 40.2833 202.676 37 203.809 33.9C204.976 30.8 206.543 28.05 208.509 25.65C210.476 23.2167 212.909 21.3 215.809 19.9C218.743 18.5 222.226 17.8 226.259 17.8C231.226 17.8 235.359 18.85 238.659 20.95C241.993 23.05 244.609 25.85 246.509 29.35C248.443 32.85 249.809 36.75 250.609 41.05C251.443 45.3167 251.859 49.6333 251.859 54C251.859 57.4 251.609 60.8167 251.109 64.25C250.609 67.6833 249.776 70.95 248.609 74.05C247.443 77.15 245.876 79.9167 243.909 82.35C241.943 84.7833 239.509 86.7 236.609 88.1C233.709 89.5 230.259 90.2 226.259 90.2ZM226.259 78C228.726 78 230.759 77.3167 232.359 75.95C233.993 74.55 235.276 72.7 236.209 70.4C237.176 68.1 237.859 65.5333 238.259 62.7C238.659 59.8667 238.859 56.9667 238.859 54C238.859 51 238.643 48.0833 238.209 45.25C237.809 42.4167 237.143 39.85 236.209 37.55C235.276 35.2167 233.993 33.3833 232.359 32.05C230.759 30.6833 228.726 30 226.259 30C223.759 30 221.693 30.6833 220.059 32.05C218.426 33.4167 217.126 35.2667 216.159 37.6C215.193 39.9 214.509 42.4667 214.109 45.3C213.709 48.1333 213.509 51.0333 213.509 54C213.509 56.9667 213.709 59.8833 214.109 62.75C214.509 65.5833 215.193 68.15 216.159 70.45C217.126 72.75 218.426 74.5833 220.059 75.95C221.726 77.3167 223.793 78 226.259 78Z" fill="#FF7AEA"/>
</svg>
