<svg width="191" height="127" viewBox="0 0 191 127" fill="none" xmlns="http://www.w3.org/2000/svg">
<path d="M29.6 90.2C23.7 90.2 18.6 88.7833 14.3 85.95C10.0333 83.0833 6.86667 79 4.8 73.7L16.4 69C19.3667 74.9667 23.7667 77.95 29.6 77.95C33 77.95 35.6667 77.1167 37.6 75.45C39.5667 73.7833 40.55 71.5 40.55 68.6C40.55 65.8667 39.55 63.7 37.55 62.1C35.55 60.4667 32.8667 59.65 29.5 59.65H22.75V47.3H29.3C32.0333 47.3 34.1833 46.5167 35.75 44.95C37.35 43.35 38.15 41.2167 38.15 38.55C38.15 36.0167 37.3333 33.9667 35.7 32.4C34.0667 30.8 31.9333 30 29.3 30C27.0333 30 24.9833 30.6 23.15 31.8C21.35 32.9667 19.8333 34.6833 18.6 36.95L6.9 32.4C9.06667 27.7667 12.1 24.1833 16 21.65C19.9333 19.0833 24.4 17.8 29.4 17.8C33.6667 17.8 37.4333 18.6333 40.7 20.3C43.9667 21.9333 46.5167 24.2333 48.35 27.2C50.1833 30.1333 51.1 33.5167 51.1 37.35C51.1 40.5833 50.35 43.55 48.85 46.25C47.3833 48.9167 45.3167 51.0833 42.65 52.75C46.0167 54.0833 48.6667 56.2833 50.6 59.35C52.5333 62.4167 53.5 65.95 53.5 69.95C53.5 73.8833 52.4833 77.3833 50.45 80.45C48.4167 83.4833 45.5833 85.8667 41.95 87.6C38.35 89.3333 34.2333 90.2 29.6 90.2ZM91.2984 90.2C86.2984 90.2 82.1484 89.15 78.8484 87.05C75.5484 84.9167 72.9318 82.0833 70.9984 78.55C69.0651 75.0167 67.6818 71.1167 66.8484 66.85C66.0484 62.5833 65.6484 58.3 65.6484 54C65.6484 50.6 65.8984 47.1833 66.3984 43.75C66.8984 40.2833 67.7151 37 68.8484 33.9C70.0151 30.8 71.5818 28.05 73.5484 25.65C75.5151 23.2167 77.9484 21.3 80.8484 19.9C83.7818 18.5 87.2651 17.8 91.2984 17.8C96.2651 17.8 100.398 18.85 103.698 20.95C107.032 23.05 109.648 25.85 111.548 29.35C113.482 32.85 114.848 36.75 115.648 41.05C116.482 45.3167 116.898 49.6333 116.898 54C116.898 57.4 116.648 60.8167 116.148 64.25C115.648 67.6833 114.815 70.95 113.648 74.05C112.482 77.15 110.915 79.9167 108.948 82.35C106.982 84.7833 104.548 86.7 101.648 88.1C98.7484 89.5 95.2984 90.2 91.2984 90.2ZM91.2984 78C93.7651 78 95.7984 77.3167 97.3984 75.95C99.0318 74.55 100.315 72.7 101.248 70.4C102.215 68.1 102.898 65.5333 103.298 62.7C103.698 59.8667 103.898 56.9667 103.898 54C103.898 51 103.682 48.0833 103.248 45.25C102.848 42.4167 102.182 39.85 101.248 37.55C100.315 35.2167 99.0318 33.3833 97.3984 32.05C95.7984 30.6833 93.7651 30 91.2984 30C88.7984 30 86.7318 30.6833 85.0984 32.05C83.4651 33.4167 82.1651 35.2667 81.1984 37.6C80.2318 39.9 79.5484 42.4667 79.1484 45.3C78.7484 48.1333 78.5484 51.0333 78.5484 54C78.5484 56.9667 78.7484 59.8833 79.1484 62.75C79.5484 65.5833 80.2318 68.15 81.1984 70.45C82.1651 72.75 83.4651 74.5833 85.0984 75.95C86.7651 77.3167 88.8318 78 91.2984 78ZM157.412 90.2C152.412 90.2 148.262 89.15 144.962 87.05C141.662 84.9167 139.045 82.0833 137.112 78.55C135.178 75.0167 133.795 71.1167 132.962 66.85C132.162 62.5833 131.762 58.3 131.762 54C131.762 50.6 132.012 47.1833 132.512 43.75C133.012 40.2833 133.828 37 134.962 33.9C136.128 30.8 137.695 28.05 139.662 25.65C141.628 23.2167 144.062 21.3 146.962 19.9C149.895 18.5 153.378 17.8 157.412 17.8C162.378 17.8 166.512 18.85 169.812 20.95C173.145 23.05 175.762 25.85 177.662 29.35C179.595 32.85 180.962 36.75 181.762 41.05C182.595 45.3167 183.012 49.6333 183.012 54C183.012 57.4 182.762 60.8167 182.262 64.25C181.762 67.6833 180.928 70.95 179.762 74.05C178.595 77.15 177.028 79.9167 175.062 82.35C173.095 84.7833 170.662 86.7 167.762 88.1C164.862 89.5 161.412 90.2 157.412 90.2ZM157.412 78C159.878 78 161.912 77.3167 163.512 75.95C165.145 74.55 166.428 72.7 167.362 70.4C168.328 68.1 169.012 65.5333 169.412 62.7C169.812 59.8667 170.012 56.9667 170.012 54C170.012 51 169.795 48.0833 169.362 45.25C168.962 42.4167 168.295 39.85 167.362 37.55C166.428 35.2167 165.145 33.3833 163.512 32.05C161.912 30.6833 159.878 30 157.412 30C154.912 30 152.845 30.6833 151.212 32.05C149.578 33.4167 148.278 35.2667 147.312 37.6C146.345 39.9 145.662 42.4667 145.262 45.3C144.862 48.1333 144.662 51.0333 144.662 54C144.662 56.9667 144.862 59.8833 145.262 62.75C145.662 65.5833 146.345 68.15 147.312 70.45C148.278 72.75 149.578 74.5833 151.212 75.95C152.878 77.3167 154.945 78 157.412 78Z" fill="#FF7AEA"/>
</svg>
