<svg width="197" height="127" viewBox="0 0 197 127" fill="none" xmlns="http://www.w3.org/2000/svg">
<path d="M37.4 89V74.5H1.65V66.4L37.65 19H50.05V62.55H58.9V74.5H50.05V89H37.4ZM18.45 62.55H37.4V36.95L18.45 62.55ZM97.1578 90.2C92.1578 90.2 88.0078 89.15 84.7078 87.05C81.4078 84.9167 78.7911 82.0833 76.8578 78.55C74.9245 75.0167 73.5411 71.1167 72.7078 66.85C71.9078 62.5833 71.5078 58.3 71.5078 54C71.5078 50.6 71.7578 47.1833 72.2578 43.75C72.7578 40.2833 73.5745 37 74.7078 33.9C75.8745 30.8 77.4411 28.05 79.4078 25.65C81.3745 23.2167 83.8078 21.3 86.7078 19.9C89.6411 18.5 93.1245 17.8 97.1578 17.8C102.124 17.8 106.258 18.85 109.558 20.95C112.891 23.05 115.508 25.85 117.408 29.35C119.341 32.85 120.708 36.75 121.508 41.05C122.341 45.3167 122.758 49.6333 122.758 54C122.758 57.4 122.508 60.8167 122.008 64.25C121.508 67.6833 120.674 70.95 119.508 74.05C118.341 77.15 116.774 79.9167 114.808 82.35C112.841 84.7833 110.408 86.7 107.508 88.1C104.608 89.5 101.158 90.2 97.1578 90.2ZM97.1578 78C99.6245 78 101.658 77.3167 103.258 75.95C104.891 74.55 106.174 72.7 107.108 70.4C108.074 68.1 108.758 65.5333 109.158 62.7C109.558 59.8667 109.758 56.9667 109.758 54C109.758 51 109.541 48.0833 109.108 45.25C108.708 42.4167 108.041 39.85 107.108 37.55C106.174 35.2167 104.891 33.3833 103.258 32.05C101.658 30.6833 99.6245 30 97.1578 30C94.6578 30 92.5911 30.6833 90.9578 32.05C89.3245 33.4167 88.0245 35.2667 87.0578 37.6C86.0911 39.9 85.4078 42.4667 85.0078 45.3C84.6078 48.1333 84.4078 51.0333 84.4078 54C84.4078 56.9667 84.6078 59.8833 85.0078 62.75C85.4078 65.5833 86.0911 68.15 87.0578 70.45C88.0245 72.75 89.3245 74.5833 90.9578 75.95C92.6245 77.3167 94.6911 78 97.1578 78ZM163.271 90.2C158.271 90.2 154.121 89.15 150.821 87.05C147.521 84.9167 144.904 82.0833 142.971 78.55C141.038 75.0167 139.654 71.1167 138.821 66.85C138.021 62.5833 137.621 58.3 137.621 54C137.621 50.6 137.871 47.1833 138.371 43.75C138.871 40.2833 139.688 37 140.821 33.9C141.988 30.8 143.554 28.05 145.521 25.65C147.488 23.2167 149.921 21.3 152.821 19.9C155.754 18.5 159.238 17.8 163.271 17.8C168.238 17.8 172.371 18.85 175.671 20.95C179.004 23.05 181.621 25.85 183.521 29.35C185.454 32.85 186.821 36.75 187.621 41.05C188.454 45.3167 188.871 49.6333 188.871 54C188.871 57.4 188.621 60.8167 188.121 64.25C187.621 67.6833 186.788 70.95 185.621 74.05C184.454 77.15 182.888 79.9167 180.921 82.35C178.954 84.7833 176.521 86.7 173.621 88.1C170.721 89.5 167.271 90.2 163.271 90.2ZM163.271 78C165.738 78 167.771 77.3167 169.371 75.95C171.004 74.55 172.288 72.7 173.221 70.4C174.188 68.1 174.871 65.5333 175.271 62.7C175.671 59.8667 175.871 56.9667 175.871 54C175.871 51 175.654 48.0833 175.221 45.25C174.821 42.4167 174.154 39.85 173.221 37.55C172.288 35.2167 171.004 33.3833 169.371 32.05C167.771 30.6833 165.738 30 163.271 30C160.771 30 158.704 30.6833 157.071 32.05C155.438 33.4167 154.138 35.2667 153.171 37.6C152.204 39.9 151.521 42.4667 151.121 45.3C150.721 48.1333 150.521 51.0333 150.521 54C150.521 56.9667 150.721 59.8833 151.121 62.75C151.521 65.5833 152.204 68.15 153.171 70.45C154.138 72.75 155.438 74.5833 157.071 75.95C158.738 77.3167 160.804 78 163.271 78Z" fill="#00FFFF"/>
</svg>
