<svg width="193" height="127" viewBox="0 0 193 127" fill="none" xmlns="http://www.w3.org/2000/svg">
<path d="M28.15 90.2C24.6167 90.2 21.4333 89.8333 18.6 89.1C15.7667 88.4 13.3 87.5 11.2 86.4C9.1 85.2667 7.38333 84.1333 6.05 83L13 72.85C14.2 73.75 15.5333 74.6 17 75.4C18.5 76.1667 20.15 76.8 21.95 77.3C23.7833 77.8 25.8333 78.05 28.1 78.05C30.8 78.05 33.1667 77.55 35.2 76.55C37.2667 75.55 38.8833 74.1333 40.05 72.3C41.2167 70.4667 41.8 68.3 41.8 65.8C41.8 63.6333 41.3833 61.7333 40.55 60.1C39.75 58.4333 38.5833 57.1333 37.05 56.2C35.55 55.2333 33.7 54.75 31.5 54.75C28.7333 54.75 26.4167 55.25 24.55 56.25C22.6833 57.2167 21.0667 58.4833 19.7 60.05L8.2 54.5L10.6 19H50.3V31.35H22.4L21.15 45.15C22.75 44.35 24.4333 43.7167 26.2 43.25C27.9667 42.75 29.85 42.5 31.85 42.5C36.75 42.5 40.9 43.5333 44.3 45.6C47.7333 47.6667 50.3333 50.45 52.1 53.95C53.9 57.45 54.8 61.35 54.8 65.65C54.8 70.5167 53.65 74.8 51.35 78.5C49.0833 82.1667 45.95 85.0333 41.95 87.1C37.95 89.1667 33.35 90.2 28.15 90.2ZM93.8375 90.2C88.8375 90.2 84.6875 89.15 81.3875 87.05C78.0875 84.9167 75.4708 82.0833 73.5375 78.55C71.6042 75.0167 70.2208 71.1167 69.3875 66.85C68.5875 62.5833 68.1875 58.3 68.1875 54C68.1875 50.6 68.4375 47.1833 68.9375 43.75C69.4375 40.2833 70.2542 37 71.3875 33.9C72.5542 30.8 74.1208 28.05 76.0875 25.65C78.0542 23.2167 80.4875 21.3 83.3875 19.9C86.3208 18.5 89.8042 17.8 93.8375 17.8C98.8042 17.8 102.938 18.85 106.238 20.95C109.571 23.05 112.188 25.85 114.088 29.35C116.021 32.85 117.388 36.75 118.188 41.05C119.021 45.3167 119.438 49.6333 119.438 54C119.438 57.4 119.188 60.8167 118.688 64.25C118.188 67.6833 117.354 70.95 116.188 74.05C115.021 77.15 113.454 79.9167 111.488 82.35C109.521 84.7833 107.088 86.7 104.188 88.1C101.288 89.5 97.8375 90.2 93.8375 90.2ZM93.8375 78C96.3042 78 98.3375 77.3167 99.9375 75.95C101.571 74.55 102.854 72.7 103.788 70.4C104.754 68.1 105.438 65.5333 105.838 62.7C106.238 59.8667 106.438 56.9667 106.438 54C106.438 51 106.221 48.0833 105.788 45.25C105.388 42.4167 104.721 39.85 103.788 37.55C102.854 35.2167 101.571 33.3833 99.9375 32.05C98.3375 30.6833 96.3042 30 93.8375 30C91.3375 30 89.2708 30.6833 87.6375 32.05C86.0042 33.4167 84.7042 35.2667 83.7375 37.6C82.7708 39.9 82.0875 42.4667 81.6875 45.3C81.2875 48.1333 81.0875 51.0333 81.0875 54C81.0875 56.9667 81.2875 59.8833 81.6875 62.75C82.0875 65.5833 82.7708 68.15 83.7375 70.45C84.7042 72.75 86.0042 74.5833 87.6375 75.95C89.3042 77.3167 91.3708 78 93.8375 78ZM159.951 90.2C154.951 90.2 150.801 89.15 147.501 87.05C144.201 84.9167 141.584 82.0833 139.651 78.55C137.717 75.0167 136.334 71.1167 135.501 66.85C134.701 62.5833 134.301 58.3 134.301 54C134.301 50.6 134.551 47.1833 135.051 43.75C135.551 40.2833 136.367 37 137.501 33.9C138.667 30.8 140.234 28.05 142.201 25.65C144.167 23.2167 146.601 21.3 149.501 19.9C152.434 18.5 155.917 17.8 159.951 17.8C164.917 17.8 169.051 18.85 172.351 20.95C175.684 23.05 178.301 25.85 180.201 29.35C182.134 32.85 183.501 36.75 184.301 41.05C185.134 45.3167 185.551 49.6333 185.551 54C185.551 57.4 185.301 60.8167 184.801 64.25C184.301 67.6833 183.467 70.95 182.301 74.05C181.134 77.15 179.567 79.9167 177.601 82.35C175.634 84.7833 173.201 86.7 170.301 88.1C167.401 89.5 163.951 90.2 159.951 90.2ZM159.951 78C162.417 78 164.451 77.3167 166.051 75.95C167.684 74.55 168.967 72.7 169.901 70.4C170.867 68.1 171.551 65.5333 171.951 62.7C172.351 59.8667 172.551 56.9667 172.551 54C172.551 51 172.334 48.0833 171.901 45.25C171.501 42.4167 170.834 39.85 169.901 37.55C168.967 35.2167 167.684 33.3833 166.051 32.05C164.451 30.6833 162.417 30 159.951 30C157.451 30 155.384 30.6833 153.751 32.05C152.117 33.4167 150.817 35.2667 149.851 37.6C148.884 39.9 148.201 42.4667 147.801 45.3C147.401 48.1333 147.201 51.0333 147.201 54C147.201 56.9667 147.401 59.8833 147.801 62.75C148.201 65.5833 148.884 68.15 149.851 70.45C150.817 72.75 152.117 74.5833 153.751 75.95C155.417 77.3167 157.484 78 159.951 78Z" fill="#FF7AEA"/>
</svg>
