<svg width="186" height="127" viewBox="0 0 186 127" fill="none" xmlns="http://www.w3.org/2000/svg">
<path d="M16.4 89C16.4333 81.4667 17.0833 74.4167 18.35 67.85C19.65 61.25 21.6333 54.95 24.3 48.95C27 42.95 30.4667 37.0667 34.7 31.3H2.65V19H49.8V29.55C45.9667 33.8833 42.7333 38.6833 40.1 43.95C37.5 49.2167 35.4 54.6 33.8 60.1C32.2333 65.5667 31.1 70.8 30.4 75.8C29.7 80.8 29.35 85.2 29.35 89H16.4ZM86.6109 90.2C81.6109 90.2 77.4609 89.15 74.1609 87.05C70.8609 84.9167 68.2443 82.0833 66.3109 78.55C64.3776 75.0167 62.9943 71.1167 62.1609 66.85C61.3609 62.5833 60.9609 58.3 60.9609 54C60.9609 50.6 61.2109 47.1833 61.7109 43.75C62.2109 40.2833 63.0276 37 64.1609 33.9C65.3276 30.8 66.8943 28.05 68.8609 25.65C70.8276 23.2167 73.2609 21.3 76.1609 19.9C79.0943 18.5 82.5776 17.8 86.6109 17.8C91.5776 17.8 95.7109 18.85 99.0109 20.95C102.344 23.05 104.961 25.85 106.861 29.35C108.794 32.85 110.161 36.75 110.961 41.05C111.794 45.3167 112.211 49.6333 112.211 54C112.211 57.4 111.961 60.8167 111.461 64.25C110.961 67.6833 110.128 70.95 108.961 74.05C107.794 77.15 106.228 79.9167 104.261 82.35C102.294 84.7833 99.8609 86.7 96.9609 88.1C94.0609 89.5 90.6109 90.2 86.6109 90.2ZM86.6109 78C89.0776 78 91.1109 77.3167 92.7109 75.95C94.3443 74.55 95.6276 72.7 96.5609 70.4C97.5276 68.1 98.2109 65.5333 98.6109 62.7C99.0109 59.8667 99.2109 56.9667 99.2109 54C99.2109 51 98.9943 48.0833 98.5609 45.25C98.1609 42.4167 97.4943 39.85 96.5609 37.55C95.6276 35.2167 94.3443 33.3833 92.7109 32.05C91.1109 30.6833 89.0776 30 86.6109 30C84.1109 30 82.0443 30.6833 80.4109 32.05C78.7776 33.4167 77.4776 35.2667 76.5109 37.6C75.5443 39.9 74.8609 42.4667 74.4609 45.3C74.0609 48.1333 73.8609 51.0333 73.8609 54C73.8609 56.9667 74.0609 59.8833 74.4609 62.75C74.8609 65.5833 75.5443 68.15 76.5109 70.45C77.4776 72.75 78.7776 74.5833 80.4109 75.95C82.0776 77.3167 84.1443 78 86.6109 78ZM152.724 90.2C147.724 90.2 143.574 89.15 140.274 87.05C136.974 84.9167 134.358 82.0833 132.424 78.55C130.491 75.0167 129.108 71.1167 128.274 66.85C127.474 62.5833 127.074 58.3 127.074 54C127.074 50.6 127.324 47.1833 127.824 43.75C128.324 40.2833 129.141 37 130.274 33.9C131.441 30.8 133.008 28.05 134.974 25.65C136.941 23.2167 139.374 21.3 142.274 19.9C145.208 18.5 148.691 17.8 152.724 17.8C157.691 17.8 161.824 18.85 165.124 20.95C168.458 23.05 171.074 25.85 172.974 29.35C174.908 32.85 176.274 36.75 177.074 41.05C177.908 45.3167 178.324 49.6333 178.324 54C178.324 57.4 178.074 60.8167 177.574 64.25C177.074 67.6833 176.241 70.95 175.074 74.05C173.908 77.15 172.341 79.9167 170.374 82.35C168.408 84.7833 165.974 86.7 163.074 88.1C160.174 89.5 156.724 90.2 152.724 90.2ZM152.724 78C155.191 78 157.224 77.3167 158.824 75.95C160.458 74.55 161.741 72.7 162.674 70.4C163.641 68.1 164.324 65.5333 164.724 62.7C165.124 59.8667 165.324 56.9667 165.324 54C165.324 51 165.108 48.0833 164.674 45.25C164.274 42.4167 163.608 39.85 162.674 37.55C161.741 35.2167 160.458 33.3833 158.824 32.05C157.224 30.6833 155.191 30 152.724 30C150.224 30 148.158 30.6833 146.524 32.05C144.891 33.4167 143.591 35.2667 142.624 37.6C141.658 39.9 140.974 42.4667 140.574 45.3C140.174 48.1333 139.974 51.0333 139.974 54C139.974 56.9667 140.174 59.8833 140.574 62.75C140.974 65.5833 141.658 68.15 142.624 70.45C143.591 72.75 144.891 74.5833 146.524 75.95C148.191 77.3167 150.258 78 152.724 78Z" fill="#FF7AEA"/>
</svg>
