<svg width="194" height="127" viewBox="0 0 194 127" fill="none" xmlns="http://www.w3.org/2000/svg">
<path d="M31.4 90.2C26.3333 90.2 21.9333 89.2667 18.2 87.4C14.4667 85.5333 11.5667 82.9333 9.5 79.6C7.46667 76.2667 6.45 72.4 6.45 68C6.45 63.9333 7.5 60.4167 9.6 57.45C11.7333 54.45 14.5833 52.1667 18.15 50.6C16.65 49.8333 15.2167 48.7833 13.85 47.45C12.4833 46.1167 11.3667 44.5167 10.5 42.65C9.66667 40.75 9.25 38.6167 9.25 36.25C9.25 32.65 10.1333 29.4667 11.9 26.7C13.7 23.9333 16.25 21.7667 19.55 20.2C22.8833 18.6 26.8333 17.8 31.4 17.8C36 17.8 39.95 18.6 43.25 20.2C46.5833 21.7667 49.15 23.9333 50.95 26.7C52.75 29.4667 53.65 32.65 53.65 36.25C53.65 38.55 53.2167 40.65 52.35 42.55C51.4833 44.4167 50.3667 46.0333 49 47.4C47.6333 48.7333 46.1833 49.7667 44.65 50.5C48.15 52.0333 51 54.3333 53.2 57.4C55.4 60.4667 56.5 64 56.5 68C56.5 72.4 55.4833 76.2667 53.45 79.6C51.4167 82.9333 48.5167 85.5333 44.75 87.4C40.9833 89.2667 36.5333 90.2 31.4 90.2ZM31.4 78.6C33.7333 78.6 35.8167 78.15 37.65 77.25C39.4833 76.3167 40.9167 75.0333 41.95 73.4C43.0167 71.7333 43.55 69.8167 43.55 67.65C43.55 65.55 43.0333 63.6833 42 62.05C40.9667 60.3833 39.5333 59.0833 37.7 58.15C35.8667 57.2167 33.7667 56.75 31.4 56.75C29 56.75 26.8833 57.2167 25.05 58.15C23.25 59.0833 21.85 60.3833 20.85 62.05C19.85 63.6833 19.35 65.55 19.35 67.65C19.35 69.8167 19.85 71.7333 20.85 73.4C21.8833 75.0333 23.3 76.3167 25.1 77.25C26.9333 78.15 29.0333 78.6 31.4 78.6ZM31.4 45.3C34.2333 45.3 36.5 44.5333 38.2 43C39.9333 41.4667 40.8 39.55 40.8 37.25C40.8 34.85 39.9167 32.9 38.15 31.4C36.4167 29.9 34.1667 29.15 31.4 29.15C28.5333 29.15 26.2667 29.9 24.6 31.4C22.9333 32.9 22.1 34.85 22.1 37.25C22.1 39.55 22.9167 41.4667 24.55 43C26.1833 44.5333 28.4667 45.3 31.4 45.3ZM94.2281 90.2C89.2281 90.2 85.0781 89.15 81.7781 87.05C78.4781 84.9167 75.8615 82.0833 73.9281 78.55C71.9948 75.0167 70.6115 71.1167 69.7781 66.85C68.9781 62.5833 68.5781 58.3 68.5781 54C68.5781 50.6 68.8281 47.1833 69.3281 43.75C69.8281 40.2833 70.6448 37 71.7781 33.9C72.9448 30.8 74.5115 28.05 76.4781 25.65C78.4448 23.2167 80.8781 21.3 83.7781 19.9C86.7115 18.5 90.1948 17.8 94.2281 17.8C99.1948 17.8 103.328 18.85 106.628 20.95C109.961 23.05 112.578 25.85 114.478 29.35C116.411 32.85 117.778 36.75 118.578 41.05C119.411 45.3167 119.828 49.6333 119.828 54C119.828 57.4 119.578 60.8167 119.078 64.25C118.578 67.6833 117.745 70.95 116.578 74.05C115.411 77.15 113.845 79.9167 111.878 82.35C109.911 84.7833 107.478 86.7 104.578 88.1C101.678 89.5 98.2281 90.2 94.2281 90.2ZM94.2281 78C96.6948 78 98.7281 77.3167 100.328 75.95C101.961 74.55 103.245 72.7 104.178 70.4C105.145 68.1 105.828 65.5333 106.228 62.7C106.628 59.8667 106.828 56.9667 106.828 54C106.828 51 106.611 48.0833 106.178 45.25C105.778 42.4167 105.111 39.85 104.178 37.55C103.245 35.2167 101.961 33.3833 100.328 32.05C98.7281 30.6833 96.6948 30 94.2281 30C91.7281 30 89.6615 30.6833 88.0281 32.05C86.3948 33.4167 85.0948 35.2667 84.1281 37.6C83.1615 39.9 82.4781 42.4667 82.0781 45.3C81.6781 48.1333 81.4781 51.0333 81.4781 54C81.4781 56.9667 81.6781 59.8833 82.0781 62.75C82.4781 65.5833 83.1615 68.15 84.1281 70.45C85.0948 72.75 86.3948 74.5833 88.0281 75.95C89.6948 77.3167 91.7615 78 94.2281 78ZM160.341 90.2C155.341 90.2 151.191 89.15 147.891 87.05C144.591 84.9167 141.975 82.0833 140.041 78.55C138.108 75.0167 136.725 71.1167 135.891 66.85C135.091 62.5833 134.691 58.3 134.691 54C134.691 50.6 134.941 47.1833 135.441 43.75C135.941 40.2833 136.758 37 137.891 33.9C139.058 30.8 140.625 28.05 142.591 25.65C144.558 23.2167 146.991 21.3 149.891 19.9C152.825 18.5 156.308 17.8 160.341 17.8C165.308 17.8 169.441 18.85 172.741 20.95C176.075 23.05 178.691 25.85 180.591 29.35C182.525 32.85 183.891 36.75 184.691 41.05C185.525 45.3167 185.941 49.6333 185.941 54C185.941 57.4 185.691 60.8167 185.191 64.25C184.691 67.6833 183.858 70.95 182.691 74.05C181.525 77.15 179.958 79.9167 177.991 82.35C176.025 84.7833 173.591 86.7 170.691 88.1C167.791 89.5 164.341 90.2 160.341 90.2ZM160.341 78C162.808 78 164.841 77.3167 166.441 75.95C168.075 74.55 169.358 72.7 170.291 70.4C171.258 68.1 171.941 65.5333 172.341 62.7C172.741 59.8667 172.941 56.9667 172.941 54C172.941 51 172.725 48.0833 172.291 45.25C171.891 42.4167 171.225 39.85 170.291 37.55C169.358 35.2167 168.075 33.3833 166.441 32.05C164.841 30.6833 162.808 30 160.341 30C157.841 30 155.775 30.6833 154.141 32.05C152.508 33.4167 151.208 35.2667 150.241 37.6C149.275 39.9 148.591 42.4667 148.191 45.3C147.791 48.1333 147.591 51.0333 147.591 54C147.591 56.9667 147.791 59.8833 148.191 62.75C148.591 65.5833 149.275 68.15 150.241 70.45C151.208 72.75 152.508 74.5833 154.141 75.95C155.808 77.3167 157.875 78 160.341 78Z" fill="#00FFFF"/>
</svg>
