<svg width="835" height="147" viewBox="0 0 835 147" fill="none" xmlns="http://www.w3.org/2000/svg">
<path d="M35.8 110.2C30.4 110.2 25.7333 109.2 21.8 107.2C17.9 105.167 14.7 102.433 12.2 99C9.7 95.5333 7.83333 91.65 6.6 87.35C5.4 83.0167 4.8 78.5667 4.8 74C4.8 69.7667 5.41667 65.5333 6.65 61.3C7.88333 57.0333 9.76667 53.1333 12.3 49.6C14.8333 46.0333 18.05 43.1833 21.95 41.05C25.85 38.8833 30.4667 37.8 35.8 37.8C40.3667 37.8 44.2667 38.5833 47.5 40.15C50.7333 41.7167 53.4833 43.75 55.75 46.25C58.05 48.7167 60.0667 51.3333 61.8 54.1L48 61.9C46.5 59.5 44.75 57.4 42.75 55.6C40.7833 53.8 38.4667 52.9 35.8 52.9C33 52.9 30.65 53.5667 28.75 54.9C26.8833 56.2 25.4 57.9 24.3 60C23.2 62.1 22.4 64.3833 21.9 66.85C21.4333 69.3167 21.2 71.7 21.2 74C21.2 76.6333 21.4667 79.2167 22 81.75C22.5333 84.25 23.3667 86.5167 24.5 88.55C25.6667 90.55 27.1833 92.15 29.05 93.35C30.9167 94.5167 33.1667 95.1 35.8 95.1C37.5667 95.1 39.2167 94.7 40.75 93.9C42.3167 93.0667 43.5833 92 44.55 90.7C45.5167 89.3667 46 87.9333 46 86.4V86.1H34.7V71H62.2V82.2C62.2 88.2333 61.0333 93.3333 58.7 97.5C56.3667 101.667 53.2 104.833 49.2 107C45.2333 109.133 40.7667 110.2 35.8 110.2ZM77.0023 109L104.902 39H120.002L148.002 109H130.702L125.502 95.7H99.4023L94.3023 109H77.0023ZM104.702 81.1H120.102L114.402 67.1C114.202 66.6333 113.969 66.1167 113.702 65.55C113.469 64.95 113.236 64.35 113.002 63.75C112.769 63.1167 112.569 62.5333 112.402 62C112.236 62.5333 112.036 63.1167 111.802 63.75C111.569 64.35 111.319 64.95 111.052 65.55C110.819 66.1167 110.602 66.6333 110.402 67.1L104.702 81.1ZM203.028 110.2L185.828 74.7C185.795 74.6 185.745 74.4667 185.678 74.3C185.611 74.1 185.528 73.8333 185.428 73.5C185.428 73.8 185.428 74.0667 185.428 74.3C185.428 74.5333 185.428 74.7 185.428 74.8V109H169.628V39H185.728L201.728 73.8C202.095 74.5333 202.411 75.2333 202.678 75.9C202.945 76.5333 203.195 77.2333 203.428 78C203.695 77.2333 203.945 76.5 204.178 75.8C204.445 75.1 204.728 74.4333 205.028 73.8L221.628 39H236.328V109H220.528V74.7C220.528 74.5 220.528 74.2833 220.528 74.05C220.528 73.8167 220.528 73.6333 220.528 73.5C220.428 73.7 220.328 73.9 220.228 74.1C220.161 74.2667 220.095 74.4 220.028 74.5L203.028 110.2ZM263.878 109V39H314.978V54H279.678V65.4H299.078V80.4H279.678V93.9H316.978V109H263.878ZM564.423 110.2C558.79 110.2 553.99 109.15 550.023 107.05C546.057 104.917 542.84 102.1 540.373 98.6C537.94 95.0667 536.157 91.1667 535.023 86.9C533.89 82.6333 533.323 78.3333 533.323 74C533.323 69.6667 533.89 65.3667 535.023 61.1C536.157 56.8333 537.94 52.95 540.373 49.45C542.84 45.9167 546.057 43.1 550.023 41C553.99 38.8667 558.79 37.8 564.423 37.8C570.09 37.8 574.89 38.8667 578.823 41C582.757 43.1 585.94 45.9167 588.373 49.45C590.84 52.95 592.623 56.8333 593.723 61.1C594.857 65.3667 595.423 69.6667 595.423 74C595.423 78.3333 594.857 82.6333 593.723 86.9C592.623 91.1667 590.84 95.0667 588.373 98.6C585.94 102.1 582.757 104.917 578.823 107.05C574.89 109.15 570.09 110.2 564.423 110.2ZM564.423 94.9C567.09 94.9 569.357 94.25 571.223 92.95C573.09 91.65 574.59 89.95 575.723 87.85C576.89 85.75 577.723 83.4833 578.223 81.05C578.757 78.6167 579.023 76.2667 579.023 74C579.023 71.6 578.773 69.1667 578.273 66.7C577.807 64.2333 577.007 61.9667 575.873 59.9C574.773 57.8333 573.273 56.1667 571.373 54.9C569.507 53.6333 567.19 53 564.423 53C561.623 53 559.273 53.6667 557.373 55C555.507 56.3 554.007 58 552.873 60.1C551.74 62.2 550.923 64.4833 550.423 66.95C549.957 69.3833 549.723 71.7333 549.723 74C549.723 76.3333 549.973 78.7333 550.473 81.2C550.973 83.6333 551.79 85.9 552.923 88C554.09 90.0667 555.607 91.7333 557.473 93C559.373 94.2667 561.69 94.9 564.423 94.9ZM634.165 109L608.765 39H625.865L640.865 82.5C641.065 83.0333 641.232 83.5167 641.365 83.95C641.532 84.3833 641.632 84.7 641.665 84.9C641.665 84.8 641.732 84.5333 641.865 84.1C641.998 83.6333 642.165 83.1 642.365 82.5L657.465 39H674.365L649.065 109H634.165ZM694.148 109V39H745.248V54H709.948V65.4H729.348V80.4H709.948V93.9H747.248V109H694.148ZM771.015 109V39H805.715C811.682 39 816.415 40.05 819.915 42.15C823.415 44.2167 825.915 46.9833 827.415 50.45C828.948 53.9167 829.715 57.7 829.715 61.8C829.715 64.3667 829.232 67.0167 828.265 69.75C827.298 72.45 825.882 74.9333 824.015 77.2C822.182 79.4333 819.948 81.1333 817.315 82.3L830.315 109H812.615L800.115 84.8H786.815V109H771.015ZM786.815 69.9H805.915C807.782 69.9 809.248 69.5333 810.315 68.8C811.415 68.0333 812.182 67.0333 812.615 65.8C813.082 64.5667 813.315 63.2333 813.315 61.8C813.315 60.4667 813.098 59.2 812.665 58C812.232 56.8 811.465 55.8167 810.365 55.05C809.298 54.2833 807.815 53.9 805.915 53.9H786.815V69.9Z" fill="#FF0000"/>
</svg>
