<svg width="444" height="147" viewBox="0 0 444 147" fill="none" xmlns="http://www.w3.org/2000/svg">
<path d="M7.3 109V39H42C47.9667 39 52.7 40.05 56.2 42.15C59.7 44.2167 62.2 46.9833 63.7 50.45C65.2333 53.9167 66 57.7 66 61.8C66 64.3667 65.5167 67.0167 64.55 69.75C63.5833 72.45 62.1667 74.9333 60.3 77.2C58.4667 79.4333 56.2333 81.1333 53.6 82.3L66.6 109H48.9L36.4 84.8H23.1V109H7.3ZM23.1 69.9H42.2C44.0667 69.9 45.5333 69.5333 46.6 68.8C47.7 68.0333 48.4667 67.0333 48.9 65.8C49.3667 64.5667 49.6 63.2333 49.6 61.8C49.6 60.4667 49.3833 59.2 48.95 58C48.5167 56.8 47.75 55.8167 46.65 55.05C45.5833 54.2833 44.1 53.9 42.2 53.9H23.1V69.9ZM90.9055 109V39H142.005V54H106.705V65.4H126.105V80.4H106.705V93.9H144.005V109H90.9055ZM163.44 109L191.34 39H206.44L234.44 109H217.14L211.94 95.7H185.84L180.74 109H163.44ZM191.14 81.1H206.54L200.84 67.1C200.64 66.6333 200.407 66.1167 200.14 65.55C199.907 64.95 199.673 64.35 199.44 63.75C199.207 63.1167 199.007 62.5333 198.84 62C198.673 62.5333 198.473 63.1167 198.24 63.75C198.007 64.35 197.757 64.95 197.49 65.55C197.257 66.1167 197.04 66.6333 196.84 67.1L191.14 81.1ZM256.066 109V39H282.666C288.799 39 294.032 39.9833 298.366 41.95C302.699 43.9167 306.232 46.5833 308.966 49.95C311.699 53.2833 313.699 57.0333 314.966 61.2C316.232 65.3667 316.866 69.6333 316.866 74C316.866 77.9667 316.249 82 315.016 86.1C313.816 90.2 311.866 93.9833 309.166 97.45C306.499 100.917 302.949 103.717 298.516 105.85C294.116 107.95 288.699 109 282.266 109H256.066ZM271.866 93.9H283.766C286.799 93.9 289.366 93.3167 291.466 92.15C293.599 90.95 295.316 89.3667 296.616 87.4C297.949 85.4333 298.916 83.2833 299.516 80.95C300.149 78.6167 300.466 76.3 300.466 74C300.466 71.6 300.149 69.2167 299.516 66.85C298.916 64.4833 297.982 62.3333 296.716 60.4C295.449 58.4667 293.832 56.9167 291.866 55.75C289.899 54.5833 287.566 54 284.866 54H271.866V93.9ZM355.679 109V81.8L328.779 39H346.579L363.479 65L380.279 39H398.179L371.279 81.8V109H355.679ZM423.07 89.7L420.37 60.7V37.8H435.27V60.7L432.57 89.7H423.07ZM427.77 110.2C425.037 110.2 422.787 109.283 421.02 107.45C419.254 105.617 418.37 103.4 418.37 100.8C418.37 98.1 419.254 95.85 421.02 94.05C422.787 92.2167 425.037 91.3 427.77 91.3C430.537 91.3 432.837 92.2167 434.67 94.05C436.537 95.85 437.47 98.1 437.47 100.8C437.47 103.4 436.537 105.617 434.67 107.45C432.837 109.283 430.537 110.2 427.77 110.2Z" fill="#FED002"/>
</svg>
