<svg width="535" height="260" viewBox="0 0 535 260" fill="none" xmlns="http://www.w3.org/2000/svg">
<g clip-path="url(#clip0_12_3838)">
<path d="M221 41.4546H204H187V50.2728H170H153H136H119H102H85H68V41.4546H51H34H17V50.2728V59.091V67.9091V76.7273V85.5455V94.3637V103.182V112V120.818V129.636V138.455V147.273V156.091V164.909V173.727V182.545V191.364H34H51H68H85H102H119H136H153H170H187V182.545V173.727V164.909H204H221H238V156.091V147.273V138.455V129.636V120.818V112V103.182V94.3637V85.5455V76.7273V67.9091V59.091V50.2728V41.4546H221Z" fill="white"/>
<path d="M238 32.6365H221H204H187V41.4547H204H221H238V50.2728V59.091V67.9092V76.7274V85.5456V94.3637V103.182V112V120.818V129.636V138.455V147.273V156.091V164.909V173.727H221V182.546H204V191.364H187H170H153H136H119H102H85H68H51H34H17V182.546V173.727V164.909V156.091V147.273V138.455V129.636V120.818V112V103.182V94.3637V85.5456V76.7274V67.9092V59.091V50.2728V41.4547H34H51H68V32.6365H51H34H17H0V41.4547V50.2728V59.091V67.9092V76.7274V85.5456V94.3637V103.182V112V120.818V129.636V138.455V147.273V156.091V164.909V173.727V182.546V191.364V200.182V209H17H34H51H68H85H102H119H136H153H170H187H204H221H238H255V200.182V191.364V182.546V173.727V164.909V156.091V147.273V138.455V129.636V120.818V112V103.182V94.3637V85.5456V76.7274V67.9092V59.091V50.2728V41.4547V32.6365H238Z" fill="#D57643"/>
<path d="M221 164.909H204H187V173.727V182.546V191.364H204V182.546H221V173.727H238V164.909H221Z" fill="#C0C9DA"/>
<path d="M136 15H119V23.8182H136V15Z" fill="#C0C9DA"/>
<path d="M119 23.8181H102V32.6363H119V23.8181Z" fill="#C0C9DA"/>
<path d="M153 23.8181H136V32.6363H153V23.8181Z" fill="#C0C9DA"/>
<path d="M170 32.6365H153H136H119H102H85H68V41.4547V50.2728H85H102H119H136H153H170H187V41.4547V32.6365H170Z" fill="#C0C9DA"/>
<path d="M51 67.9089H34V76.7271H51V67.9089Z" fill="#06A64F"/>
<path d="M68 76.7273H51V85.5455H68V76.7273Z" fill="#06A64F"/>
<path d="M85 67.9089H68V76.7271H85V67.9089Z" fill="#06A64F"/>
<path d="M102 59.0908H85V67.909H102V59.0908Z" fill="#06A64F"/>
<path d="M204 67.9092H187H170H153H136H119V76.7274H136H153H170H187H204H221V67.9092H204Z" fill="#C0C9DA"/>
<path d="M51 103.182H34V112H51V103.182Z" fill="#06A64F"/>
<path d="M68 112H51V120.818H68V112Z" fill="#06A64F"/>
<path d="M85 103.182H68V112H85V103.182Z" fill="#06A64F"/>
<path d="M102 94.3635H85V103.182H102V94.3635Z" fill="#06A64F"/>
<path d="M204 103.182H187H170H153H136H119V112H136H153H170H187H204H221V103.182H204Z" fill="#C0C9DA"/>
<path d="M51 138.455H34V147.273H51V138.455Z" fill="#06A64F"/>
<path d="M68 147.273H51V156.091H68V147.273Z" fill="#06A64F"/>
<path d="M85 138.455H68V147.273H85V138.455Z" fill="#06A64F"/>
<path d="M102 129.636H85V138.455H102V129.636Z" fill="#06A64F"/>
<path d="M204 138.455H187H170H153H136H119V147.273H136H153H170H187H204H221V138.455H204Z" fill="#C0C9DA"/>
</g>
<g clip-path="url(#clip1_12_3838)">
<path d="M501 41.4546H484H467V50.2728H450H433H416H399H382H365H348V41.4546H331H314H297V50.2728V59.091V67.9091V76.7273V85.5455V94.3637V103.182V112V120.818V129.636V138.455V147.273V156.091V164.909V173.727V182.545V191.364H314H331H348H365H382H399H416H433H450H467V182.545V173.727V164.909H484H501H518V156.091V147.273V138.455V129.636V120.818V112V103.182V94.3637V85.5455V76.7273V67.9091V59.091V50.2728V41.4546H501Z" fill="white"/>
<path d="M518 32.6365H501H484H467V41.4547H484H501H518V50.2728V59.091V67.9092V76.7274V85.5456V94.3637V103.182V112V120.818V129.636V138.455V147.273V156.091V164.909V173.727H501V182.546H484V191.364H467H450H433H416H399H382H365H348H331H314H297V182.546V173.727V164.909V156.091V147.273V138.455V129.636V120.818V112V103.182V94.3637V85.5456V76.7274V67.9092V59.091V50.2728V41.4547H314H331H348V32.6365H331H314H297H280V41.4547V50.2728V59.091V67.9092V76.7274V85.5456V94.3637V103.182V112V120.818V129.636V138.455V147.273V156.091V164.909V173.727V182.546V191.364V200.182V209H297H314H331H348H365H382H399H416H433H450H467H484H501H518H535V200.182V191.364V182.546V173.727V164.909V156.091V147.273V138.455V129.636V120.818V112V103.182V94.3637V85.5456V76.7274V67.9092V59.091V50.2728V41.4547V32.6365H518Z" fill="#D57643"/>
<path d="M501 164.909H484H467V173.727V182.546V191.364H484V182.546H501V173.727H518V164.909H501Z" fill="#C0C9DA"/>
<path d="M416 15H399V23.8182H416V15Z" fill="#C0C9DA"/>
<path d="M399 23.8181H382V32.6363H399V23.8181Z" fill="#C0C9DA"/>
<path d="M433 23.8181H416V32.6363H433V23.8181Z" fill="#C0C9DA"/>
<path d="M450 32.6365H433H416H399H382H365H348V41.4547V50.2728H365H382H399H416H433H450H467V41.4547V32.6365H450Z" fill="#C0C9DA"/>
<path d="M331 67.9089H314V76.7271H331V67.9089Z" fill="#06A64F"/>
<path d="M348 76.7273H331V85.5455H348V76.7273Z" fill="#06A64F"/>
<path d="M365 67.9089H348V76.7271H365V67.9089Z" fill="#06A64F"/>
<path d="M382 59.0908H365V67.909H382V59.0908Z" fill="#06A64F"/>
<path d="M484 67.9092H467H450H433H416H399V76.7274H416H433H450H467H484H501V67.9092H484Z" fill="#C0C9DA"/>
<path d="M331 103.182H314V112H331V103.182Z" fill="#06A64F"/>
<path d="M348 112H331V120.818H348V112Z" fill="#06A64F"/>
<path d="M365 103.182H348V112H365V103.182Z" fill="#06A64F"/>
<path d="M382 94.3635H365V103.182H382V94.3635Z" fill="#06A64F"/>
<path d="M484 103.182H467H450H433H416H399V112H416H433H450H467H484H501V103.182H484Z" fill="#C0C9DA"/>
<path d="M331 138.455H314V147.273H331V138.455Z" fill="#06A64F"/>
<path d="M348 147.273H331V156.091H348V147.273Z" fill="#06A64F"/>
<path d="M365 138.455H348V147.273H365V138.455Z" fill="#06A64F"/>
<path d="M382 129.636H365V138.455H382V129.636Z" fill="#06A64F"/>
<path d="M484 138.455H467H450H433H416H399V147.273H416H433H450H467H484H501V138.455H484Z" fill="#C0C9DA"/>
</g>
<defs>
<clipPath id="clip0_12_3838">
<rect width="255" height="194" fill="white" transform="translate(0 15)"/>
</clipPath>
<clipPath id="clip1_12_3838">
<rect width="255" height="194" fill="white" transform="translate(280 15)"/>
</clipPath>
</defs>
</svg>
