<svg width="522" height="260" viewBox="0 0 522 260" fill="none" xmlns="http://www.w3.org/2000/svg">
<path d="M0 103.894V260L43.5 226L84 260L116.5 226L121.313 10C42.2718 10 7.50388 80.929 0 103.894Z" fill="#040EF0"/>
<path d="M242 103.894V260L196.5 226L151.5 260L116.5 226L120.687 10C199.728 10 234.496 80.929 242 103.894Z" fill="#040EF0"/>
<path d="M50.5 135H26C18.268 135 12 128.732 12 121V97.9926C12 93.3116 14.3394 88.9404 18.2342 86.3439L31.0079 77.8281C35.8237 74.6175 42.1187 74.7014 46.8473 78.0392L58.5736 86.3166C62.2899 88.9399 64.5 93.2053 64.5 97.7542V121C64.5 128.732 58.232 135 50.5 135Z" fill="#E0DDFF"/>
<circle cx="27.5" cy="104.5" r="15.5" fill="#040EF0"/>
<circle cx="33" cy="101" r="6" fill="white"/>
<path d="M140.5 135H116C108.268 135 102 128.732 102 121V97.9926C102 93.3116 104.339 88.9404 108.234 86.3439L121.008 77.8281C125.824 74.6175 132.119 74.7014 136.847 78.0392L148.574 86.3166C152.29 88.9399 154.5 93.2053 154.5 97.7542V121C154.5 128.732 148.232 135 140.5 135Z" fill="#E0DDFF"/>
<circle cx="117.5" cy="104.5" r="15.5" fill="#040EF0"/>
<circle cx="123" cy="101" r="6" fill="white"/>
<path d="M280 103.894V260L323.5 226L349 260L396.5 226L401.313 10C322.272 10 287.504 80.929 280 103.894Z" fill="#040EF0"/>
<path d="M522 103.894V260L476.5 226L454 260L396.5 226L400.687 10C479.728 10 514.496 80.929 522 103.894Z" fill="#040EF0"/>
<path d="M330.5 135H306C298.268 135 292 128.732 292 121V97.9926C292 93.3116 294.339 88.9404 298.234 86.3439L311.008 77.8281C315.824 74.6175 322.119 74.7014 326.847 78.0392L338.574 86.3166C342.29 88.9399 344.5 93.2053 344.5 97.7542V121C344.5 128.732 338.232 135 330.5 135Z" fill="#E0DDFF"/>
<circle cx="307.5" cy="104.5" r="15.5" fill="#040EF0"/>
<circle cx="313" cy="101" r="6" fill="white"/>
<path d="M420.5 135H396C388.268 135 382 128.732 382 121V97.9926C382 93.3116 384.339 88.9404 388.234 86.3439L401.008 77.8281C405.824 74.6175 412.119 74.7014 416.847 78.0392L428.574 86.3166C432.29 88.9399 434.5 93.2053 434.5 97.7542V121C434.5 128.732 428.232 135 420.5 135Z" fill="#E0DDFF"/>
<circle cx="397.5" cy="104.5" r="15.5" fill="#040EF0"/>
<circle cx="403" cy="101" r="6" fill="white"/>
</svg>
