<svg width="522" height="260" viewBox="0 0 522 260" fill="none" xmlns="http://www.w3.org/2000/svg">
<g clip-path="url(#clip0_103_7896)">
<path d="M176.934 56.0476H166.818H156.703V63.4902H146.587H136.471H126.355H116.24H106.124H96.0083H85.8926V56.0476H75.7769H65.6612H55.5455V63.4902V70.9327V78.3752V85.8178V93.2603V100.703V108.145V115.588V123.031V130.473V137.916V145.358V152.801V160.243V167.686V175.128V182.571H65.6612H75.7769H85.8926H96.0083H106.124H116.24H126.355H136.471H146.587H156.703V175.128V167.686V160.243H166.818H176.934H187.05V152.801V145.358V137.916V130.473V123.031V115.588V108.145V100.703V93.2603V85.8178V78.3752V70.9327V63.4902V56.0476H176.934Z" fill="white"/>
<path d="M187.05 48.605H176.934H166.818H156.703V56.0475H166.818H176.934H187.05V63.4901V70.9326V78.3752V85.8177V93.2603V100.703V108.145V115.588V123.03V130.473V137.916V145.358V152.801V160.243V167.686H176.934V175.128H166.818V182.571H156.703H146.587H136.471H126.355H116.24H106.124H96.0083H85.8926H75.7769H65.6612H55.5455V175.128V167.686V160.243V152.801V145.358V137.916V130.473V123.03V115.588V108.145V100.703V93.2603V85.8177V78.3752V70.9326V63.4901V56.0475H65.6612H75.7769H85.8926V48.605H75.7769H65.6612H55.5455H45.4298V56.0475V63.4901V70.9326V78.3752V85.8177V93.2603V100.703V108.145V115.588V123.03V130.473V137.916V145.358V152.801V160.243V167.686V175.128V182.571V190.013V197.456H55.5455H65.6612H75.7769H85.8926H96.0083H106.124H116.24H126.355H136.471H146.587H156.703H166.818H176.934H187.05H197.165V190.013V182.571V175.128V167.686V160.243V152.801V145.358V137.916V130.473V123.03V115.588V108.145V100.703V93.2603V85.8177V78.3752V70.9326V63.4901V56.0475V48.605H187.05Z" fill="#D57643"/>
<path d="M176.934 160.243H166.818H156.703V167.686V175.128V182.571H166.818V175.128H176.934V167.686H187.05V160.243H176.934Z" fill="#C0C9DA"/>
<path d="M126.355 33.72H116.24V41.1625H126.355V33.72Z" fill="#C0C9DA"/>
<path d="M116.24 41.1626H106.124V48.6051H116.24V41.1626Z" fill="#C0C9DA"/>
<path d="M136.471 41.1626H126.355V48.6051H136.471V41.1626Z" fill="#C0C9DA"/>
<path d="M146.587 48.605H136.471H126.355H116.24H106.124H96.0083H85.8926V56.0475V63.4901H96.0083H106.124H116.24H126.355H136.471H146.587H156.702V56.0475V48.605H146.587Z" fill="#C0C9DA"/>
<path d="M75.777 78.3752H65.6613V85.8178H75.777V78.3752Z" fill="#06A64F"/>
<path d="M85.8927 85.8176H75.777V93.2602H85.8927V85.8176Z" fill="#06A64F"/>
<path d="M96.0084 78.3752H85.8927V85.8178H96.0084V78.3752Z" fill="#06A64F"/>
<path d="M106.124 70.9326H96.0083V78.3752H106.124V70.9326Z" fill="#06A64F"/>
<path d="M166.818 78.3752H156.703H146.587H136.471H126.355H116.24V85.8178H126.355H136.471H146.587H156.703H166.818H176.934V78.3752H166.818Z" fill="#C0C9DA"/>
<path d="M75.777 108.146H65.6613V115.588H75.777V108.146Z" fill="#06A64F"/>
<path d="M85.8927 115.588H75.777V123.03H85.8927V115.588Z" fill="#06A64F"/>
<path d="M96.0084 108.146H85.8927V115.588H96.0084V108.146Z" fill="#06A64F"/>
<path d="M106.124 100.703H96.0083V108.145H106.124V100.703Z" fill="#06A64F"/>
<path d="M166.818 108.146H156.703H146.587H136.471H126.355H116.24V115.588H126.355H136.471H146.587H156.703H166.818H176.934V108.146H166.818Z" fill="#C0C9DA"/>
<path d="M75.777 137.916H65.6613V145.358H75.777V137.916Z" fill="#06A64F"/>
<path d="M85.8927 145.358H75.777V152.801H85.8927V145.358Z" fill="#06A64F"/>
<path d="M96.0084 137.916H85.8927V145.358H96.0084V137.916Z" fill="#06A64F"/>
<path d="M106.124 130.473H96.0083V137.916H106.124V130.473Z" fill="#06A64F"/>
<path d="M166.818 137.916H156.703H146.587H136.471H126.355H116.24V145.358H126.355H136.471H146.587H156.703H166.818H176.934V137.916H166.818Z" fill="#C0C9DA"/>
</g>
<g clip-path="url(#clip1_103_7896)">
<path d="M456.934 56.0476H446.818H436.703V63.4902H426.587H416.471H406.355H396.24H386.124H376.008H365.893V56.0476H355.777H345.661H335.546V63.4902V70.9327V78.3752V85.8178V93.2603V100.703V108.145V115.588V123.031V130.473V137.916V145.358V152.801V160.243V167.686V175.128V182.571H345.661H355.777H365.893H376.008H386.124H396.24H406.355H416.471H426.587H436.703V175.128V167.686V160.243H446.818H456.934H467.05V152.801V145.358V137.916V130.473V123.031V115.588V108.145V100.703V93.2603V85.8178V78.3752V70.9327V63.4902V56.0476H456.934Z" fill="white"/>
<path d="M467.05 48.605H456.934H446.818H436.703V56.0475H446.818H456.934H467.05V63.4901V70.9326V78.3752V85.8177V93.2603V100.703V108.145V115.588V123.03V130.473V137.916V145.358V152.801V160.243V167.686H456.934V175.128H446.818V182.571H436.703H426.587H416.471H406.355H396.24H386.124H376.008H365.893H355.777H345.661H335.546V175.128V167.686V160.243V152.801V145.358V137.916V130.473V123.03V115.588V108.145V100.703V93.2603V85.8177V78.3752V70.9326V63.4901V56.0475H345.661H355.777H365.893V48.605H355.777H345.661H335.546H325.43V56.0475V63.4901V70.9326V78.3752V85.8177V93.2603V100.703V108.145V115.588V123.03V130.473V137.916V145.358V152.801V160.243V167.686V175.128V182.571V190.013V197.456H335.546H345.661H355.777H365.893H376.008H386.124H396.24H406.355H416.471H426.587H436.703H446.818H456.934H467.05H477.165V190.013V182.571V175.128V167.686V160.243V152.801V145.358V137.916V130.473V123.03V115.588V108.145V100.703V93.2603V85.8177V78.3752V70.9326V63.4901V56.0475V48.605H467.05Z" fill="#D57643"/>
<path d="M456.934 160.243H446.818H436.703V167.686V175.128V182.571H446.818V175.128H456.934V167.686H467.05V160.243H456.934Z" fill="#C0C9DA"/>
<path d="M406.355 33.72H396.24V41.1625H406.355V33.72Z" fill="#C0C9DA"/>
<path d="M396.24 41.1626H386.124V48.6051H396.24V41.1626Z" fill="#C0C9DA"/>
<path d="M416.471 41.1626H406.355V48.6051H416.471V41.1626Z" fill="#C0C9DA"/>
<path d="M426.587 48.605H416.471H406.355H396.24H386.124H376.008H365.893V56.0475V63.4901H376.008H386.124H396.24H406.355H416.471H426.587H436.702V56.0475V48.605H426.587Z" fill="#C0C9DA"/>
<path d="M355.777 78.3752H345.661V85.8178H355.777V78.3752Z" fill="#06A64F"/>
<path d="M365.893 85.8176H355.777V93.2602H365.893V85.8176Z" fill="#06A64F"/>
<path d="M376.008 78.3752H365.893V85.8178H376.008V78.3752Z" fill="#06A64F"/>
<path d="M386.124 70.9326H376.008V78.3752H386.124V70.9326Z" fill="#06A64F"/>
<path d="M446.818 78.3752H436.703H426.587H416.471H406.355H396.24V85.8178H406.355H416.471H426.587H436.703H446.818H456.934V78.3752H446.818Z" fill="#C0C9DA"/>
<path d="M355.777 108.146H345.661V115.588H355.777V108.146Z" fill="#06A64F"/>
<path d="M365.893 115.588H355.777V123.03H365.893V115.588Z" fill="#06A64F"/>
<path d="M376.008 108.146H365.893V115.588H376.008V108.146Z" fill="#06A64F"/>
<path d="M386.124 100.703H376.008V108.145H386.124V100.703Z" fill="#06A64F"/>
<path d="M446.818 108.146H436.703H426.587H416.471H406.355H396.24V115.588H406.355H416.471H426.587H436.703H446.818H456.934V108.146H446.818Z" fill="#C0C9DA"/>
<path d="M355.777 137.916H345.661V145.358H355.777V137.916Z" fill="#06A64F"/>
<path d="M365.893 145.358H355.777V152.801H365.893V145.358Z" fill="#06A64F"/>
<path d="M376.008 137.916H365.893V145.358H376.008V137.916Z" fill="#06A64F"/>
<path d="M386.124 130.473H376.008V137.916H386.124V130.473Z" fill="#06A64F"/>
<path d="M446.818 137.916H436.703H426.587H416.471H406.355H396.24V145.358H406.355H416.471H426.587H436.703H446.818H456.934V137.916H446.818Z" fill="#C0C9DA"/>
</g>
<defs>
<clipPath id="clip0_103_7896">
<rect width="151.736" height="163.736" fill="white" transform="translate(45.4298 33.72)"/>
</clipPath>
<clipPath id="clip1_103_7896">
<rect width="151.736" height="163.736" fill="white" transform="translate(325.43 33.72)"/>
</clipPath>
</defs>
</svg>
