<svg width="200" height="200" viewBox="0 0 200 200" fill="none" xmlns="http://www.w3.org/2000/svg">
<g clip-path="url(#clip0_94_6937)">
<path opacity="0.5" d="M200 100C200 155.233 155.233 200 100 200C44.7667 200 0 155.233 0 100C0 44.7667 44.7667 0 100 0C155.233 0 200 44.7667 200 100Z" fill="url(#paint0_linear_94_6937)"/>
<path d="M181.5 98.7333C181.5 143.733 145 180.233 100 180.233C55 180.233 18.5 143.733 18.5 98.7333C18.5 53.7333 55 17.2333 100 17.2333C145 17.2333 181.5 53.7333 181.5 98.7333Z" fill="#1D1D1B"/>
<path d="M183.133 98.7333C183.133 144.633 145.933 181.867 100 181.867C54.0667 181.867 16.8667 144.633 16.8667 98.7333C16.8667 52.8333 54.1 15.6 100 15.6C145.9 15.6 183.133 52.8 183.133 98.7333Z" fill="#010101"/>
<path d="M176.067 84C169.2 48.2667 137.767 21.2667 99.9999 21.2667C62.2332 21.2667 30.8332 48.2667 23.9332 84H22.5332V98.7C22.5332 141.467 57.1999 176.167 99.9999 176.167C142.8 176.167 177.467 141.5 177.467 98.7V84H176.067Z" fill="#1F1E4F"/>
<path d="M176.067 84C169.2 48.2667 137.767 21.2667 99.9999 21.2667C62.2332 21.2667 30.8332 48.2667 23.9332 84H22.5332V98.7C22.5332 141.467 57.1999 176.167 99.9999 176.167C142.8 176.167 177.467 141.5 177.467 98.7V84H176.067Z" fill="url(#paint1_linear_94_6937)"/>
<path style="mix-blend-mode:multiply" d="M176.067 84C169.2 48.2667 137.767 21.2667 99.9999 21.2667C62.2332 21.2667 30.8332 48.2667 23.9332 84H22.5332V98.7C22.5332 141.467 57.1999 176.167 99.9999 176.167C142.8 176.167 177.467 141.5 177.467 98.7V84H176.067Z" fill="url(#paint2_linear_94_6937)"/>
<path d="M177.467 84C177.467 126.767 142.8 161.467 99.9999 161.467C57.1999 161.467 22.5332 126.8 22.5332 84C22.5332 41.2 57.2332 6.56665 99.9999 6.56665C142.767 6.56665 177.467 41.2333 177.467 84.0333V84Z" fill="url(#paint3_linear_94_6937)"/>
<path style="mix-blend-mode:screen" d="M173.867 81.8667C173.867 122.667 140.8 155.733 100 155.733C59.2 155.733 26.1333 122.667 26.1333 81.8667C26.1333 41.0667 59.2 8 100 8C140.8 8 173.867 41.0667 173.867 81.8667Z" fill="url(#paint4_linear_94_6937)"/>
<path d="M100 150.5C138.899 150.5 170.434 118.966 170.434 80.0666C170.434 41.1674 138.899 9.6333 100 9.6333C61.101 9.6333 29.5669 41.1674 29.5669 80.0666C29.5669 118.966 61.101 150.5 100 150.5Z" fill="url(#paint5_linear_94_6937)"/>
<path d="M146.933 85.1666C146.933 83.2 146.233 81.3333 145.067 79.8333L153.433 78.7666L143.167 61.0333C142.167 59.3333 140.667 58.0666 138.9 57.3333L145.6 52.2L127.867 41.9666C126.167 40.9666 124.2 40.6333 122.333 40.9L125.567 33.1H105.067C103.1 33.1 101.233 33.8 99.7333 34.9666L98.6667 26.6L80.9333 36.8666C79.2333 37.8666 77.9667 39.3666 77.2333 41.1333L72.1 34.4333L61.8667 52.1666C60.8667 53.8666 60.5333 55.8333 60.8 57.7L53 54.4666V74.9666C53 76.9333 53.7 78.8 54.8667 80.3L46.5 81.3666L56.7667 99.1C57.7667 100.8 59.2667 102.067 61.0333 102.8L54.3333 107.933L72.0667 118.167C73.7667 119.167 75.7333 119.5 77.6 119.233L74.3667 127.033H94.8667C96.8333 127.033 98.7 126.333 100.2 125.167L101.267 133.533L119 123.267C120.7 122.267 121.967 120.767 122.7 119L127.833 125.7L138.067 107.967C139.067 106.267 139.4 104.3 139.133 102.433L146.933 105.667V85.1666ZM121.6 101.533L108 109.467L92.2333 109.533L78.5667 101.7L70.6333 88.1L70.5667 72.3333L78.4 58.6666L92 50.7333L107.767 50.6666L121.433 58.5L129.367 72.1L129.433 87.8666L121.6 101.533Z" fill="#FFD100"/>
<path d="M97.1999 38.2333L92.0332 50.7L101.133 45.4L99.7999 35C98.7332 35.8333 97.8332 36.9333 97.2332 38.2333H97.1999Z" fill="#EBAA00"/>
<path d="M107.767 50.6667H118.3L122.333 40.9333C120.967 41.1333 119.667 41.6 118.5 42.4333L107.767 50.6667Z" fill="#EBAA00"/>
<path d="M134.833 56.7333L121.433 58.5L130.566 63.7333L138.9 57.3666C137.633 56.8666 136.233 56.6 134.833 56.7333Z" fill="#EBAA00"/>
<path d="M141.833 77.2666L129.366 72.1L134.666 81.2L145.066 79.8666C144.233 78.8 143.133 77.9 141.833 77.3V77.2666Z" fill="#EBAA00"/>
<path d="M129.433 87.8667V98.4L139.166 102.433C138.966 101.067 138.5 99.7667 137.666 98.6L129.433 87.8667Z" fill="#EBAA00"/>
<path d="M123.333 114.9L121.566 101.5L116.333 110.633L122.7 118.967C123.2 117.7 123.466 116.3 123.333 114.9Z" fill="#EBAA00"/>
<path d="M102.8 121.933L107.966 109.467L98.8662 114.767L100.2 125.167C101.266 124.333 102.166 123.233 102.766 121.933H102.8Z" fill="#EBAA00"/>
<path d="M92.2332 109.5H81.6998L77.6665 119.233C79.0332 119.033 80.3332 118.567 81.4998 117.733L92.2332 109.5Z" fill="#EBAA00"/>
<path d="M65.1663 103.433L78.5663 101.667L69.4329 96.4333L61.0996 102.8C62.3663 103.3 63.7663 103.567 65.1663 103.433Z" fill="#EBAA00"/>
<path d="M58.1664 82.9L70.6331 88.0667L65.3331 78.9667L54.9331 80.3C55.7664 81.3667 56.8664 82.2667 58.1664 82.8667V82.9Z" fill="#EBAA00"/>
<path d="M76.6333 45.2334L78.3999 58.6334L83.6333 49.5L77.2666 41.1667C76.7666 42.4334 76.4999 43.8334 76.6333 45.2334Z" fill="#EBAA00"/>
<path d="M70.5663 72.3V61.7667L60.833 57.7333C61.033 59.1 61.4997 60.4 62.333 61.5667L70.5663 72.3Z" fill="#EBAA00"/>
</g>
<defs>
<linearGradient id="paint0_linear_94_6937" x1="100" y1="200" x2="100" y2="0" gradientUnits="userSpaceOnUse">
<stop stop-color="#878787"/>
<stop offset="1" stop-color="#251533"/>
</linearGradient>
<linearGradient id="paint1_linear_94_6937" x1="22.5332" y1="98.7333" x2="177.467" y2="98.7333" gradientUnits="userSpaceOnUse">
<stop stop-color="#E23D26"/>
<stop offset="1" stop-color="#E21F26"/>
</linearGradient>
<linearGradient id="paint2_linear_94_6937" x1="22.5332" y1="98.7333" x2="177.467" y2="98.7333" gradientUnits="userSpaceOnUse">
<stop stop-color="#717070"/>
<stop offset="0.08" stop-color="#9C9C9B"/>
<stop offset="0.21" stop-color="#717070"/>
<stop offset="1" stop-color="#717070"/>
</linearGradient>
<linearGradient id="paint3_linear_94_6937" x1="99.9999" y1="161.467" x2="99.9999" y2="6.56665" gradientUnits="userSpaceOnUse">
<stop stop-color="#E21F26"/>
<stop offset="1" stop-color="#E23D26"/>
</linearGradient>
<linearGradient id="paint4_linear_94_6937" x1="47.7666" y1="134.1" x2="152.233" y2="29.6333" gradientUnits="userSpaceOnUse">
<stop stop-color="#DBDADA"/>
<stop offset="0.16" stop-color="#878787"/>
<stop offset="0.36" stop-color="white"/>
<stop offset="0.58" stop-color="#585856"/>
<stop offset="1" stop-color="white"/>
</linearGradient>
<linearGradient id="paint5_linear_94_6937" x1="100" y1="150.5" x2="100" y2="9.66663" gradientUnits="userSpaceOnUse">
<stop stop-color="#E21F26"/>
<stop offset="1" stop-color="#E23D26"/>
</linearGradient>
<clipPath id="clip0_94_6937">
<rect width="200" height="200" fill="white"/>
</clipPath>
</defs>
</svg>
