<svg width="200" height="200" viewBox="0 0 200 200" fill="none" xmlns="http://www.w3.org/2000/svg">
<g clip-path="url(#clip0_94_6966)">
<path opacity="0.5" d="M200 100C200 155.233 155.233 200 100 200C44.7667 200 0 155.233 0 100C0 44.7667 44.7667 0 100 0C155.233 0 200 44.7667 200 100Z" fill="url(#paint0_linear_94_6966)"/>
<path d="M181.5 98.7333C181.5 143.733 145 180.233 100 180.233C55 180.233 18.5 143.733 18.5 98.7333C18.5 53.7333 55 17.2333 100 17.2333C145 17.2333 181.5 53.7333 181.5 98.7333Z" fill="#1D1D1B"/>
<path d="M183.133 98.7333C183.133 144.633 145.933 181.867 100 181.867C54.0667 181.867 16.8667 144.633 16.8667 98.7333C16.8667 52.8333 54.1 15.6 100 15.6C145.9 15.6 183.133 52.8 183.133 98.7333Z" fill="#010101"/>
<path d="M176.067 84C169.2 48.2667 137.767 21.2667 99.9999 21.2667C62.2332 21.2667 30.8332 48.2667 23.9332 84H22.5332V98.7C22.5332 141.467 57.1999 176.167 99.9999 176.167C142.8 176.167 177.467 141.5 177.467 98.7V84H176.067Z" fill="#1F1E4F"/>
<path d="M176.067 84C169.2 48.2667 137.767 21.2667 99.9999 21.2667C62.2332 21.2667 30.8332 48.2667 23.9332 84H22.5332V98.7C22.5332 141.467 57.1999 176.167 99.9999 176.167C142.8 176.167 177.467 141.5 177.467 98.7V84H176.067Z" fill="url(#paint1_linear_94_6966)"/>
<path style="mix-blend-mode:multiply" d="M176.067 84C169.2 48.2667 137.767 21.2667 99.9999 21.2667C62.2332 21.2667 30.8332 48.2667 23.9332 84H22.5332V98.7C22.5332 141.467 57.1999 176.167 99.9999 176.167C142.8 176.167 177.467 141.5 177.467 98.7V84H176.067Z" fill="url(#paint2_linear_94_6966)"/>
<path d="M177.467 93.4331C177.467 136.2 142.8 170.9 99.9999 170.9C57.1999 170.9 22.5332 136.233 22.5332 93.4331C22.5332 50.6331 57.2332 15.9998 99.9999 15.9998C142.767 15.9998 177.467 50.6664 177.467 93.4664V93.4331Z" fill="url(#paint3_linear_94_6966)"/>
<path style="mix-blend-mode:screen" d="M173.867 91.2995C173.867 132.1 140.8 165.166 100 165.166C59.2 165.166 26.1333 132.1 26.1333 91.2995C26.1333 50.4995 59.2 17.4329 100 17.4329C140.8 17.4329 173.867 50.4995 173.867 91.2995Z" fill="url(#paint4_linear_94_6966)"/>
<path d="M99.9997 159.933C138.899 159.933 170.433 128.399 170.433 89.5C170.433 50.6007 138.899 19.0667 99.9997 19.0667C61.1005 19.0667 29.5664 50.6007 29.5664 89.5C29.5664 128.399 61.1005 159.933 99.9997 159.933Z" fill="url(#paint5_linear_94_6966)"/>
<path d="M146.933 94.5996C146.933 92.633 146.233 90.7663 145.067 89.2663L153.433 88.1996L143.167 70.4663C142.167 68.7663 140.667 67.4996 138.9 66.7663L145.6 61.633L127.867 51.3996C126.167 50.3996 124.2 50.0663 122.333 50.333L125.567 42.533H105.067C103.1 42.533 101.233 43.233 99.7333 44.3996L98.6667 36.033L80.9333 46.2996C79.2333 47.2996 77.9667 48.7996 77.2333 50.5663L72.1 43.8663L61.8667 61.5996C60.8667 63.2996 60.5333 65.2663 60.8 67.133L53 63.8996V84.3996C53 86.3663 53.7 88.233 54.8667 89.733L46.5 90.7996L56.7667 108.533C57.7667 110.233 59.2667 111.5 61.0333 112.233L54.3333 117.366L72.0667 127.6C73.7667 128.6 75.7333 128.933 77.6 128.666L74.3667 136.466H94.8667C96.8333 136.466 98.7 135.766 100.2 134.6L101.267 142.966L119 132.7C120.7 131.7 121.967 130.2 122.7 128.433L127.833 135.133L138.067 117.4C139.067 115.7 139.4 113.733 139.133 111.866L146.933 115.1V94.5996ZM121.6 110.966L108 118.9L92.2333 118.966L78.5667 111.133L70.6333 97.533L70.5667 81.7663L78.4 68.0996L92 60.1663L107.767 60.0996L121.433 67.933L129.367 81.533L129.433 97.2996L121.6 110.966Z" fill="#FFD100"/>
<path d="M97.1999 47.6663L92.0332 60.133L101.133 54.833L99.7999 44.433C98.7332 45.2663 97.8332 46.3663 97.2332 47.6663H97.1999Z" fill="#EBAA00"/>
<path d="M107.767 60.0997H118.3L122.333 50.3663C120.967 50.5663 119.667 51.033 118.5 51.8663L107.767 60.0997Z" fill="#EBAA00"/>
<path d="M134.833 66.1664L121.433 67.933L130.566 73.1664L138.9 66.7997C137.633 66.2997 136.233 66.033 134.833 66.1664Z" fill="#EBAA00"/>
<path d="M141.833 86.6996L129.366 81.533L134.666 90.633L145.066 89.2996C144.233 88.233 143.133 87.333 141.833 86.733V86.6996Z" fill="#EBAA00"/>
<path d="M129.433 97.2997V107.833L139.166 111.866C138.966 110.5 138.5 109.2 137.666 108.033L129.433 97.2997Z" fill="#EBAA00"/>
<path d="M123.333 124.333L121.566 110.933L116.333 120.066L122.7 128.4C123.2 127.133 123.466 125.733 123.333 124.333Z" fill="#EBAA00"/>
<path d="M102.8 131.366L107.966 118.9L98.8662 124.2L100.2 134.6C101.266 133.766 102.166 132.666 102.766 131.366H102.8Z" fill="#EBAA00"/>
<path d="M92.2332 118.933H81.6998L77.6665 128.666C79.0332 128.466 80.3332 128 81.4998 127.166L92.2332 118.933Z" fill="#EBAA00"/>
<path d="M65.1663 112.866L78.5663 111.1L69.4329 105.866L61.0996 112.233C62.3663 112.733 63.7663 113 65.1663 112.866Z" fill="#EBAA00"/>
<path d="M58.1664 92.333L70.6331 97.4997L65.3331 88.3997L54.9331 89.733C55.7664 90.7997 56.8664 91.6997 58.1664 92.2997V92.333Z" fill="#EBAA00"/>
<path d="M76.6333 54.6663L78.3999 68.0663L83.6333 58.933L77.2666 50.5997C76.7666 51.8663 76.4999 53.2663 76.6333 54.6663Z" fill="#EBAA00"/>
<path d="M70.5663 81.7329V71.1996L60.833 67.1663C61.033 68.5329 61.4997 69.8329 62.333 70.9996L70.5663 81.7329Z" fill="#EBAA00"/>
</g>
<defs>
<linearGradient id="paint0_linear_94_6966" x1="100" y1="200" x2="100" y2="0" gradientUnits="userSpaceOnUse">
<stop stop-color="#878787"/>
<stop offset="1" stop-color="#443C4B"/>
</linearGradient>
<linearGradient id="paint1_linear_94_6966" x1="22.5332" y1="98.7333" x2="177.467" y2="98.7333" gradientUnits="userSpaceOnUse">
<stop stop-color="#E23D26"/>
<stop offset="1" stop-color="#E21F26"/>
</linearGradient>
<linearGradient id="paint2_linear_94_6966" x1="22.5332" y1="98.7333" x2="177.467" y2="98.7333" gradientUnits="userSpaceOnUse">
<stop stop-color="#717070"/>
<stop offset="0.08" stop-color="#9C9C9B"/>
<stop offset="0.21" stop-color="#717070"/>
<stop offset="1" stop-color="#717070"/>
</linearGradient>
<linearGradient id="paint3_linear_94_6966" x1="99.9999" y1="170.9" x2="99.9999" y2="15.9998" gradientUnits="userSpaceOnUse">
<stop stop-color="#E21F26"/>
<stop offset="1" stop-color="#E23D26"/>
</linearGradient>
<linearGradient id="paint4_linear_94_6966" x1="47.7666" y1="143.533" x2="152.233" y2="39.0662" gradientUnits="userSpaceOnUse">
<stop stop-color="#DBDADA"/>
<stop offset="0.16" stop-color="#878787"/>
<stop offset="0.36" stop-color="white"/>
<stop offset="0.58" stop-color="#585856"/>
<stop offset="1" stop-color="white"/>
</linearGradient>
<linearGradient id="paint5_linear_94_6966" x1="99.9997" y1="159.933" x2="99.9997" y2="19.1" gradientUnits="userSpaceOnUse">
<stop stop-color="#E21F26"/>
<stop offset="1" stop-color="#E23D26"/>
</linearGradient>
<clipPath id="clip0_94_6966">
<rect width="200" height="200" fill="white"/>
</clipPath>
</defs>
</svg>
