<svg width="144" height="212" viewBox="0 0 144 212" fill="none" xmlns="http://www.w3.org/2000/svg">
<g clip-path="url(#clip0_103_8156)">
<path d="M124.8 29.2727H115.2H105.6V38.8636H96H86.4H76.8H67.2H57.6H48H38.4V29.2727H28.8H19.2H9.60001V38.8636V48.4545V58.0454V67.6363V77.2273V86.8182V96.4091V106V115.591V125.182V134.773V144.364V153.955V163.545V173.136V182.727V192.318H19.2H28.8H38.4H48H57.6H67.2H76.8H86.4H96H105.6V182.727V173.136V163.545H115.2H124.8H134.4V153.955V144.364V134.773V125.182V115.591V106V96.4091V86.8182V77.2273V67.6363V58.0454V48.4545V38.8636V29.2727H124.8Z" fill="white"/>
<path d="M134.4 19.6819H124.8H115.2H105.6V29.2728H115.2H124.8H134.4V38.8637V48.4546V58.0455V67.6364V77.2273V86.8182V96.4092V106V115.591V125.182V134.773V144.364V153.955V163.546V173.136H124.8V182.727H115.2V192.318H105.6H96H86.4H76.8H67.2H57.6H48H38.4H28.8H19.2H9.6V182.727V173.136V163.546V153.955V144.364V134.773V125.182V115.591V106V96.4092V86.8182V77.2273V67.6364V58.0455V48.4546V38.8637V29.2728H19.2H28.8H38.4V19.6819H28.8H19.2H9.6H0V29.2728V38.8637V48.4546V58.0455V67.6364V77.2273V86.8182V96.4092V106V115.591V125.182V134.773V144.364V153.955V163.546V173.136V182.727V192.318V201.909V211.5H9.6H19.2H28.8H38.4H48H57.6H67.2H76.8H86.4H96H105.6H115.2H124.8H134.4H144V201.909V192.318V182.727V173.136V163.546V153.955V144.364V134.773V125.182V115.591V106V96.4092V86.8182V77.2273V67.6364V58.0455V48.4546V38.8637V29.2728V19.6819H134.4Z" fill="#D57643"/>
<path d="M124.8 163.545H115.2H105.6V173.136V182.727V192.318H115.2V182.727H124.8V173.136H134.4V163.545H124.8Z" fill="#C0C9DA"/>
<path d="M76.8 0.5H67.2V10.0909H76.8V0.5Z" fill="#C0C9DA"/>
<path d="M67.2 10.0908H57.6V19.6817H67.2V10.0908Z" fill="#C0C9DA"/>
<path d="M86.4 10.0908H76.8V19.6817H86.4V10.0908Z" fill="#C0C9DA"/>
<path d="M96 19.6819H86.4H76.8H67.2H57.6H48H38.4V29.2728V38.8637H48H57.6H67.2H76.8H86.4H96H105.6V29.2728V19.6819H96Z" fill="#C0C9DA"/>
<path d="M28.8 58.0454H19.2V67.6363H28.8V58.0454Z" fill="#06A64F"/>
<path d="M38.4 67.6365H28.8V77.2274H38.4V67.6365Z" fill="#06A64F"/>
<path d="M48 58.0454H38.4V67.6363H48V58.0454Z" fill="#06A64F"/>
<path d="M57.6 48.4546H48V58.0455H57.6V48.4546Z" fill="#06A64F"/>
<path d="M115.2 58.0454H105.6H96H86.4H76.8H67.2V67.6363H76.8H86.4H96H105.6H115.2H124.8V58.0454H115.2Z" fill="#C0C9DA"/>
<path d="M28.8 96.4089H19.2V106H28.8V96.4089Z" fill="#06A64F"/>
<path d="M38.4 106H28.8V115.591H38.4V106Z" fill="#06A64F"/>
<path d="M48 96.4089H38.4V106H48V96.4089Z" fill="#06A64F"/>
<path d="M57.6 86.8181H48V96.409H57.6V86.8181Z" fill="#06A64F"/>
<path d="M115.2 96.4092H105.6H96H86.4H76.8H67.2V106H76.8H86.4H96H105.6H115.2H124.8V96.4092H115.2Z" fill="#C0C9DA"/>
<path d="M28.8 134.773H19.2V144.364H28.8V134.773Z" fill="#06A64F"/>
<path d="M38.4 144.364H28.8V153.955H38.4V144.364Z" fill="#06A64F"/>
<path d="M48 134.773H38.4V144.364H48V134.773Z" fill="#06A64F"/>
<path d="M57.6 125.182H48V134.773H57.6V125.182Z" fill="#06A64F"/>
<path d="M115.2 134.773H105.6H96H86.4H76.8H67.2V144.364H76.8H86.4H96H105.6H115.2H124.8V134.773H115.2Z" fill="#C0C9DA"/>
</g>
<defs>
<clipPath id="clip0_103_8156">
<rect width="144" height="211" fill="white" transform="translate(0 0.5)"/>
</clipPath>
</defs>
</svg>
