<?xml version="1.0" encoding="UTF-8"?>
<svg xmlns="http://www.w3.org/2000/svg" viewBox="0 0 36 60">
  <defs>
    <style>
      .cls-1 {
        fill: #06a64f;
      }

      .cls-2 {
        fill: #d57643;
      }

      .cls-3 {
        mix-blend-mode: multiply;
        opacity: .12;
      }

      .cls-4 {
        fill: #c0c9da;
      }

      .cls-5 {
        isolation: isolate;
      }

      .cls-6 {
        fill: #fff;
      }
    </style>
  </defs>
  <g class="cls-5">
    <g id="Layer_2" data-name="Layer 2">
      <g id="Game_Play" data-name="Game Play">
        <g>
          <g class="cls-3">
            <polygon points="33.6 12 31.2 12 28.8 12 26.4 12 24 12 21.6 12 21.6 9.6 19.2 9.6 19.2 12 16.8 12 16.8 9.6 14.4 9.6 14.4 12 12 12 9.6 12 7.2 12 4.8 12 2.4 12 0 12 0 14.4 0 16.8 0 19.2 0 21.6 0 24 0 26.4 0 28.8 0 31.2 0 33.6 0 36 0 38.4 0 40.8 0 43.2 0 45.6 0 48 0 50.4 0 52.8 0 55.2 0 57.6 0 60 2.4 60 4.8 60 7.2 60 9.6 60 12 60 14.4 60 16.8 60 19.2 60 21.6 60 24 60 26.4 60 28.8 60 31.2 60 33.6 60 36 60 36 57.6 36 55.2 36 52.8 36 50.4 36 48 36 45.6 36 43.2 36 40.8 36 38.4 36 36 36 33.6 36 31.2 36 28.8 36 26.4 36 24 36 21.6 36 19.2 36 16.8 36 14.4 36 12 33.6 12"/>
          </g>
          <g>
            <polygon class="cls-6" points="31.2 7.2 28.8 7.2 26.4 7.2 26.4 9.6 24 9.6 21.6 9.6 19.2 9.6 16.8 9.6 14.4 9.6 12 9.6 9.6 9.6 9.6 7.2 7.2 7.2 4.8 7.2 2.4 7.2 2.4 9.6 2.4 12 2.4 14.4 2.4 16.8 2.4 19.2 2.4 21.6 2.4 24 2.4 26.4 2.4 28.8 2.4 31.2 2.4 33.6 2.4 36 2.4 38.4 2.4 40.8 2.4 43.2 2.4 45.6 2.4 48 4.8 48 7.2 48 9.6 48 12 48 14.4 48 16.8 48 19.2 48 21.6 48 24 48 26.4 48 26.4 45.6 26.4 43.2 26.4 40.8 28.8 40.8 31.2 40.8 33.6 40.8 33.6 38.4 33.6 36 33.6 33.6 33.6 31.2 33.6 28.8 33.6 26.4 33.6 24 33.6 21.6 33.6 19.2 33.6 16.8 33.6 14.4 33.6 12 33.6 9.6 33.6 7.2 31.2 7.2"/>
            <polygon class="cls-2" points="33.6 4.8 31.2 4.8 28.8 4.8 26.4 4.8 26.4 7.2 28.8 7.2 31.2 7.2 33.6 7.2 33.6 9.6 33.6 12 33.6 14.4 33.6 16.8 33.6 19.2 33.6 21.6 33.6 24 33.6 26.4 33.6 28.8 33.6 31.2 33.6 33.6 33.6 36 33.6 38.4 33.6 40.8 33.6 43.2 31.2 43.2 31.2 45.6 28.8 45.6 28.8 48 26.4 48 24 48 21.6 48 19.2 48 16.8 48 14.4 48 12 48 9.6 48 7.2 48 4.8 48 2.4 48 2.4 45.6 2.4 43.2 2.4 40.8 2.4 38.4 2.4 36 2.4 33.6 2.4 31.2 2.4 28.8 2.4 26.4 2.4 24 2.4 21.6 2.4 19.2 2.4 16.8 2.4 14.4 2.4 12 2.4 9.6 2.4 7.2 4.8 7.2 7.2 7.2 9.6 7.2 9.6 4.8 7.2 4.8 4.8 4.8 2.4 4.8 0 4.8 0 7.2 0 9.6 0 12 0 14.4 0 16.8 0 19.2 0 21.6 0 24 0 26.4 0 28.8 0 31.2 0 33.6 0 36 0 38.4 0 40.8 0 43.2 0 45.6 0 48 0 50.4 0 52.8 2.4 52.8 4.8 52.8 7.2 52.8 9.6 52.8 12 52.8 14.4 52.8 16.8 52.8 19.2 52.8 21.6 52.8 24 52.8 26.4 52.8 28.8 52.8 31.2 52.8 33.6 52.8 36 52.8 36 50.4 36 48 36 45.6 36 43.2 36 40.8 36 38.4 36 36 36 33.6 36 31.2 36 28.8 36 26.4 36 24 36 21.6 36 19.2 36 16.8 36 14.4 36 12 36 9.6 36 7.2 36 4.8 33.6 4.8"/>
            <polygon class="cls-4" points="31.2 40.8 28.8 40.8 26.4 40.8 26.4 43.2 26.4 45.6 26.4 48 28.8 48 28.8 45.6 31.2 45.6 31.2 43.2 33.6 43.2 33.6 40.8 31.2 40.8"/>
            <g>
              <rect class="cls-4" x="16.8" width="2.4" height="2.4"/>
              <rect class="cls-4" x="14.4" y="2.4" width="2.4" height="2.4"/>
              <rect class="cls-4" x="19.2" y="2.4" width="2.4" height="2.4"/>
              <polygon class="cls-4" points="24 4.8 21.6 4.8 19.2 4.8 16.8 4.8 14.4 4.8 12 4.8 9.6 4.8 9.6 7.2 9.6 9.6 12 9.6 14.4 9.6 16.8 9.6 19.2 9.6 21.6 9.6 24 9.6 26.4 9.6 26.4 7.2 26.4 4.8 24 4.8"/>
            </g>
            <g>
              <rect class="cls-1" x="4.8" y="14.4" width="2.4" height="2.4"/>
              <rect class="cls-1" x="7.2" y="16.8" width="2.4" height="2.4"/>
              <rect class="cls-1" x="9.6" y="14.4" width="2.4" height="2.4"/>
              <rect class="cls-1" x="12" y="12" width="2.4" height="2.4"/>
            </g>
            <polygon class="cls-4" points="28.8 14.4 26.4 14.4 24 14.4 21.6 14.4 19.2 14.4 16.8 14.4 16.8 16.8 19.2 16.8 21.6 16.8 24 16.8 26.4 16.8 28.8 16.8 31.2 16.8 31.2 14.4 28.8 14.4"/>
            <g>
              <rect class="cls-1" x="4.8" y="24" width="2.4" height="2.4"/>
              <rect class="cls-1" x="7.2" y="26.4" width="2.4" height="2.4"/>
              <rect class="cls-1" x="9.6" y="24" width="2.4" height="2.4"/>
              <rect class="cls-1" x="12" y="21.6" width="2.4" height="2.4"/>
            </g>
            <polygon class="cls-4" points="28.8 24 26.4 24 24 24 21.6 24 19.2 24 16.8 24 16.8 26.4 19.2 26.4 21.6 26.4 24 26.4 26.4 26.4 28.8 26.4 31.2 26.4 31.2 24 28.8 24"/>
            <g>
              <rect class="cls-1" x="4.8" y="33.6" width="2.4" height="2.4"/>
              <rect class="cls-1" x="7.2" y="36" width="2.4" height="2.4"/>
              <rect class="cls-1" x="9.6" y="33.6" width="2.4" height="2.4"/>
              <rect class="cls-1" x="12" y="31.2" width="2.4" height="2.4"/>
            </g>
            <polygon class="cls-4" points="28.8 33.6 26.4 33.6 24 33.6 21.6 33.6 19.2 33.6 16.8 33.6 16.8 36 19.2 36 21.6 36 24 36 26.4 36 28.8 36 31.2 36 31.2 33.6 28.8 33.6"/>
          </g>
        </g>
      </g>
    </g>
  </g>
</svg>