<svg width="318" height="253" viewBox="0 0 318 253" fill="none" xmlns="http://www.w3.org/2000/svg">
<path d="M138.22 172.37C147.84 174.42 157.47 175.3 167.18 174.25C170.12 173.93 173.15 173.8 175.96 172.97C180.44 171.66 179.85 173.62 178.78 176.53C175.73 184.87 168.13 190.54 159.29 190.92C151.11 191.28 142.52 185.45 139.25 177.32C138.66 175.86 137.82 174.43 138.21 172.37H138.22Z" fill="#FEFEFD"/>
<path d="M197.09 189.42C196.23 188.14 195.29 186.9 195.53 185.04C197.1 185.76 197.4 187.24 198.04 188.46C197.72 188.78 197.41 189.1 197.09 189.42Z" fill="#FEFEFD"/>
<path d="M118.94 189.37C119.6 188.11 120.26 186.85 121.11 185.22C122.29 187.64 120.77 188.98 120 190.49C119.65 190.12 119.29 189.74 118.94 189.37Z" fill="#FEFEFD"/>
<path d="M97.3101 161.89C97.6801 161.8 98.2901 161.52 98.3901 161.64C98.7701 162.11 98.3101 162.33 97.9201 162.5C97.7101 162.3 97.5101 162.1 97.3101 161.89Z" fill="#FEFEFD"/>
<mask id="path-5-outside-1_3_2181" maskUnits="userSpaceOnUse" x="-1" y="-1" width="319" height="254" fill="black">
<rect fill="white" x="-1" y="-1" width="319" height="254"/>
<path fill-rule="evenodd" clip-rule="evenodd" d="M229.472 118.623C228.403 116.396 227.29 114.25 226.054 112.22C226.678 114.837 227 117.758 227 121C227 137.829 218.334 157.932 203.614 163.709C213.307 161.634 222.121 155.551 226.792 146.373C228.882 142.273 230.672 139.943 236.152 139.313C247.652 137.983 256.092 130.223 263.972 122.253C265.69 120.514 267.308 118.68 269.054 116.7C269.889 115.753 270.753 114.772 271.672 113.753C272.508 118.009 271.526 121.63 270.574 125.14C270.398 125.787 270.224 126.43 270.062 127.073C267.282 138.053 263.132 148.453 255.502 157.093C245.802 168.083 234.632 169.943 221.652 162.923C221.43 162.802 221.22 162.638 221.008 162.471C220.446 162.03 219.869 161.576 219.012 161.903C223.022 168.583 229.262 172.213 236.902 172.783C243.282 173.255 249.493 172.222 255.7 171.189C258.298 170.757 260.894 170.325 263.502 170.003C279.032 168.093 292.342 172.233 302.982 183.983C308.362 189.923 309.742 196.143 307.012 203.713C306.796 203.503 306.584 203.296 306.376 203.093C305.107 201.857 303.963 200.742 302.812 199.643C295.862 192.993 287.542 191.313 278.162 192.073C269.567 192.768 261.319 194.976 253.069 197.185C246.354 198.982 239.638 200.78 232.732 201.763C218.612 203.773 206.812 200.703 198.102 188.803C197.955 188.528 197.827 188.239 197.697 187.949C197.253 186.954 196.8 185.94 195.592 185.383C195.37 187.107 196.169 188.298 196.964 189.482C197.027 189.576 197.09 189.669 197.152 189.763L197.112 189.753C201.672 202.173 211.992 207.373 223.722 210.383C229.461 211.855 235.345 212.521 241.231 213.187C247.662 213.914 254.097 214.643 260.352 216.423C271.622 219.633 279.942 225.863 282.502 238.003C282.556 238.26 282.655 238.528 282.755 238.797C283.066 239.636 283.38 240.483 282.312 241.043C281.434 241.503 280.838 240.783 280.288 240.117C280.168 239.972 280.05 239.83 279.932 239.703C275.002 234.373 268.692 232.623 261.662 232.273C251.198 231.75 240.885 233.022 230.573 234.295C226.103 234.846 221.633 235.398 217.152 235.803C209.002 236.543 200.922 236.533 192.912 234.873C174.222 231.003 164.932 218.163 160.532 200.743C160.184 199.364 159.917 197.963 159.625 196.435C159.481 195.679 159.331 194.893 159.162 194.063C157.775 196.422 157.247 198.904 156.73 201.333C156.412 202.827 156.099 204.3 155.592 205.713C148.222 226.343 134.932 235.863 113.032 236.273C103.712 236.45 94.5264 235.288 85.3417 234.126C81.5582 233.647 77.7748 233.168 73.9821 232.783C66.8521 232.053 59.7121 231.953 52.6221 232.503C45.5121 233.043 39.5221 236.433 34.8121 243.293C35.1721 229.333 43.0221 220.343 56.9821 216.433C63.544 214.591 70.269 213.803 76.9941 213.016C80.9277 212.555 84.8612 212.095 88.7621 211.423C100.912 209.323 111.642 204.843 118.652 193.993C119.059 193.36 119.332 192.637 119.605 191.915C119.742 191.554 119.879 191.193 120.032 190.843C120.188 190.537 120.374 190.239 120.563 189.937C121.307 188.746 122.083 187.503 121.142 185.573C120.292 187.203 119.632 188.463 118.972 189.723C107.052 204.653 91.4821 203.893 75.1321 199.963C71.7261 199.143 68.3385 198.226 64.9504 197.309C56.1031 194.914 47.2526 192.518 38.0621 191.853C28.6421 191.163 20.0821 193.593 13.4621 200.883C13.2317 201.138 13.0199 201.459 12.8069 201.782C12.2253 202.665 11.635 203.56 10.6321 203.143C9.40147 202.629 9.24126 200.886 9.10513 199.404C9.10077 199.357 9.09644 199.31 9.0921 199.263C8.4521 192.633 11.2021 187.333 15.6421 182.783C26.2321 171.903 39.2121 168.133 54.1121 170.023C56.6647 170.346 59.2069 170.78 61.7491 171.213C68.1702 172.308 74.5915 173.404 81.1821 172.723C88.2621 171.993 94.0921 169.053 97.9721 162.853C98.1535 162.774 98.3521 162.686 98.4736 162.567C98.055 162.485 97.6402 162.402 97.23 162.316C80.6748 171.486 68.0267 166.486 58.4621 152.533C51.3321 142.143 45.4221 124.343 45.8421 113.683C46.3927 114.292 46.9399 114.901 47.485 115.507C52.87 121.493 58.0565 127.259 64.4221 131.763C71.1421 136.523 78.2321 140.343 86.8321 139.743C89.3921 139.563 90.0921 140.893 90.9621 142.943C91.261 143.645 91.581 144.334 91.9211 145.01C92.4044 145.056 92.8811 145.106 93.3433 145.154C96.5405 145.489 99.0371 145.751 98.1412 144C93.9698 135.849 91.2192 126.575 90.3209 118.493C90.1807 118.817 90.0363 119.143 89.8903 119.471C89.7383 119.814 89.5845 120.16 89.4321 120.513C75.9221 97.7629 77.3021 58.0029 104.022 31.6329C131.662 4.35294 175.072 1.38294 205.762 24.6329C237.612 48.7629 243.462 89.673 229.482 118.623H229.472ZM139.007 177C138.469 175.753 137.91 174.456 138.242 172.703H138.252C147.872 174.753 157.492 175.633 167.212 174.583C167.835 174.515 168.463 174.455 169.091 174.396C171.427 174.173 173.778 173.949 175.992 173.303C180.472 171.993 179.882 173.953 178.812 176.863C175.762 185.203 168.162 190.873 159.322 191.253C151.132 191.613 142.542 185.793 139.282 177.653C139.194 177.435 139.101 177.219 139.007 177Z"/>
</mask>
<path fill-rule="evenodd" clip-rule="evenodd" d="M229.472 118.623C228.403 116.396 227.29 114.25 226.054 112.22C226.678 114.837 227 117.758 227 121C227 137.829 218.334 157.932 203.614 163.709C213.307 161.634 222.121 155.551 226.792 146.373C228.882 142.273 230.672 139.943 236.152 139.313C247.652 137.983 256.092 130.223 263.972 122.253C265.69 120.514 267.308 118.68 269.054 116.7C269.889 115.753 270.753 114.772 271.672 113.753C272.508 118.009 271.526 121.63 270.574 125.14C270.398 125.787 270.224 126.43 270.062 127.073C267.282 138.053 263.132 148.453 255.502 157.093C245.802 168.083 234.632 169.943 221.652 162.923C221.43 162.802 221.22 162.638 221.008 162.471C220.446 162.03 219.869 161.576 219.012 161.903C223.022 168.583 229.262 172.213 236.902 172.783C243.282 173.255 249.493 172.222 255.7 171.189C258.298 170.757 260.894 170.325 263.502 170.003C279.032 168.093 292.342 172.233 302.982 183.983C308.362 189.923 309.742 196.143 307.012 203.713C306.796 203.503 306.584 203.296 306.376 203.093C305.107 201.857 303.963 200.742 302.812 199.643C295.862 192.993 287.542 191.313 278.162 192.073C269.567 192.768 261.319 194.976 253.069 197.185C246.354 198.982 239.638 200.78 232.732 201.763C218.612 203.773 206.812 200.703 198.102 188.803C197.955 188.528 197.827 188.239 197.697 187.949C197.253 186.954 196.8 185.94 195.592 185.383C195.37 187.107 196.169 188.298 196.964 189.482C197.027 189.576 197.09 189.669 197.152 189.763L197.112 189.753C201.672 202.173 211.992 207.373 223.722 210.383C229.461 211.855 235.345 212.521 241.231 213.187C247.662 213.914 254.097 214.643 260.352 216.423C271.622 219.633 279.942 225.863 282.502 238.003C282.556 238.26 282.655 238.528 282.755 238.797C283.066 239.636 283.38 240.483 282.312 241.043C281.434 241.503 280.838 240.783 280.288 240.117C280.168 239.972 280.05 239.83 279.932 239.703C275.002 234.373 268.692 232.623 261.662 232.273C251.198 231.75 240.885 233.022 230.573 234.295C226.103 234.846 221.633 235.398 217.152 235.803C209.002 236.543 200.922 236.533 192.912 234.873C174.222 231.003 164.932 218.163 160.532 200.743C160.184 199.364 159.917 197.963 159.625 196.435C159.481 195.679 159.331 194.893 159.162 194.063C157.775 196.422 157.247 198.904 156.73 201.333C156.412 202.827 156.099 204.3 155.592 205.713C148.222 226.343 134.932 235.863 113.032 236.273C103.712 236.45 94.5264 235.288 85.3417 234.126C81.5582 233.647 77.7748 233.168 73.9821 232.783C66.8521 232.053 59.7121 231.953 52.6221 232.503C45.5121 233.043 39.5221 236.433 34.8121 243.293C35.1721 229.333 43.0221 220.343 56.9821 216.433C63.544 214.591 70.269 213.803 76.9941 213.016C80.9277 212.555 84.8612 212.095 88.7621 211.423C100.912 209.323 111.642 204.843 118.652 193.993C119.059 193.36 119.332 192.637 119.605 191.915C119.742 191.554 119.879 191.193 120.032 190.843C120.188 190.537 120.374 190.239 120.563 189.937C121.307 188.746 122.083 187.503 121.142 185.573C120.292 187.203 119.632 188.463 118.972 189.723C107.052 204.653 91.4821 203.893 75.1321 199.963C71.7261 199.143 68.3385 198.226 64.9504 197.309C56.1031 194.914 47.2526 192.518 38.0621 191.853C28.6421 191.163 20.0821 193.593 13.4621 200.883C13.2317 201.138 13.0199 201.459 12.8069 201.782C12.2253 202.665 11.635 203.56 10.6321 203.143C9.40147 202.629 9.24126 200.886 9.10513 199.404C9.10077 199.357 9.09644 199.31 9.0921 199.263C8.4521 192.633 11.2021 187.333 15.6421 182.783C26.2321 171.903 39.2121 168.133 54.1121 170.023C56.6647 170.346 59.2069 170.78 61.7491 171.213C68.1702 172.308 74.5915 173.404 81.1821 172.723C88.2621 171.993 94.0921 169.053 97.9721 162.853C98.1535 162.774 98.3521 162.686 98.4736 162.567C98.055 162.485 97.6402 162.402 97.23 162.316C80.6748 171.486 68.0267 166.486 58.4621 152.533C51.3321 142.143 45.4221 124.343 45.8421 113.683C46.3927 114.292 46.9399 114.901 47.485 115.507C52.87 121.493 58.0565 127.259 64.4221 131.763C71.1421 136.523 78.2321 140.343 86.8321 139.743C89.3921 139.563 90.0921 140.893 90.9621 142.943C91.261 143.645 91.581 144.334 91.9211 145.01C92.4044 145.056 92.8811 145.106 93.3433 145.154C96.5405 145.489 99.0371 145.751 98.1412 144C93.9698 135.849 91.2192 126.575 90.3209 118.493C90.1807 118.817 90.0363 119.143 89.8903 119.471C89.7383 119.814 89.5845 120.16 89.4321 120.513C75.9221 97.7629 77.3021 58.0029 104.022 31.6329C131.662 4.35294 175.072 1.38294 205.762 24.6329C237.612 48.7629 243.462 89.673 229.482 118.623H229.472ZM139.007 177C138.469 175.753 137.91 174.456 138.242 172.703H138.252C147.872 174.753 157.492 175.633 167.212 174.583C167.835 174.515 168.463 174.455 169.091 174.396C171.427 174.173 173.778 173.949 175.992 173.303C180.472 171.993 179.882 173.953 178.812 176.863C175.762 185.203 168.162 190.873 159.322 191.253C151.132 191.613 142.542 185.793 139.282 177.653C139.194 177.435 139.101 177.219 139.007 177Z" fill="#FED002"/>
<path d="M99.0325 148.976L100.866 147.581L95.4161 140.419L93.5824 141.814L99.0325 148.976ZM226.054 112.22L233.741 107.539C231.437 103.755 226.723 102.211 222.627 103.897C218.531 105.584 216.271 110 217.299 114.309L226.054 112.22ZM229.472 118.623L221.359 122.519C222.857 125.639 226.011 127.623 229.472 127.623V118.623ZM203.614 163.709L200.326 155.331C195.964 157.043 193.645 161.816 194.996 166.303C196.347 170.79 200.915 173.49 205.498 172.509L203.614 163.709ZM226.792 146.373L218.774 142.286L218.771 142.291L226.792 146.373ZM236.152 139.313L237.18 148.254L237.186 148.253L236.152 139.313ZM263.972 122.253L270.372 128.581L270.373 128.579L263.972 122.253ZM269.054 116.7L262.303 110.748L262.303 110.748L269.054 116.7ZM271.672 113.753L280.503 112.018C279.846 108.674 277.357 105.987 274.072 105.079C270.786 104.17 267.27 105.195 264.988 107.726L271.672 113.753ZM270.574 125.14L261.888 122.784L261.888 122.784L270.574 125.14ZM270.062 127.073L278.787 129.282L278.79 129.271L270.062 127.073ZM255.502 157.093L248.756 151.136L248.754 151.137L255.502 157.093ZM221.652 162.923L217.356 170.831C217.361 170.834 217.366 170.837 217.371 170.839L221.652 162.923ZM221.008 162.471L215.45 169.549L215.45 169.549L221.008 162.471ZM219.012 161.903L215.805 153.494C213.317 154.443 211.377 156.445 210.506 158.962C209.636 161.479 209.925 164.252 211.296 166.535L219.012 161.903ZM236.902 172.783L236.233 181.758L236.238 181.758L236.902 172.783ZM255.7 171.189L254.223 162.311L254.223 162.311L255.7 171.189ZM263.502 170.003L262.403 161.07L262.401 161.071L263.502 170.003ZM302.982 183.983L296.311 190.024L296.311 190.025L302.982 183.983ZM307.012 203.713L300.733 210.161C302.925 212.295 306.05 213.17 309.031 212.484C312.012 211.797 314.441 209.644 315.478 206.766L307.012 203.713ZM306.376 203.093L312.657 196.647L312.656 196.647L306.376 203.093ZM302.812 199.643L296.59 206.146L296.595 206.151L302.812 199.643ZM278.162 192.073L278.887 201.044L278.889 201.044L278.162 192.073ZM253.069 197.185L255.396 205.878L255.396 205.878L253.069 197.185ZM232.732 201.763L231.464 192.853L231.464 192.853L232.732 201.763ZM198.102 188.803L190.159 193.035C190.36 193.412 190.587 193.774 190.84 194.119L198.102 188.803ZM197.697 187.949L205.915 184.279L205.915 184.279L197.697 187.949ZM195.592 185.383L199.364 177.211C196.762 176.011 193.745 176.12 191.238 177.507C188.73 178.893 187.033 181.39 186.666 184.231L195.592 185.383ZM196.964 189.482L204.437 184.466L204.437 184.466L196.964 189.482ZM197.152 189.763L194.974 198.495C198.578 199.394 202.364 197.987 204.505 194.952C206.647 191.917 206.704 187.879 204.65 184.784L197.152 189.763ZM197.112 189.753L199.29 181.021C196.057 180.214 192.642 181.26 190.416 183.74C188.189 186.219 187.515 189.726 188.664 192.855L197.112 189.753ZM223.722 210.383L221.485 219.101L221.486 219.101L223.722 210.383ZM241.231 213.187L240.219 222.13L240.219 222.13L241.231 213.187ZM260.352 216.423L262.818 207.767L262.816 207.767L260.352 216.423ZM282.502 238.003L291.314 236.174C291.312 236.165 291.31 236.155 291.308 236.146L282.502 238.003ZM282.755 238.797L274.316 241.927L274.316 241.927L282.755 238.797ZM282.312 241.043L286.485 249.017L286.495 249.012L282.312 241.043ZM280.288 240.117L287.224 234.382L287.223 234.382L280.288 240.117ZM279.932 239.703L273.325 245.814C273.33 245.82 273.335 245.825 273.34 245.83L279.932 239.703ZM261.662 232.273L261.213 241.262L261.215 241.262L261.662 232.273ZM230.573 234.295L231.675 243.227L231.675 243.227L230.573 234.295ZM217.152 235.803L216.342 226.84L216.338 226.84L217.152 235.803ZM192.912 234.873L194.738 226.06L194.737 226.06L192.912 234.873ZM160.532 200.743L151.806 202.946L151.806 202.947L160.532 200.743ZM159.625 196.435L150.785 198.122L150.785 198.122L159.625 196.435ZM159.162 194.063L167.982 192.271C167.24 188.618 164.322 185.8 160.645 185.186C156.968 184.572 153.293 186.288 151.404 189.502L159.162 194.063ZM156.73 201.333L147.927 199.46L147.927 199.46L156.73 201.333ZM155.592 205.713L147.12 202.676L147.117 202.685L155.592 205.713ZM113.032 236.273L112.864 227.275L112.861 227.275L113.032 236.273ZM85.3417 234.126L86.4715 225.197L86.4715 225.197L85.3417 234.126ZM73.9821 232.783L73.0654 241.736L73.0729 241.737L73.9821 232.783ZM52.6221 232.503L53.3037 241.477C53.3085 241.477 53.3133 241.476 53.3182 241.476L52.6221 232.503ZM34.8121 243.293L25.8151 243.061C25.7123 247.046 28.2431 250.624 32.0347 251.854C35.8263 253.084 39.9754 251.673 42.2316 248.387L34.8121 243.293ZM56.9821 216.433L59.4095 225.099L59.4149 225.098L56.9821 216.433ZM76.9941 213.016L78.0407 221.955L78.0407 221.955L76.9941 213.016ZM88.7621 211.423L90.2893 220.292L90.2949 220.291L88.7621 211.423ZM118.652 193.993L126.212 198.877C126.216 198.87 126.221 198.863 126.225 198.856L118.652 193.993ZM119.605 191.915L128.023 195.101L128.023 195.101L119.605 191.915ZM120.032 190.843L112.014 186.754C111.934 186.911 111.859 187.07 111.789 187.231L120.032 190.843ZM120.563 189.937L128.196 194.705L128.196 194.705L120.563 189.937ZM121.142 185.573L129.232 181.628C127.743 178.575 124.661 176.62 121.264 176.574C117.866 176.528 114.733 178.399 113.162 181.412L121.142 185.573ZM118.972 189.723L126.005 195.338C126.364 194.89 126.678 194.408 126.945 193.899L118.972 189.723ZM75.1321 199.963L73.0264 208.713L73.0287 208.714L75.1321 199.963ZM64.9504 197.309L62.5987 205.996L62.5987 205.996L64.9504 197.309ZM38.0621 191.853L37.4046 200.829L37.4124 200.829L38.0621 191.853ZM13.4621 200.883L6.79932 194.833L6.78998 194.843L13.4621 200.883ZM12.8069 201.782L20.3217 206.735L20.3218 206.734L12.8069 201.782ZM10.6321 203.143L7.16595 211.449L7.17483 211.452L10.6321 203.143ZM9.10513 199.404L18.0674 198.581L18.0674 198.581L9.10513 199.404ZM9.0921 199.263L18.0537 198.432C18.0526 198.421 18.0516 198.409 18.0505 198.398L9.0921 199.263ZM15.6421 182.783L22.0834 189.069L22.0914 189.06L15.6421 182.783ZM54.1121 170.023L52.9796 178.951L52.9811 178.952L54.1121 170.023ZM61.7491 171.213L60.2361 180.085L60.2361 180.085L61.7491 171.213ZM81.1821 172.723L80.259 163.77L80.2577 163.771L81.1821 172.723ZM97.9721 162.853L94.3754 154.603C92.7115 155.328 91.3058 156.54 90.3429 158.079L97.9721 162.853ZM98.4736 162.567L104.786 168.982C107.167 166.639 108.055 163.169 107.091 159.971C106.127 156.772 103.471 154.37 100.192 153.732L98.4736 162.567ZM97.23 162.316L99.065 153.505C96.954 153.066 94.7553 153.399 92.8691 154.443L97.23 162.316ZM58.4621 152.533L65.8854 147.444L65.8829 147.441L58.4621 152.533ZM45.8421 113.683L52.5202 107.649C50.0675 104.935 46.2154 103.975 42.7757 105.221C39.3359 106.468 36.9931 109.673 36.8491 113.329L45.8421 113.683ZM47.485 115.507L40.7938 121.526L40.7938 121.526L47.485 115.507ZM64.4221 131.763L69.6243 124.419L69.6205 124.416L64.4221 131.763ZM86.8321 139.743L87.4585 148.721L87.4633 148.721L86.8321 139.743ZM90.9621 142.943L82.6773 146.459L82.681 146.468L90.9621 142.943ZM91.9211 145.01L83.8819 149.056C85.2744 151.823 87.9915 153.679 91.0749 153.97L91.9211 145.01ZM93.3433 145.154L94.2811 136.203L94.2811 136.203L93.3433 145.154ZM98.1412 144L106.153 139.9L106.153 139.9L98.1412 144ZM90.3209 118.493L99.2658 117.499C98.8149 113.442 95.69 110.196 91.653 109.592C87.616 108.988 83.6779 111.176 82.059 114.924L90.3209 118.493ZM89.8903 119.471L81.6652 115.818L81.6652 115.818L89.8903 119.471ZM89.4321 120.513L81.6937 125.108C83.4211 128.017 86.6337 129.712 90.0097 129.494C93.3858 129.277 96.3549 127.185 97.6954 124.079L89.4321 120.513ZM104.022 31.6329L110.344 38.0387L110.344 38.0385L104.022 31.6329ZM205.762 24.6329L211.197 17.4592L211.197 17.4591L205.762 24.6329ZM229.482 118.623V127.623C232.936 127.623 236.085 125.647 237.587 122.537L229.482 118.623ZM138.242 172.703V163.703C133.917 163.703 130.204 166.779 129.399 171.029L138.242 172.703ZM139.007 177L147.272 173.439L147.272 173.438L139.007 177ZM138.252 172.703L140.128 163.901C139.511 163.769 138.883 163.703 138.252 163.703V172.703ZM167.212 174.583L168.179 183.531L168.186 183.53L167.212 174.583ZM169.091 174.396L169.944 183.355L169.944 183.355L169.091 174.396ZM175.992 173.303L178.513 181.943L178.518 181.941L175.992 173.303ZM178.812 176.863L170.365 173.757C170.363 173.762 170.361 173.767 170.36 173.772L178.812 176.863ZM159.322 191.253L158.936 182.261L158.927 182.262L159.322 191.253ZM139.282 177.653L147.637 174.307C147.633 174.298 147.63 174.289 147.626 174.281L139.282 177.653ZM218.367 116.9C219.392 118.584 220.361 120.441 221.359 122.519L237.585 114.727C236.444 112.35 235.188 109.916 233.741 107.539L218.367 116.9ZM236 121C236 117.169 235.621 113.536 234.808 110.131L217.299 114.309C217.736 116.138 218 118.346 218 121H236ZM206.902 172.087C216.991 168.127 224.23 159.631 228.843 150.59C233.498 141.469 236 130.833 236 121H218C218 127.996 216.169 135.827 212.81 142.408C209.411 149.07 204.957 153.513 200.326 155.331L206.902 172.087ZM205.498 172.509C217.529 169.934 228.773 162.322 234.813 150.455L218.771 142.291C215.469 148.779 209.084 153.334 201.731 154.908L205.498 172.509ZM234.81 150.46C235.273 149.552 235.577 149.03 235.808 148.69C236.015 148.385 236.078 148.359 235.998 148.426C235.895 148.512 235.817 148.538 235.884 148.512C235.993 148.471 236.367 148.348 237.18 148.254L235.124 130.372C231.188 130.824 227.526 132.028 224.403 134.658C221.525 137.082 219.879 140.117 218.774 142.286L234.81 150.46ZM237.186 148.253C252.184 146.519 262.639 136.402 270.372 128.581L257.572 115.925C249.545 124.044 243.12 129.447 235.118 130.373L237.186 148.253ZM270.373 128.579C272.303 126.627 274.09 124.596 275.805 122.652L262.303 110.748C260.525 112.764 259.078 114.402 257.571 115.926L270.373 128.579ZM275.805 122.652C276.644 121.7 277.476 120.756 278.356 119.779L264.988 107.726C264.03 108.788 263.134 109.805 262.303 110.748L275.805 122.652ZM262.841 115.488C263.221 117.423 262.879 119.127 261.888 122.784L279.26 127.496C280.172 124.132 281.795 118.594 280.503 112.018L262.841 115.488ZM261.888 122.784C261.716 123.417 261.52 124.14 261.335 124.875L278.79 129.271C278.928 128.72 279.081 128.156 279.26 127.495L261.888 122.784ZM261.337 124.864C258.734 135.146 255.057 144 248.756 151.136L262.248 163.05C271.207 152.906 275.83 140.96 278.787 129.282L261.337 124.864ZM248.754 151.137C244.874 155.534 241.38 157.363 238.292 157.89C235.182 158.421 231.195 157.852 225.934 155.007L217.371 170.839C225.089 175.014 233.177 177.024 241.322 175.633C249.489 174.238 256.43 169.642 262.25 163.049L248.754 151.137ZM225.948 155.014C226.289 155.199 226.519 155.362 226.597 155.419C226.64 155.45 226.664 155.468 226.655 155.462C226.643 155.453 226.626 155.439 226.567 155.393L215.45 169.549C215.534 169.616 216.347 170.283 217.356 170.831L225.948 155.014ZM226.567 155.393C226.498 155.339 225.19 154.228 223.441 153.534C221.173 152.634 218.481 152.473 215.805 153.494L222.219 170.312C221.442 170.609 220.495 170.81 219.437 170.79C218.385 170.77 217.488 170.537 216.8 170.264C215.695 169.825 214.956 169.162 215.45 169.549L226.567 155.393ZM211.296 166.535C216.885 175.846 225.826 180.982 236.233 181.758L237.572 163.808C232.698 163.444 229.159 161.32 226.729 157.271L211.296 166.535ZM236.238 181.758C243.87 182.323 251.142 181.071 257.178 180.067L254.223 162.311C247.844 163.372 242.694 164.187 237.567 163.808L236.238 181.758ZM257.178 180.067C259.806 179.629 262.216 179.23 264.603 178.935L262.401 161.071C259.573 161.419 256.789 161.884 254.223 162.311L257.178 180.067ZM264.601 178.936C277.577 177.34 287.863 180.695 296.311 190.024L309.653 177.942C296.821 163.771 280.487 158.846 262.403 161.07L264.601 178.936ZM296.311 190.025C298.202 192.112 298.953 193.754 299.228 195.074C299.498 196.369 299.467 198.105 298.546 200.66L315.478 206.766C317.287 201.751 317.931 196.592 316.849 191.4C315.772 186.232 313.143 181.794 309.653 177.941L296.311 190.025ZM313.291 197.265C313.076 197.056 312.865 196.85 312.657 196.647L300.095 209.539C300.303 209.742 300.516 209.95 300.733 210.161L313.291 197.265ZM312.656 196.647C311.393 195.416 310.217 194.271 309.029 193.135L296.595 206.151C297.709 207.214 298.82 208.297 300.095 209.54L312.656 196.647ZM309.034 193.14C299.632 184.144 288.424 182.212 277.435 183.102L278.889 201.044C286.661 200.414 292.092 201.842 296.59 206.146L309.034 193.14ZM277.437 183.102C267.895 183.873 258.863 186.316 250.741 188.491L255.396 205.878C263.775 203.635 271.24 201.662 278.887 201.044L277.437 183.102ZM250.741 188.491C243.94 190.312 237.744 191.959 231.464 192.853L234 210.673C241.531 209.602 248.768 207.653 255.396 205.878L250.741 188.491ZM231.464 192.853C225.34 193.725 220.387 193.394 216.326 191.992C212.393 190.634 208.726 188.08 205.365 183.487L190.84 194.119C196.188 201.426 202.776 206.357 210.451 209.006C217.998 211.612 226.005 211.811 234 210.673L231.464 192.853ZM206.045 184.571C206.069 184.615 206.072 184.624 206.047 184.571C206.035 184.545 206.019 184.511 205.996 184.461C205.973 184.41 205.949 184.355 205.915 184.279L189.479 191.619C189.586 191.858 189.84 192.436 190.159 193.035L206.045 184.571ZM205.915 184.279C205.584 183.538 204 179.351 199.364 177.211L191.821 193.555C191.357 193.341 190.904 193.051 190.493 192.697C190.088 192.348 189.799 192.002 189.608 191.734C189.426 191.479 189.334 191.298 189.327 191.283C189.322 191.274 189.33 191.289 189.357 191.348C189.387 191.413 189.42 191.486 189.479 191.619L205.915 184.279ZM186.666 184.231C185.96 189.7 188.843 193.532 189.492 194.499L204.437 184.466C204.217 184.138 204.146 184.029 204.098 183.95C204.065 183.895 204.133 184 204.222 184.217C204.318 184.45 204.434 184.8 204.501 185.244C204.569 185.696 204.569 186.137 204.518 186.535L186.666 184.231ZM189.492 194.498C189.557 194.595 189.607 194.67 189.654 194.741L204.65 184.784C204.573 184.669 204.498 184.557 204.437 184.466L189.492 194.498ZM199.33 181.03L199.29 181.021L194.934 198.485L194.974 198.495L199.33 181.03ZM188.664 192.855C194.756 209.45 208.714 215.823 221.485 219.101L225.959 201.665C215.27 198.922 208.588 194.896 205.561 186.651L188.664 192.855ZM221.486 219.101C227.93 220.753 234.437 221.475 240.219 222.13L242.243 204.244C236.252 203.566 230.992 202.956 225.958 201.665L221.486 219.101ZM240.219 222.13C246.773 222.871 252.466 223.536 257.888 225.079L262.816 207.767C255.728 205.749 248.551 204.958 242.243 204.244L240.219 222.13ZM257.887 225.079C262.661 226.439 266.16 228.261 268.626 230.512C270.975 232.656 272.785 235.543 273.696 239.86L291.308 236.146C289.659 228.323 286.029 222.025 280.761 217.217C275.609 212.515 269.313 209.617 262.818 207.767L257.887 225.079ZM273.69 239.832C273.907 240.878 274.272 241.806 274.316 241.927L291.193 235.668C291.166 235.594 291.154 235.563 291.146 235.539C291.138 235.519 291.143 235.532 291.154 235.565C291.172 235.619 291.246 235.844 291.314 236.174L273.69 239.832ZM274.316 241.927C274.422 242.211 274.354 242.045 274.287 241.803C274.217 241.547 274.013 240.749 274.058 239.651C274.109 238.423 274.471 236.936 275.42 235.532C276.326 234.191 277.418 233.447 278.13 233.074L286.495 249.012C287.74 248.358 289.193 247.298 290.331 245.615C291.512 243.869 291.976 242.012 292.043 240.397C292.104 238.913 291.829 237.711 291.646 237.043C291.467 236.389 291.243 235.802 291.193 235.667L274.316 241.927ZM278.139 233.069C279.201 232.513 280.651 232.09 282.335 232.208C283.964 232.323 285.202 232.902 285.964 233.381C286.677 233.829 287.106 234.271 287.222 234.392C287.335 234.511 287.4 234.595 287.224 234.382L273.352 245.853C273.369 245.874 274.592 247.494 276.39 248.623C277.48 249.308 279.065 250.023 281.071 250.164C283.13 250.309 284.984 249.803 286.485 249.017L278.139 233.069ZM287.223 234.382C287.14 234.28 286.852 233.928 286.524 233.576L273.34 245.83C273.307 245.795 273.283 245.768 273.27 245.753C273.257 245.738 273.25 245.731 273.253 245.734C273.255 245.736 273.258 245.739 273.262 245.745C273.267 245.751 273.274 245.758 273.282 245.769C273.291 245.779 273.301 245.791 273.312 245.805C273.325 245.819 273.337 245.835 273.352 245.853L287.223 234.382ZM286.539 233.592C279.38 225.851 270.36 223.695 262.11 223.284L261.215 241.262C267.024 241.551 270.625 242.895 273.325 245.814L286.539 233.592ZM262.112 223.284C250.741 222.716 239.656 224.106 229.471 225.362L231.675 243.227C242.114 241.939 251.655 240.784 261.213 241.262L262.112 223.284ZM229.471 225.362C224.976 225.917 220.653 226.45 216.342 226.84L217.963 244.766C222.614 244.346 227.23 243.776 231.675 243.227L229.471 225.362ZM216.338 226.84C208.703 227.533 201.581 227.478 194.738 226.06L191.086 243.686C200.263 245.588 209.301 245.553 217.966 244.766L216.338 226.84ZM194.737 226.06C187.172 224.494 181.939 221.249 178.096 216.916C174.139 212.457 171.233 206.359 169.258 198.539L151.806 202.947C154.231 212.547 158.17 221.579 164.631 228.862C171.205 236.272 179.962 241.382 191.087 243.686L194.737 226.06ZM169.258 198.54C168.986 197.462 168.767 196.326 168.465 194.747L150.785 198.122C151.067 199.6 151.382 201.266 151.806 202.946L169.258 198.54ZM168.465 194.747C168.322 193.998 168.163 193.161 167.982 192.271L150.342 195.855C150.499 196.625 150.639 197.361 150.785 198.122L168.465 194.747ZM151.404 189.502C149.168 193.303 148.409 197.196 147.927 199.46L165.533 203.206C166.085 200.612 166.382 199.541 166.921 198.624L151.404 189.502ZM147.927 199.46C147.587 201.057 147.387 201.93 147.12 202.676L164.064 208.75C164.81 206.67 165.237 204.596 165.533 203.206L147.927 199.46ZM147.117 202.685C143.861 211.798 139.615 217.603 134.514 221.263C129.411 224.925 122.545 227.093 112.864 227.275L113.201 245.271C125.419 245.043 136.149 242.245 145.008 235.887C153.87 229.528 159.953 220.258 164.068 208.741L147.117 202.685ZM112.861 227.275C104.301 227.437 95.7624 226.372 86.4715 225.197L84.2119 243.054C93.2903 244.203 103.122 245.463 113.203 245.271L112.861 227.275ZM86.4715 225.197C82.7065 224.72 78.8129 224.227 74.8913 223.829L73.0729 241.737C76.7368 242.109 80.41 242.573 84.2119 243.054L86.4715 225.197ZM74.8988 223.83C67.2452 223.046 59.5654 222.937 51.926 223.53L53.3182 241.476C59.8588 240.969 66.459 241.06 73.0654 241.736L74.8988 223.83ZM51.9405 223.529C41.9188 224.29 33.5316 229.257 27.3926 238.199L42.2316 248.387C45.5126 243.608 49.1054 241.796 53.3037 241.477L51.9405 223.529ZM43.8091 243.525C43.945 238.257 45.4422 234.565 47.6974 231.872C50.0092 229.111 53.7137 226.695 59.4095 225.099L54.5547 207.766C46.2905 210.081 39.09 214.114 33.8969 220.316C28.647 226.586 26.0392 234.369 25.8151 243.061L43.8091 243.525ZM59.4149 225.098C65.1818 223.479 71.1998 222.756 78.0407 221.955L75.9475 204.077C69.3383 204.851 61.9062 205.702 54.5493 207.768L59.4149 225.098ZM78.0407 221.955C81.9339 221.499 86.1091 221.012 90.2893 220.292L87.2349 202.553C83.6133 203.177 79.9214 203.612 75.9474 204.077L78.0407 221.955ZM90.2949 220.291C103.65 217.983 117.267 212.722 126.212 198.877L111.093 189.109C106.017 196.964 98.174 200.663 87.2293 202.554L90.2949 220.291ZM126.225 198.856C127.23 197.29 127.813 195.655 128.023 195.101L111.188 188.73C111.116 188.919 111.068 189.046 111.022 189.163C110.978 189.275 110.951 189.339 110.935 189.376C110.9 189.457 110.944 189.34 111.079 189.13L126.225 198.856ZM128.023 195.101C128.174 194.702 128.23 194.558 128.276 194.455L111.789 187.231C111.527 187.828 111.311 188.406 111.188 188.73L128.023 195.101ZM128.05 194.931C128.01 195.01 127.99 195.04 128.018 194.994C128.031 194.972 128.05 194.94 128.081 194.891C128.112 194.839 128.147 194.784 128.196 194.705L112.93 185.168C112.781 185.408 112.379 186.04 112.014 186.754L128.05 194.931ZM128.196 194.705C128.437 194.319 129.664 192.498 130.232 190.147C130.921 187.3 130.568 184.37 129.232 181.628L113.053 189.517C112.902 189.208 112.7 188.675 112.615 187.955C112.528 187.219 112.591 186.518 112.736 185.917C112.872 185.356 113.054 184.989 113.108 184.885C113.14 184.824 113.148 184.82 112.93 185.169L128.196 194.705ZM113.162 181.412C112.316 183.034 111.66 184.287 111 185.547L126.945 193.899C127.605 192.639 128.268 191.372 129.122 189.734L113.162 181.412ZM111.939 184.108C107.394 189.8 102.534 192.192 97.2952 193.028C91.6549 193.928 85.0757 193.097 77.2355 191.212L73.0287 208.714C81.5385 210.759 90.9193 212.273 100.132 210.803C109.745 209.269 118.63 204.576 126.005 195.338L111.939 184.108ZM77.2378 191.213C73.9759 190.428 70.7108 189.545 67.3021 188.622L62.5987 205.996C65.9662 206.908 69.4763 207.859 73.0264 208.713L77.2378 191.213ZM67.3021 188.622C58.5948 186.265 48.9105 183.615 38.7119 182.876L37.4124 200.829C45.5946 201.422 53.6115 203.564 62.5987 205.996L67.3021 188.622ZM38.7196 182.877C27.2018 182.033 15.6848 185.048 6.79933 194.833L20.1249 206.933C24.4794 202.138 30.0824 200.293 37.4046 200.829L38.7196 182.877ZM6.78998 194.843C6.0068 195.708 5.40835 196.653 5.29214 196.829L20.3218 206.734C20.3786 206.648 20.4106 206.6 20.439 206.558C20.4653 206.518 20.4716 206.51 20.465 206.519C20.4582 206.529 20.4279 206.571 20.3778 206.635C20.3279 206.699 20.2462 206.799 20.1342 206.923L6.78998 194.843ZM5.29215 196.829C5.11378 197.1 5.13226 197.066 5.19076 196.989C5.24792 196.913 5.58116 196.472 6.18701 195.977C6.83037 195.452 7.98436 194.702 9.63156 194.389C11.3621 194.06 12.9229 194.348 14.0894 194.833L7.17483 211.452C8.84273 212.146 10.8534 212.479 12.9949 212.072C15.053 211.68 16.5789 210.73 17.5679 209.923C19.2006 208.59 20.2622 206.825 20.3217 206.735L5.29215 196.829ZM14.0983 194.837C17.0722 196.078 17.9306 198.569 18.06 198.989C18.1478 199.274 18.1583 199.416 18.1405 199.288C18.1222 199.158 18.1047 198.987 18.0674 198.581L0.142884 200.228C0.190303 200.744 0.318537 202.536 0.856315 204.284C1.40751 206.075 2.96138 209.694 7.16595 211.449L14.0983 194.837ZM18.0674 198.581C18.0631 198.534 18.0584 198.483 18.0537 198.432L0.130531 200.094C0.134473 200.136 0.13846 200.18 0.142887 200.228L18.0674 198.581ZM18.0505 198.398C17.742 195.203 18.851 192.381 22.0834 189.069L9.20076 176.497C3.55318 182.285 -0.83778 190.063 0.133744 200.128L18.0505 198.398ZM22.0914 189.06C30.4781 180.444 40.535 177.373 52.9796 178.951L55.2446 161.094C37.8892 158.893 21.9861 163.362 9.19277 176.506L22.0914 189.06ZM52.9811 178.952C55.3101 179.247 57.6618 179.646 60.2361 180.085L63.2621 162.341C60.752 161.913 58.0194 161.446 55.2431 161.094L52.9811 178.952ZM60.2361 180.085C66.4599 181.147 74.0922 182.503 82.1065 181.675L80.2577 163.771C75.0907 164.304 69.8804 163.47 63.2621 162.341L60.2361 180.085ZM82.1052 181.675C91.3647 180.721 99.9654 176.633 105.601 167.627L90.3429 158.079C88.2188 161.473 85.1595 163.265 80.259 163.77L82.1052 181.675ZM101.569 171.103C101.618 171.082 102.034 170.905 102.486 170.664C102.903 170.44 103.84 169.912 104.786 168.982L92.161 156.152C92.6017 155.718 93.0099 155.412 93.3012 155.214C93.5963 155.012 93.8456 154.872 94.0051 154.786C94.2814 154.639 94.5078 154.545 94.3754 154.603L101.569 171.103ZM95.3949 171.127C95.8456 171.221 96.2993 171.312 96.7549 171.401L100.192 153.732C99.8107 153.658 99.4347 153.582 99.065 153.505L95.3949 171.127ZM92.8691 154.443C86.0767 158.206 81.2555 158.465 77.7116 157.446C73.9869 156.375 69.9706 153.404 65.8854 147.444L51.0388 157.622C56.5181 165.615 63.6082 172.12 72.7375 174.745C82.0476 177.422 91.8281 175.597 101.591 170.189L92.8691 154.443ZM65.8829 147.441C62.9259 143.132 60.0018 136.914 57.8749 130.411C55.7145 123.806 54.6849 117.849 54.8351 114.037L36.8491 113.329C36.5793 120.177 38.2947 128.449 40.7668 136.007C43.2724 143.667 46.8683 151.544 51.0413 157.625L65.8829 147.441ZM39.164 119.716C39.707 120.317 40.2476 120.918 40.7938 121.526L54.1762 109.488C53.6321 108.883 53.0785 108.267 52.5202 107.649L39.164 119.716ZM40.7938 121.526C46.0593 127.379 51.899 133.927 59.2237 139.11L69.6205 124.416C64.214 120.591 59.6808 115.607 54.1762 109.488L40.7938 121.526ZM59.2199 139.107C66.3564 144.162 75.6297 149.546 87.4585 148.721L86.2057 130.765C80.8345 131.14 75.9278 128.884 69.6243 124.419L59.2199 139.107ZM87.4633 148.721C87.3235 148.731 86.7123 148.757 85.8554 148.501C84.9165 148.22 84.0562 147.711 83.374 147.071C82.7654 146.5 82.4837 145.998 82.4432 145.925C82.4181 145.88 82.4652 145.959 82.6773 146.459L99.2469 139.427C98.929 138.678 97.8963 136.014 95.6877 133.942C92.7985 131.232 89.2779 130.549 86.2009 130.765L87.4633 148.721ZM82.681 146.468C83.0554 147.347 83.4562 148.21 83.8819 149.056L99.9603 140.964C99.7058 140.458 99.4665 139.943 99.2432 139.418L82.681 146.468ZM94.2811 136.203C93.8259 136.155 93.3038 136.101 92.7673 136.05L91.0749 153.97C91.505 154.011 91.9364 154.056 92.4055 154.105L94.2811 136.203ZM90.1293 148.1C89.8742 147.601 88.0208 143.672 90.9502 139.659C92.1664 137.993 93.6508 137.217 94.4823 136.881C95.3133 136.544 95.9622 136.453 96.184 136.426C96.5978 136.375 96.7035 136.417 96.1615 136.381C95.6985 136.35 95.1272 136.292 94.2811 136.203L92.4054 154.105C93.4881 154.219 96.1841 154.56 98.3703 154.293C99.0862 154.205 102.928 153.78 105.488 150.273C108.733 145.828 106.856 141.274 106.153 139.9L90.1293 148.1ZM81.376 119.487C82.399 128.691 85.4795 139.014 90.1293 148.1L106.153 139.9C102.46 132.683 100.039 124.459 99.2658 117.499L81.376 119.487ZM98.1154 123.125C98.2582 122.803 98.4214 122.436 98.5828 122.063L82.059 114.924C81.9401 115.199 81.8145 115.482 81.6652 115.818L98.1154 123.125ZM97.6954 124.079C97.8259 123.777 97.9604 123.474 98.1155 123.125L81.6652 115.818C81.5161 116.154 81.3431 116.543 81.1688 116.947L97.6954 124.079ZM97.7002 25.2272C67.9868 54.5514 66.107 98.8612 81.6937 125.108L97.1705 115.918C85.7372 96.6647 86.6174 61.4545 110.344 38.0387L97.7002 25.2272ZM211.197 17.4591C176.899 -8.52372 128.486 -5.15752 97.7 25.2274L110.344 38.0385C134.838 13.8634 173.245 11.2896 200.327 31.8068L211.197 17.4591ZM237.587 122.537C253.291 90.0165 246.714 44.3673 211.197 17.4592L200.327 31.8066C228.51 53.1586 233.634 89.3294 221.378 114.709L237.587 122.537ZM229.472 127.623H229.482V109.623H229.472V127.623ZM129.399 171.029C128.505 175.75 130.221 179.355 130.741 180.562L147.272 173.438C147.125 173.097 147.07 172.967 147.031 172.863C147.001 172.783 147.025 172.834 147.057 172.969C147.091 173.115 147.13 173.337 147.14 173.611C147.15 173.889 147.128 174.15 147.085 174.377L129.399 171.029ZM138.252 163.703H138.242V181.703H138.252V163.703ZM166.246 165.635C157.704 166.558 149.07 165.806 140.128 163.901L136.376 181.505C146.674 183.7 157.28 184.708 168.179 183.531L166.246 165.635ZM168.238 165.436C167.619 165.495 166.932 165.56 166.238 165.636L168.186 183.53C168.739 183.47 169.306 183.416 169.944 183.355L168.238 165.436ZM173.471 164.663C172.216 165.029 170.732 165.198 168.238 165.436L169.944 183.355C172.121 183.148 175.339 182.869 178.513 181.943L173.471 164.663ZM187.259 179.969C187.501 179.311 187.931 178.15 188.21 176.972C188.402 176.162 189.095 173.264 187.828 170.129C187.071 168.254 185.727 166.578 183.861 165.427C182.134 164.362 180.419 164.025 179.197 163.926C176.953 163.746 174.86 164.257 173.466 164.665L178.518 181.941C179.364 181.694 178.877 181.959 177.75 181.868C177.085 181.815 175.805 181.607 174.409 180.746C172.874 179.799 171.757 178.402 171.139 176.872C170.586 175.503 170.558 174.351 170.577 173.802C170.596 173.233 170.685 172.866 170.696 172.818C170.704 172.785 170.658 172.96 170.365 173.757L187.259 179.969ZM159.709 200.245C172.266 199.705 182.994 191.631 187.265 179.954L170.36 173.772C168.53 178.775 164.058 182.041 158.936 182.261L159.709 200.245ZM130.927 180.999C135.481 192.369 147.374 200.787 159.717 200.244L158.927 182.262C154.89 182.439 149.604 179.217 147.637 174.307L130.927 180.999ZM130.741 180.562C130.842 180.796 130.895 180.919 130.938 181.025L147.626 174.281C147.494 173.952 147.359 173.641 147.272 173.439L130.741 180.562Z" fill="black" mask="url(#path-5-outside-1_3_2181)"/>
<circle cx="122" cy="129" r="31" fill="white" stroke="black" stroke-width="8"/>
<circle cx="199" cy="129" r="31" fill="white" stroke="black" stroke-width="8"/>
<rect x="150" y="115" width="19" height="6" fill="black"/>
<circle cx="129" cy="127" r="12" fill="black"/>
<circle cx="132.5" cy="121.5" r="3.5" fill="white"/>
<circle cx="190" cy="127" r="12" fill="black"/>
<circle cx="193.5" cy="121.5" r="3.5" fill="white"/>
<path d="M200.2 69.77C193.57 69.75 189.3 65.32 189.39 58.57C189.48 52.28 193.94 47.91 200.3 47.89C207.02 47.86 211.3 52.16 211.3 58.93C211.3 65.68 207.09 69.8 200.2 69.77Z" fill="#0BA6E3"/>
<path d="M222.25 75.76C222.33 80.24 219.47 83.17 214.94 83.24C210.38 83.31 207.4 80.49 207.32 76.03C207.24 71.39 209.85 68.81 214.66 68.77C219.62 68.73 222.17 71.08 222.25 75.75V75.76Z" fill="#0BA6E3"/>
<path d="M196.82 79.31C200.12 79.34 201.44 80.74 201.4 83.88C201.36 86.96 199.8 87.89 197.12 87.9C194.27 87.9 192.38 86.9 192.37 83.67C192.35 80.43 194.33 79.47 196.82 79.3V79.31Z" fill="#0BA6E3"/>
</svg>
