<?xml version="1.0" encoding="UTF-8"?>
<svg xmlns="http://www.w3.org/2000/svg" viewBox="0 0 43.2 48">
  <defs>
    <style>
      .cls-1 {
        mix-blend-mode: multiply;
        opacity: .12;
      }

      .cls-2 {
        isolation: isolate;
      }

      .cls-3 {
        fill: #ef3f23;
      }

      .cls-4 {
        fill: #fff;
      }
    </style>
  </defs>
  <g class="cls-2">
    <g id="Layer_2" data-name="Layer 2">
      <g id="Game_Play" data-name="Game Play">
        <g>
          <g class="cls-1">
            <polygon points="40.8 12 38.4 12 38.4 9.6 36 9.6 36 7.2 33.6 7.2 31.2 7.2 28.8 7.2 26.4 7.2 26.4 9.6 24 9.6 24 12 21.6 12 19.2 12 19.2 9.6 16.8 9.6 16.8 7.2 14.4 7.2 12 7.2 9.6 7.2 7.2 7.2 7.2 9.6 4.8 9.6 4.8 12 2.4 12 2.4 14.4 0 14.4 0 16.8 0 19.2 0 21.6 0 24 0 26.4 0 28.8 2.4 28.8 2.4 31.2 4.8 31.2 4.8 33.6 7.2 33.6 7.2 36 9.6 36 9.6 38.4 12 38.4 12 40.8 14.4 40.8 14.4 43.2 16.8 43.2 16.8 45.6 19.2 45.6 19.2 48 21.6 48 24 48 24 45.6 26.4 45.6 26.4 43.2 28.8 43.2 28.8 40.8 31.2 40.8 31.2 38.4 33.6 38.4 33.6 36 36 36 36 33.6 38.4 33.6 38.4 31.2 40.8 31.2 40.8 28.8 43.2 28.8 43.2 26.4 43.2 24 43.2 21.6 43.2 19.2 43.2 16.8 43.2 14.4 40.8 14.4 40.8 12"/>
          </g>
          <g>
            <polygon class="cls-3" points="40.8 7.2 40.8 4.8 38.4 4.8 38.4 2.4 36 2.4 36 0 33.6 0 31.2 0 28.8 0 26.4 0 26.4 2.4 24 2.4 24 4.8 21.6 4.8 19.2 4.8 19.2 2.4 16.8 2.4 16.8 0 14.4 0 12 0 9.6 0 7.2 0 7.2 2.4 4.8 2.4 4.8 4.8 2.4 4.8 2.4 7.2 0 7.2 0 9.6 0 12 0 14.4 0 16.8 0 19.2 0 21.6 2.4 21.6 2.4 24 4.8 24 4.8 26.4 7.2 26.4 7.2 28.8 9.6 28.8 9.6 31.2 12 31.2 12 33.6 14.4 33.6 14.4 36 16.8 36 16.8 38.4 19.2 38.4 19.2 40.8 21.6 40.8 24 40.8 24 38.4 26.4 38.4 26.4 36 28.8 36 28.8 33.6 31.2 33.6 31.2 31.2 33.6 31.2 33.6 28.8 36 28.8 36 26.4 38.4 26.4 38.4 24 40.8 24 40.8 21.6 43.2 21.6 43.2 19.2 43.2 16.8 43.2 14.4 43.2 12 43.2 9.6 43.2 7.2 40.8 7.2"/>
            <polygon class="cls-4" points="12 7.2 12 9.6 9.6 9.6 9.6 12 7.2 12 7.2 14.4 9.6 14.4 12 14.4 14.4 14.4 14.4 12 14.4 9.6 14.4 7.2 12 7.2"/>
          </g>
        </g>
      </g>
    </g>
  </g>
</svg>