<svg width="197" height="186" viewBox="0 0 197 186" fill="none" xmlns="http://www.w3.org/2000/svg">
<g clip-path="url(#clip0_103_8138)">
<path d="M186.056 32.8235V21.8824H175.111V10.9412H164.167V0H153.222H142.278H131.333H120.389V10.9412H109.444V21.8824H98.5H87.5556V10.9412H76.6111V0H65.6667H54.7222H43.7778H32.8333V10.9412H21.8889V21.8824H10.9444V32.8235H0V43.7647V54.7059V65.6471V76.5882V87.5294V98.4706H10.9444V109.412H21.8889V120.353H32.8333V131.294H43.7778V142.235H54.7222V153.176H65.6667V164.118H76.6111V175.059H87.5556V186H98.5H109.444V175.059H120.389V164.118H131.333V153.176H142.278V142.235H153.222V131.294H164.167V120.353H175.111V109.412H186.056V98.4706H197V87.5294V76.5882V65.6471V54.7059V43.7647V32.8235H186.056Z" fill="#EF3F23"/>
<path d="M54.7222 32.8235V43.7647H43.7778V54.7058H32.8333V65.647H43.7778H54.7222H65.6667V54.7058V43.7647V32.8235H54.7222Z" fill="white"/>
</g>
<defs>
<clipPath id="clip0_103_8138">
<rect width="197" height="186" fill="white"/>
</clipPath>
</defs>
</svg>
