<svg width="491" height="537" viewBox="0 0 491 537" fill="none" xmlns="http://www.w3.org/2000/svg">
<g clip-path="url(#clip0_99_7024)">
<mask id="mask0_99_7024" style="mask-type:luminance" maskUnits="userSpaceOnUse" x="0" y="15" width="491" height="522">
<path d="M490.67 15.52H0V536.85H490.67V15.52Z" fill="white"/>
</mask>
<g mask="url(#mask0_99_7024)">
<g style="mix-blend-mode:multiply" opacity="0.12">
<path fill-rule="evenodd" clip-rule="evenodd" d="M441.76 264.59C411.26 247.58 385.36 250.83 364.23 257.86C376.92 227.6 376.13 189.36 372.44 170.45C371.01 163.14 365 157.59 357.6 156.76C350.2 155.92 343.1 160 340.08 166.81C335.05 178.18 319.22 210.53 298.92 219.44C305.89 194.63 306.74 167.75 300.08 141.01C279.58 58.8098 196.03 8.6098 113.84 29.0998C31.64 49.5898 -18.56 133.14 1.93997 215.34C8.60997 242.09 21.98 265.41 39.78 284.05C17.67 285.72 -11.49 264.58 -21.27 256.91C-27.13 252.31 -35.31 252.04 -41.46 256.26C-47.61 260.47 -50.31 268.19 -48.14 275.32C-42.52 293.74 -25.27 327.88 0.149971 348.64C-21.8 352.35 -46.2 361.65 -65.14 390.98C-79.38 413.05 -79.08 436.91 -64.37 453.23C-60.38 457.66 -54.37 459.68 -48.51 458.57C-42.66 457.45 -37.8 453.37 -35.71 447.79C-27.43 425.72 -7.60003 423.12 32.14 423.68C4.58998 437.46 -20.69 459.86 -10.78 505.09C-9.01003 513.17 -1.69003 518.83 6.57997 518.49C7.76997 518.44 8.91997 518.28 10.03 518C16.69 516.34 21.85 510.77 22.8 503.74C25.14 486.59 45.09 482.51 86.88 477.8C130.05 472.95 191.08 466.03 208.51 408.84C250.75 451.15 307.89 428.61 348.28 412.63C387.4 397.17 406.92 391.41 417.04 405.45C421.19 411.2 428.35 413.7 435.01 412.04C436.12 411.76 437.22 411.37 438.29 410.85C445.75 407.26 449.55 398.84 447.32 390.87C434.83 346.28 402 338.37 371.2 339.14C406.02 319.98 424.75 312.97 442.43 328.57C446.9 332.51 453.1 333.83 458.8 332.08C464.49 330.31 468.85 325.7 470.29 319.92C475.62 298.6 464.68 277.4 441.74 264.59H441.76Z" fill="black"/>
</g>
</g>
<mask id="mask1_99_7024" style="mask-type:luminance" maskUnits="userSpaceOnUse" x="0" y="0" width="491" height="500">
<path d="M490.67 0H0V500H490.67V0Z" fill="white"/>
</mask>
<g mask="url(#mask1_99_7024)">
<path d="M418.95 243.54C388.45 226.53 362.55 229.78 341.42 236.81C354.11 206.55 353.32 168.31 349.63 149.4C348.2 142.09 342.19 136.54 334.79 135.71C327.39 134.87 320.29 138.95 317.27 145.76C312.24 157.13 296.41 189.48 276.11 198.39C283.08 173.58 283.93 146.7 277.27 119.96C256.77 37.7499 173.22 -12.4501 91.03 8.04994C8.83005 28.5399 -41.37 112.09 -20.87 194.28C-14.2 221.03 -0.829967 244.35 16.97 262.99C-5.13997 264.66 -34.3 243.52 -44.08 235.85C-49.94 231.25 -58.12 230.98 -64.27 235.2C-70.42 239.41 -73.12 247.13 -70.95 254.26C-65.33 272.68 -48.08 306.82 -22.66 327.58C-44.61 331.29 -69.01 340.59 -87.95 369.92C-102.19 391.99 -101.89 415.85 -87.18 432.17C-83.19 436.6 -77.18 438.62 -71.32 437.51C-65.47 436.39 -60.61 432.31 -58.52 426.73C-50.24 404.66 -30.41 402.06 9.33003 402.62C-18.22 416.4 -43.5 438.8 -33.59 484.03C-31.82 492.11 -24.5 497.77 -16.23 497.43C-15.04 497.38 -13.89 497.22 -12.78 496.94C-6.11997 495.28 -0.959972 489.71 -0.00997162 482.68C2.33003 465.53 22.28 461.45 64.07 456.74C107.24 451.89 168.27 444.97 185.7 387.78C227.94 430.09 285.08 407.55 325.47 391.57C364.59 376.11 384.11 370.35 394.23 384.39C398.38 390.14 405.54 392.64 412.2 390.98C413.31 390.7 414.41 390.31 415.48 389.79C422.94 386.2 426.74 377.78 424.51 369.81C412.02 325.22 379.19 317.31 348.39 318.08C383.21 298.92 401.94 291.91 419.62 307.51C424.09 311.45 430.29 312.77 435.99 311.02C441.68 309.25 446.04 304.64 447.48 298.86C452.81 277.54 441.87 256.34 418.93 243.53L418.95 243.54Z" fill="#1E2336"/>
<path d="M410.49 259.02C342.43 221.07 307.29 303.55 258.26 257.37C331.69 286.76 340 190.45 332.74 153.23C320.37 181.18 295.29 222.99 259.97 217.92C257.27 217.56 254.4 216.98 251.42 216.25C264.53 188.68 268.52 156.58 260.56 124.65C242.32 51.4698 168.2 6.93985 95.02 25.1798C21.84 43.4298 -22.69 117.54 -4.44996 190.72C3.51004 222.65 22.11 249.12 46.62 267.31C44.33 269.36 42.07 271.21 39.86 272.8C11.05 293.86 -30.72 268.72 -54.76 249.85C-43.69 286.12 8.86005 367.26 59.89 306.83C38.27 370.62 -31.48 314.29 -73.75 379.75C-83.53 394.91 -84.22 410.69 -74.64 421.32C-45.34 343.19 89.68 435.56 107.98 333.01C108.52 362.94 98.18 375.92 81.27 389.1C50.76 413.76 -31.71 414.08 -17.05 480.97C-4.45996 405.27 188.91 488.59 172.38 335.45C229.68 478.43 361.3 314.08 407.95 375.01C389.49 309.07 316.52 347.51 278.01 340.05C256.88 336.35 241.67 329.74 228.09 303.06C292.4 385.02 368.25 240.07 430.8 295.3C434.27 281.43 426.25 267.82 410.5 259.02H410.49Z" fill="#FFD109"/>
<path fill-rule="evenodd" clip-rule="evenodd" d="M107.98 333C89.68 435.56 -45.34 343.18 -74.64 421.31C-69.66 344.04 59.05 414.58 107.98 333Z" fill="#F99F1D"/>
<path fill-rule="evenodd" clip-rule="evenodd" d="M228.09 303.06C292.4 385.02 368.25 240.07 430.8 295.3C390.13 229.41 309.6 352.12 228.09 303.06Z" fill="#F99F1D"/>
<path d="M59.89 306.83C13.42 334.6 -23.6 310.01 -54.76 249.85C-43.69 286.12 8.86 367.25 59.89 306.83Z" fill="#F99F1D"/>
<path d="M258.26 257.37C312.33 260.07 333.47 220.99 332.74 153.23C340 190.45 331.68 286.76 258.26 257.37Z" fill="#F99F1D"/>
<path fill-rule="evenodd" clip-rule="evenodd" d="M172.38 335.45C239.26 440.48 365.66 301.43 407.95 375C361.31 314.07 229.4 478.49 172.38 335.45Z" fill="#F99F1D"/>
<path d="M69.72 337.68C74.9556 337.68 79.2 333.435 79.2 328.2C79.2 322.964 74.9556 318.72 69.72 318.72C64.4843 318.72 60.24 322.964 60.24 328.2C60.24 333.435 64.4843 337.68 69.72 337.68Z" fill="#F99F1D"/>
<path d="M59.46 355.49C62.6025 355.49 65.15 352.942 65.15 349.8C65.15 346.657 62.6025 344.11 59.46 344.11C56.3175 344.11 53.77 346.657 53.77 349.8C53.77 352.942 56.3175 355.49 59.46 355.49Z" fill="#F99F1D"/>
<path d="M187.12 111.49C197.597 111.49 206.09 102.997 206.09 92.5198C206.09 82.043 197.597 73.5498 187.12 73.5498C176.643 73.5498 168.15 82.043 168.15 92.5198C168.15 102.997 176.643 111.49 187.12 111.49Z" fill="#F99F1D"/>
<path d="M219.77 125.69C226.055 125.69 231.15 120.595 231.15 114.31C231.15 108.025 226.055 102.93 219.77 102.93C213.485 102.93 208.39 108.025 208.39 114.31C208.39 120.595 213.485 125.69 219.77 125.69Z" fill="#F99F1D"/>
<path d="M192.06 144.46C196.252 144.46 199.65 141.062 199.65 136.87C199.65 132.678 196.252 129.28 192.06 129.28C187.868 129.28 184.47 132.678 184.47 136.87C184.47 141.062 187.868 144.46 192.06 144.46Z" fill="#F99F1D"/>
<path d="M128.96 313.21C136.57 330.33 154.84 339.82 172.38 335.44C189.92 331.06 201.89 314.04 200.29 295.42C189.54 301.05 177.98 305.53 165.68 308.6C153.39 311.66 141.09 313.13 128.96 313.21Z" fill="#1E2336"/>
<path d="M263.12 137.57C262.47 133.27 261.64 128.96 260.56 124.65C242.32 51.4698 168.2 6.93985 95.02 25.1798C63.64 32.9998 37.55 51.1199 19.4 75.0098C37.14 59.2198 58.83 47.3498 83.46 41.2098C159.93 22.1398 237.31 64.7799 263.12 137.57Z" fill="#FFE183"/>
<path d="M210.3 268.19C239.632 268.19 263.41 244.412 263.41 215.08C263.41 185.748 239.632 161.97 210.3 161.97C180.968 161.97 157.19 185.748 157.19 215.08C157.19 244.412 180.968 268.19 210.3 268.19Z" fill="white"/>
<path fill-rule="evenodd" clip-rule="evenodd" d="M194.04 197.63C205.24 194.84 216.8 201.61 219.64 213.02C222.43 224.22 215.46 235.84 204.26 238.63C192.85 241.47 181.45 234.44 178.66 223.24C175.81 211.83 182.63 200.47 194.04 197.63ZM199.74 199.8C204.18 198.69 208.66 201.39 209.77 205.83C210.88 210.27 208.18 214.76 203.74 215.86C199.3 216.97 194.82 214.27 193.71 209.83C192.6 205.39 195.3 200.9 199.74 199.8Z" fill="#1E2336"/>
<path d="M85.2501 299.37C114.582 299.37 138.36 275.592 138.36 246.26C138.36 216.928 114.582 193.15 85.2501 193.15C55.9183 193.15 32.1401 216.928 32.1401 246.26C32.1401 275.592 55.9183 299.37 85.2501 299.37Z" fill="white"/>
<path fill-rule="evenodd" clip-rule="evenodd" d="M91.8201 223.11C103.02 220.32 114.58 227.09 117.42 238.5C120.21 249.7 113.24 261.32 102.04 264.11C90.6301 266.95 79.2301 259.92 76.4401 248.72C73.5901 237.31 80.4101 225.95 91.8201 223.11ZM97.5201 225.28C101.96 224.17 106.44 226.87 107.55 231.31C108.66 235.75 105.96 240.24 101.52 241.34C97.0801 242.45 92.6001 239.75 91.4901 235.31C90.3801 230.87 93.0801 226.38 97.5201 225.28Z" fill="#1E2336"/>
<path d="M129.19 244.21C129.81 246.7 130.17 249.2 130.4 251.68C131.05 246.33 130.8 240.78 129.42 235.24C123.35 210.88 98.5901 196.01 74.2401 202.08C63.5401 204.75 54.6801 211.02 48.6201 219.28C54.3801 214.15 61.4201 210.29 69.4201 208.29C95.8501 201.7 122.61 217.78 129.2 244.21H129.19Z" fill="#D1D2D4"/>
<path d="M254.24 213.03C254.86 215.52 255.22 218.02 255.45 220.5C256.1 215.15 255.85 209.6 254.47 204.06C248.4 179.7 223.64 164.83 199.29 170.9C188.59 173.57 179.73 179.84 173.67 188.1C179.43 182.97 186.47 179.11 194.47 177.11C220.9 170.52 247.66 186.6 254.25 213.03H254.24Z" fill="#D1D2D4"/>
<path d="M195.62 156.19C170.88 162.36 153.52 183 150.22 206.83L134.44 210.77C120.33 191.28 95.3201 181.2 70.5801 187.37C38.1101 195.47 18.2801 228.47 26.3701 260.95C34.4701 293.42 67.4701 313.25 99.9401 305.16C132.41 297.06 152.24 264.06 144.15 231.59C143.55 229.17 142.76 226.84 141.89 224.56L150.11 222.51C150.41 224.93 150.81 227.35 151.41 229.78C159.51 262.25 192.51 282.08 224.98 273.99C257.45 265.89 277.28 232.89 269.19 200.42C261.09 167.95 228.09 148.11 195.62 156.21V156.19ZM96.2601 290.43C71.9101 296.5 47.1501 281.63 41.0801 257.27C35.0101 232.91 49.8801 208.16 74.2401 202.09C98.5901 196.02 123.35 210.89 129.42 235.25C135.49 259.61 120.62 284.36 96.2601 290.43ZM221.31 259.25C196.95 265.32 172.2 250.45 166.13 226.09C160.06 201.73 174.93 176.98 199.29 170.91C223.65 164.84 248.4 179.71 254.47 204.07C260.54 228.43 245.67 253.18 221.31 259.25Z" fill="#1E2336"/>
<path fill-rule="evenodd" clip-rule="evenodd" d="M172.38 335.44C162.36 459.65 -14.2399 396.14 -17.0499 480.96C-4.45993 405.26 188.91 488.58 172.38 335.44Z" fill="#F99F1D"/>
</g>
</g>
<defs>
<clipPath id="clip0_99_7024">
<rect width="490.67" height="536.85" fill="white"/>
</clipPath>
</defs>
</svg>
