<?xml version="1.0" encoding="UTF-8"?>
<svg xmlns="http://www.w3.org/2000/svg" viewBox="0 0 21.6 60">
  <defs>
    <style>
      .cls-1 {
        fill: #e44046;
      }

      .cls-2 {
        mix-blend-mode: multiply;
        opacity: .12;
      }

      .cls-3 {
        fill: #c0cbda;
      }

      .cls-4 {
        fill: #f2747a;
      }

      .cls-5 {
        isolation: isolate;
      }

      .cls-6 {
        fill: #f37724;
      }

      .cls-7 {
        fill: #8b5f3d;
      }

      .cls-8 {
        fill: #faad35;
      }

      .cls-9 {
        fill: #3a445a;
      }

      .cls-10 {
        fill: #c08369;
      }

      .cls-11 {
        fill: #5c6a88;
      }

      .cls-12 {
        fill: #8b9ab4;
      }

      .cls-13 {
        fill: #fce660;
      }
    </style>
  </defs>
  <g class="cls-5">
    <g id="Layer_2" data-name="Layer 2">
      <g id="Game_Play" data-name="Game Play">
        <g>
          <g class="cls-2">
            <polygon points="19.2 7.2 16.8 7.2 14.4 7.2 9.6 7.2 7.2 7.2 2.4 7.2 2.4 9.6 0 9.6 0 12 0 14.4 0 16.8 0 19.2 0 21.6 0 24 0 26.4 0 28.8 0 31.2 0 33.6 0 36 0 38.4 0 40.8 0 43.2 0 45.6 0 48 0 50.4 2.4 50.4 2.4 52.8 4.8 52.8 4.8 55.2 7.2 55.2 7.2 57.6 9.6 57.6 9.6 60 12 60 12 57.6 14.4 57.6 14.4 55.2 16.8 55.2 16.8 52.8 19.2 52.8 19.2 50.4 21.6 50.4 21.6 48 21.6 45.6 21.6 43.2 21.6 40.8 21.6 38.4 21.6 36 21.6 33.6 21.6 31.2 21.6 28.8 21.6 26.4 21.6 24 21.6 21.6 21.6 19.2 21.6 16.8 21.6 14.4 21.6 12 21.6 9.6 19.2 9.6 19.2 7.2"/>
          </g>
          <g>
            <polygon class="cls-3" points="19.2 7.2 16.8 7.2 16.8 9.6 16.8 12 19.2 12 21.6 12 21.6 9.6 21.6 7.2 19.2 7.2"/>
            <polygon class="cls-13" points="19.2 12 16.8 12 16.8 14.4 16.8 16.8 16.8 19.2 16.8 21.6 16.8 24 16.8 26.4 16.8 28.8 16.8 31.2 16.8 33.6 16.8 36 16.8 38.4 16.8 40.8 19.2 40.8 21.6 40.8 21.6 38.4 21.6 36 21.6 33.6 21.6 31.2 21.6 28.8 21.6 26.4 21.6 24 21.6 21.6 21.6 19.2 21.6 16.8 21.6 14.4 21.6 12 19.2 12"/>
            <polygon class="cls-11" points="14.4 45.6 9.6 45.6 7.2 45.6 4.8 45.6 4.8 48 7.2 48 7.2 50.4 9.6 50.4 9.6 52.8 12 52.8 12 50.4 14.4 50.4 14.4 48 16.8 48 16.8 45.6 14.4 45.6"/>
            <polygon class="cls-1" points="2.4 0 2.4 2.4 0 2.4 0 4.8 0 7.2 2.4 7.2 7.2 7.2 7.2 4.8 7.2 2.4 7.2 0 2.4 0"/>
            <polygon class="cls-11" points="2.4 7.2 0 7.2 0 9.6 0 12 2.4 12 7.2 12 7.2 9.6 7.2 7.2 2.4 7.2"/>
            <polygon class="cls-6" points="2.4 12 0 12 0 14.4 0 16.8 0 19.2 0 21.6 0 24 0 26.4 0 28.8 0 31.2 0 33.6 0 36 0 38.4 0 40.8 2.4 40.8 7.2 40.8 7.2 38.4 7.2 36 7.2 33.6 7.2 31.2 7.2 28.8 7.2 26.4 7.2 24 7.2 21.6 7.2 19.2 7.2 16.8 7.2 14.4 7.2 12 2.4 12"/>
            <polygon class="cls-7" points="2.4 40.8 0 40.8 0 43.2 2.4 43.2 2.4 45.6 7.2 45.6 7.2 43.2 7.2 40.8 2.4 40.8"/>
            <rect class="cls-9" x="4.8" y="45.6" width="2.4" height="2.4"/>
            <polygon class="cls-8" points="14.4 12 9.6 12 7.2 12 7.2 40.8 9.6 40.8 14.4 40.8 16.8 40.8 16.8 38.4 16.8 36 16.8 33.6 16.8 31.2 16.8 28.8 16.8 26.4 16.8 24 16.8 21.6 16.8 19.2 16.8 16.8 16.8 14.4 16.8 12 14.4 12"/>
            <polygon class="cls-10" points="19.2 40.8 16.8 40.8 14.4 40.8 9.6 40.8 7.2 40.8 7.2 45.6 9.6 45.6 14.4 45.6 16.8 45.6 19.2 45.6 19.2 43.2 21.6 43.2 21.6 40.8 19.2 40.8"/>
            <polygon class="cls-12" points="14.4 7.2 9.6 7.2 7.2 7.2 7.2 12 9.6 12 14.4 12 16.8 12 16.8 9.6 16.8 7.2 14.4 7.2"/>
            <polygon class="cls-4" points="19.2 2.4 19.2 0 16.8 0 14.4 0 9.6 0 7.2 0 7.2 7.2 9.6 7.2 14.4 7.2 16.8 7.2 19.2 7.2 21.6 7.2 21.6 4.8 21.6 2.4 19.2 2.4"/>
          </g>
        </g>
      </g>
    </g>
  </g>
</svg>