<svg width="91" height="222" viewBox="0 0 91 222" fill="none" xmlns="http://www.w3.org/2000/svg">
<g clip-path="url(#clip0_103_8142)">
<path d="M80.8889 30.2727H70.7778V40.3636V50.4545H80.8889H91V40.3636V30.2727H80.8889Z" fill="#C0CBDA"/>
<path d="M80.8889 50.4546H70.7778V60.5455V70.6364V80.7273V90.8182V100.909V111V121.091V131.182V141.273V151.364V161.455V171.545H80.8889H91V161.455V151.364V141.273V131.182V121.091V111V100.909V90.8182V80.7273V70.6364V60.5455V50.4546H80.8889Z" fill="#FCE660"/>
<path d="M60.6667 191.727H40.4445H30.3333H20.2222V201.818H30.3333V211.909H40.4445V222H50.5556V211.909H60.6667V201.818H70.7778V191.727H60.6667Z" fill="#5C6A88"/>
<path d="M10.1111 0V10.0909H0V20.1818V30.2727H10.1111H30.3333V20.1818V10.0909V0H10.1111Z" fill="#E44046"/>
<path d="M10.1111 30.2727H0V40.3636V50.4545H10.1111H30.3333V40.3636V30.2727H10.1111Z" fill="#5C6A88"/>
<path d="M10.1111 50.4546H0V60.5455V70.6364V80.7273V90.8182V100.909V111V121.091V131.182V141.273V151.364V161.455V171.545H10.1111H30.3333V161.455V151.364V141.273V131.182V121.091V111V100.909V90.8182V80.7273V70.6364V60.5455V50.4546H10.1111Z" fill="#F37724"/>
<path d="M10.1111 171.545H0V181.636H10.1111V191.727H30.3333V181.636V171.545H10.1111Z" fill="#8B5F3D"/>
<path d="M30.3333 191.727H20.2222V201.818H30.3333V191.727Z" fill="#3A445A"/>
<path d="M60.6667 50.4546H40.4444H30.3333V171.545H40.4444H60.6667H70.7778V161.455V151.364V141.273V131.182V121.091V111V100.909V90.8182V80.7273V70.6364V60.5455V50.4546H60.6667Z" fill="#FAAD35"/>
<path d="M80.8889 171.545H70.7778H60.6667H40.4444H30.3333V191.727H40.4444H60.6667H70.7778H80.8889V181.636H91V171.545H80.8889Z" fill="#C08369"/>
<path d="M60.6667 30.2727H40.4444H30.3333V50.4545H40.4444H60.6667H70.7778V40.3636V30.2727H60.6667Z" fill="#8B9AB4"/>
<path d="M80.8889 10.0909V0H70.7778H60.6667H40.4444H30.3333V30.2727H40.4444H60.6667H70.7778H80.8889H91V20.1818V10.0909H80.8889Z" fill="#F2747A"/>
</g>
<defs>
<clipPath id="clip0_103_8142">
<rect width="91" height="222" fill="white"/>
</clipPath>
</defs>
</svg>
