<?xml version="1.0" encoding="UTF-8"?>
<svg id="Layer_2" data-name="Layer 2" xmlns="http://www.w3.org/2000/svg" xmlns:xlink="http://www.w3.org/1999/xlink" viewBox="0 0 346.26 335.09">
  <defs>
    <style>
      .cls-1, .cls-2 {
        fill: none;
      }

      .cls-2 {
        stroke: #fff;
        stroke-miterlimit: 10;
        stroke-width: .67px;
      }

      .cls-3 {
        clip-path: url(#clippath);
      }
    </style>
    <clipPath id="clippath">
      <rect class="cls-1" width="346.26" height="335.09"/>
    </clipPath>
  </defs>
  <g id="Game_Play" data-name="Game Play">
    <g class="cls-3">
      <g>
        <polygon class="cls-2" points="348.77 69.08 348.77 49.08 328.77 49.08 328.77 29.08 308.77 29.08 308.77 9.08 268.77 9.08 228.77 9.08 228.77 29.08 208.77 29.08 208.77 49.08 188.77 49.08 188.77 69.08 168.77 69.08 168.77 109.08 168.77 149.08 188.77 149.08 188.77 169.08 208.77 169.08 208.77 189.08 228.77 189.08 228.77 209.08 268.77 209.08 308.77 209.08 308.77 189.08 328.77 189.08 328.77 169.08 348.77 169.08 348.77 149.08 368.77 149.08 368.77 109.08 368.77 69.08 348.77 69.08"/>
        <polygon class="cls-2" points="188.77 189.08 188.77 169.08 168.77 169.08 168.77 149.08 148.77 149.08 148.77 129.08 108.77 129.08 68.77 129.08 68.77 149.08 48.77 149.08 48.77 169.08 28.77 169.08 28.77 189.08 8.77 189.08 8.77 229.08 8.77 269.08 28.77 269.08 28.77 289.08 48.77 289.08 48.77 309.08 68.77 309.08 68.77 329.08 108.77 329.08 148.77 329.08 148.77 309.08 168.77 309.08 168.77 289.08 188.77 289.08 188.77 269.08 208.77 269.08 208.77 229.08 208.77 189.08 188.77 189.08"/>
      </g>
    </g>
  </g>
</svg>