<?xml version="1.0" encoding="UTF-8"?>
<svg xmlns="http://www.w3.org/2000/svg" viewBox="0 0 60 52.8">
  <defs>
    <style>
      .cls-1 {
        fill: #e6a0b3;
      }

      .cls-2 {
        mix-blend-mode: multiply;
        opacity: .12;
      }

      .cls-3 {
        fill: #9e3c79;
      }

      .cls-4 {
        isolation: isolate;
      }

      .cls-5 {
        fill: #efcdcd;
      }

      .cls-6 {
        fill: #d86a9e;
      }
    </style>
  </defs>
  <g class="cls-4">
    <g id="Layer_2" data-name="Layer 2">
      <g id="Game_Play" data-name="Game Play">
        <g>
          <g class="cls-2">
            <polygon points="57.6 26.4 55.2 26.4 55.2 24 52.8 24 50.4 24 50.4 26.4 48 26.4 45.6 26.4 45.6 24 43.2 24 40.8 24 38.4 24 36 24 33.6 24 31.2 24 28.8 24 26.4 24 24 24 21.6 24 19.2 24 16.8 24 14.4 24 12 24 9.6 24 7.2 24 4.8 24 4.8 26.4 2.4 26.4 2.4 28.8 0 28.8 0 31.2 0 33.6 0 36 0 38.4 0 40.8 0 43.2 0 45.6 0 48 2.4 48 2.4 50.4 4.8 50.4 4.8 52.8 7.2 52.8 9.6 52.8 12 52.8 14.4 52.8 16.8 52.8 19.2 52.8 21.6 52.8 24 52.8 26.4 52.8 28.8 52.8 31.2 52.8 33.6 52.8 36 52.8 38.4 52.8 40.8 52.8 43.2 52.8 45.6 52.8 48 52.8 50.4 52.8 52.8 52.8 55.2 52.8 55.2 50.4 57.6 50.4 57.6 48 60 48 60 45.6 60 43.2 60 40.8 60 38.4 60 36 60 33.6 60 31.2 60 28.8 57.6 28.8 57.6 26.4"/>
          </g>
          <g>
            <g>
              <rect class="cls-3" x="48" y="14.4" width="2.4" height="2.4"/>
              <rect class="cls-3" x="50.4" y="12" width="2.4" height="2.4"/>
              <rect class="cls-6" x="50.4" y="9.6" width="2.4" height="2.4"/>
              <rect class="cls-6" x="48" y="12" width="2.4" height="2.4"/>
              <rect class="cls-6" x="45.6" y="14.4" width="2.4" height="2.4"/>
              <polygon class="cls-1" points="48 7.2 45.6 7.2 45.6 9.6 43.2 9.6 43.2 12 43.2 14.4 45.6 14.4 48 14.4 48 12 50.4 12 50.4 9.6 50.4 7.2 48 7.2"/>
            </g>
            <g>
              <rect class="cls-6" x="33.6" y="4.8" width="2.4" height="2.4"/>
              <polygon class="cls-3" points="36 4.8 36 7.2 33.6 7.2 33.6 9.6 31.2 9.6 31.2 12 33.6 12 36 12 36 9.6 38.4 9.6 38.4 7.2 38.4 4.8 36 4.8"/>
              <rect class="cls-6" x="36" y="2.4" width="2.4" height="2.4"/>
              <rect class="cls-6" x="31.2" y="7.2" width="2.4" height="2.4"/>
              <rect class="cls-6" x="28.8" y="9.6" width="2.4" height="2.4"/>
              <polygon class="cls-1" points="33.6 0 31.2 0 28.8 0 28.8 2.4 26.4 2.4 26.4 4.8 26.4 7.2 26.4 9.6 28.8 9.6 31.2 9.6 31.2 7.2 33.6 7.2 33.6 4.8 36 4.8 36 2.4 36 0 33.6 0"/>
            </g>
            <g>
              <g>
                <rect class="cls-1" x="0" y="21.6" width="2.4" height="2.4"/>
                <rect class="cls-1" x="2.4" y="19.2" width="2.4" height="2.4"/>
                <rect class="cls-1" x="55.2" y="19.2" width="2.4" height="2.4"/>
                <rect class="cls-1" x="57.6" y="21.6" width="2.4" height="2.4"/>
                <polygon class="cls-1" points="43.2 16.8 40.8 16.8 38.4 16.8 36 16.8 33.6 16.8 31.2 16.8 28.8 16.8 26.4 16.8 24 16.8 21.6 16.8 19.2 16.8 16.8 16.8 14.4 16.8 12 16.8 9.6 16.8 7.2 16.8 4.8 16.8 4.8 19.2 7.2 19.2 9.6 19.2 12 19.2 14.4 19.2 16.8 19.2 19.2 19.2 21.6 19.2 24 19.2 26.4 19.2 28.8 19.2 31.2 19.2 33.6 19.2 36 19.2 38.4 19.2 40.8 19.2 43.2 19.2 45.6 19.2 45.6 16.8 43.2 16.8"/>
                <polygon class="cls-1" points="52.8 16.8 50.4 16.8 50.4 19.2 52.8 19.2 55.2 19.2 55.2 16.8 52.8 16.8"/>
              </g>
              <polygon class="cls-6" points="57.6 24 57.6 21.6 55.2 21.6 55.2 19.2 52.8 19.2 50.4 19.2 48 19.2 45.6 19.2 43.2 19.2 40.8 19.2 38.4 19.2 36 19.2 33.6 19.2 31.2 19.2 28.8 19.2 26.4 19.2 24 19.2 21.6 19.2 19.2 19.2 16.8 19.2 14.4 19.2 12 19.2 9.6 19.2 7.2 19.2 4.8 19.2 4.8 21.6 2.4 21.6 2.4 24 0 24 0 26.4 0 28.8 0 31.2 0 33.6 0 36 0 38.4 2.4 38.4 2.4 40.8 4.8 40.8 4.8 43.2 7.2 43.2 9.6 43.2 12 43.2 14.4 43.2 16.8 43.2 19.2 43.2 21.6 43.2 24 43.2 26.4 43.2 28.8 43.2 31.2 43.2 33.6 43.2 36 43.2 38.4 43.2 40.8 43.2 43.2 43.2 45.6 43.2 48 43.2 50.4 43.2 52.8 43.2 55.2 43.2 55.2 40.8 57.6 40.8 57.6 38.4 60 38.4 60 36 60 33.6 60 31.2 60 28.8 60 26.4 60 24 57.6 24"/>
              <g>
                <rect class="cls-3" x="0" y="38.4" width="2.4" height="2.4"/>
                <rect class="cls-3" x="2.4" y="40.8" width="2.4" height="2.4"/>
                <rect class="cls-3" x="55.2" y="40.8" width="2.4" height="2.4"/>
                <rect class="cls-3" x="57.6" y="38.4" width="2.4" height="2.4"/>
                <polygon class="cls-3" points="52.8 43.2 50.4 43.2 48 43.2 45.6 43.2 43.2 43.2 40.8 43.2 38.4 43.2 36 43.2 33.6 43.2 31.2 43.2 28.8 43.2 26.4 43.2 24 43.2 21.6 43.2 19.2 43.2 16.8 43.2 14.4 43.2 12 43.2 9.6 43.2 7.2 43.2 4.8 43.2 4.8 45.6 7.2 45.6 9.6 45.6 12 45.6 14.4 45.6 16.8 45.6 19.2 45.6 21.6 45.6 24 45.6 26.4 45.6 28.8 45.6 31.2 45.6 33.6 45.6 36 45.6 38.4 45.6 40.8 45.6 43.2 45.6 45.6 45.6 48 45.6 50.4 45.6 52.8 45.6 55.2 45.6 55.2 43.2 52.8 43.2"/>
              </g>
              <g>
                <g>
                  <polygon class="cls-5" points="24 24 21.6 24 21.6 26.4 24 26.4 26.4 26.4 26.4 24 24 24"/>
                  <polygon class="cls-5" points="19.2 26.4 19.2 28.8 19.2 31.2 19.2 33.6 19.2 36 21.6 36 21.6 33.6 21.6 31.2 21.6 28.8 21.6 26.4 19.2 26.4"/>
                  <polygon class="cls-5" points="26.4 26.4 26.4 28.8 26.4 31.2 26.4 33.6 26.4 36 28.8 36 28.8 33.6 28.8 31.2 28.8 28.8 28.8 26.4 26.4 26.4"/>
                  <polygon class="cls-5" points="24 36 21.6 36 21.6 38.4 24 38.4 26.4 38.4 26.4 36 24 36"/>
                </g>
                <g>
                  <polygon class="cls-5" points="36 24 33.6 24 33.6 26.4 36 26.4 38.4 26.4 38.4 24 36 24"/>
                  <polygon class="cls-5" points="38.4 26.4 38.4 28.8 38.4 31.2 36 31.2 33.6 31.2 33.6 28.8 33.6 26.4 31.2 26.4 31.2 28.8 31.2 31.2 31.2 33.6 31.2 36 31.2 38.4 33.6 38.4 33.6 36 33.6 33.6 36 33.6 38.4 33.6 38.4 36 38.4 38.4 40.8 38.4 40.8 36 40.8 33.6 40.8 31.2 40.8 28.8 40.8 26.4 38.4 26.4"/>
                </g>
                <g>
                  <polygon class="cls-5" points="50.4 26.4 50.4 28.8 50.4 31.2 52.8 31.2 52.8 28.8 52.8 26.4 50.4 26.4"/>
                  <polygon class="cls-5" points="45.6 26.4 48 26.4 50.4 26.4 50.4 24 48 24 45.6 24 43.2 24 43.2 26.4 43.2 28.8 43.2 31.2 43.2 33.6 43.2 36 43.2 38.4 45.6 38.4 45.6 36 45.6 33.6 48 33.6 50.4 33.6 50.4 31.2 48 31.2 45.6 31.2 45.6 28.8 45.6 26.4"/>
                </g>
                <g>
                  <rect class="cls-5" x="14.4" y="26.4" width="2.4" height="2.4"/>
                  <polygon class="cls-5" points="12 24 9.6 24 9.6 26.4 12 26.4 14.4 26.4 14.4 24 12 24"/>
                  <rect class="cls-5" x="7.2" y="26.4" width="2.4" height="2.4"/>
                  <rect class="cls-5" x="9.6" y="28.8" width="2.4" height="2.4"/>
                  <rect class="cls-5" x="12" y="31.2" width="2.4" height="2.4"/>
                  <rect class="cls-5" x="14.4" y="33.6" width="2.4" height="2.4"/>
                  <polygon class="cls-5" points="9.6 36 9.6 38.4 12 38.4 14.4 38.4 14.4 36 12 36 9.6 36"/>
                  <rect class="cls-5" x="7.2" y="33.6" width="2.4" height="2.4"/>
                </g>
              </g>
            </g>
          </g>
        </g>
      </g>
    </g>
  </g>
</svg>