<svg width="255" height="250" viewBox="0 0 255 250" fill="none" xmlns="http://www.w3.org/2000/svg">
<g clip-path="url(#clip0_100_7064)">
<path d="M214.2 66.2632H204V76.4737H214.2V66.2632Z" fill="#9E3C79"/>
<path d="M224.4 56.0527H214.2V66.2633H224.4V56.0527Z" fill="#9E3C79"/>
<path d="M224.4 45.842H214.2V56.0526H224.4V45.842Z" fill="#D86A9E"/>
<path d="M214.2 56.0527H204V66.2633H214.2V56.0527Z" fill="#D86A9E"/>
<path d="M204 66.2632H193.8V76.4737H204V66.2632Z" fill="#D86A9E"/>
<path d="M204 35.6316H193.8V45.8421H183.6V56.0526V66.2632H193.8H204V56.0526H214.2V45.8421V35.6316H204Z" fill="#E6A0B3"/>
<path d="M153 25.4211H142.8V35.6317H153V25.4211Z" fill="#D86A9E"/>
<path d="M153 25.4211V35.6317H142.8V45.8422H132.6V56.0527H142.8H153V45.8422H163.2V35.6317V25.4211H153Z" fill="#9E3C79"/>
<path d="M163.2 15.2104H153V25.421H163.2V15.2104Z" fill="#D86A9E"/>
<path d="M142.8 35.6316H132.6V45.8421H142.8V35.6316Z" fill="#D86A9E"/>
<path d="M132.6 45.842H122.4V56.0526H132.6V45.842Z" fill="#D86A9E"/>
<path d="M142.8 5H132.6H122.4V15.2105H112.2V25.4211V35.6316V45.8421H122.4H132.6V35.6316H142.8V25.4211H153V15.2105V5H142.8Z" fill="#E6A0B3"/>
<path d="M10.2 96.8948H0V107.105H10.2V96.8948Z" fill="#E6A0B3"/>
<path d="M20.4 86.6841H10.2V96.8946H20.4V86.6841Z" fill="#E6A0B3"/>
<path d="M244.8 86.6841H234.6V96.8946H244.8V86.6841Z" fill="#E6A0B3"/>
<path d="M255 96.8948H244.8V107.105H255V96.8948Z" fill="#E6A0B3"/>
<path d="M183.6 76.4736H173.4H163.2H153H142.8H132.6H122.4H112.2H102H91.8H81.6H71.4H61.2H51H40.8H30.6H20.4V86.6842H30.6H40.8H51H61.2H71.4H81.6H91.8H102H112.2H122.4H132.6H142.8H153H163.2H173.4H183.6H193.8V76.4736H183.6Z" fill="#E6A0B3"/>
<path d="M224.4 76.4736H214.2V86.6842H224.4H234.6V76.4736H224.4Z" fill="#E6A0B3"/>
<path d="M244.8 107.105V96.8946H234.6V86.6841H224.4H214.2H204H193.8H183.6H173.4H163.2H153H142.8H132.6H122.4H112.2H102H91.8H81.6H71.4H61.2H51H40.8H30.6H20.4V96.8946H10.2V107.105H0V117.316V127.526V137.737V147.947V158.158V168.368H10.2V178.579H20.4V188.789H30.6H40.8H51H61.2H71.4H81.6H91.8H102H112.2H122.4H132.6H142.8H153H163.2H173.4H183.6H193.8H204H214.2H224.4H234.6V178.579H244.8V168.368H255V158.158V147.947V137.737V127.526V117.316V107.105H244.8Z" fill="#D86A9E"/>
<path d="M10.2 168.368H0V178.579H10.2V168.368Z" fill="#9E3C79"/>
<path d="M20.4 178.579H10.2V188.789H20.4V178.579Z" fill="#9E3C79"/>
<path d="M244.8 178.579H234.6V188.789H244.8V178.579Z" fill="#9E3C79"/>
<path d="M255 168.368H244.8V178.579H255V168.368Z" fill="#9E3C79"/>
<path d="M224.4 188.79H214.2H204H193.8H183.6H173.4H163.2H153H142.8H132.6H122.4H112.2H102H91.8H81.6H71.4H61.2H51H40.8H30.6H20.4V199H30.6H40.8H51H61.2H71.4H81.6H91.8H102H112.2H122.4H132.6H142.8H153H163.2H173.4H183.6H193.8H204H214.2H224.4H234.6V188.79H224.4Z" fill="#9E3C79"/>
<path d="M102 107.105H91.8V117.316H102H112.2V107.105H102Z" fill="#EFCDCD"/>
<path d="M81.6 117.316V127.526V137.737V147.947V158.158H91.8V147.947V137.737V127.526V117.316H81.6Z" fill="#EFCDCD"/>
<path d="M112.2 117.316V127.526V137.737V147.947V158.158H122.4V147.947V137.737V127.526V117.316H112.2Z" fill="#EFCDCD"/>
<path d="M102 158.158H91.8V168.368H102H112.2V158.158H102Z" fill="#EFCDCD"/>
<path d="M153 107.105H142.8V117.316H153H163.2V107.105H153Z" fill="#EFCDCD"/>
<path d="M163.2 117.316V127.526V137.737H153H142.8V127.526V117.316H132.6V127.526V137.737V147.947V158.158V168.368H142.8V158.158V147.947H153H163.2V158.158V168.368H173.4V158.158V147.947V137.737V127.526V117.316H163.2Z" fill="#EFCDCD"/>
<path d="M214.2 117.316V127.526V137.737H224.4V127.526V117.316H214.2Z" fill="#EFCDCD"/>
<path d="M193.8 117.316H204H214.2V107.105H204H193.8H183.6V117.316V127.526V137.737V147.947V158.158V168.368H193.8V158.158V147.947H204H214.2V137.737H204H193.8V127.526V117.316Z" fill="#EFCDCD"/>
<path d="M71.4 117.316H61.2V127.526H71.4V117.316Z" fill="#EFCDCD"/>
<path d="M51 107.105H40.8V117.316H51H61.2V107.105H51Z" fill="#EFCDCD"/>
<path d="M40.8 117.316H30.6V127.526H40.8V117.316Z" fill="#EFCDCD"/>
<path d="M51 127.526H40.8V137.737H51V127.526Z" fill="#EFCDCD"/>
<path d="M61.2 137.737H51V147.947H61.2V137.737Z" fill="#EFCDCD"/>
<path d="M71.4 147.947H61.2V158.158H71.4V147.947Z" fill="#EFCDCD"/>
<path d="M40.8 158.158V168.368H51H61.2V158.158H51H40.8Z" fill="#EFCDCD"/>
<path d="M40.8 147.947H30.6V158.158H40.8V147.947Z" fill="#EFCDCD"/>
</g>
<defs>
<clipPath id="clip0_100_7064">
<rect width="255" height="194" fill="white" transform="translate(0 5)"/>
</clipPath>
</defs>
</svg>
