<svg width="530" height="272" viewBox="0 0 530 272" fill="none" xmlns="http://www.w3.org/2000/svg">
<g clip-path="url(#clip0_12_4635)">
<path d="M245.61 99.14C248.603 117.958 238.212 148.627 237.5 178.5C236.754 209.807 245.61 240.241 245.61 255.25C233.2 261.3 206.79 230.97 206.79 230.97C189.74 210.76 170.47 236.45 161.61 263.25C157.55 275.5 137.19 219.6 124.29 219.6C111.39 219.6 91.03 275.5 86.98 263.25C78.12 236.45 58.85 210.76 41.8 230.97C41.8 230.97 15.39 261.3 2.98002 255.25C2.98002 237.926 8.48852 214.548 8.00011 178.5C7.66165 153.519 0.466726 114.916 2.98002 99.14C6.78002 75.28 45.25 5.25 124.29 5.25C203.33 5.25 241.81 75.28 245.61 99.14Z" fill="#FF7AEA"/>
</g>
<path d="M105 135H129.5C137.232 135 143.5 128.732 143.5 121V97.9926C143.5 93.3116 141.161 88.9404 137.266 86.3439L124.492 77.8281C119.676 74.6175 113.381 74.7014 108.653 78.0392L96.9264 86.3166C93.2101 88.9399 91 93.2053 91 97.7542V121C91 128.732 97.268 135 105 135Z" fill="#E0DDFF"/>
<circle cx="15.5" cy="15.5" r="15.5" transform="matrix(-1 0 0 1 143.5 89)" fill="#040EF0"/>
<circle cx="6" cy="6" r="6" transform="matrix(-1 0 0 1 128.5 95)" fill="white"/>
<path d="M195 135H219.5C227.232 135 233.5 128.732 233.5 121V97.9926C233.5 93.3116 231.161 88.9404 227.266 86.3439L214.492 77.8281C209.676 74.6175 203.381 74.7014 198.653 78.0392L186.926 86.3166C183.21 88.9399 181 93.2053 181 97.7542V121C181 128.732 187.268 135 195 135Z" fill="#E0DDFF"/>
<circle cx="15.5" cy="15.5" r="15.5" transform="matrix(-1 0 0 1 233.5 89)" fill="#040EF0"/>
<circle cx="6" cy="6" r="6" transform="matrix(-1 0 0 1 218.5 95)" fill="white"/>
<path d="M528.61 104.14C531.553 122.644 520.674 162.104 520 191.5C519.271 223.331 528.61 245.002 528.61 260.25C516.2 266.3 489.79 235.97 489.79 235.97C472.74 215.76 466.36 243.2 457.5 270C453.44 282.25 420.19 224.6 407.29 224.6C394.39 224.6 384.55 282.25 380.5 270C371.64 243.2 341.85 215.76 324.8 235.97C324.8 235.97 298.39 266.3 285.98 260.25C285.98 244.842 293.219 201.677 292.5 169.5C291.851 140.426 283.065 122.434 285.98 104.14C289.78 80.28 328.25 10.25 407.29 10.25C486.33 10.25 524.81 80.28 528.61 104.14Z" fill="#FF7AEA"/>
<path d="M385 135H409.5C417.232 135 423.5 128.732 423.5 121V97.9926C423.5 93.3116 421.161 88.9404 417.266 86.3439L404.492 77.8281C399.676 74.6175 393.381 74.7014 388.653 78.0392L376.926 86.3166C373.21 88.9399 371 93.2053 371 97.7542V121C371 128.732 377.268 135 385 135Z" fill="#E0DDFF"/>
<circle cx="15.5" cy="15.5" r="15.5" transform="matrix(-1 0 0 1 423.5 89)" fill="#040EF0"/>
<circle cx="6" cy="6" r="6" transform="matrix(-1 0 0 1 408.5 95)" fill="white"/>
<path d="M475 135H499.5C507.232 135 513.5 128.732 513.5 121V97.9926C513.5 93.3116 511.161 88.9404 507.266 86.3439L494.492 77.8281C489.676 74.6175 483.381 74.7014 478.653 78.0392L466.926 86.3166C463.21 88.9399 461 93.2053 461 97.7542V121C461 128.732 467.268 135 475 135Z" fill="#E0DDFF"/>
<circle cx="15.5" cy="15.5" r="15.5" transform="matrix(-1 0 0 1 513.5 89)" fill="#040EF0"/>
<circle cx="6" cy="6" r="6" transform="matrix(-1 0 0 1 498.5 95)" fill="white"/>
<defs>
<clipPath id="clip0_12_4635">
<rect width="248.58" height="260.25" fill="white" transform="translate(0 5)"/>
</clipPath>
</defs>
</svg>
