<svg width="522" height="260" viewBox="0 0 522 260" fill="none" xmlns="http://www.w3.org/2000/svg">
<g clip-path="url(#clip0_103_7378)">
<path d="M158.478 51.9316H147.824V59.7622V67.5927H158.478H169.132V59.7622V51.9316H158.478Z" fill="#C0CBDA"/>
<path d="M158.478 67.5928H147.824V75.4233V83.2539V91.0844V98.915V106.746V114.576V122.407V130.237V138.068V145.898V153.729V161.559H158.478H169.132V153.729V145.898V138.068V130.237V122.407V114.576V106.746V98.915V91.0844V83.2539V75.4233V67.5928H158.478Z" fill="#FCE660"/>
<path d="M137.169 177.22H115.861H105.207H94.5523V185.051H105.207V192.881H115.861V200.712H126.515V192.881H137.169V185.051H147.824V177.22H137.169Z" fill="#5C6A88"/>
<path d="M83.8981 28.4399V36.2705H73.2438V44.101V51.9316H83.8981H105.207V44.101V36.2705V28.4399H83.8981Z" fill="#E44046"/>
<path d="M83.8981 51.9316H73.2438V59.7622V67.5927H83.8981H105.207V59.7622V51.9316H83.8981Z" fill="#5C6A88"/>
<path d="M83.8981 67.5928H73.2438V75.4233V83.2539V91.0844V98.915V106.746V114.576V122.407V130.237V138.068V145.898V153.729V161.559H83.8981H105.207V153.729V145.898V138.068V130.237V122.407V114.576V106.746V98.915V91.0844V83.2539V75.4233V67.5928H83.8981Z" fill="#F37724"/>
<path d="M83.8981 161.559H73.2438V169.39H83.8981V177.22H105.207V169.39V161.559H83.8981Z" fill="#8B5F3D"/>
<path d="M105.207 177.22H94.5523V185.051H105.207V177.22Z" fill="#3A445A"/>
<path d="M137.169 67.5928H115.861H105.207V161.559H115.861H137.169H147.824V153.729V145.898V138.068V130.237V122.407V114.576V106.746V98.915V91.0844V83.2539V75.4233V67.5928H137.169Z" fill="#FAAD35"/>
<path d="M158.478 161.559H147.824H137.169H115.861H105.207V177.22H115.861H137.169H147.824H158.478V169.39H169.132V161.559H158.478Z" fill="#C08369"/>
<path d="M137.169 51.9316H115.861H105.207V67.5927H115.861H137.169H147.824V59.7622V51.9316H137.169Z" fill="#8B9AB4"/>
<path d="M158.478 36.2705V28.4399H147.824H137.169H115.861H105.207V51.9316H115.861H137.169H147.824H158.478H169.132V44.101V36.2705H158.478Z" fill="#F2747A"/>
</g>
<g clip-path="url(#clip1_103_7378)">
<path d="M438.478 51.9316H427.824V59.7622V67.5927H438.478H449.132V59.7622V51.9316H438.478Z" fill="#C0CBDA"/>
<path d="M438.478 67.5928H427.824V75.4233V83.2539V91.0844V98.915V106.746V114.576V122.407V130.237V138.068V145.898V153.729V161.559H438.478H449.132V153.729V145.898V138.068V130.237V122.407V114.576V106.746V98.915V91.0844V83.2539V75.4233V67.5928H438.478Z" fill="#FCE660"/>
<path d="M417.169 177.22H395.861H385.207H374.552V185.051H385.207V192.881H395.861V200.712H406.515V192.881H417.169V185.051H427.824V177.22H417.169Z" fill="#5C6A88"/>
<path d="M363.898 28.4399V36.2705H353.244V44.101V51.9316H363.898H385.207V44.101V36.2705V28.4399H363.898Z" fill="#E44046"/>
<path d="M363.898 51.9316H353.244V59.7622V67.5927H363.898H385.207V59.7622V51.9316H363.898Z" fill="#5C6A88"/>
<path d="M363.898 67.5928H353.244V75.4233V83.2539V91.0844V98.915V106.746V114.576V122.407V130.237V138.068V145.898V153.729V161.559H363.898H385.207V153.729V145.898V138.068V130.237V122.407V114.576V106.746V98.915V91.0844V83.2539V75.4233V67.5928H363.898Z" fill="#F37724"/>
<path d="M363.898 161.559H353.244V169.39H363.898V177.22H385.207V169.39V161.559H363.898Z" fill="#8B5F3D"/>
<path d="M385.207 177.22H374.552V185.051H385.207V177.22Z" fill="#3A445A"/>
<path d="M417.169 67.5928H395.861H385.207V161.559H395.861H417.169H427.824V153.729V145.898V138.068V130.237V122.407V114.576V106.746V98.915V91.0844V83.2539V75.4233V67.5928H417.169Z" fill="#FAAD35"/>
<path d="M438.478 161.559H427.824H417.169H395.861H385.207V177.22H395.861H417.169H427.824H438.478V169.39H449.132V161.559H438.478Z" fill="#C08369"/>
<path d="M417.169 51.9316H395.861H385.207V67.5927H395.861H417.169H427.824V59.7622V51.9316H417.169Z" fill="#8B9AB4"/>
<path d="M438.478 36.2705V28.4399H427.824H417.169H395.861H385.207V51.9316H395.861H417.169H427.824H438.478H449.132V44.101V36.2705H438.478Z" fill="#F2747A"/>
</g>
<defs>
<clipPath id="clip0_103_7378">
<rect width="95.8884" height="172.272" fill="white" transform="translate(73.2438 28.4399)"/>
</clipPath>
<clipPath id="clip1_103_7378">
<rect width="95.8884" height="172.272" fill="white" transform="translate(353.244 28.4399)"/>
</clipPath>
</defs>
</svg>
