<svg width="522" height="260" viewBox="0 0 522 260" fill="none" xmlns="http://www.w3.org/2000/svg">
<path d="M0 103.894V260L43.5 226L84 260L116.5 226L121.313 10C42.2718 10 7.50388 80.929 0 103.894Z" fill="#FF7AEA"/>
<path d="M242 103.894V260L196.5 226L151.5 260L116.5 226L120.687 10C199.728 10 234.496 80.929 242 103.894Z" fill="#FF7AEA"/>
<path d="M86.5 87H62C54.268 87 48 80.732 48 73V49.9926C48 45.3116 50.3394 40.9404 54.2342 38.3439L67.0079 29.8281C71.8237 26.6175 78.1187 26.7014 82.8473 30.0392L94.5736 38.3166C98.2899 40.9399 100.5 45.2053 100.5 49.7542V73C100.5 80.732 94.232 87 86.5 87Z" fill="#E0DDFF"/>
<circle cx="74.5" cy="40.5" r="15.5" fill="#040EF0"/>
<circle cx="80" cy="37" r="6" fill="white"/>
<path d="M152 87H176.5C184.232 87 190.5 80.732 190.5 73V49.9926C190.5 45.3116 188.161 40.9404 184.266 38.3439L171.492 29.8281C166.676 26.6175 160.381 26.7014 155.653 30.0392L143.926 38.3166C140.21 40.9399 138 45.2053 138 49.7542V73C138 80.732 144.268 87 152 87Z" fill="#E0DDFF"/>
<circle cx="15.5" cy="15.5" r="15.5" transform="matrix(-1 0 0 1 179.5 25)" fill="#040EF0"/>
<circle cx="6" cy="6" r="6" transform="matrix(-1 0 0 1 164.5 31)" fill="white"/>
<path d="M280 103.894V260L323.5 226L349 260L396.5 226L401.313 10C322.272 10 287.504 80.929 280 103.894Z" fill="#FF7AEA"/>
<path d="M522 103.894V260L476.5 226L454 260L396.5 226L400.687 10C479.728 10 514.496 80.929 522 103.894Z" fill="#FF7AEA"/>
<path d="M366.5 87H342C334.268 87 328 80.732 328 73V49.9926C328 45.3116 330.339 40.9404 334.234 38.3439L347.008 29.8281C351.824 26.6175 358.119 26.7014 362.847 30.0392L374.574 38.3166C378.29 40.9399 380.5 45.2053 380.5 49.7542V73C380.5 80.732 374.232 87 366.5 87Z" fill="#E0DDFF"/>
<circle cx="354.5" cy="40.5" r="15.5" fill="#040EF0"/>
<circle cx="360" cy="37" r="6" fill="white"/>
<path d="M432 87H456.5C464.232 87 470.5 80.732 470.5 73V49.9926C470.5 45.3116 468.161 40.9404 464.266 38.3439L451.492 29.8281C446.676 26.6175 440.381 26.7014 435.653 30.0392L423.926 38.3166C420.21 40.9399 418 45.2053 418 49.7542V73C418 80.732 424.268 87 432 87Z" fill="#E0DDFF"/>
<circle cx="15.5" cy="15.5" r="15.5" transform="matrix(-1 0 0 1 459.5 25)" fill="#040EF0"/>
<circle cx="6" cy="6" r="6" transform="matrix(-1 0 0 1 444.5 31)" fill="white"/>
</svg>
