<svg width="522" height="260" viewBox="0 0 522 260" fill="none" xmlns="http://www.w3.org/2000/svg">
<path d="M0 103.894V260L43.5 226L84 260L116.5 226L121.313 10C42.2718 10 7.50388 80.929 0 103.894Z" fill="#FF0000"/>
<path d="M242 103.894V260L196.5 226L151.5 260L116.5 226L120.687 10C199.728 10 234.496 80.929 242 103.894Z" fill="#FF0000"/>
<path d="M86.5 135H62C54.268 135 48 128.732 48 121V92.9039C48 91.3129 48.2712 89.7336 48.8019 88.2338L52.9628 76.4748C56.1669 67.4195 67.3302 64.2069 74.8576 70.1737L95.1967 86.2962C98.5468 88.9517 100.5 92.9924 100.5 97.2674V121C100.5 128.732 94.232 135 86.5 135Z" fill="#E0DDFF"/>
<circle cx="76.5" cy="115" r="15.5" fill="#040EF0"/>
<circle cx="82" cy="111.5" r="6" fill="white"/>
<line x1="59" y1="62.5" x2="103" y2="95.5" stroke="black" stroke-width="10"/>
<path d="M152 135H176.5C184.232 135 190.5 128.732 190.5 121V92.9039C190.5 91.3129 190.229 89.7336 189.698 88.2338L185.537 76.4748C182.333 67.4195 171.17 64.2069 163.642 70.1737L143.303 86.2962C139.953 88.9517 138 92.9924 138 97.2674V121C138 128.732 144.268 135 152 135Z" fill="#E0DDFF"/>
<circle cx="15.5" cy="15.5" r="15.5" transform="matrix(-1 0 0 1 177.5 99.5)" fill="#040EF0"/>
<circle cx="6" cy="6" r="6" transform="matrix(-1 0 0 1 162.5 105.5)" fill="white"/>
<line y1="-5" x2="55" y2="-5" transform="matrix(-0.8 0.6 0.6 0.8 182.5 66.5)" stroke="black" stroke-width="10"/>
<path d="M280 103.894V260L323.5 226L349 260L396.5 226L401.313 10C322.272 10 287.504 80.929 280 103.894Z" fill="#FF0000"/>
<path d="M522 103.894V260L476.5 226L454 260L396.5 226L400.687 10C479.728 10 514.496 80.929 522 103.894Z" fill="#FF0000"/>
<path d="M366.5 135H342C334.268 135 328 128.732 328 121V92.9039C328 91.3129 328.271 89.7336 328.802 88.2338L332.963 76.4748C336.167 67.4195 347.33 64.2069 354.858 70.1737L375.197 86.2962C378.547 88.9517 380.5 92.9924 380.5 97.2674V121C380.5 128.732 374.232 135 366.5 135Z" fill="#E0DDFF"/>
<circle cx="356.5" cy="115" r="15.5" fill="#040EF0"/>
<circle cx="362" cy="111.5" r="6" fill="white"/>
<line x1="339" y1="62.5" x2="383" y2="95.5" stroke="black" stroke-width="10"/>
<path d="M432 135H456.5C464.232 135 470.5 128.732 470.5 121V92.9039C470.5 91.3129 470.229 89.7336 469.698 88.2338L465.537 76.4748C462.333 67.4195 451.17 64.2069 443.642 70.1737L423.303 86.2962C419.953 88.9517 418 92.9924 418 97.2674V121C418 128.732 424.268 135 432 135Z" fill="#E0DDFF"/>
<circle cx="15.5" cy="15.5" r="15.5" transform="matrix(-1 0 0 1 457.5 99.5)" fill="#040EF0"/>
<circle cx="6" cy="6" r="6" transform="matrix(-1 0 0 1 442.5 105.5)" fill="white"/>
<line y1="-5" x2="55" y2="-5" transform="matrix(-0.8 0.6 0.6 0.8 462.5 66.5)" stroke="black" stroke-width="10"/>
</svg>
