<svg width="522" height="260" viewBox="0 0 522 260" fill="none" xmlns="http://www.w3.org/2000/svg">
<path d="M0 103.894V260L43.5 226L84 260L116.5 226L121.313 10C42.2718 10 7.50388 80.929 0 103.894Z" fill="#FF0000"/>
<path d="M242 103.894V260L196.5 226L151.5 260L116.5 226L120.687 10C199.728 10 234.496 80.929 242 103.894Z" fill="#FF0000"/>
<path d="M86.5 87H62C54.268 87 48 80.732 48 73V44.9039C48 43.3129 48.2712 41.7336 48.8019 40.2338L52.9628 28.4748C56.1669 19.4195 67.3302 16.2069 74.8576 22.1737L95.1967 38.2962C98.5468 40.9517 100.5 44.9924 100.5 49.2674V73C100.5 80.732 94.232 87 86.5 87Z" fill="#E0DDFF"/>
<circle cx="63.5" cy="32.5" r="15.5" fill="#040EF0"/>
<circle cx="69" cy="29" r="6" fill="white"/>
<line x1="59" y1="7" x2="103" y2="40" stroke="black" stroke-width="10"/>
<path d="M152 87H176.5C184.232 87 190.5 80.732 190.5 73V44.9039C190.5 43.3129 190.229 41.7336 189.698 40.2338L185.537 28.4748C182.333 19.4195 171.17 16.2069 163.642 22.1737L143.303 38.2962C139.953 40.9517 138 44.9924 138 49.2674V73C138 80.732 144.268 87 152 87Z" fill="#E0DDFF"/>
<circle cx="15.5" cy="15.5" r="15.5" transform="matrix(-1 0 0 1 190.5 17)" fill="#040EF0"/>
<circle cx="6" cy="6" r="6" transform="matrix(-1 0 0 1 175.5 23)" fill="white"/>
<line y1="-5" x2="55" y2="-5" transform="matrix(-0.8 0.6 0.6 0.8 182.5 11)" stroke="black" stroke-width="10"/>
<path d="M280 103.894V260L323.5 226L349 260L396.5 226L401.313 10C322.272 10 287.504 80.929 280 103.894Z" fill="#FF0000"/>
<path d="M522 103.894V260L476.5 226L454 260L396.5 226L400.687 10C479.728 10 514.496 80.929 522 103.894Z" fill="#FF0000"/>
<path d="M366.5 87H342C334.268 87 328 80.732 328 73V44.9039C328 43.3129 328.271 41.7336 328.802 40.2338L332.963 28.4748C336.167 19.4195 347.33 16.2069 354.858 22.1737L375.197 38.2962C378.547 40.9517 380.5 44.9924 380.5 49.2674V73C380.5 80.732 374.232 87 366.5 87Z" fill="#E0DDFF"/>
<circle cx="343.5" cy="32.5" r="15.5" fill="#040EF0"/>
<circle cx="349" cy="29" r="6" fill="white"/>
<line x1="339" y1="7" x2="383" y2="40" stroke="black" stroke-width="10"/>
<path d="M432 87H456.5C464.232 87 470.5 80.732 470.5 73V44.9039C470.5 43.3129 470.229 41.7336 469.698 40.2338L465.537 28.4748C462.333 19.4195 451.17 16.2069 443.642 22.1737L423.303 38.2962C419.953 40.9517 418 44.9924 418 49.2674V73C418 80.732 424.268 87 432 87Z" fill="#E0DDFF"/>
<circle cx="15.5" cy="15.5" r="15.5" transform="matrix(-1 0 0 1 470.5 17)" fill="#040EF0"/>
<circle cx="6" cy="6" r="6" transform="matrix(-1 0 0 1 455.5 23)" fill="white"/>
<line y1="-5" x2="55" y2="-5" transform="matrix(-0.8 0.6 0.6 0.8 462.5 11)" stroke="black" stroke-width="10"/>
</svg>
