<svg width="530" height="272" viewBox="0 0 530 272" fill="none" xmlns="http://www.w3.org/2000/svg">
<g clip-path="url(#clip0_7_9627)">
<path d="M245.61 99.14C248.603 117.958 238.212 148.627 237.5 178.5C236.754 209.807 245.61 240.241 245.61 255.25C233.2 261.3 206.79 230.97 206.79 230.97C189.74 210.76 170.47 236.45 161.61 263.25C157.55 275.5 137.19 219.6 124.29 219.6C111.39 219.6 91.0299 275.5 86.9799 263.25C78.1199 236.45 58.8499 210.76 41.7999 230.97C41.7999 230.97 15.3899 261.3 2.9799 255.25C2.9799 237.926 8.48839 214.548 7.99999 178.5C7.66153 153.519 0.466603 114.916 2.9799 99.14C6.7799 75.28 45.2499 5.25 124.29 5.25C203.33 5.25 241.81 75.28 245.61 99.14Z" fill="#FF0000"/>
</g>
<path d="M89.5 87H65C57.268 87 51 80.732 51 73V44.9039C51 43.3129 51.2712 41.7336 51.8019 40.2338L55.9628 28.4748C59.1669 19.4195 70.3302 16.2069 77.8576 22.1737L98.1967 38.2962C101.547 40.9517 103.5 44.9924 103.5 49.2674V73C103.5 80.732 97.232 87 89.5 87Z" fill="#E0DDFF"/>
<circle cx="66.5" cy="32.5" r="15.5" fill="#040EF0"/>
<circle cx="72" cy="29" r="6" fill="white"/>
<line x1="62" y1="7" x2="106" y2="40" stroke="black" stroke-width="10"/>
<path d="M155 87H179.5C187.232 87 193.5 80.732 193.5 73V44.9039C193.5 43.3129 193.229 41.7336 192.698 40.2338L188.537 28.4748C185.333 19.4195 174.17 16.2069 166.642 22.1737L146.303 38.2962C142.953 40.9517 141 44.9924 141 49.2674V73C141 80.732 147.268 87 155 87Z" fill="#E0DDFF"/>
<circle cx="15.5" cy="15.5" r="15.5" transform="matrix(-1 0 0 1 193.5 17)" fill="#040EF0"/>
<circle cx="6" cy="6" r="6" transform="matrix(-1 0 0 1 178.5 23)" fill="white"/>
<line y1="-5" x2="55" y2="-5" transform="matrix(-0.8 0.6 0.6 0.8 185.5 11)" stroke="black" stroke-width="10"/>
<path d="M528.61 104.14C531.553 122.644 520.674 162.104 520 191.5C519.27 223.331 528.61 245.002 528.61 260.25C516.2 266.3 489.79 235.97 489.79 235.97C472.74 215.76 466.36 243.2 457.5 270C453.44 282.25 420.19 224.6 407.29 224.6C394.39 224.6 384.55 282.25 380.5 270C371.64 243.2 341.85 215.76 324.8 235.97C324.8 235.97 298.39 266.3 285.98 260.25C285.98 244.842 293.218 201.677 292.5 169.5C291.851 140.426 283.065 122.434 285.98 104.14C289.78 80.28 328.25 10.25 407.29 10.25C486.33 10.25 524.81 80.28 528.61 104.14Z" fill="#FF0000"/>
<path d="M369.5 87H345C337.268 87 331 80.732 331 73V44.9039C331 43.3129 331.271 41.7336 331.802 40.2338L335.963 28.4748C339.167 19.4195 350.33 16.2069 357.858 22.1737L378.197 38.2962C381.547 40.9517 383.5 44.9924 383.5 49.2674V73C383.5 80.732 377.232 87 369.5 87Z" fill="#E0DDFF"/>
<circle cx="346.5" cy="32.5" r="15.5" fill="#040EF0"/>
<circle cx="352" cy="29" r="6" fill="white"/>
<line x1="342" y1="7" x2="386" y2="40" stroke="black" stroke-width="10"/>
<path d="M435 87H459.5C467.232 87 473.5 80.732 473.5 73V44.9039C473.5 43.3129 473.229 41.7336 472.698 40.2338L468.537 28.4748C465.333 19.4195 454.17 16.2069 446.642 22.1737L426.303 38.2962C422.953 40.9517 421 44.9924 421 49.2674V73C421 80.732 427.268 87 435 87Z" fill="#E0DDFF"/>
<circle cx="15.5" cy="15.5" r="15.5" transform="matrix(-1 0 0 1 473.5 17)" fill="#040EF0"/>
<circle cx="6" cy="6" r="6" transform="matrix(-1 0 0 1 458.5 23)" fill="white"/>
<line y1="-5" x2="55" y2="-5" transform="matrix(-0.8 0.6 0.6 0.8 465.5 11)" stroke="black" stroke-width="10"/>
<defs>
<clipPath id="clip0_7_9627">
<rect width="248.58" height="260.25" fill="white" transform="translate(0 5)"/>
</clipPath>
</defs>
</svg>
