<svg width="530" height="272" viewBox="0 0 530 272" fill="none" xmlns="http://www.w3.org/2000/svg">
<g clip-path="url(#clip0_7_9629)">
<path d="M245.61 99.14C248.603 117.958 238.212 148.627 237.5 178.5C236.754 209.807 245.61 240.241 245.61 255.25C233.2 261.3 206.79 230.97 206.79 230.97C189.74 210.76 170.47 236.45 161.61 263.25C157.55 275.5 137.19 219.6 124.29 219.6C111.39 219.6 91.0299 275.5 86.9799 263.25C78.1199 236.45 58.8499 210.76 41.7999 230.97C41.7999 230.97 15.3899 261.3 2.9799 255.25C2.9799 237.926 8.48839 214.548 7.99999 178.5C7.66153 153.519 0.466603 114.916 2.9799 99.14C6.7799 75.28 45.2499 5.25 124.29 5.25C203.33 5.25 241.81 75.28 245.61 99.14Z" fill="#FF0000"/>
</g>
<path d="M125.5 135H150C157.732 135 164 128.732 164 121V98.0343C164 93.3304 161.638 88.9409 157.712 86.3498L146.357 78.8553C141.861 75.888 136.061 75.7634 131.442 78.5349L118.297 86.4218C114.08 88.9519 111.5 93.509 111.5 98.4267V121C111.5 128.732 117.768 135 125.5 135Z" fill="#E0DDFF"/>
<circle cx="15.5" cy="15.5" r="15.5" transform="matrix(-1 0 0 1 143 98)" fill="#040EF0"/>
<circle cx="6" cy="6" r="6" transform="matrix(-1 0 0 1 128 104)" fill="white"/>
<line y1="-5" x2="35.0464" y2="-5" transform="matrix(-0.741874 0.67054 0.67054 0.741874 138 74)" stroke="black" stroke-width="10"/>
<path d="M23.5 135H48C55.732 135 62 128.732 62 121V98.0343C62 93.3304 59.6377 88.9409 55.7118 86.3498L44.3565 78.8553C39.8606 75.888 34.061 75.7634 29.4418 78.5349L16.2971 86.4218C12.0802 88.9519 9.5 93.509 9.5 98.4267V121C9.5 128.732 15.768 135 23.5 135Z" fill="#E0DDFF"/>
<circle cx="15.5" cy="15.5" r="15.5" transform="matrix(-1 0 0 1 41 98)" fill="#040EF0"/>
<circle cx="6" cy="6" r="6" transform="matrix(-1 0 0 1 26 104)" fill="white"/>
<line y1="-5" x2="35.0464" y2="-5" transform="matrix(-0.741874 0.67054 0.67054 0.741874 36 74)" stroke="black" stroke-width="10"/>
<path d="M528.61 104.14C531.553 122.644 520.674 162.104 520 191.5C519.27 223.331 528.61 245.002 528.61 260.25C516.2 266.3 489.79 235.97 489.79 235.97C472.74 215.76 466.36 243.2 457.5 270C453.44 282.25 420.19 224.6 407.29 224.6C394.39 224.6 384.55 282.25 380.5 270C371.64 243.2 341.85 215.76 324.8 235.97C324.8 235.97 298.39 266.3 285.98 260.25C285.98 244.842 293.218 201.677 292.5 169.5C291.851 140.426 283.065 122.434 285.98 104.14C289.78 80.28 328.25 10.25 407.29 10.25C486.33 10.25 524.81 80.28 528.61 104.14Z" fill="#FF0000"/>
<path d="M405.5 135H430C437.732 135 444 128.732 444 121V98.0343C444 93.3304 441.638 88.9409 437.712 86.3498L426.357 78.8553C421.861 75.888 416.061 75.7634 411.442 78.5349L398.297 86.4218C394.08 88.9519 391.5 93.509 391.5 98.4267V121C391.5 128.732 397.768 135 405.5 135Z" fill="#E0DDFF"/>
<circle cx="15.5" cy="15.5" r="15.5" transform="matrix(-1 0 0 1 423 98)" fill="#040EF0"/>
<circle cx="6" cy="6" r="6" transform="matrix(-1 0 0 1 408 104)" fill="white"/>
<line y1="-5" x2="35.0464" y2="-5" transform="matrix(-0.741874 0.67054 0.67054 0.741874 418 74)" stroke="black" stroke-width="10"/>
<path d="M304.5 135H329C336.732 135 343 128.732 343 121V98.0343C343 93.3304 340.638 88.9409 336.712 86.3498L325.357 78.8553C320.861 75.888 315.061 75.7634 310.442 78.5349L297.297 86.4218C293.08 88.9519 290.5 93.509 290.5 98.4267V121C290.5 128.732 296.768 135 304.5 135Z" fill="#E0DDFF"/>
<circle cx="15.5" cy="15.5" r="15.5" transform="matrix(-1 0 0 1 322 98)" fill="#040EF0"/>
<circle cx="6" cy="6" r="6" transform="matrix(-1 0 0 1 307 104)" fill="white"/>
<line y1="-5" x2="35.0464" y2="-5" transform="matrix(-0.741874 0.67054 0.67054 0.741874 317 74)" stroke="black" stroke-width="10"/>
<defs>
<clipPath id="clip0_7_9629">
<rect width="248.58" height="260.25" fill="white" transform="translate(0 5)"/>
</clipPath>
</defs>
</svg>
