<svg width="522" height="260" viewBox="0 0 522 260" fill="none" xmlns="http://www.w3.org/2000/svg">
<path d="M0 103.894V260L43.5 226L84 260L116.5 226L121.313 10C42.2718 10 7.50388 80.929 0 103.894Z" fill="#FF0000"/>
<path d="M242 103.894V260L196.5 226L151.5 260L116.5 226L120.687 10C199.728 10 234.496 80.929 242 103.894Z" fill="#FF0000"/>
<path d="M58.5 135H34C26.268 135 20 128.732 20 121V92.9039C20 91.3129 20.2712 89.7336 20.8019 88.2338L24.9628 76.4748C28.1669 67.4195 39.3302 64.2069 46.8576 70.1737L67.1967 86.2962C70.5468 88.9517 72.5 92.9924 72.5 97.2674V121C72.5 128.732 66.232 135 58.5 135Z" fill="#E0DDFF"/>
<circle cx="38.5" cy="108.5" r="15.5" fill="#040EF0"/>
<circle cx="44" cy="105" r="6" fill="white"/>
<line x1="31" y1="62.5" x2="75" y2="95.5" stroke="black" stroke-width="10"/>
<path d="M148.5 135H124C116.268 135 110 128.732 110 121V92.9039C110 91.3129 110.271 89.7336 110.802 88.2338L114.963 76.4748C118.167 67.4195 129.33 64.2069 136.858 70.1737L157.197 86.2962C160.547 88.9517 162.5 92.9924 162.5 97.2674V121C162.5 128.732 156.232 135 148.5 135Z" fill="#E0DDFF"/>
<circle cx="128.5" cy="108.5" r="15.5" fill="#040EF0"/>
<circle cx="134" cy="105" r="6" fill="white"/>
<line x1="121" y1="62.5" x2="165" y2="95.5" stroke="black" stroke-width="10"/>
<path d="M280 103.894V260L323.5 226L349 260L396.5 226L401.313 10C322.272 10 287.504 80.929 280 103.894Z" fill="#FF0000"/>
<path d="M522 103.894V260L476.5 226L454 260L396.5 226L400.687 10C479.728 10 514.496 80.929 522 103.894Z" fill="#FF0000"/>
<path d="M338.5 135H314C306.268 135 300 128.732 300 121V92.9039C300 91.3129 300.271 89.7336 300.802 88.2338L304.963 76.4748C308.167 67.4195 319.33 64.2069 326.858 70.1737L347.197 86.2962C350.547 88.9517 352.5 92.9924 352.5 97.2674V121C352.5 128.732 346.232 135 338.5 135Z" fill="#E0DDFF"/>
<circle cx="318.5" cy="108.5" r="15.5" fill="#040EF0"/>
<circle cx="324" cy="105" r="6" fill="white"/>
<line x1="311" y1="62.5" x2="355" y2="95.5" stroke="black" stroke-width="10"/>
<path d="M428.5 135H404C396.268 135 390 128.732 390 121V92.9039C390 91.3129 390.271 89.7336 390.802 88.2338L394.963 76.4748C398.167 67.4195 409.33 64.2069 416.858 70.1737L437.197 86.2962C440.547 88.9517 442.5 92.9924 442.5 97.2674V121C442.5 128.732 436.232 135 428.5 135Z" fill="#E0DDFF"/>
<circle cx="408.5" cy="108.5" r="15.5" fill="#040EF0"/>
<circle cx="414" cy="105" r="6" fill="white"/>
<line x1="401" y1="62.5" x2="445" y2="95.5" stroke="black" stroke-width="10"/>
</svg>
