<svg width="522" height="260" viewBox="0 0 522 260" fill="none" xmlns="http://www.w3.org/2000/svg">
<path d="M0 103.894V260L43.5 226L84 260L116.5 226L121.313 10C42.2718 10 7.50388 80.929 0 103.894Z" fill="#FF0000"/>
<path d="M242 103.894V260L196.5 226L151.5 260L116.5 226L120.687 10C199.728 10 234.496 80.929 242 103.894Z" fill="#FF0000"/>
<path d="M122.5 135H147C154.732 135 161 128.732 161 121V98.0343C161 93.3304 158.638 88.9409 154.712 86.3498L143.357 78.8553C138.861 75.888 133.061 75.7634 128.442 78.5349L115.297 86.4218C111.08 88.9519 108.5 93.509 108.5 98.4267V121C108.5 128.732 114.768 135 122.5 135Z" fill="#E0DDFF"/>
<circle cx="15.5" cy="15.5" r="15.5" transform="matrix(-1 0 0 1 140 98)" fill="#040EF0"/>
<circle cx="6" cy="6" r="6" transform="matrix(-1 0 0 1 125 104)" fill="white"/>
<line y1="-5" x2="35.0464" y2="-5" transform="matrix(-0.741874 0.67054 0.67054 0.741874 135 74)" stroke="black" stroke-width="10"/>
<path d="M20.5 135H45C52.732 135 59 128.732 59 121V98.0343C59 93.3304 56.6377 88.9409 52.7118 86.3498L41.3565 78.8553C36.8606 75.888 31.061 75.7634 26.4418 78.5349L13.2971 86.4218C9.08018 88.9519 6.5 93.509 6.5 98.4267V121C6.5 128.732 12.768 135 20.5 135Z" fill="#E0DDFF"/>
<circle cx="15.5" cy="15.5" r="15.5" transform="matrix(-1 0 0 1 38 98)" fill="#040EF0"/>
<circle cx="6" cy="6" r="6" transform="matrix(-1 0 0 1 23 104)" fill="white"/>
<line y1="-5" x2="35.0464" y2="-5" transform="matrix(-0.741874 0.67054 0.67054 0.741874 33 74)" stroke="black" stroke-width="10"/>
<path d="M280 103.894V260L323.5 226L349 260L396.5 226L401.313 10C322.272 10 287.504 80.929 280 103.894Z" fill="#FF0000"/>
<path d="M522 103.894V260L476.5 226L454 260L396.5 226L400.687 10C479.728 10 514.496 80.929 522 103.894Z" fill="#FF0000"/>
<path d="M402.5 135H427C434.732 135 441 128.732 441 121V98.0343C441 93.3304 438.638 88.9409 434.712 86.3498L423.357 78.8553C418.861 75.888 413.061 75.7634 408.442 78.5349L395.297 86.4218C391.08 88.9519 388.5 93.509 388.5 98.4267V121C388.5 128.732 394.768 135 402.5 135Z" fill="#E0DDFF"/>
<circle cx="15.5" cy="15.5" r="15.5" transform="matrix(-1 0 0 1 420 98)" fill="#040EF0"/>
<circle cx="6" cy="6" r="6" transform="matrix(-1 0 0 1 405 104)" fill="white"/>
<line y1="-5" x2="35.0464" y2="-5" transform="matrix(-0.741874 0.67054 0.67054 0.741874 415 74)" stroke="black" stroke-width="10"/>
<path d="M301.5 135H326C333.732 135 340 128.732 340 121V98.0343C340 93.3304 337.638 88.9409 333.712 86.3498L322.357 78.8553C317.861 75.888 312.061 75.7634 307.442 78.5349L294.297 86.4218C290.08 88.9519 287.5 93.509 287.5 98.4267V121C287.5 128.732 293.768 135 301.5 135Z" fill="#E0DDFF"/>
<circle cx="15.5" cy="15.5" r="15.5" transform="matrix(-1 0 0 1 319 98)" fill="#040EF0"/>
<circle cx="6" cy="6" r="6" transform="matrix(-1 0 0 1 304 104)" fill="white"/>
<line y1="-5" x2="35.0464" y2="-5" transform="matrix(-0.741874 0.67054 0.67054 0.741874 314 74)" stroke="black" stroke-width="10"/>
</svg>
