<svg width="530" height="272" viewBox="0 0 530 272" fill="none" xmlns="http://www.w3.org/2000/svg">
<g clip-path="url(#clip0_7_9632)">
<path d="M245.61 99.14C248.603 117.958 238.212 148.627 237.5 178.5C236.754 209.807 245.61 240.241 245.61 255.25C233.2 261.3 206.79 230.97 206.79 230.97C189.74 210.76 170.47 236.45 161.61 263.25C157.55 275.5 137.19 219.6 124.29 219.6C111.39 219.6 91.03 275.5 86.98 263.25C78.12 236.45 58.85 210.76 41.8 230.97C41.8 230.97 15.39 261.3 2.98002 255.25C2.98002 237.926 8.48852 214.548 8.00011 178.5C7.66165 153.519 0.466726 114.916 2.98002 99.14C6.78002 75.28 45.25 5.25 124.29 5.25C203.33 5.25 241.81 75.28 245.61 99.14Z" fill="#FF0000"/>
</g>
<path d="M53.5 135H29C21.268 135 15 128.732 15 121V97.9926C15 93.3116 17.3394 88.9404 21.2342 86.3439L34.0079 77.8281C38.8237 74.6175 45.1187 74.7014 49.8473 78.0392L61.5736 86.3166C65.2899 88.9399 67.5 93.2053 67.5 97.7542V121C67.5 128.732 61.232 135 53.5 135Z" fill="#E0DDFF"/>
<circle cx="30.5" cy="104.5" r="15.5" fill="#040EF0"/>
<circle cx="36" cy="101" r="6" fill="white"/>
<path d="M143.5 135H119C111.268 135 105 128.732 105 121V97.9926C105 93.3116 107.339 88.9404 111.234 86.3439L124.008 77.8281C128.824 74.6175 135.119 74.7014 139.847 78.0392L151.574 86.3166C155.29 88.9399 157.5 93.2053 157.5 97.7542V121C157.5 128.732 151.232 135 143.5 135Z" fill="#E0DDFF"/>
<circle cx="120.5" cy="104.5" r="15.5" fill="#040EF0"/>
<circle cx="126" cy="101" r="6" fill="white"/>
<path d="M528.61 104.14C531.553 122.644 520.674 162.104 520 191.5C519.271 223.331 528.61 245.002 528.61 260.25C516.2 266.3 489.79 235.97 489.79 235.97C472.74 215.76 466.36 243.2 457.5 270C453.44 282.25 420.19 224.6 407.29 224.6C394.39 224.6 384.55 282.25 380.5 270C371.64 243.2 341.85 215.76 324.8 235.97C324.8 235.97 298.39 266.3 285.98 260.25C285.98 244.842 293.219 201.677 292.5 169.5C291.851 140.426 283.065 122.434 285.98 104.14C289.78 80.28 328.25 10.25 407.29 10.25C486.33 10.25 524.81 80.28 528.61 104.14Z" fill="#FF0000"/>
<path d="M333.5 135H309C301.268 135 295 128.732 295 121V97.9926C295 93.3116 297.339 88.9404 301.234 86.3439L314.008 77.8281C318.824 74.6175 325.119 74.7014 329.847 78.0392L341.574 86.3166C345.29 88.9399 347.5 93.2053 347.5 97.7542V121C347.5 128.732 341.232 135 333.5 135Z" fill="#E0DDFF"/>
<circle cx="310.5" cy="104.5" r="15.5" fill="#040EF0"/>
<circle cx="316" cy="101" r="6" fill="white"/>
<path d="M423.5 135H399C391.268 135 385 128.732 385 121V97.9926C385 93.3116 387.339 88.9404 391.234 86.3439L404.008 77.8281C408.824 74.6175 415.119 74.7014 419.847 78.0392L431.574 86.3166C435.29 88.9399 437.5 93.2053 437.5 97.7542V121C437.5 128.732 431.232 135 423.5 135Z" fill="#E0DDFF"/>
<circle cx="400.5" cy="104.5" r="15.5" fill="#040EF0"/>
<circle cx="406" cy="101" r="6" fill="white"/>
<defs>
<clipPath id="clip0_7_9632">
<rect width="248.58" height="260.25" fill="white" transform="translate(0 5)"/>
</clipPath>
</defs>
</svg>
