<svg width="522" height="260" viewBox="0 0 522 260" fill="none" xmlns="http://www.w3.org/2000/svg">
<path d="M0 103.894V260L43.5 226L84 260L116.5 226L121.313 10C42.2718 10 7.50388 80.929 0 103.894Z" fill="#FF0000"/>
<path d="M242 103.894V260L196.5 226L151.5 260L116.5 226L120.687 10C199.728 10 234.496 80.929 242 103.894Z" fill="#FF0000"/>
<path d="M86.5 135H62C54.268 135 48 128.732 48 121V97.9926C48 93.3116 50.3394 88.9404 54.2342 86.3439L67.0079 77.8281C71.8237 74.6175 78.1187 74.7014 82.8473 78.0392L94.5736 86.3166C98.2899 88.9399 100.5 93.2053 100.5 97.7542V121C100.5 128.732 94.232 135 86.5 135Z" fill="#E0DDFF"/>
<circle cx="74.5" cy="128.5" r="15.5" fill="#040EF0"/>
<circle cx="80" cy="125" r="6" fill="white"/>
<path d="M152 135H176.5C184.232 135 190.5 128.732 190.5 121V97.9926C190.5 93.3116 188.161 88.9404 184.266 86.3439L171.492 77.8281C166.676 74.6175 160.381 74.7014 155.653 78.0392L143.926 86.3166C140.21 88.9399 138 93.2053 138 97.7542V121C138 128.732 144.268 135 152 135Z" fill="#E0DDFF"/>
<circle cx="15.5" cy="15.5" r="15.5" transform="matrix(-1 0 0 1 179.5 113)" fill="#040EF0"/>
<circle cx="6" cy="6" r="6" transform="matrix(-1 0 0 1 164.5 119)" fill="white"/>
<path d="M280 103.894V260L323.5 226L349 260L396.5 226L401.313 10C322.272 10 287.504 80.929 280 103.894Z" fill="#FF0000"/>
<path d="M522 103.894V260L476.5 226L454 260L396.5 226L400.687 10C479.728 10 514.496 80.929 522 103.894Z" fill="#FF0000"/>
<path d="M366.5 135H342C334.268 135 328 128.732 328 121V97.9926C328 93.3116 330.339 88.9404 334.234 86.3439L347.008 77.8281C351.824 74.6175 358.119 74.7014 362.847 78.0392L374.574 86.3166C378.29 88.9399 380.5 93.2053 380.5 97.7542V121C380.5 128.732 374.232 135 366.5 135Z" fill="#E0DDFF"/>
<circle cx="354.5" cy="128.5" r="15.5" fill="#040EF0"/>
<circle cx="360" cy="125" r="6" fill="white"/>
<path d="M432 135H456.5C464.232 135 470.5 128.732 470.5 121V97.9926C470.5 93.3116 468.161 88.9404 464.266 86.3439L451.492 77.8281C446.676 74.6175 440.381 74.7014 435.653 78.0392L423.926 86.3166C420.21 88.9399 418 93.2053 418 97.7542V121C418 128.732 424.268 135 432 135Z" fill="#E0DDFF"/>
<circle cx="15.5" cy="15.5" r="15.5" transform="matrix(-1 0 0 1 459.5 113)" fill="#040EF0"/>
<circle cx="6" cy="6" r="6" transform="matrix(-1 0 0 1 444.5 119)" fill="white"/>
</svg>
