<svg width="530" height="272" viewBox="0 0 530 272" fill="none" xmlns="http://www.w3.org/2000/svg">
<g clip-path="url(#clip0_7_9631)">
<path d="M245.61 99.14C248.603 117.958 238.212 148.627 237.5 178.5C236.754 209.807 245.61 240.241 245.61 255.25C233.2 261.3 206.79 230.97 206.79 230.97C189.74 210.76 170.47 236.45 161.61 263.25C157.55 275.5 137.19 219.6 124.29 219.6C111.39 219.6 91.03 275.5 86.98 263.25C78.12 236.45 58.85 210.76 41.8 230.97C41.8 230.97 15.39 261.3 2.97996 255.25C2.97996 237.926 8.48845 214.548 8.00005 178.5C7.66159 153.519 0.466664 114.916 2.97996 99.14C6.77996 75.28 45.25 5.25 124.29 5.25C203.33 5.25 241.81 75.28 245.61 99.14Z" fill="#FF0000"/>
</g>
<path d="M89.5 80H65C57.268 80 51 73.732 51 66V42.9926C51 38.3116 53.3394 33.9404 57.2342 31.3439L70.0079 22.8281C74.8237 19.6175 81.1187 19.7014 85.8473 23.0392L97.5736 31.3166C101.29 33.9399 103.5 38.2053 103.5 42.7542V66C103.5 73.732 97.232 80 89.5 80Z" fill="#E0DDFF"/>
<circle cx="75.5" cy="36.5" r="15.5" fill="#040EF0"/>
<circle cx="81" cy="33" r="6" fill="white"/>
<line x1="82.4981" y1="17.4274" x2="106.498" y2="40.9274" stroke="black" stroke-width="10"/>
<path d="M155 80H179.5C187.232 80 193.5 73.732 193.5 66V42.9926C193.5 38.3116 191.161 33.9404 187.266 31.3439L174.492 22.8281C169.676 19.6175 163.381 19.7014 158.653 23.0392L146.926 31.3166C143.21 33.9399 141 38.2053 141 42.7542V66C141 73.732 147.268 80 155 80Z" fill="#E0DDFF"/>
<circle cx="15.5" cy="15.5" r="15.5" transform="matrix(-1 0 0 1 184.5 21)" fill="#040EF0"/>
<circle cx="6" cy="6" r="6" transform="matrix(-1 0 0 1 169.5 27)" fill="white"/>
<line y1="-5" x2="33.5894" y2="-5" transform="matrix(-0.71451 0.699625 0.699625 0.71451 165.5 21)" stroke="black" stroke-width="10"/>
<path d="M528.61 104.14C531.553 122.644 520.674 162.104 520 191.5C519.271 223.331 528.61 245.002 528.61 260.25C516.2 266.3 489.79 235.97 489.79 235.97C472.74 215.76 466.36 243.2 457.5 270C453.44 282.25 420.19 224.6 407.29 224.6C394.39 224.6 384.55 282.25 380.5 270C371.64 243.2 341.85 215.76 324.8 235.97C324.8 235.97 298.39 266.3 285.98 260.25C285.98 244.842 293.219 201.677 292.5 169.5C291.851 140.426 283.065 122.434 285.98 104.14C289.78 80.28 328.25 10.25 407.29 10.25C486.33 10.25 524.81 80.28 528.61 104.14Z" fill="#FF0000"/>
<path d="M369.5 80H345C337.268 80 331 73.732 331 66V42.9926C331 38.3116 333.339 33.9404 337.234 31.3439L350.008 22.8281C354.824 19.6175 361.119 19.7014 365.847 23.0392L377.574 31.3166C381.29 33.9399 383.5 38.2053 383.5 42.7542V66C383.5 73.732 377.232 80 369.5 80Z" fill="#E0DDFF"/>
<circle cx="355.5" cy="36.5" r="15.5" fill="#040EF0"/>
<circle cx="361" cy="33" r="6" fill="white"/>
<line x1="362.498" y1="17.4274" x2="386.498" y2="40.9274" stroke="black" stroke-width="10"/>
<path d="M435 80H459.5C467.232 80 473.5 73.732 473.5 66V42.9926C473.5 38.3116 471.161 33.9404 467.266 31.3439L454.492 22.8281C449.676 19.6175 443.381 19.7014 438.653 23.0392L426.926 31.3166C423.21 33.9399 421 38.2053 421 42.7542V66C421 73.732 427.268 80 435 80Z" fill="#E0DDFF"/>
<circle cx="15.5" cy="15.5" r="15.5" transform="matrix(-1 0 0 1 464.5 21)" fill="#040EF0"/>
<circle cx="6" cy="6" r="6" transform="matrix(-1 0 0 1 449.5 27)" fill="white"/>
<line y1="-5" x2="33.5894" y2="-5" transform="matrix(-0.71451 0.699625 0.699625 0.71451 445.5 21)" stroke="black" stroke-width="10"/>
<defs>
<clipPath id="clip0_7_9631">
<rect width="248.58" height="260.25" fill="white" transform="translate(0 5)"/>
</clipPath>
</defs>
</svg>
