<svg width="530" height="272" viewBox="0 0 530 272" fill="none" xmlns="http://www.w3.org/2000/svg">
<g clip-path="url(#clip0_7_9630)">
<path d="M245.61 99.14C248.603 117.958 238.212 148.627 237.5 178.5C236.754 209.807 245.61 240.241 245.61 255.25C233.2 261.3 206.79 230.97 206.79 230.97C189.74 210.76 170.47 236.45 161.61 263.25C157.55 275.5 137.19 219.6 124.29 219.6C111.39 219.6 91.03 275.5 86.98 263.25C78.12 236.45 58.85 210.76 41.8 230.97C41.8 230.97 15.39 261.3 2.97999 255.25C2.97999 237.926 8.48849 214.548 8.00008 178.5C7.66162 153.519 0.466695 114.916 2.97999 99.14C6.77999 75.28 45.25 5.25 124.29 5.25C203.33 5.25 241.81 75.28 245.61 99.14Z" fill="#FF0000"/>
</g>
<path d="M127.5 135H103C95.268 135 89 128.732 89 121V98.0343C89 93.3304 91.3623 88.9409 95.2882 86.3498L106.643 78.8553C111.139 75.888 116.939 75.7634 121.558 78.5349L134.703 86.4218C138.92 88.9519 141.5 93.509 141.5 98.4267V121C141.5 128.732 135.232 135 127.5 135Z" fill="#E0DDFF"/>
<circle cx="125.5" cy="113.5" r="15.5" fill="#040EF0"/>
<circle cx="131" cy="110" r="6" fill="white"/>
<line x1="118.353" y1="70.2906" x2="144.353" y2="93.7906" stroke="black" stroke-width="10"/>
<path d="M217.5 135H193C185.268 135 179 128.732 179 121V97.9926C179 93.3116 181.339 88.9404 185.234 86.3439L198.008 77.8281C202.824 74.6175 209.119 74.7014 213.847 78.0392L225.574 86.3166C229.29 88.9399 231.5 93.2053 231.5 97.7542V121C231.5 128.732 225.232 135 217.5 135Z" fill="#E0DDFF"/>
<circle cx="215.5" cy="113.5" r="15.5" fill="#040EF0"/>
<circle cx="221" cy="110" r="6" fill="white"/>
<line y1="-5" x2="33.5894" y2="-5" transform="matrix(-0.71451 0.699625 0.699625 0.71451 205 72)" stroke="black" stroke-width="10"/>
<path d="M528.61 104.14C531.553 122.644 520.674 162.104 520 191.5C519.271 223.331 528.61 245.002 528.61 260.25C516.2 266.3 489.79 235.97 489.79 235.97C472.74 215.76 466.36 243.2 457.5 270C453.44 282.25 420.19 224.6 407.29 224.6C394.39 224.6 384.55 282.25 380.5 270C371.64 243.2 341.85 215.76 324.8 235.97C324.8 235.97 298.39 266.3 285.98 260.25C285.98 244.842 293.219 201.677 292.5 169.5C291.851 140.426 283.065 122.434 285.98 104.14C289.78 80.28 328.25 10.25 407.29 10.25C486.33 10.25 524.81 80.28 528.61 104.14Z" fill="#FF0000"/>
<path d="M407.5 135H383C375.268 135 369 128.732 369 121V97.9926C369 93.3116 371.339 88.9404 375.234 86.3439L388.008 77.8281C392.824 74.6175 399.119 74.7014 403.847 78.0392L415.574 86.3166C419.29 88.9399 421.5 93.2053 421.5 97.7542V121C421.5 128.732 415.232 135 407.5 135Z" fill="#E0DDFF"/>
<circle cx="405.5" cy="113.5" r="15.5" fill="#040EF0"/>
<circle cx="411" cy="110" r="6" fill="white"/>
<line y1="-5" x2="33.5894" y2="-5" transform="matrix(-0.71451 0.699625 0.699625 0.71451 395 72)" stroke="black" stroke-width="10"/>
<path d="M497.5 135H473C465.268 135 459 128.732 459 121V97.9926C459 93.3116 461.339 88.9404 465.234 86.3439L478.008 77.8281C482.824 74.6175 489.119 74.7014 493.847 78.0392L505.574 86.3166C509.29 88.9399 511.5 93.2053 511.5 97.7542V121C511.5 128.732 505.232 135 497.5 135Z" fill="#E0DDFF"/>
<circle cx="495.5" cy="113.5" r="15.5" fill="#040EF0"/>
<circle cx="501" cy="110" r="6" fill="white"/>
<line y1="-5" x2="33.5894" y2="-5" transform="matrix(-0.71451 0.699625 0.699625 0.71451 485 72)" stroke="black" stroke-width="10"/>
<defs>
<clipPath id="clip0_7_9630">
<rect width="248.58" height="260.25" fill="white" transform="translate(0 5)"/>
</clipPath>
</defs>
</svg>
