<svg width="522" height="260" viewBox="0 0 522 260" fill="none" xmlns="http://www.w3.org/2000/svg">
<path d="M0 103.894V260L43.5 226L84 260L116.5 226L121.313 10C42.2718 10 7.50388 80.929 0 103.894Z" fill="#FF0000"/>
<path d="M242 103.894V260L196.5 226L151.5 260L116.5 226L120.687 10C199.728 10 234.496 80.929 242 103.894Z" fill="#FF0000"/>
<path d="M124.5 135H100C92.268 135 86 128.732 86 121V98.0343C86 93.3304 88.3623 88.9409 92.2882 86.3498L103.643 78.8553C108.139 75.888 113.939 75.7634 118.558 78.5349L131.703 86.4218C135.92 88.9519 138.5 93.509 138.5 98.4267V121C138.5 128.732 132.232 135 124.5 135Z" fill="#E0DDFF"/>
<circle cx="122.5" cy="113.5" r="15.5" fill="#040EF0"/>
<circle cx="128" cy="110" r="6" fill="white"/>
<line x1="115.353" y1="70.2906" x2="141.353" y2="93.7906" stroke="black" stroke-width="10"/>
<path d="M214.5 135H190C182.268 135 176 128.732 176 121V97.9926C176 93.3116 178.339 88.9404 182.234 86.3439L195.008 77.8281C199.824 74.6175 206.119 74.7014 210.847 78.0392L222.574 86.3166C226.29 88.9399 228.5 93.2053 228.5 97.7542V121C228.5 128.732 222.232 135 214.5 135Z" fill="#E0DDFF"/>
<circle cx="212.5" cy="113.5" r="15.5" fill="#040EF0"/>
<circle cx="218" cy="110" r="6" fill="white"/>
<line y1="-5" x2="33.5894" y2="-5" transform="matrix(-0.71451 0.699625 0.699625 0.71451 202 72)" stroke="black" stroke-width="10"/>
<path d="M280 103.894V260L323.5 226L349 260L396.5 226L401.313 10C322.272 10 287.504 80.929 280 103.894Z" fill="#FF0000"/>
<path d="M522 103.894V260L476.5 226L454 260L396.5 226L400.687 10C479.728 10 514.496 80.929 522 103.894Z" fill="#FF0000"/>
<path d="M404.5 135H380C372.268 135 366 128.732 366 121V97.9926C366 93.3116 368.339 88.9404 372.234 86.3439L385.008 77.8281C389.824 74.6175 396.119 74.7014 400.847 78.0392L412.574 86.3166C416.29 88.9399 418.5 93.2053 418.5 97.7542V121C418.5 128.732 412.232 135 404.5 135Z" fill="#E0DDFF"/>
<circle cx="402.5" cy="113.5" r="15.5" fill="#040EF0"/>
<circle cx="408" cy="110" r="6" fill="white"/>
<line y1="-5" x2="33.5894" y2="-5" transform="matrix(-0.71451 0.699625 0.699625 0.71451 392 72)" stroke="black" stroke-width="10"/>
<path d="M494.5 135H470C462.268 135 456 128.732 456 121V97.9926C456 93.3116 458.339 88.9404 462.234 86.3439L475.008 77.8281C479.824 74.6175 486.119 74.7014 490.847 78.0392L502.574 86.3166C506.29 88.9399 508.5 93.2053 508.5 97.7542V121C508.5 128.732 502.232 135 494.5 135Z" fill="#E0DDFF"/>
<circle cx="492.5" cy="113.5" r="15.5" fill="#040EF0"/>
<circle cx="498" cy="110" r="6" fill="white"/>
<line y1="-5" x2="33.5894" y2="-5" transform="matrix(-0.71451 0.699625 0.699625 0.71451 482 72)" stroke="black" stroke-width="10"/>
</svg>
