<svg width="522" height="260" viewBox="0 0 522 260" fill="none" xmlns="http://www.w3.org/2000/svg">
<path d="M0 103.894V260L43.5 226L84 260L116.5 226L121.313 10C42.2718 10 7.50388 80.929 0 103.894Z" fill="#FF0000"/>
<path d="M242 103.894V260L196.5 226L151.5 260L116.5 226L120.687 10C199.728 10 234.496 80.929 242 103.894Z" fill="#FF0000"/>
<path d="M102 135H126.5C134.232 135 140.5 128.732 140.5 121V97.9926C140.5 93.3116 138.161 88.9404 134.266 86.3439L121.492 77.8281C116.676 74.6175 110.381 74.7014 105.653 78.0392L93.9264 86.3166C90.2101 88.9399 88 93.2053 88 97.7542V121C88 128.732 94.268 135 102 135Z" fill="#E0DDFF"/>
<circle cx="15.5" cy="15.5" r="15.5" transform="matrix(-1 0 0 1 140.5 89)" fill="#040EF0"/>
<circle cx="6" cy="6" r="6" transform="matrix(-1 0 0 1 125.5 95)" fill="white"/>
<path d="M192 135H216.5C224.232 135 230.5 128.732 230.5 121V97.9926C230.5 93.3116 228.161 88.9404 224.266 86.3439L211.492 77.8281C206.676 74.6175 200.381 74.7014 195.653 78.0392L183.926 86.3166C180.21 88.9399 178 93.2053 178 97.7542V121C178 128.732 184.268 135 192 135Z" fill="#E0DDFF"/>
<circle cx="15.5" cy="15.5" r="15.5" transform="matrix(-1 0 0 1 230.5 89)" fill="#040EF0"/>
<circle cx="6" cy="6" r="6" transform="matrix(-1 0 0 1 215.5 95)" fill="white"/>
<path d="M280 103.894V260L323.5 226L349 260L396.5 226L401.313 10C322.272 10 287.504 80.929 280 103.894Z" fill="#FF0000"/>
<path d="M522 103.894V260L476.5 226L454 260L396.5 226L400.687 10C479.728 10 514.496 80.929 522 103.894Z" fill="#FF0000"/>
<path d="M382 135H406.5C414.232 135 420.5 128.732 420.5 121V97.9926C420.5 93.3116 418.161 88.9404 414.266 86.3439L401.492 77.8281C396.676 74.6175 390.381 74.7014 385.653 78.0392L373.926 86.3166C370.21 88.9399 368 93.2053 368 97.7542V121C368 128.732 374.268 135 382 135Z" fill="#E0DDFF"/>
<circle cx="15.5" cy="15.5" r="15.5" transform="matrix(-1 0 0 1 420.5 89)" fill="#040EF0"/>
<circle cx="6" cy="6" r="6" transform="matrix(-1 0 0 1 405.5 95)" fill="white"/>
<path d="M472 135H496.5C504.232 135 510.5 128.732 510.5 121V97.9926C510.5 93.3116 508.161 88.9404 504.266 86.3439L491.492 77.8281C486.676 74.6175 480.381 74.7014 475.653 78.0392L463.926 86.3166C460.21 88.9399 458 93.2053 458 97.7542V121C458 128.732 464.268 135 472 135Z" fill="#E0DDFF"/>
<circle cx="15.5" cy="15.5" r="15.5" transform="matrix(-1 0 0 1 510.5 89)" fill="#040EF0"/>
<circle cx="6" cy="6" r="6" transform="matrix(-1 0 0 1 495.5 95)" fill="white"/>
</svg>
