<svg width="530" height="272" viewBox="0 0 530 272" fill="none" xmlns="http://www.w3.org/2000/svg">
<g clip-path="url(#clip0_7_9625)">
<path d="M245.61 99.14C248.603 117.958 238.212 148.627 237.5 178.5C236.754 209.807 245.61 240.241 245.61 255.25C233.2 261.3 206.79 230.97 206.79 230.97C189.74 210.76 170.47 236.45 161.61 263.25C157.55 275.5 137.19 219.6 124.29 219.6C111.39 219.6 91.03 275.5 86.98 263.25C78.12 236.45 58.85 210.76 41.8 230.97C41.8 230.97 15.39 261.3 2.97996 255.25C2.97996 237.926 8.48845 214.548 8.00005 178.5C7.66159 153.519 0.466664 114.916 2.97996 99.14C6.77996 75.28 45.25 5.25 124.29 5.25C203.33 5.25 241.81 75.28 245.61 99.14Z" fill="#FF0000"/>
</g>
<path d="M61.5 135H37C29.268 135 23 128.732 23 121V92.9039C23 91.3129 23.2712 89.7336 23.8019 88.2338L27.9628 76.4748C31.1669 67.4195 42.3302 64.2069 49.8576 70.1737L70.1967 86.2962C73.5468 88.9517 75.5 92.9924 75.5 97.2674V121C75.5 128.732 69.232 135 61.5 135Z" fill="#E0DDFF"/>
<circle cx="41.5" cy="108.5" r="15.5" fill="#040EF0"/>
<circle cx="47" cy="105" r="6" fill="white"/>
<line x1="34" y1="62.5" x2="78" y2="95.5" stroke="black" stroke-width="10"/>
<path d="M151.5 135H127C119.268 135 113 128.732 113 121V92.9039C113 91.3129 113.271 89.7336 113.802 88.2338L117.963 76.4748C121.167 67.4195 132.33 64.2069 139.858 70.1737L160.197 86.2962C163.547 88.9517 165.5 92.9924 165.5 97.2674V121C165.5 128.732 159.232 135 151.5 135Z" fill="#E0DDFF"/>
<circle cx="131.5" cy="108.5" r="15.5" fill="#040EF0"/>
<circle cx="137" cy="105" r="6" fill="white"/>
<line x1="124" y1="62.5" x2="168" y2="95.5" stroke="black" stroke-width="10"/>
<path d="M528.61 104.14C531.553 122.644 520.674 162.104 520 191.5C519.271 223.331 528.61 245.002 528.61 260.25C516.2 266.3 489.79 235.97 489.79 235.97C472.74 215.76 466.36 243.2 457.5 270C453.44 282.25 420.19 224.6 407.29 224.6C394.39 224.6 384.55 282.25 380.5 270C371.64 243.2 341.85 215.76 324.8 235.97C324.8 235.97 298.39 266.3 285.98 260.25C285.98 244.842 293.219 201.677 292.5 169.5C291.851 140.426 283.065 122.434 285.98 104.14C289.78 80.28 328.25 10.25 407.29 10.25C486.33 10.25 524.81 80.28 528.61 104.14Z" fill="#FF0000"/>
<path d="M341.5 135H317C309.268 135 303 128.732 303 121V92.9039C303 91.3129 303.271 89.7336 303.802 88.2338L307.963 76.4748C311.167 67.4195 322.33 64.2069 329.858 70.1737L350.197 86.2962C353.547 88.9517 355.5 92.9924 355.5 97.2674V121C355.5 128.732 349.232 135 341.5 135Z" fill="#E0DDFF"/>
<circle cx="321.5" cy="108.5" r="15.5" fill="#040EF0"/>
<circle cx="327" cy="105" r="6" fill="white"/>
<line x1="314" y1="62.5" x2="358" y2="95.5" stroke="black" stroke-width="10"/>
<path d="M431.5 135H407C399.268 135 393 128.732 393 121V92.9039C393 91.3129 393.271 89.7336 393.802 88.2338L397.963 76.4748C401.167 67.4195 412.33 64.2069 419.858 70.1737L440.197 86.2962C443.547 88.9517 445.5 92.9924 445.5 97.2674V121C445.5 128.732 439.232 135 431.5 135Z" fill="#E0DDFF"/>
<circle cx="411.5" cy="108.5" r="15.5" fill="#040EF0"/>
<circle cx="417" cy="105" r="6" fill="white"/>
<line x1="404" y1="62.5" x2="448" y2="95.5" stroke="black" stroke-width="10"/>
<defs>
<clipPath id="clip0_7_9625">
<rect width="248.58" height="260.25" fill="white" transform="translate(0 5)"/>
</clipPath>
</defs>
</svg>
