<svg width="530" height="272" viewBox="0 0 530 272" fill="none" xmlns="http://www.w3.org/2000/svg">
<g clip-path="url(#clip0_7_9635)">
<path d="M245.61 99.14C248.603 117.958 238.212 148.627 237.5 178.5C236.754 209.807 245.61 240.241 245.61 255.25C233.2 261.3 206.79 230.97 206.79 230.97C189.74 210.76 170.47 236.45 161.61 263.25C157.55 275.5 137.19 219.6 124.29 219.6C111.39 219.6 91.0299 275.5 86.9799 263.25C78.1199 236.45 58.8499 210.76 41.7999 230.97C41.7999 230.97 15.3899 261.3 2.9799 255.25C2.9799 237.926 8.48839 214.548 7.99999 178.5C7.66153 153.519 0.466603 114.916 2.9799 99.14C6.7799 75.28 45.2499 5.25 124.29 5.25C203.33 5.25 241.81 75.28 245.61 99.14Z" fill="#FF0000"/>
</g>
<path d="M89.5 87H65C57.268 87 51 80.732 51 73V49.9926C51 45.3116 53.3394 40.9404 57.2342 38.3439L70.0079 29.8281C74.8237 26.6175 81.1187 26.7014 85.8473 30.0392L97.5736 38.3166C101.29 40.9399 103.5 45.2053 103.5 49.7542V73C103.5 80.732 97.232 87 89.5 87Z" fill="#E0DDFF"/>
<circle cx="77.5" cy="40.5" r="15.5" fill="#040EF0"/>
<circle cx="83" cy="37" r="6" fill="white"/>
<path d="M155 87H179.5C187.232 87 193.5 80.732 193.5 73V49.9926C193.5 45.3116 191.161 40.9404 187.266 38.3439L174.492 29.8281C169.676 26.6175 163.381 26.7014 158.653 30.0392L146.926 38.3166C143.21 40.9399 141 45.2053 141 49.7542V73C141 80.732 147.268 87 155 87Z" fill="#E0DDFF"/>
<circle cx="15.5" cy="15.5" r="15.5" transform="matrix(-1 0 0 1 182.5 25)" fill="#040EF0"/>
<circle cx="6" cy="6" r="6" transform="matrix(-1 0 0 1 167.5 31)" fill="white"/>
<path d="M528.61 104.14C531.553 122.644 520.674 162.104 520 191.5C519.27 223.331 528.61 245.002 528.61 260.25C516.2 266.3 489.79 235.97 489.79 235.97C472.74 215.76 466.36 243.2 457.5 270C453.44 282.25 420.19 224.6 407.29 224.6C394.39 224.6 384.55 282.25 380.5 270C371.64 243.2 341.85 215.76 324.8 235.97C324.8 235.97 298.39 266.3 285.98 260.25C285.98 244.842 293.218 201.677 292.5 169.5C291.851 140.426 283.065 122.434 285.98 104.14C289.78 80.28 328.25 10.25 407.29 10.25C486.33 10.25 524.81 80.28 528.61 104.14Z" fill="#FF0000"/>
<path d="M369.5 87H345C337.268 87 331 80.732 331 73V49.9926C331 45.3116 333.339 40.9404 337.234 38.3439L350.008 29.8281C354.824 26.6175 361.119 26.7014 365.847 30.0392L377.574 38.3166C381.29 40.9399 383.5 45.2053 383.5 49.7542V73C383.5 80.732 377.232 87 369.5 87Z" fill="#E0DDFF"/>
<circle cx="357.5" cy="40.5" r="15.5" fill="#040EF0"/>
<circle cx="363" cy="37" r="6" fill="white"/>
<path d="M435 87H459.5C467.232 87 473.5 80.732 473.5 73V49.9926C473.5 45.3116 471.161 40.9404 467.266 38.3439L454.492 29.8281C449.676 26.6175 443.381 26.7014 438.653 30.0392L426.926 38.3166C423.21 40.9399 421 45.2053 421 49.7542V73C421 80.732 427.268 87 435 87Z" fill="#E0DDFF"/>
<circle cx="15.5" cy="15.5" r="15.5" transform="matrix(-1 0 0 1 462.5 25)" fill="#040EF0"/>
<circle cx="6" cy="6" r="6" transform="matrix(-1 0 0 1 447.5 31)" fill="white"/>
<defs>
<clipPath id="clip0_7_9635">
<rect width="248.58" height="260.25" fill="white" transform="translate(0 5)"/>
</clipPath>
</defs>
</svg>
