<svg width="535" height="260" viewBox="0 0 535 260" fill="none" xmlns="http://www.w3.org/2000/svg">
<g clip-path="url(#clip0_7_9628)">
<path d="M214.2 76.2632H204V86.4737H214.2V76.2632Z" fill="#9E3C79"/>
<path d="M224.4 66.0527H214.2V76.2632H224.4V66.0527Z" fill="#9E3C79"/>
<path d="M224.4 55.8421H214.2V66.0526H224.4V55.8421Z" fill="#D86A9E"/>
<path d="M214.2 66.0527H204V76.2632H214.2V66.0527Z" fill="#D86A9E"/>
<path d="M204 76.2632H193.8V86.4737H204V76.2632Z" fill="#D86A9E"/>
<path d="M204 45.6316H193.8V55.8421H183.6V66.0526V76.2632H193.8H204V66.0526H214.2V55.8421V45.6316H204Z" fill="#E6A0B3"/>
<path d="M153 35.4211H142.8V45.6316H153V35.4211Z" fill="#D86A9E"/>
<path d="M153 35.4211V45.6316H142.8V55.8421H132.6V66.0527H142.8H153V55.8421H163.2V45.6316V35.4211H153Z" fill="#9E3C79"/>
<path d="M163.2 25.2105H153V35.421H163.2V25.2105Z" fill="#D86A9E"/>
<path d="M142.8 45.6316H132.6V55.8421H142.8V45.6316Z" fill="#D86A9E"/>
<path d="M132.6 55.8421H122.4V66.0526H132.6V55.8421Z" fill="#D86A9E"/>
<path d="M142.8 15H132.6H122.4V25.2105H112.2V35.4211V45.6316V55.8421H122.4H132.6V45.6316H142.8V35.4211H153V25.2105V15H142.8Z" fill="#E6A0B3"/>
<path d="M10.2 106.895H0V117.105H10.2V106.895Z" fill="#E6A0B3"/>
<path d="M20.4 96.6842H10.2V106.895H20.4V96.6842Z" fill="#E6A0B3"/>
<path d="M244.8 96.6842H234.6V106.895H244.8V96.6842Z" fill="#E6A0B3"/>
<path d="M255 106.895H244.8V117.105H255V106.895Z" fill="#E6A0B3"/>
<path d="M183.6 86.4737H173.4H163.2H153H142.8H132.6H122.4H112.2H102H91.7999H81.5999H71.3999H61.1999H50.9999H40.7999H30.5999H20.3999V96.6842H30.5999H40.7999H50.9999H61.1999H71.3999H81.5999H91.7999H102H112.2H122.4H132.6H142.8H153H163.2H173.4H183.6H193.8V86.4737H183.6Z" fill="#E6A0B3"/>
<path d="M224.4 86.4737H214.2V96.6842H224.4H234.6V86.4737H224.4Z" fill="#E6A0B3"/>
<path d="M244.8 117.105V106.895H234.6V96.6842H224.4H214.2H204H193.8H183.6H173.4H163.2H153H142.8H132.6H122.4H112.2H102H91.8H81.6H71.4H61.2H51H40.8H30.6H20.4V106.895H10.2V117.105H0V127.316V137.526V147.737V157.947V168.158V178.368H10.2V188.579H20.4V198.789H30.6H40.8H51H61.2H71.4H81.6H91.8H102H112.2H122.4H132.6H142.8H153H163.2H173.4H183.6H193.8H204H214.2H224.4H234.6V188.579H244.8V178.368H255V168.158V157.947V147.737V137.526V127.316V117.105H244.8Z" fill="#D86A9E"/>
<path d="M10.2 178.368H0V188.579H10.2V178.368Z" fill="#9E3C79"/>
<path d="M20.4 188.579H10.2V198.789H20.4V188.579Z" fill="#9E3C79"/>
<path d="M244.8 188.579H234.6V198.789H244.8V188.579Z" fill="#9E3C79"/>
<path d="M255 178.368H244.8V188.579H255V178.368Z" fill="#9E3C79"/>
<path d="M224.4 198.789H214.2H204H193.8H183.6H173.4H163.2H153H142.8H132.6H122.4H112.2H102H91.7999H81.5999H71.3999H61.1999H50.9999H40.7999H30.5999H20.3999V209H30.5999H40.7999H50.9999H61.1999H71.3999H81.5999H91.7999H102H112.2H122.4H132.6H142.8H153H163.2H173.4H183.6H193.8H204H214.2H224.4H234.6V198.789H224.4Z" fill="#9E3C79"/>
<path d="M102 117.105H91.8V127.316H102H112.2V117.105H102Z" fill="#EFCDCD"/>
<path d="M81.6001 127.316V137.526V147.737V157.947V168.158H91.8001V157.947V147.737V137.526V127.316H81.6001Z" fill="#EFCDCD"/>
<path d="M112.2 127.316V137.526V147.737V157.947V168.158H122.4V157.947V147.737V137.526V127.316H112.2Z" fill="#EFCDCD"/>
<path d="M102 168.158H91.8V178.368H102H112.2V168.158H102Z" fill="#EFCDCD"/>
<path d="M153 117.105H142.8V127.316H153H163.2V117.105H153Z" fill="#EFCDCD"/>
<path d="M163.2 127.316V137.526V147.737H153H142.8V137.526V127.316H132.6V137.526V147.737V157.947V168.158V178.368H142.8V168.158V157.947H153H163.2V168.158V178.368H173.4V168.158V157.947V147.737V137.526V127.316H163.2Z" fill="#EFCDCD"/>
<path d="M214.2 127.316V137.526V147.737H224.4V137.526V127.316H214.2Z" fill="#EFCDCD"/>
<path d="M193.8 127.316H204H214.2V117.105H204H193.8H183.6V127.316V137.526V147.737V157.947V168.158V178.368H193.8V168.158V157.947H204H214.2V147.737H204H193.8V137.526V127.316Z" fill="#EFCDCD"/>
<path d="M71.4002 127.316H61.2002V137.526H71.4002V127.316Z" fill="#EFCDCD"/>
<path d="M51 117.105H40.8V127.316H51H61.2V117.105H51Z" fill="#EFCDCD"/>
<path d="M40.8001 127.316H30.6001V137.526H40.8001V127.316Z" fill="#EFCDCD"/>
<path d="M51 137.526H40.8V147.737H51V137.526Z" fill="#EFCDCD"/>
<path d="M61.2 147.737H51V157.947H61.2V147.737Z" fill="#EFCDCD"/>
<path d="M71.4002 157.947H61.2002V168.158H71.4002V157.947Z" fill="#EFCDCD"/>
<path d="M40.8 168.158V178.368H51H61.2V168.158H51H40.8Z" fill="#EFCDCD"/>
<path d="M40.8001 157.947H30.6001V168.158H40.8001V157.947Z" fill="#EFCDCD"/>
</g>
<g clip-path="url(#clip1_7_9628)">
<path d="M494.2 76.2632H484V86.4737H494.2V76.2632Z" fill="#9E3C79"/>
<path d="M504.4 66.0527H494.2V76.2632H504.4V66.0527Z" fill="#9E3C79"/>
<path d="M504.4 55.8421H494.2V66.0526H504.4V55.8421Z" fill="#D86A9E"/>
<path d="M494.2 66.0527H484V76.2632H494.2V66.0527Z" fill="#D86A9E"/>
<path d="M484 76.2632H473.8V86.4737H484V76.2632Z" fill="#D86A9E"/>
<path d="M484 45.6316H473.8V55.8421H463.6V66.0526V76.2632H473.8H484V66.0526H494.2V55.8421V45.6316H484Z" fill="#E6A0B3"/>
<path d="M433 35.4211H422.8V45.6316H433V35.4211Z" fill="#D86A9E"/>
<path d="M433 35.4211V45.6316H422.8V55.8421H412.6V66.0527H422.8H433V55.8421H443.2V45.6316V35.4211H433Z" fill="#9E3C79"/>
<path d="M443.2 25.2105H433V35.421H443.2V25.2105Z" fill="#D86A9E"/>
<path d="M422.8 45.6316H412.6V55.8421H422.8V45.6316Z" fill="#D86A9E"/>
<path d="M412.6 55.8421H402.4V66.0526H412.6V55.8421Z" fill="#D86A9E"/>
<path d="M422.8 15H412.6H402.4V25.2105H392.2V35.4211V45.6316V55.8421H402.4H412.6V45.6316H422.8V35.4211H433V25.2105V15H422.8Z" fill="#E6A0B3"/>
<path d="M290.2 106.895H280V117.105H290.2V106.895Z" fill="#E6A0B3"/>
<path d="M300.4 96.6842H290.2V106.895H300.4V96.6842Z" fill="#E6A0B3"/>
<path d="M524.8 96.6842H514.6V106.895H524.8V96.6842Z" fill="#E6A0B3"/>
<path d="M535 106.895H524.8V117.105H535V106.895Z" fill="#E6A0B3"/>
<path d="M463.6 86.4737H453.4H443.2H433H422.8H412.6H402.4H392.2H382H371.8H361.6H351.4H341.2H331H320.8H310.6H300.4V96.6842H310.6H320.8H331H341.2H351.4H361.6H371.8H382H392.2H402.4H412.6H422.8H433H443.2H453.4H463.6H473.8V86.4737H463.6Z" fill="#E6A0B3"/>
<path d="M504.4 86.4737H494.2V96.6842H504.4H514.6V86.4737H504.4Z" fill="#E6A0B3"/>
<path d="M524.8 117.105V106.895H514.6V96.6842H504.4H494.2H484H473.8H463.6H453.4H443.2H433H422.8H412.6H402.4H392.2H382H371.8H361.6H351.4H341.2H331H320.8H310.6H300.4V106.895H290.2V117.105H280V127.316V137.526V147.737V157.947V168.158V178.368H290.2V188.579H300.4V198.789H310.6H320.8H331H341.2H351.4H361.6H371.8H382H392.2H402.4H412.6H422.8H433H443.2H453.4H463.6H473.8H484H494.2H504.4H514.6V188.579H524.8V178.368H535V168.158V157.947V147.737V137.526V127.316V117.105H524.8Z" fill="#D86A9E"/>
<path d="M290.2 178.368H280V188.579H290.2V178.368Z" fill="#9E3C79"/>
<path d="M300.4 188.579H290.2V198.789H300.4V188.579Z" fill="#9E3C79"/>
<path d="M524.8 188.579H514.6V198.789H524.8V188.579Z" fill="#9E3C79"/>
<path d="M535 178.368H524.8V188.579H535V178.368Z" fill="#9E3C79"/>
<path d="M504.4 198.789H494.2H484H473.8H463.6H453.4H443.2H433H422.8H412.6H402.4H392.2H382H371.8H361.6H351.4H341.2H331H320.8H310.6H300.4V209H310.6H320.8H331H341.2H351.4H361.6H371.8H382H392.2H402.4H412.6H422.8H433H443.2H453.4H463.6H473.8H484H494.2H504.4H514.6V198.789H504.4Z" fill="#9E3C79"/>
<path d="M382 117.105H371.8V127.316H382H392.2V117.105H382Z" fill="#EFCDCD"/>
<path d="M361.6 127.316V137.526V147.737V157.947V168.158H371.8V157.947V147.737V137.526V127.316H361.6Z" fill="#EFCDCD"/>
<path d="M392.2 127.316V137.526V147.737V157.947V168.158H402.4V157.947V147.737V137.526V127.316H392.2Z" fill="#EFCDCD"/>
<path d="M382 168.158H371.8V178.368H382H392.2V168.158H382Z" fill="#EFCDCD"/>
<path d="M433 117.105H422.8V127.316H433H443.2V117.105H433Z" fill="#EFCDCD"/>
<path d="M443.2 127.316V137.526V147.737H433H422.8V137.526V127.316H412.6V137.526V147.737V157.947V168.158V178.368H422.8V168.158V157.947H433H443.2V168.158V178.368H453.4V168.158V157.947V147.737V137.526V127.316H443.2Z" fill="#EFCDCD"/>
<path d="M494.2 127.316V137.526V147.737H504.4V137.526V127.316H494.2Z" fill="#EFCDCD"/>
<path d="M473.8 127.316H484H494.2V117.105H484H473.8H463.6V127.316V137.526V147.737V157.947V168.158V178.368H473.8V168.158V157.947H484H494.2V147.737H484H473.8V137.526V127.316Z" fill="#EFCDCD"/>
<path d="M351.4 127.316H341.2V137.526H351.4V127.316Z" fill="#EFCDCD"/>
<path d="M331 117.105H320.8V127.316H331H341.2V117.105H331Z" fill="#EFCDCD"/>
<path d="M320.8 127.316H310.6V137.526H320.8V127.316Z" fill="#EFCDCD"/>
<path d="M331 137.526H320.8V147.737H331V137.526Z" fill="#EFCDCD"/>
<path d="M341.2 147.737H331V157.947H341.2V147.737Z" fill="#EFCDCD"/>
<path d="M351.4 157.947H341.2V168.158H351.4V157.947Z" fill="#EFCDCD"/>
<path d="M320.8 168.158V178.368H331H341.2V168.158H331H320.8Z" fill="#EFCDCD"/>
<path d="M320.8 157.947H310.6V168.158H320.8V157.947Z" fill="#EFCDCD"/>
</g>
<defs>
<clipPath id="clip0_7_9628">
<rect width="255" height="194" fill="white" transform="translate(0 15)"/>
</clipPath>
<clipPath id="clip1_7_9628">
<rect width="255" height="194" fill="white" transform="translate(280 15)"/>
</clipPath>
</defs>
</svg>
