<svg width="522" height="260" viewBox="0 0 522 260" fill="none" xmlns="http://www.w3.org/2000/svg">
<path d="M0 103.894V260L43.5 226L84 260L116.5 226L121.313 10C42.2718 10 7.50388 80.929 0 103.894Z" fill="#FF0000"/>
<path d="M242 103.894V260L196.5 226L151.5 260L116.5 226L120.687 10C199.728 10 234.496 80.929 242 103.894Z" fill="#FF0000"/>
<path d="M86.5 80H62C54.268 80 48 73.732 48 66V42.9926C48 38.3116 50.3394 33.9404 54.2342 31.3439L67.0079 22.8281C71.8237 19.6175 78.1187 19.7014 82.8473 23.0392L94.5736 31.3166C98.2899 33.9399 100.5 38.2053 100.5 42.7542V66C100.5 73.732 94.232 80 86.5 80Z" fill="#E0DDFF"/>
<circle cx="72.5" cy="36.5" r="15.5" fill="#040EF0"/>
<circle cx="78" cy="33" r="6" fill="white"/>
<line x1="79.4981" y1="17.4274" x2="103.498" y2="40.9274" stroke="black" stroke-width="10"/>
<path d="M152 80H176.5C184.232 80 190.5 73.732 190.5 66V42.9926C190.5 38.3116 188.161 33.9404 184.266 31.3439L171.492 22.8281C166.676 19.6175 160.381 19.7014 155.653 23.0392L143.926 31.3166C140.21 33.9399 138 38.2053 138 42.7542V66C138 73.732 144.268 80 152 80Z" fill="#E0DDFF"/>
<circle cx="15.5" cy="15.5" r="15.5" transform="matrix(-1 0 0 1 181.5 21)" fill="#040EF0"/>
<circle cx="6" cy="6" r="6" transform="matrix(-1 0 0 1 166.5 27)" fill="white"/>
<line y1="-5" x2="33.5894" y2="-5" transform="matrix(-0.71451 0.699625 0.699625 0.71451 162.5 21)" stroke="black" stroke-width="10"/>
<path d="M280 103.894V260L323.5 226L349 260L396.5 226L401.313 10C322.272 10 287.504 80.929 280 103.894Z" fill="#FF0000"/>
<path d="M522 103.894V260L476.5 226L454 260L396.5 226L400.687 10C479.728 10 514.496 80.929 522 103.894Z" fill="#FF0000"/>
<path d="M366.5 80H342C334.268 80 328 73.732 328 66V42.9926C328 38.3116 330.339 33.9404 334.234 31.3439L347.008 22.8281C351.824 19.6175 358.119 19.7014 362.847 23.0392L374.574 31.3166C378.29 33.9399 380.5 38.2053 380.5 42.7542V66C380.5 73.732 374.232 80 366.5 80Z" fill="#E0DDFF"/>
<circle cx="352.5" cy="36.5" r="15.5" fill="#040EF0"/>
<circle cx="358" cy="33" r="6" fill="white"/>
<line x1="359.498" y1="17.4274" x2="383.498" y2="40.9274" stroke="black" stroke-width="10"/>
<path d="M432 80H456.5C464.232 80 470.5 73.732 470.5 66V42.9926C470.5 38.3116 468.161 33.9404 464.266 31.3439L451.492 22.8281C446.676 19.6175 440.381 19.7014 435.653 23.0392L423.926 31.3166C420.21 33.9399 418 38.2053 418 42.7542V66C418 73.732 424.268 80 432 80Z" fill="#E0DDFF"/>
<circle cx="15.5" cy="15.5" r="15.5" transform="matrix(-1 0 0 1 461.5 21)" fill="#040EF0"/>
<circle cx="6" cy="6" r="6" transform="matrix(-1 0 0 1 446.5 27)" fill="white"/>
<line y1="-5" x2="33.5894" y2="-5" transform="matrix(-0.71451 0.699625 0.699625 0.71451 442.5 21)" stroke="black" stroke-width="10"/>
</svg>
