<svg width="522" height="260" viewBox="0 0 522 260" fill="none" xmlns="http://www.w3.org/2000/svg">
<path d="M0 103.894V260L43.5 226L84 260L116.5 226L121.313 10C42.2718 10 7.50388 80.929 0 103.894Z" fill="#FF0000"/>
<path d="M242 103.894V260L196.5 226L151.5 260L116.5 226L120.687 10C199.728 10 234.496 80.929 242 103.894Z" fill="#FF0000"/>
<path d="M93 135H117.5C125.232 135 131.5 128.732 131.5 121V92.9039C131.5 91.3129 131.229 89.7336 130.698 88.2338L126.537 76.4748C123.333 67.4195 112.17 64.2069 104.642 70.1737L84.3033 86.2962C80.9532 88.9517 79 92.9924 79 97.2674V121C79 128.732 85.268 135 93 135Z" fill="#E0DDFF"/>
<circle cx="15.5" cy="15.5" r="15.5" transform="matrix(-1 0 0 1 128.5 93)" fill="#040EF0"/>
<circle cx="6" cy="6" r="6" transform="matrix(-1 0 0 1 113.5 99)" fill="white"/>
<line y1="-5" x2="55" y2="-5" transform="matrix(-0.8 0.6 0.6 0.8 123.5 66.5)" stroke="black" stroke-width="10"/>
<path d="M183 135H207.5C215.232 135 221.5 128.732 221.5 121V92.9039C221.5 91.3129 221.229 89.7336 220.698 88.2338L216.537 76.4748C213.333 67.4195 202.17 64.2069 194.642 70.1737L174.303 86.2962C170.953 88.9517 169 92.9924 169 97.2674V121C169 128.732 175.268 135 183 135Z" fill="#E0DDFF"/>
<circle cx="15.5" cy="15.5" r="15.5" transform="matrix(-1 0 0 1 218.5 93)" fill="#040EF0"/>
<circle cx="6" cy="6" r="6" transform="matrix(-1 0 0 1 203.5 99)" fill="white"/>
<line y1="-5" x2="55" y2="-5" transform="matrix(-0.8 0.6 0.6 0.8 213.5 66.5)" stroke="black" stroke-width="10"/>
<path d="M280 103.894V260L323.5 226L349 260L396.5 226L401.313 10C322.272 10 287.504 80.929 280 103.894Z" fill="#FF0000"/>
<path d="M522 103.894V260L476.5 226L454 260L396.5 226L400.687 10C479.728 10 514.496 80.929 522 103.894Z" fill="#FF0000"/>
<path d="M373 135H397.5C405.232 135 411.5 128.732 411.5 121V92.9039C411.5 91.3129 411.229 89.7336 410.698 88.2338L406.537 76.4748C403.333 67.4195 392.17 64.2069 384.642 70.1737L364.303 86.2962C360.953 88.9517 359 92.9924 359 97.2674V121C359 128.732 365.268 135 373 135Z" fill="#E0DDFF"/>
<circle cx="15.5" cy="15.5" r="15.5" transform="matrix(-1 0 0 1 408.5 93)" fill="#040EF0"/>
<circle cx="6" cy="6" r="6" transform="matrix(-1 0 0 1 393.5 99)" fill="white"/>
<line y1="-5" x2="55" y2="-5" transform="matrix(-0.8 0.6 0.6 0.8 403.5 66.5)" stroke="black" stroke-width="10"/>
<path d="M463 135H487.5C495.232 135 501.5 128.732 501.5 121V92.9039C501.5 91.3129 501.229 89.7336 500.698 88.2338L496.537 76.4748C493.333 67.4195 482.17 64.2069 474.642 70.1737L454.303 86.2962C450.953 88.9517 449 92.9924 449 97.2674V121C449 128.732 455.268 135 463 135Z" fill="#E0DDFF"/>
<circle cx="15.5" cy="15.5" r="15.5" transform="matrix(-1 0 0 1 498.5 93)" fill="#040EF0"/>
<circle cx="6" cy="6" r="6" transform="matrix(-1 0 0 1 483.5 99)" fill="white"/>
<line y1="-5" x2="55" y2="-5" transform="matrix(-0.8 0.6 0.6 0.8 493.5 66.5)" stroke="black" stroke-width="10"/>
</svg>
