<svg width="530" height="272" viewBox="0 0 530 272" fill="none" xmlns="http://www.w3.org/2000/svg">
<g clip-path="url(#clip0_7_9626)">
<path d="M245.61 99.14C248.603 117.958 238.212 148.627 237.5 178.5C236.754 209.807 245.61 240.241 245.61 255.25C233.2 261.3 206.79 230.97 206.79 230.97C189.74 210.76 170.47 236.45 161.61 263.25C157.55 275.5 137.19 219.6 124.29 219.6C111.39 219.6 91.03 275.5 86.98 263.25C78.12 236.45 58.85 210.76 41.8 230.97C41.8 230.97 15.39 261.3 2.98002 255.25C2.98002 237.926 8.48852 214.548 8.00011 178.5C7.66165 153.519 0.466726 114.916 2.98002 99.14C6.78002 75.28 45.25 5.25 124.29 5.25C203.33 5.25 241.81 75.28 245.61 99.14Z" fill="#FF0000"/>
</g>
<path d="M96 135H120.5C128.232 135 134.5 128.732 134.5 121V92.9039C134.5 91.3129 134.229 89.7336 133.698 88.2338L129.537 76.4748C126.333 67.4195 115.17 64.2069 107.642 70.1737L87.3033 86.2962C83.9532 88.9517 82 92.9924 82 97.2674V121C82 128.732 88.268 135 96 135Z" fill="#E0DDFF"/>
<circle cx="15.5" cy="15.5" r="15.5" transform="matrix(-1 0 0 1 131.5 93)" fill="#040EF0"/>
<circle cx="6" cy="6" r="6" transform="matrix(-1 0 0 1 116.5 99)" fill="white"/>
<line y1="-5" x2="55" y2="-5" transform="matrix(-0.8 0.6 0.6 0.8 126.5 66.5)" stroke="black" stroke-width="10"/>
<path d="M186 135H210.5C218.232 135 224.5 128.732 224.5 121V92.9039C224.5 91.3129 224.229 89.7336 223.698 88.2338L219.537 76.4748C216.333 67.4195 205.17 64.2069 197.642 70.1737L177.303 86.2962C173.953 88.9517 172 92.9924 172 97.2674V121C172 128.732 178.268 135 186 135Z" fill="#E0DDFF"/>
<circle cx="15.5" cy="15.5" r="15.5" transform="matrix(-1 0 0 1 221.5 93)" fill="#040EF0"/>
<circle cx="6" cy="6" r="6" transform="matrix(-1 0 0 1 206.5 99)" fill="white"/>
<line y1="-5" x2="55" y2="-5" transform="matrix(-0.8 0.6 0.6 0.8 216.5 66.5)" stroke="black" stroke-width="10"/>
<path d="M528.61 104.14C531.553 122.644 520.674 162.104 520 191.5C519.271 223.331 528.61 245.002 528.61 260.25C516.2 266.3 489.79 235.97 489.79 235.97C472.74 215.76 466.36 243.2 457.5 270C453.44 282.25 420.19 224.6 407.29 224.6C394.39 224.6 384.55 282.25 380.5 270C371.64 243.2 341.85 215.76 324.8 235.97C324.8 235.97 298.39 266.3 285.98 260.25C285.98 244.842 293.219 201.677 292.5 169.5C291.851 140.426 283.065 122.434 285.98 104.14C289.78 80.28 328.25 10.25 407.29 10.25C486.33 10.25 524.81 80.28 528.61 104.14Z" fill="#FF0000"/>
<path d="M376 135H400.5C408.232 135 414.5 128.732 414.5 121V92.9039C414.5 91.3129 414.229 89.7336 413.698 88.2338L409.537 76.4748C406.333 67.4195 395.17 64.2069 387.642 70.1737L367.303 86.2962C363.953 88.9517 362 92.9924 362 97.2674V121C362 128.732 368.268 135 376 135Z" fill="#E0DDFF"/>
<circle cx="15.5" cy="15.5" r="15.5" transform="matrix(-1 0 0 1 411.5 93)" fill="#040EF0"/>
<circle cx="6" cy="6" r="6" transform="matrix(-1 0 0 1 396.5 99)" fill="white"/>
<line y1="-5" x2="55" y2="-5" transform="matrix(-0.8 0.6 0.6 0.8 406.5 66.5)" stroke="black" stroke-width="10"/>
<path d="M466 135H490.5C498.232 135 504.5 128.732 504.5 121V92.9039C504.5 91.3129 504.229 89.7336 503.698 88.2338L499.537 76.4748C496.333 67.4195 485.17 64.2069 477.642 70.1737L457.303 86.2962C453.953 88.9517 452 92.9924 452 97.2674V121C452 128.732 458.268 135 466 135Z" fill="#E0DDFF"/>
<circle cx="15.5" cy="15.5" r="15.5" transform="matrix(-1 0 0 1 501.5 93)" fill="#040EF0"/>
<circle cx="6" cy="6" r="6" transform="matrix(-1 0 0 1 486.5 99)" fill="white"/>
<line y1="-5" x2="55" y2="-5" transform="matrix(-0.8 0.6 0.6 0.8 496.5 66.5)" stroke="black" stroke-width="10"/>
<defs>
<clipPath id="clip0_7_9626">
<rect width="248.58" height="260.25" fill="white" transform="translate(0 5)"/>
</clipPath>
</defs>
</svg>
