<svg width="535" height="260" viewBox="0 0 535 260" fill="none" xmlns="http://www.w3.org/2000/svg">
<g clip-path="url(#clip0_12_4633)">
<path d="M226.667 41.4546H198.333V50.2728V59.091H226.667H255V50.2728V41.4546H226.667Z" fill="#C0CBDA"/>
<path d="M226.667 59.0908H198.333V67.909V76.7272V85.5454V94.3635V103.182V112V120.818V129.636V138.454V147.273V156.091V164.909H226.667H255V156.091V147.273V138.454V129.636V120.818V112V103.182V94.3635V85.5454V76.7272V67.909V59.0908H226.667Z" fill="#FCE660"/>
<path d="M170 182.545H113.333H85H56.6667V191.364H85V200.182H113.333V209H141.667V200.182H170V191.364H198.333V182.545H170Z" fill="#5C6A88"/>
<path d="M28.3333 15V23.8182H0V32.6364V41.4545H28.3333H85V32.6364V23.8182V15H28.3333Z" fill="#E44046"/>
<path d="M28.3333 41.4546H0V50.2728V59.091H28.3333H85V50.2728V41.4546H28.3333Z" fill="#5C6A88"/>
<path d="M28.3333 59.0908H0V67.909V76.7272V85.5454V94.3635V103.182V112V120.818V129.636V138.454V147.273V156.091V164.909H28.3333H85V156.091V147.273V138.454V129.636V120.818V112V103.182V94.3635V85.5454V76.7272V67.909V59.0908H28.3333Z" fill="#F37724"/>
<path d="M28.3333 164.909H0V173.727H28.3333V182.546H85V173.727V164.909H28.3333Z" fill="#8B5F3D"/>
<path d="M85 182.545H56.6667V191.364H85V182.545Z" fill="#3A445A"/>
<path d="M170 59.0908H113.333H85V164.909H113.333H170H198.333V156.091V147.273V138.454V129.636V120.818V112V103.182V94.3635V85.5454V76.7272V67.909V59.0908H170Z" fill="#FAAD35"/>
<path d="M226.667 164.909H198.333H170H113.333H85V182.546H113.333H170H198.333H226.667V173.727H255V164.909H226.667Z" fill="#C08369"/>
<path d="M170 41.4546H113.333H85V59.091H113.333H170H198.333V50.2728V41.4546H170Z" fill="#8B9AB4"/>
<path d="M226.667 23.8182V15H198.333H170H113.333H85V41.4545H113.333H170H198.333H226.667H255V32.6364V23.8182H226.667Z" fill="#F2747A"/>
</g>
<g clip-path="url(#clip1_12_4633)">
<path d="M506.667 41.4546H478.333V50.2728V59.091H506.667H535V50.2728V41.4546H506.667Z" fill="#C0CBDA"/>
<path d="M506.667 59.0908H478.333V67.909V76.7272V85.5454V94.3635V103.182V112V120.818V129.636V138.454V147.273V156.091V164.909H506.667H535V156.091V147.273V138.454V129.636V120.818V112V103.182V94.3635V85.5454V76.7272V67.909V59.0908H506.667Z" fill="#FCE660"/>
<path d="M450 182.545H393.333H365H336.667V191.364H365V200.182H393.333V209H421.667V200.182H450V191.364H478.333V182.545H450Z" fill="#5C6A88"/>
<path d="M308.333 15V23.8182H280V32.6364V41.4545H308.333H365V32.6364V23.8182V15H308.333Z" fill="#E44046"/>
<path d="M308.333 41.4546H280V50.2728V59.091H308.333H365V50.2728V41.4546H308.333Z" fill="#5C6A88"/>
<path d="M308.333 59.0908H280V67.909V76.7272V85.5454V94.3635V103.182V112V120.818V129.636V138.454V147.273V156.091V164.909H308.333H365V156.091V147.273V138.454V129.636V120.818V112V103.182V94.3635V85.5454V76.7272V67.909V59.0908H308.333Z" fill="#F37724"/>
<path d="M308.333 164.909H280V173.727H308.333V182.546H365V173.727V164.909H308.333Z" fill="#8B5F3D"/>
<path d="M365 182.545H336.667V191.364H365V182.545Z" fill="#3A445A"/>
<path d="M450 59.0908H393.333H365V164.909H393.333H450H478.333V156.091V147.273V138.454V129.636V120.818V112V103.182V94.3635V85.5454V76.7272V67.909V59.0908H450Z" fill="#FAAD35"/>
<path d="M506.667 164.909H478.333H450H393.333H365V182.546H393.333H450H478.333H506.667V173.727H535V164.909H506.667Z" fill="#C08369"/>
<path d="M450 41.4546H393.333H365V59.091H393.333H450H478.333V50.2728V41.4546H450Z" fill="#8B9AB4"/>
<path d="M506.667 23.8182V15H478.333H450H393.333H365V41.4545H393.333H450H478.333H506.667H535V32.6364V23.8182H506.667Z" fill="#F2747A"/>
</g>
<defs>
<clipPath id="clip0_12_4633">
<rect width="255" height="194" fill="white" transform="translate(0 15)"/>
</clipPath>
<clipPath id="clip1_12_4633">
<rect width="255" height="194" fill="white" transform="translate(280 15)"/>
</clipPath>
</defs>
</svg>
